<svg width="80" height="80" viewBox="0 0 80 80" fill="none" xmlns="http://www.w3.org/2000/svg">
<path d="M40 80C62.0914 80 80 62.0914 80 40C80 17.9086 62.0914 0 40 0C17.9086 0 0 17.9086 0 40C0 62.0914 17.9086 80 40 80Z" fill="#EC1E24"/>
<path d="M58.9275 48.8329C60.694 50.5995 60.694 53.6279 58.9275 55.3945L55.3944 58.9276C53.6278 60.6941 50.5994 60.6941 48.8329 58.9276L21.0726 31.1673C19.306 29.4008 19.306 26.3724 21.0726 24.6058L24.7319 20.9465C26.4985 19.1799 29.5269 19.1799 31.2934 20.9465L58.9275 48.8329Z" fill="white"/>
<path d="M44.2903 34.0693L34.0695 44.2902L48.8329 58.9274C50.5994 60.6939 53.6278 60.6939 55.3944 58.9274L59.0537 55.2681C60.8202 53.5015 60.8202 50.4731 59.0537 48.7066L44.2903 34.0693Z" fill="#D6D6D6"/>
<path d="M48.8329 21.0725C50.5994 19.3059 53.6278 19.3059 55.3944 21.0725L59.0537 24.7318C60.8202 26.4983 60.8202 29.5267 59.0537 31.2933L31.1672 58.9274C29.4007 60.6939 26.3723 60.6939 24.6057 58.9274L21.0726 55.3942C19.306 53.6277 19.306 50.5993 21.0726 48.8327L48.8329 21.0725Z" fill="white"/>
</svg>
