<svg width="80" height="80" viewBox="0 0 80 80" fill="none" xmlns="http://www.w3.org/2000/svg">
<path d="M40 80C62.0914 80 80 62.0914 80 40C80 17.9086 62.0914 0 40 0C17.9086 0 0 17.9086 0 40C0 62.0914 17.9086 80 40 80Z" fill="#0E9549"/>
<path d="M41.0095 48.9593C42.7761 50.7258 42.7761 53.7542 41.0095 55.5208L37.3502 59.1801C35.5837 60.9467 32.5553 60.9467 30.7887 59.1801L14.7635 43.0287C12.9969 41.2621 12.9969 38.2337 14.7635 36.4671L18.4228 32.8078C20.1893 31.0413 23.2177 31.0413 24.9843 32.8078L41.0095 48.9593Z" fill="white"/>
<path d="M55.0159 21.0725C56.7825 19.3059 59.8108 19.3059 61.5774 21.0725L65.2367 24.7318C67.0033 26.4983 67.0033 29.5267 65.2367 31.2933L37.4765 58.9274C35.7099 60.6939 32.6815 60.6939 30.915 58.9274L27.2556 55.2681C25.4891 53.5015 25.4891 50.4731 27.2556 48.7065L55.0159 21.0725Z" fill="white"/>
</svg>
