<svg width="19" height="15" viewBox="0 0 19 15" fill="none" xmlns="http://www.w3.org/2000/svg">
<path d="M6.5625 7.5C8.63379 7.5 10.3125 5.82129 10.3125 3.75C10.3125 1.67871 8.63379 0 6.5625 0C4.49121 0 2.8125 1.67871 2.8125 3.75C2.8125 5.82129 4.49121 7.5 6.5625 7.5ZM9.1875 8.4375H8.69824C8.04785 8.73633 7.32422 8.90625 6.5625 8.90625C5.80078 8.90625 5.08008 8.73633 4.42676 8.4375H3.9375C1.76367 8.4375 0 10.2012 0 12.375V13.5938C0 14.3701 0.629883 15 1.40625 15H9.45996C9.38965 14.8008 9.36035 14.5898 9.38379 14.376L9.58301 12.5918L9.61816 12.2666L9.84961 12.0352L12.1143 9.77051C11.3965 8.95898 10.3564 8.4375 9.1875 8.4375ZM10.5146 12.6943L10.3154 14.4814C10.2832 14.7803 10.5352 15.0322 10.8311 14.9971L12.6152 14.7979L16.6553 10.7578L14.5547 8.65723L10.5146 12.6943ZM18.5449 7.87793L17.4346 6.76758C17.1621 6.49512 16.7168 6.49512 16.4443 6.76758L15.3369 7.875L15.2168 7.99512L17.3203 10.0957L18.5449 8.87109C18.8174 8.5957 18.8174 8.15332 18.5449 7.87793Z" fill="#26A05B"/>
</svg>
