<svg width="38" height="38" viewBox="0 0 38 38" fill="none" xmlns="http://www.w3.org/2000/svg">
<rect x="0.5" y="0.5" width="37" height="37" rx="18.5" fill="white"/>
<path d="M19 1C9.064 1 1 9.064 1 19C1 28.936 9.064 37 19 37C28.936 37 37 28.936 37 19C37 9.064 28.936 1 19 1ZM19 6.4C21.988 6.4 24.4 8.812 24.4 11.8C24.4 14.788 21.988 17.2 19 17.2C16.012 17.2 13.6 14.788 13.6 11.8C13.6 8.812 16.012 6.4 19 6.4ZM19 31.96C14.5 31.96 10.522 29.656 8.2 26.164C8.254 22.582 15.4 20.62 19 20.62C22.582 20.62 29.746 22.582 29.8 26.164C27.478 29.656 23.5 31.96 19 31.96Z" fill="#0E9549"/>
<rect x="0.5" y="0.5" width="37" height="37" rx="18.5" stroke="white"/>
</svg>
