<svg width="256" height="296" viewBox="0 0 256 296" fill="none" xmlns="http://www.w3.org/2000/svg">
<rect x="0.5" y="0.669922" width="255" height="295" rx="8" fill="#F5F5F5"/>
<path d="M189.586 80.7959H66.414C63.4239 80.7959 60.9999 83.0303 60.9999 85.7866V210.554C60.9999 213.31 63.4239 215.545 66.414 215.545H189.586C192.576 215.545 195 213.31 195 210.554V85.7866C195 83.0303 192.576 80.7959 189.586 80.7959Z" fill="#F5F5F5"/>
<path fill-rule="evenodd" clip-rule="evenodd" d="M148.155 133.049C148.155 143.355 139.191 151.619 128.002 151.619C116.817 151.619 107.849 143.355 107.849 133.049C107.849 122.743 116.817 114.482 128.002 114.482C139.191 114.482 148.155 122.743 148.155 133.049ZM128.003 184.665C111.49 184.665 97.5482 182.191 97.5482 172.647C97.5482 163.098 111.578 160.712 128.003 160.712C144.519 160.712 158.457 163.186 158.457 172.731C158.457 182.279 144.428 184.665 128.003 184.665Z" fill="#77C197"/>
</svg>
