<svg width="22" height="25" viewBox="0 0 22 25" fill="none" xmlns="http://www.w3.org/2000/svg">
<path d="M10.9993 25C12.7338 25 14.1407 23.6011 14.1407 21.875H7.85797C7.85797 23.6011 9.26489 25 10.9993 25ZM21.5765 17.6899C20.6278 16.6763 18.8526 15.1514 18.8526 10.1562C18.8526 6.3623 16.1772 3.3252 12.5698 2.58008V1.5625C12.5698 0.699707 11.8666 0 10.9993 0C10.1321 0 9.4289 0.699707 9.4289 1.5625V2.58008C5.8215 3.3252 3.14614 6.3623 3.14614 10.1562C3.14614 15.1514 1.37092 16.6763 0.422175 17.6899C0.127532 18.0049 -0.00309279 18.3813 -0.000637435 18.75C0.00476434 19.5508 0.636772 20.3125 1.5757 20.3125H20.423C21.3619 20.3125 21.9944 19.5508 21.9993 18.75C22.0018 18.3813 21.8712 18.0044 21.5765 17.6899Z" fill="white"/>
</svg>
