<svg width="40" height="40" viewBox="0 0 40 40" fill="none" xmlns="http://www.w3.org/2000/svg">
<rect opacity="0.2" width="40" height="40" rx="10" fill="#E2B1DF"/>
<g clip-path="url(#clip0_126:20)">
<path d="M25.3247 13.3156C25.3334 13.3163 25.3421 13.3169 25.351 13.3169C25.366 13.3169 25.381 13.3156 25.3957 13.3136C25.7895 13.3216 26.1047 13.6428 26.1052 14.0366C26.1052 14.2156 26.2503 14.3607 26.4292 14.3607C26.6082 14.3607 26.7532 14.2156 26.7532 14.0366C26.7525 13.3925 26.3041 12.8353 25.675 12.6967V12.3853C25.675 12.2064 25.5299 12.0613 25.351 12.0613C25.172 12.0613 25.0269 12.2064 25.0269 12.3853V12.7114C24.3618 12.8892 23.9314 13.5327 24.0211 14.2154C24.1108 14.8981 24.6928 15.4085 25.3813 15.4085C25.7812 15.4085 26.1052 15.7327 26.1052 16.1326C26.1052 16.5322 25.7812 16.8564 25.3813 16.8564C24.9815 16.8564 24.6575 16.5322 24.6575 16.1326C24.6575 15.9536 24.5124 15.8085 24.3335 15.8085C24.1545 15.8085 24.0094 15.9536 24.0094 16.1326C24.0102 16.7534 24.4273 17.2966 25.0269 17.4578V17.8128C25.0269 17.9918 25.172 18.1369 25.351 18.1369C25.5299 18.1369 25.675 17.9918 25.675 17.8128V17.4727C26.3593 17.3228 26.8208 16.6814 26.7453 15.9849C26.67 15.2885 26.0819 14.7606 25.3813 14.7608C24.9926 14.761 24.6732 14.454 24.6578 14.0656C24.6426 13.6772 24.9371 13.346 25.3247 13.3158V13.3156Z" fill="#7D4D7D"/>
<path d="M25.3999 10.4771C23.4065 10.4771 21.7053 11.7778 21.068 13.5194H13.0256C12.8475 13.5194 12.7028 13.68 12.7016 13.858L12.625 25.225H10.3326C10.1536 25.225 10 25.3546 10 25.5339V26.9764C10.0041 28.3344 11.0737 29.45 12.4302 29.5113V29.5185H22.4347V29.509C22.5157 29.512 22.5491 29.5185 22.6004 29.5185H22.6073C24.0114 29.5162 25.1485 28.3774 25.1485 26.9734V19.6801C25.2295 19.6846 25.3152 19.6869 25.3991 19.6869C27.9358 19.6869 30.0001 17.6187 30.0001 15.0818C30.0001 12.5451 27.9368 10.4771 25.3999 10.4771ZM12.5535 28.8704H12.5514C11.5032 28.869 10.6528 28.0214 10.6481 26.973V25.8731H20.045V26.9685C20.0454 27.6447 20.3155 28.2929 20.7952 28.7696C20.8293 28.8036 20.8715 28.8299 20.9071 28.8704H12.5535ZM24.5004 26.973C24.5006 28.0195 23.6533 28.8683 22.607 28.8704H22.6008C21.5503 28.8685 20.6983 28.0192 20.693 26.9688V25.5339C20.6957 25.451 20.6641 25.3708 20.6054 25.3122C20.5467 25.2537 20.4665 25.2222 20.3837 25.225H13.2731L13.3474 14.1675H20.8881C20.8307 14.4642 20.8009 14.7654 20.7994 15.0674C20.7987 15.7062 20.9319 16.3378 21.1905 16.9218H18.1299C17.9508 16.9218 17.8059 17.0668 17.8059 17.2458C17.8059 17.4247 17.9508 17.5698 18.1299 17.5698H21.542C22.2105 18.621 23.2791 19.3539 24.5004 19.5991V26.973ZM25.3999 19.039C23.2171 19.039 21.4474 17.2695 21.4476 15.0866C21.4476 12.9036 23.2171 11.1341 25.4 11.1341C27.5828 11.1341 29.3523 12.9038 29.3523 15.0866C29.35 17.2684 27.5819 19.0367 25.3999 19.039Z" fill="#7D4D7D"/>
<path d="M16.0499 19.0784C15.478 19.0784 15.0128 19.5288 15.0128 20.0826C15.0128 20.6364 15.478 21.0868 16.0499 21.0868C16.6219 21.0868 17.0872 20.6364 17.0872 20.0826C17.0872 19.5288 16.6219 19.0784 16.0499 19.0784ZM16.0499 20.4387C15.8352 20.4387 15.6609 20.2789 15.6609 20.0826C15.6609 19.8861 15.8354 19.7264 16.0499 19.7264C16.2645 19.7264 16.4392 19.8862 16.4392 20.0826C16.4392 20.2789 16.2645 20.4387 16.0499 20.4387Z" fill="#7D4D7D"/>
<path d="M17.8059 20.0811C17.8059 20.2601 17.9508 20.4052 18.1299 20.4052H22.4499C22.6288 20.4052 22.7739 20.2601 22.7739 20.0811C22.7739 19.9022 22.6288 19.7571 22.4499 19.7571H18.1299C17.9508 19.7571 17.8059 19.9022 17.8059 20.0811Z" fill="#7D4D7D"/>
<path d="M16.0499 16.2617C15.478 16.2617 15.0128 16.7123 15.0128 17.2661C15.0128 17.8199 15.478 18.2703 16.0499 18.2703C16.6219 18.2703 17.0872 17.8199 17.0872 17.2661C17.0872 16.7123 16.6219 16.2617 16.0499 16.2617ZM16.0499 17.6222C15.8352 17.6222 15.6609 17.4624 15.6609 17.2661C15.6609 17.0697 15.8354 16.9098 16.0499 16.9098C16.2645 16.9098 16.4392 17.0696 16.4392 17.2661C16.4392 17.4624 16.2645 17.6224 16.0499 17.6224V17.6222Z" fill="#7D4D7D"/>
<path d="M16.0499 21.8948C15.478 21.8948 15.0128 22.3452 15.0128 22.899C15.0128 23.4527 15.478 23.9032 16.0499 23.9032C16.6219 23.9032 17.0872 23.4527 17.0872 22.899C17.0872 22.3452 16.6219 21.8948 16.0499 21.8948ZM16.0499 23.2551C15.8352 23.2551 15.6609 23.0955 15.6609 22.899C15.6609 22.7026 15.8354 22.5428 16.0499 22.5428C16.2645 22.5428 16.4392 22.7026 16.4392 22.899C16.4392 23.0953 16.2645 23.2551 16.0499 23.2551Z" fill="#7D4D7D"/>
<path d="M22.4499 22.5923H18.1299C17.9508 22.5923 17.8059 22.7374 17.8059 22.9163C17.8059 23.0953 17.9508 23.2403 18.1299 23.2403H22.4499C22.6288 23.2403 22.7739 23.0953 22.7739 22.9163C22.7739 22.7374 22.6288 22.5923 22.4499 22.5923Z" fill="#7D4D7D"/>
</g>
<defs>
<clipPath id="clip0_126:20">
<rect width="20" height="20" fill="white" transform="translate(10 10)"/>
</clipPath>
</defs>
</svg>
