<svg width="16" height="16" viewBox="0 0 16 16" fill="none" xmlns="http://www.w3.org/2000/svg">
<path fill-rule="evenodd" clip-rule="evenodd" d="M3.33337 3.33333C2.96518 3.33333 2.66671 3.63181 2.66671 4V13.3333C2.66671 13.7015 2.96518 14 3.33337 14H12.6667C13.0349 14 13.3334 13.7015 13.3334 13.3333V4C13.3334 3.63181 13.0349 3.33333 12.6667 3.33333H3.33337ZM1.33337 4C1.33337 2.89543 2.2288 2 3.33337 2H12.6667C13.7713 2 14.6667 2.89543 14.6667 4V13.3333C14.6667 14.4379 13.7713 15.3333 12.6667 15.3333H3.33337C2.2288 15.3333 1.33337 14.4379 1.33337 13.3333V4Z" fill="#676767"/>
<path fill-rule="evenodd" clip-rule="evenodd" d="M10.6667 0.666748C11.0349 0.666748 11.3333 0.965225 11.3333 1.33341V4.00008C11.3333 4.36827 11.0349 4.66675 10.6667 4.66675C10.2985 4.66675 10 4.36827 10 4.00008V1.33341C10 0.965225 10.2985 0.666748 10.6667 0.666748Z" fill="#676767"/>
<path fill-rule="evenodd" clip-rule="evenodd" d="M5.33329 0.666748C5.70148 0.666748 5.99996 0.965225 5.99996 1.33341V4.00008C5.99996 4.36827 5.70148 4.66675 5.33329 4.66675C4.9651 4.66675 4.66663 4.36827 4.66663 4.00008V1.33341C4.66663 0.965225 4.9651 0.666748 5.33329 0.666748Z" fill="#676767"/>
<path fill-rule="evenodd" clip-rule="evenodd" d="M1.33337 6.66667C1.33337 6.29848 1.63185 6 2.00004 6H14C14.3682 6 14.6667 6.29848 14.6667 6.66667C14.6667 7.03486 14.3682 7.33333 14 7.33333H2.00004C1.63185 7.33333 1.33337 7.03486 1.33337 6.66667Z" fill="#676767"/>
</svg>
