<svg width="250" height="76" viewBox="0 0 250 76" fill="none" xmlns="http://www.w3.org/2000/svg">
<g filter="url(#filter0_d_1670_18518)">
<rect x="8" y="2" width="234" height="60" rx="30" fill="url(#paint0_linear_1670_18518)" shape-rendering="crispEdges"/>
<path d="M59.1 19.8V45H53.268V34.668H41.82V45H35.988V19.8H41.82V29.736H53.268V19.8H59.1ZM73.8822 45.288C71.8422 45.288 70.0062 44.868 68.3742 44.028C66.7662 43.164 65.5062 41.976 64.5942 40.464C63.6822 38.952 63.2262 37.236 63.2262 35.316C63.2262 33.396 63.6822 31.68 64.5942 30.168C65.5062 28.656 66.7662 27.48 68.3742 26.64C70.0062 25.776 71.8422 25.344 73.8822 25.344C75.9222 25.344 77.7462 25.776 79.3542 26.64C80.9622 27.48 82.2222 28.656 83.1342 30.168C84.0462 31.68 84.5022 33.396 84.5022 35.316C84.5022 37.236 84.0462 38.952 83.1342 40.464C82.2222 41.976 80.9622 43.164 79.3542 44.028C77.7462 44.868 75.9222 45.288 73.8822 45.288ZM73.8822 40.68C75.3222 40.68 76.4982 40.2 77.4102 39.24C78.3462 38.256 78.8142 36.948 78.8142 35.316C78.8142 33.684 78.3462 32.388 77.4102 31.428C76.4982 30.444 75.3222 29.952 73.8822 29.952C72.4422 29.952 71.2542 30.444 70.3182 31.428C69.3822 32.388 68.9142 33.684 68.9142 35.316C68.9142 36.948 69.3822 38.256 70.3182 39.24C71.2542 40.2 72.4422 40.68 73.8822 40.68ZM95.7517 25.344C98.7517 25.344 101.056 26.064 102.664 27.504C104.272 28.92 105.076 31.068 105.076 33.948V45H99.8197V42.588C98.7637 44.388 96.7957 45.288 93.9157 45.288C92.4277 45.288 91.1317 45.036 90.0277 44.532C88.9477 44.028 88.1197 43.332 87.5437 42.444C86.9677 41.556 86.6797 40.548 86.6797 39.42C86.6797 37.62 87.3517 36.204 88.6957 35.172C90.0637 34.14 92.1637 33.624 94.9957 33.624H99.4597C99.4597 32.4 99.0877 31.464 98.3437 30.816C97.5997 30.144 96.4837 29.808 94.9957 29.808C93.9637 29.808 92.9437 29.976 91.9357 30.312C90.9517 30.624 90.1117 31.056 89.4157 31.608L87.3997 27.684C88.4557 26.94 89.7157 26.364 91.1797 25.956C92.6677 25.548 94.1917 25.344 95.7517 25.344ZM95.3197 41.508C96.2797 41.508 97.1317 41.292 97.8757 40.86C98.6197 40.404 99.1477 39.744 99.4597 38.88V36.9H95.6077C93.3037 36.9 92.1517 37.656 92.1517 39.168C92.1517 39.888 92.4277 40.464 92.9797 40.896C93.5557 41.304 94.3357 41.508 95.3197 41.508ZM132.126 25.344C134.526 25.344 136.458 26.064 137.922 27.504C139.41 28.944 140.154 31.08 140.154 33.912V45H134.538V34.776C134.538 33.24 134.202 32.1 133.53 31.356C132.858 30.588 131.886 30.204 130.614 30.204C129.198 30.204 128.07 30.648 127.23 31.536C126.39 32.4 125.97 33.696 125.97 35.424V45H120.354V18.288H125.97V27.648C126.714 26.904 127.614 26.34 128.67 25.956C129.726 25.548 130.878 25.344 132.126 25.344ZM154.671 45.288C152.631 45.288 150.795 44.868 149.163 44.028C147.555 43.164 146.295 41.976 145.383 40.464C144.471 38.952 144.015 37.236 144.015 35.316C144.015 33.396 144.471 31.68 145.383 30.168C146.295 28.656 147.555 27.48 149.163 26.64C150.795 25.776 152.631 25.344 154.671 25.344C156.711 25.344 158.535 25.776 160.143 26.64C161.751 27.48 163.011 28.656 163.923 30.168C164.835 31.68 165.291 33.396 165.291 35.316C165.291 37.236 164.835 38.952 163.923 40.464C163.011 41.976 161.751 43.164 160.143 44.028C158.535 44.868 156.711 45.288 154.671 45.288ZM154.671 40.68C156.111 40.68 157.287 40.2 158.199 39.24C159.135 38.256 159.603 36.948 159.603 35.316C159.603 33.684 159.135 32.388 158.199 31.428C157.287 30.444 156.111 29.952 154.671 29.952C153.231 29.952 152.043 30.444 151.107 31.428C150.171 32.388 149.703 33.684 149.703 35.316C149.703 36.948 150.171 38.256 151.107 39.24C152.043 40.2 153.231 40.68 154.671 40.68ZM157.695 23.148L154.599 21.096L151.503 23.148H147.363L152.151 19.044H157.047L161.835 23.148H157.695ZM155.427 15.336H161.151L165.111 19.692H161.079L155.427 15.336ZM180.817 25.344C183.217 25.344 185.149 26.064 186.613 27.504C188.101 28.944 188.845 31.08 188.845 33.912V45H183.229V34.776C183.229 33.24 182.893 32.1 182.221 31.356C181.549 30.588 180.577 30.204 179.305 30.204C177.889 30.204 176.761 30.648 175.921 31.536C175.081 32.4 174.661 33.696 174.661 35.424V45H169.045V25.632H174.409V27.9C175.153 27.084 176.077 26.46 177.181 26.028C178.285 25.572 179.497 25.344 180.817 25.344ZM214.127 25.632V41.76C214.127 45.312 213.203 47.952 211.355 49.68C209.507 51.408 206.807 52.272 203.255 52.272C201.383 52.272 199.607 52.044 197.927 51.588C196.247 51.132 194.855 50.472 193.751 49.608L195.983 45.576C196.799 46.248 197.831 46.776 199.079 47.16C200.327 47.568 201.575 47.772 202.823 47.772C204.767 47.772 206.195 47.328 207.107 46.44C208.043 45.576 208.511 44.256 208.511 42.48V41.652C207.047 43.26 205.007 44.064 202.391 44.064C200.615 44.064 198.983 43.68 197.495 42.912C196.031 42.12 194.867 41.016 194.003 39.6C193.139 38.184 192.707 36.552 192.707 34.704C192.707 32.856 193.139 31.224 194.003 29.808C194.867 28.392 196.031 27.3 197.495 26.532C198.983 25.74 200.615 25.344 202.391 25.344C205.199 25.344 207.335 26.268 208.799 28.116V25.632H214.127ZM203.507 39.456C204.995 39.456 206.207 39.024 207.143 38.16C208.103 37.272 208.583 36.12 208.583 34.704C208.583 33.288 208.103 32.148 207.143 31.284C206.207 30.396 204.995 29.952 203.507 29.952C202.019 29.952 200.795 30.396 199.835 31.284C198.875 32.148 198.395 33.288 198.395 34.704C198.395 36.12 198.875 37.272 199.835 38.16C200.795 39.024 202.019 39.456 203.507 39.456Z" fill="white"/>
</g>
<defs>
<filter id="filter0_d_1670_18518" x="0" y="0" width="250" height="76" filterUnits="userSpaceOnUse" color-interpolation-filters="sRGB">
<feFlood flood-opacity="0" result="BackgroundImageFix"/>
<feColorMatrix in="SourceAlpha" type="matrix" values="0 0 0 0 0 0 0 0 0 0 0 0 0 0 0 0 0 0 127 0" result="hardAlpha"/>
<feOffset dy="6"/>
<feGaussianBlur stdDeviation="4"/>
<feComposite in2="hardAlpha" operator="out"/>
<feColorMatrix type="matrix" values="0 0 0 0 0 0 0 0 0 0 0 0 0 0 0 0 0 0 0.25 0"/>
<feBlend mode="normal" in2="BackgroundImageFix" result="effect1_dropShadow_1670_18518"/>
<feBlend mode="normal" in="SourceGraphic" in2="effect1_dropShadow_1670_18518" result="shape"/>
</filter>
<linearGradient id="paint0_linear_1670_18518" x1="125" y1="2" x2="125" y2="62" gradientUnits="userSpaceOnUse">
<stop stop-color="#33AB48"/>
<stop offset="1" stop-color="#006837"/>
</linearGradient>
</defs>
</svg>
