<svg width="16" height="16" viewBox="0 0 16 16" fill="none" xmlns="http://www.w3.org/2000/svg">
<path fill-rule="evenodd" clip-rule="evenodd" d="M8 6.25C8.27614 6.25 8.5 6.47386 8.5 6.75V13.5C8.5 13.7761 8.27614 14 8 14C7.72386 14 7.5 13.7761 7.5 13.5V6.75C7.5 6.47386 7.72386 6.25 8 6.25Z" fill="#676767"/>
<path fill-rule="evenodd" clip-rule="evenodd" d="M8 2C8.27614 2 8.5 2.22386 8.5 2.5V4.25C8.5 4.52614 8.27614 4.75 8 4.75C7.72386 4.75 7.5 4.52614 7.5 4.25V2.5C7.5 2.22386 7.72386 2 8 2Z" fill="#676767"/>
<path fill-rule="evenodd" clip-rule="evenodd" d="M8 4.75C7.58579 4.75 7.25 5.08579 7.25 5.5C7.25 5.91421 7.58579 6.25 8 6.25C8.41421 6.25 8.75 5.91421 8.75 5.5C8.75 5.08579 8.41421 4.75 8 4.75ZM6.25 5.5C6.25 4.5335 7.0335 3.75 8 3.75C8.9665 3.75 9.75 4.5335 9.75 5.5C9.75 6.4665 8.9665 7.25 8 7.25C7.0335 7.25 6.25 6.4665 6.25 5.5Z" fill="#676767"/>
<path fill-rule="evenodd" clip-rule="evenodd" d="M12.5 11.25C12.7761 11.25 13 11.4739 13 11.75V13.5C13 13.7761 12.7761 14 12.5 14C12.2239 14 12 13.7761 12 13.5V11.75C12 11.4739 12.2239 11.25 12.5 11.25Z" fill="#676767"/>
<path fill-rule="evenodd" clip-rule="evenodd" d="M12.5 2C12.7761 2 13 2.22386 13 2.5V9.25C13 9.52614 12.7761 9.75 12.5 9.75C12.2239 9.75 12 9.52614 12 9.25V2.5C12 2.22386 12.2239 2 12.5 2Z" fill="#676767"/>
<path fill-rule="evenodd" clip-rule="evenodd" d="M12.5 9.75C12.0858 9.75 11.75 10.0858 11.75 10.5C11.75 10.9142 12.0858 11.25 12.5 11.25C12.9142 11.25 13.25 10.9142 13.25 10.5C13.25 10.0858 12.9142 9.75 12.5 9.75ZM10.75 10.5C10.75 9.5335 11.5335 8.75 12.5 8.75C13.4665 8.75 14.25 9.5335 14.25 10.5C14.25 11.4665 13.4665 12.25 12.5 12.25C11.5335 12.25 10.75 11.4665 10.75 10.5Z" fill="#676767"/>
<path fill-rule="evenodd" clip-rule="evenodd" d="M3.5 9.25C3.77614 9.25 4 9.47386 4 9.75V13.5C4 13.7761 3.77614 14 3.5 14C3.22386 14 3 13.7761 3 13.5V9.75C3 9.47386 3.22386 9.25 3.5 9.25Z" fill="#676767"/>
<path fill-rule="evenodd" clip-rule="evenodd" d="M3.5 2C3.77614 2 4 2.22386 4 2.5V7.25C4 7.52614 3.77614 7.75 3.5 7.75C3.22386 7.75 3 7.52614 3 7.25V2.5C3 2.22386 3.22386 2 3.5 2Z" fill="#676767"/>
<path fill-rule="evenodd" clip-rule="evenodd" d="M3.5 7.75C3.08579 7.75 2.75 8.08579 2.75 8.5C2.75 8.91421 3.08579 9.25 3.5 9.25C3.91421 9.25 4.25 8.91421 4.25 8.5C4.25 8.08579 3.91421 7.75 3.5 7.75ZM1.75 8.5C1.75 7.5335 2.5335 6.75 3.5 6.75C4.4665 6.75 5.25 7.5335 5.25 8.5C5.25 9.4665 4.4665 10.25 3.5 10.25C2.5335 10.25 1.75 9.4665 1.75 8.5Z" fill="#676767"/>
</svg>
