<svg width="256" height="129" viewBox="0 0 256 129" fill="none" xmlns="http://www.w3.org/2000/svg">
<rect x="0.5" width="255" height="128.67" rx="8" fill="#F5F5F5"/>
<path opacity="0.6" d="M208.75 23.2129H136.5C131.806 23.2129 128 26.4133 128 30.3612V37.5095C128 41.4574 131.806 44.6578 136.5 44.6578H208.75C213.444 44.6578 217.25 41.4574 217.25 37.5095V30.3612C217.25 26.4133 213.444 23.2129 208.75 23.2129Z" fill="#77C197"/>
<path opacity="0.6" d="M227.875 55.3809H136.5C131.806 55.3809 128 58.5813 128 62.5292V69.6775C128 73.6254 131.806 76.8258 136.5 76.8258H227.875C232.569 76.8258 236.375 73.6254 236.375 69.6775V62.5292C236.375 58.5813 232.569 55.3809 227.875 55.3809Z" fill="#77C197"/>
<path opacity="0.6" d="M208.75 87.5469H136.5C131.806 87.5469 128 90.7473 128 94.6952V101.844C128 105.791 131.806 108.992 136.5 108.992H208.75C213.444 108.992 217.25 105.791 217.25 101.844V94.6952C217.25 90.7473 213.444 87.5469 208.75 87.5469Z" fill="#77C197"/>
<path d="M90.6032 19.8975H28.8319C27.2671 19.8975 25.9985 20.9643 25.9985 22.2802V60.0499C25.9985 61.3659 27.2671 62.4327 28.8319 62.4327H90.6032C92.168 62.4327 93.4366 61.3659 93.4366 60.0499V22.2802C93.4366 20.9643 92.168 19.8975 90.6032 19.8975Z" fill="#77C197"/>
<path d="M46.4696 28.3804C46.4696 28.6343 46.3628 28.8869 46.1427 29.0889C42.7857 32.1856 40.9373 36.1591 40.9373 40.2786C40.9373 44.3979 42.7857 48.3714 46.1442 51.4681C46.6097 51.8987 46.5713 52.5639 46.0625 52.9553C45.552 53.3468 44.7596 53.3159 44.294 52.8865C40.5151 49.3999 38.4346 44.9227 38.4346 40.2786C38.4346 35.6343 40.5151 31.1571 44.294 27.6705C44.7596 27.2411 45.5503 27.2102 46.0625 27.6017C46.3328 27.8094 46.4696 28.0941 46.4696 28.3804Z" fill="#F5F5F5"/>
<path d="M54.6456 26.5991C54.6456 26.9372 54.4521 27.2711 54.0917 27.4732C48.9196 30.3943 45.8314 35.1817 45.8314 40.279C45.8314 45.3765 48.9196 50.1637 54.0917 53.085C54.6673 53.4091 54.8207 54.0643 54.4337 54.5455C54.0484 55.0283 53.2708 55.1573 52.6969 54.8332C46.8326 51.5206 43.3306 46.0794 43.3306 40.279C43.3306 34.4788 46.8326 29.0376 52.6986 25.7249C53.2725 25.4009 54.0499 25.5285 54.4354 26.0125C54.5772 26.1922 54.6456 26.3956 54.6456 26.5991Z" fill="#F5F5F5"/>
<path d="M78.4756 43.6028C78.4756 43.8736 78.3522 44.1444 78.1053 44.3506C77.83 44.5807 71.2849 49.9728 64.9834 49.9728C58.4432 49.9728 53.1228 45.6246 53.1228 40.2788C53.1228 34.9332 58.4432 30.585 64.9834 30.585C65.674 30.585 66.2346 31.0564 66.2346 31.6373C66.2346 32.2181 65.674 32.6895 64.9834 32.6895C59.8231 32.6895 55.6253 36.0935 55.6253 40.2788C55.6253 44.4643 59.8231 47.8681 64.9834 47.8681C70.2672 47.8681 76.2833 42.9055 76.3434 42.8549C76.834 42.4452 77.6265 42.448 78.1137 42.862C78.3555 43.0668 78.4756 43.3347 78.4756 43.6028Z" fill="#F5F5F5"/>
<path d="M78.4763 36.9552C78.4763 39.4863 72.7504 45.354 66.3737 45.9223C64.1198 46.1229 61.8141 45.5196 60.2057 44.3101C58.8076 43.2578 58.0318 41.8364 58.0218 40.3085V40.2791C58.0218 38.789 58.7175 37.3803 59.9839 36.3084C61.3069 35.1887 63.0837 34.5728 64.9857 34.5728H65.8016C67.8119 34.5728 69.4469 33.2567 69.4469 31.6376C69.4469 30.0184 67.8119 28.7009 65.8016 28.7009H65.5162C57.7249 28.7009 51.2432 33.4475 50.7626 39.5074C50.5074 42.6671 51.8055 45.6977 54.4048 48.0366C57.1042 50.464 60.9615 51.8559 64.9857 51.8559C68.2957 51.8559 71.5208 50.913 74.0667 49.2012C74.6073 48.8393 75.3931 48.9122 75.8252 49.3668C76.2573 49.82 76.1689 50.4822 75.6284 50.847C72.6402 52.8549 68.8597 53.9619 64.984 53.9619C60.2692 53.9619 55.7462 52.3259 52.5763 49.4762C49.4964 46.708 47.9649 43.119 48.2635 39.3699C48.8324 32.2086 56.4102 26.5977 65.5145 26.5977H65.7999C69.1901 26.5977 71.9479 28.8594 71.9479 31.6389C71.9479 34.4184 69.1901 36.6788 65.7999 36.6788H64.984C63.7528 36.6788 62.6082 37.0745 61.7574 37.7929C60.9598 38.4662 60.5228 39.3488 60.5228 40.2791C60.5228 40.2861 60.5228 40.2917 60.5228 40.2987C60.5294 41.4844 61.2618 42.2827 61.8741 42.7428C62.9635 43.5637 64.5487 43.9706 66.1102 43.8316C71.3122 43.3672 75.9753 38.3401 75.9753 36.9566C75.9753 36.3757 76.5359 35.9043 77.2267 35.9043C77.9173 35.9043 78.4763 36.3743 78.4763 36.9552Z" fill="#F5F5F5"/>
<path d="M76.0281 33.0504C76.0281 36.8163 70.5558 41.4141 64.1676 41.4141C63.4768 41.4141 62.9163 40.9426 62.9163 40.3618C62.9163 39.7809 63.4768 39.3095 64.1676 39.3095C69.1193 39.3095 73.5255 35.8088 73.5255 33.0504C73.5255 32.4695 74.0861 31.998 74.7769 31.998C75.4675 31.998 76.0281 32.4695 76.0281 33.0504Z" fill="#F5F5F5"/>
<path d="M90.6032 65.9775H28.8319C27.2671 65.9775 25.9985 67.0443 25.9985 68.3603V106.13C25.9985 107.446 27.2671 108.513 28.8319 108.513H90.6032C92.168 108.513 93.4366 107.446 93.4366 106.13V68.3603C93.4366 67.0443 92.168 65.9775 90.6032 65.9775Z" fill="#77C197"/>
<path d="M46.4696 74.4615C46.4696 74.7155 46.3628 74.9681 46.1427 75.17C42.7857 78.2666 40.9373 82.2402 40.9373 86.3596C40.9373 90.4791 42.7857 94.4526 46.1442 97.5491C46.6097 97.9799 46.5713 98.6449 46.0625 99.0364C45.552 99.4279 44.7596 99.397 44.294 98.9677C40.5151 95.481 38.4346 91.0038 38.4346 86.3596C38.4346 81.7153 40.5151 77.2382 44.294 73.7515C44.7596 73.3222 45.5503 73.2913 46.0625 73.6828C46.3328 73.8904 46.4696 74.1753 46.4696 74.4615Z" fill="#F5F5F5"/>
<path d="M54.6456 72.6801C54.6456 73.0183 54.4521 73.3521 54.0917 73.5542C48.9196 76.4755 45.8314 81.2627 45.8314 86.3602C45.8314 91.4575 48.9196 96.2449 54.0917 99.166C54.6673 99.4902 54.8207 100.145 54.4337 100.627C54.0484 101.109 53.2708 101.238 52.6969 100.914C46.8326 97.6016 43.3306 92.1605 43.3306 86.3602C43.3306 80.5598 46.8326 75.1187 52.6986 71.806C53.2725 71.4819 54.0499 71.6096 54.4354 72.0937C54.5772 72.2732 54.6456 72.4767 54.6456 72.6801Z" fill="#F5F5F5"/>
<path d="M78.4756 89.6838C78.4756 89.9546 78.3522 90.2254 78.1053 90.4316C77.83 90.6618 71.2849 96.0538 64.9834 96.0538C58.4432 96.0538 53.1228 91.7057 53.1228 86.36C53.1228 81.0142 58.4432 76.666 64.9834 76.666C65.674 76.666 66.2346 77.1374 66.2346 77.7184C66.2346 78.2993 65.674 78.7707 64.9834 78.7707C59.8231 78.7707 55.6253 82.1745 55.6253 86.36C55.6253 90.5453 59.8231 93.9492 64.9834 93.9492C70.2672 93.9492 76.2833 88.9865 76.3434 88.936C76.834 88.5263 77.6265 88.5291 78.1137 88.943C78.3555 89.1478 78.4756 89.4159 78.4756 89.6838Z" fill="#F5F5F5"/>
<path d="M78.4763 83.0369C78.4763 85.568 72.7504 91.4354 66.3737 92.0036C64.1198 92.2043 61.8141 91.601 60.2057 90.3915C58.8076 89.3393 58.0318 87.9181 58.0218 86.3902V86.3607C58.0218 84.8707 58.7175 83.4621 59.9839 82.3901C61.3069 81.2705 63.0837 80.6545 64.9857 80.6545H65.8016C67.8119 80.6545 69.4469 79.3385 69.4469 77.7194C69.4469 76.1003 67.8119 74.7829 65.8016 74.7829H65.5162C57.7249 74.7829 51.2432 79.5293 50.7626 85.589C50.5074 88.7487 51.8055 91.7792 54.4048 94.1181C57.1042 96.5453 60.9615 97.937 64.9857 97.937C68.2957 97.937 71.5208 96.9942 74.0667 95.2826C74.6073 94.9205 75.3931 94.9936 75.8252 95.4481C76.2573 95.9013 76.1689 96.5635 75.6284 96.9283C72.6402 98.9361 68.8597 100.043 64.984 100.043C60.2692 100.043 55.7462 98.4071 52.5763 95.5576C49.4964 92.7893 47.9649 89.2004 48.2635 85.4515C48.8324 78.2904 56.4102 72.6797 65.5145 72.6797H65.7999C69.1901 72.6797 71.9479 74.9415 71.9479 77.7209C71.9479 80.5003 69.1901 82.7605 65.7999 82.7605H64.984C63.7528 82.7605 62.6082 83.1561 61.7574 83.8745C60.9598 84.548 60.5228 85.4304 60.5228 86.3607C60.5228 86.3676 60.5228 86.3734 60.5228 86.3803C60.5294 87.5659 61.2618 88.3642 61.8741 88.8244C62.9635 89.6451 64.5487 90.052 66.1102 89.9132C71.3122 89.4487 75.9753 84.4217 75.9753 83.0383C75.9753 82.4574 76.5359 81.986 77.2267 81.986C77.9173 81.986 78.4763 82.4561 78.4763 83.0369Z" fill="#F5F5F5"/>
<path d="M76.0281 79.1315C76.0281 82.8973 70.5558 87.4952 64.1676 87.4952C63.4768 87.4952 62.9163 87.0238 62.9163 86.4429C62.9163 85.862 63.4768 85.3905 64.1676 85.3905C69.1193 85.3905 73.5255 81.8899 73.5255 79.1315C73.5255 78.5505 74.0861 78.0791 74.7769 78.0791C75.4675 78.0791 76.0281 78.5505 76.0281 79.1315Z" fill="#F5F5F5"/>
</svg>
