<svg width="14" height="10" viewBox="0 0 14 10" fill="none" xmlns="http://www.w3.org/2000/svg">
<path d="M4.33325 3.33317H9.66659V4.6665H4.33325V3.33317ZM12.3999 3.99984H13.6666C13.6666 2.15984 12.1733 0.666504 10.3333 0.666504H7.66659V1.93317H10.3333C11.4733 1.93317 12.3999 2.85984 12.3999 3.99984ZM1.59992 3.99984C1.59992 2.85984 2.52659 1.93317 3.66659 1.93317H6.33325V0.666504H3.66659C1.82659 0.666504 0.333252 2.15984 0.333252 3.99984C0.333252 5.83984 1.82659 7.33317 3.66659 7.33317H6.33325V6.0665H3.66659C2.52659 6.0665 1.59992 5.13984 1.59992 3.99984ZM11.6666 3.99984H10.3333V5.99984H8.33325V7.33317H10.3333V9.33317H11.6666V7.33317H13.6666V5.99984H11.6666V3.99984Z" fill="#676767"/>
</svg>
