<svg width="30" height="30" viewBox="0 0 30 30" fill="none" xmlns="http://www.w3.org/2000/svg">
<circle cx="15" cy="15" r="15" fill="#FFCDC2"/>
<g clip-path="url(#clip0_353:636)">
<path d="M24.8859 12.3028C24.7881 12.1835 24.6421 12.1138 24.489 12.1138H22.5425C22.0621 10.8469 21.4363 9.60552 20.725 9.13694C18.2643 7.51816 11.7374 7.51816 9.27673 9.13694C8.5649 9.60603 7.94166 10.8489 7.45873 12.1138H5.5122C5.35754 12.1138 5.2121 12.1835 5.11531 12.3028C5.01801 12.4216 4.97909 12.5788 5.01084 12.7299L5.29916 14.127C5.34832 14.3651 5.55829 14.5351 5.80052 14.5351H6.37716C5.82049 15.1773 5.55061 15.9859 5.54702 16.7951C5.54344 17.7947 5.92291 18.6981 6.61682 19.3372C6.62451 19.3438 6.63219 19.3484 6.63936 19.3551V21.3098C6.63936 21.7333 6.9835 22.078 7.40752 22.078H9.20299C9.62701 22.078 9.97115 21.7333 9.97115 21.3098V20.5242H20.0295V21.3098C20.0295 21.7333 20.3737 22.078 20.7977 22.078H22.5932C23.0162 22.078 23.3613 21.7333 23.3613 21.3098V19.3935C24.0977 18.7191 24.4496 17.7911 24.4542 16.8647C24.4572 16.0279 24.1751 15.1896 23.5856 14.5341H24.2007C24.4439 14.5341 24.6539 14.3641 24.702 14.1254L24.9909 12.7289C25.0206 12.5788 24.9832 12.4226 24.8859 12.3028ZM10.1202 10.4198C12.0816 9.12875 17.9191 9.12875 19.8795 10.4198C20.2605 10.6697 20.7506 11.6801 21.1997 12.9173H8.80098C9.24908 11.6806 9.73917 10.6707 10.1202 10.4198ZM7.82285 16.9876C7.82285 16.1529 8.49986 15.4769 9.33409 15.4769C10.1693 15.4769 10.8453 16.1529 10.8453 16.9876C10.8453 17.8223 10.1693 18.4988 9.33409 18.4988C8.49986 18.4988 7.82285 17.8223 7.82285 16.9876ZM20.6866 18.4988C19.8523 18.4988 19.1753 17.8223 19.1753 16.9876C19.1753 16.1529 19.8523 15.4769 20.6866 15.4769C21.5218 15.4769 22.1978 16.1529 22.1978 16.9876C22.1978 17.8223 21.5208 18.4988 20.6866 18.4988Z" fill="#F88379"/>
</g>
<defs>
<clipPath id="clip0_353:636">
<rect width="20.0005" height="20" fill="white" transform="translate(5 5)"/>
</clipPath>
</defs>
</svg>
