<svg width="20" height="20" viewBox="0 0 20 20" fill="none" xmlns="http://www.w3.org/2000/svg">
<path d="M19.6568 8.44735L9.45974 18.6444C9.0021 19.102 8.26014 19.102 7.80254 18.6444L1.35562 12.1975C0.897981 11.7399 0.897981 10.9979 1.35562 10.5403L11.5527 0.343228C12.0103 -0.114409 12.7523 -0.114409 13.2099 0.343228L16.9697 4.10307L17.5563 5.47091L18.7276 5.86093L19.6568 6.79015C20.1144 7.24775 20.1144 7.98971 19.6568 8.44735Z" fill="#D3E0E4"/>
<path d="M5.11407 15.9568L16.9665 4.1043L18.7241 5.86187L6.87164 17.7144L5.11407 15.9568Z" fill="#002C3B"/>
<path d="M1.17183 8.53906C0.524627 8.53906 0 9.06369 0 9.71089V18.8282C0 19.4754 0.524627 20 1.17183 20H8.38223L9.55406 14.2696L8.38223 8.5391H1.17183V8.53906Z" fill="#FFE477"/>
<path d="M15.5926 8.53906H8.3822V20H15.5926C16.2398 20 16.7644 19.4754 16.7644 18.8282V9.71089C16.7644 9.06369 16.2398 8.53906 15.5926 8.53906Z" fill="#FFCD00"/>
<path d="M1.86444 16.2898H4.1772V17.4616H1.86444V16.2898Z" fill="#FDFAE5"/>
<path d="M5.43866 16.2898H7.75142V17.4616H5.43866V16.2898Z" fill="#FDFAE5"/>
<path d="M9.013 16.2898H11.3257V17.4616H9.013V16.2898Z" fill="#FAF1B4"/>
<path d="M12.5873 16.2898H14.9001V17.4616H12.5873V16.2898Z" fill="#FAF1B4"/>
<path d="M1.90002 11.6631H5.43871V14.1491H1.90002V11.6631Z" fill="#FDFAE5"/>
</svg>
