<svg width="40" height="40" viewBox="0 0 40 40" fill="none" xmlns="http://www.w3.org/2000/svg">
<rect opacity="0.2" width="40" height="40" rx="10" fill="#EACA4A"/>
<g clip-path="url(#clip0_118:1301)">
<path d="M20.0001 12C20.1841 12 20.3334 11.8507 20.3334 11.6666V10.3333C20.3334 10.1492 20.1841 10 20.0001 10C19.816 10 19.6667 10.1492 19.6667 10.3333V11.6666C19.6667 11.8507 19.8159 12 20.0001 12Z" fill="#C49800"/>
<path d="M15.8781 11.5274L16.5447 12.6817C16.6357 12.8418 16.8392 12.8977 16.9993 12.8067C17.1593 12.7157 17.2153 12.5122 17.1243 12.3522C17.1236 12.3509 17.1228 12.3496 17.1221 12.3483L16.4554 11.194C16.3644 11.034 16.1609 10.978 16.0009 11.069C15.8408 11.16 15.7849 11.3635 15.8759 11.5236C15.8766 11.5248 15.8773 11.5261 15.8781 11.5274Z" fill="#C49800"/>
<path d="M13.1903 14.4532C13.1915 14.454 13.1928 14.4547 13.1941 14.4554L14.3484 15.1221C14.5073 15.2152 14.7115 15.1619 14.8045 15.0031C14.8976 14.8442 14.8444 14.64 14.6855 14.547C14.6843 14.5462 14.683 14.5455 14.6817 14.5447L13.5274 13.8781C13.3686 13.785 13.1643 13.8383 13.0713 13.9971C12.9782 14.1559 13.0314 14.3601 13.1903 14.4532Z" fill="#C49800"/>
<path d="M14.0001 17.9998C14.0001 17.8158 13.8509 17.6665 13.6668 17.6665H12.3335C12.1494 17.6665 12.0001 17.8158 12.0001 17.9998C12.0001 18.1839 12.1494 18.3332 12.3335 18.3332H13.6668C13.8509 18.3332 14.0001 18.1839 14.0001 17.9998Z" fill="#C49800"/>
<path d="M14.3523 20.8756C14.351 20.8764 14.3497 20.8771 14.3484 20.8779L13.1941 21.5445C13.0341 21.6355 12.9781 21.839 13.069 21.999C13.16 22.1591 13.3635 22.2151 13.5235 22.1241C13.5248 22.1234 13.5261 22.1226 13.5274 22.1219L14.6817 21.4552C14.8418 21.3642 14.8978 21.1607 14.8068 21.0007C14.7159 20.8407 14.5124 20.7847 14.3523 20.8756Z" fill="#C49800"/>
<path d="M26.8098 21.5468C26.8085 21.546 26.8072 21.5453 26.806 21.5445L25.6516 20.8779C25.4928 20.7848 25.2886 20.838 25.1955 20.9968C25.1023 21.1556 25.1556 21.3598 25.3144 21.453C25.3157 21.4537 25.317 21.4545 25.3183 21.4552L26.4726 22.1219C26.6314 22.215 26.8356 22.1617 26.9287 22.0029C27.0219 21.8441 26.9686 21.6399 26.8098 21.5468Z" fill="#C49800"/>
<path d="M27.6666 17.6665H26.3333C26.1492 17.6665 26 17.8158 26 17.9998C26 18.1839 26.1492 18.3332 26.3333 18.3332H27.6666C27.8507 18.3332 27.9999 18.1839 27.9999 17.9998C27.9999 17.8158 27.8507 17.6665 27.6666 17.6665Z" fill="#C49800"/>
<path d="M25.4853 15.1665C25.5438 15.1665 25.6013 15.1511 25.652 15.1219L26.8063 14.4552C26.9663 14.3642 27.0223 14.1607 26.9313 14.0007C26.8403 13.8406 26.6368 13.7847 26.4768 13.8757C26.4755 13.8764 26.4742 13.8771 26.4729 13.8779L25.3186 14.5445C25.1592 14.6366 25.1046 14.8404 25.1966 14.9999C25.2562 15.103 25.3662 15.1665 25.4853 15.1665Z" fill="#C49800"/>
<path d="M22.9996 12.8038C22.9997 12.8039 22.9998 12.804 23 12.8041C23.1594 12.896 23.3633 12.8413 23.4553 12.6818C23.4553 12.6818 23.4553 12.6817 23.4553 12.6817L24.122 11.5274C24.2151 11.3686 24.1618 11.1644 24.0031 11.0712C23.8443 10.9781 23.64 11.0314 23.5469 11.1902C23.5461 11.1914 23.5454 11.1927 23.5446 11.194L22.878 12.3483C22.7858 12.5077 22.8403 12.7116 22.9996 12.8038Z" fill="#C49800"/>
<path d="M20.6667 23.3331C20.8508 23.3331 21 23.1839 21 22.9998V19.3331H21.6667C22.4031 19.3331 23 18.7362 23 17.9998C23 17.2635 22.4031 16.6665 21.6667 16.6665C20.9303 16.6665 20.3334 17.2635 20.3334 17.9998V18.6665H19.6667V17.9998C19.6667 17.2635 19.0698 16.6665 18.3334 16.6665C17.597 16.6665 17.0001 17.2635 17.0001 17.9998C17.0001 18.7362 17.597 19.3331 18.3334 19.3331H19.0001V22.9998C19.0001 23.1839 19.1493 23.3331 19.3334 23.3331C19.5175 23.3331 19.6667 23.1839 19.6667 22.9998V19.3331H20.3334V22.9998C20.3334 23.1839 20.4826 23.3331 20.6667 23.3331ZM21 17.9998C21 17.6316 21.2985 17.3332 21.6667 17.3332C22.0349 17.3332 22.3334 17.6316 22.3334 17.9998C22.3334 18.368 22.0349 18.6665 21.6667 18.6665H21V17.9998ZM19.0001 18.6665H18.3334C17.9652 18.6665 17.6667 18.368 17.6667 17.9998C17.6667 17.6316 17.9652 17.3332 18.3334 17.3332C18.7016 17.3332 19.0001 17.6316 19.0001 17.9998V18.6665Z" fill="#C49800"/>
<path d="M20.259 12.673C17.3169 12.5317 14.8173 14.8021 14.676 17.7442C14.595 19.4288 15.3157 21.0525 16.6194 22.1226C16.8544 22.3066 16.9941 22.5865 17.0001 22.8849V23.6665C17.0018 24.0888 17.2686 24.4644 17.6667 24.6052V24.9999C17.6676 25.2466 17.7603 25.4843 17.9267 25.6665C17.5801 26.0433 17.5801 26.623 17.9267 26.9998C17.5561 27.4061 17.5851 28.0358 17.9913 28.4064C18.1758 28.5747 18.4169 28.6676 18.6667 28.6665C18.8461 28.6712 18.9954 28.5295 19.0001 28.3501C19.0019 28.2801 18.9811 28.2114 18.9407 28.1542C18.9302 28.1338 18.9177 28.1144 18.9034 28.0965C18.876 28.0714 18.8447 28.0509 18.8107 28.0358C18.801 28.0308 18.7914 28.0268 18.7814 28.0228C18.7476 28.0105 18.7123 28.0034 18.6764 28.0018C18.673 28.0018 18.67 27.9998 18.6667 27.9998C18.4826 27.9998 18.3334 27.8506 18.3334 27.6665C18.3334 27.4824 18.4826 27.3332 18.6667 27.3332H20C20.1841 27.3332 20.3334 27.1839 20.3334 26.9998C20.3334 26.8157 20.1841 26.6665 20 26.6665H18.6667C18.4826 26.6665 18.3334 26.5173 18.3334 26.3332C18.3334 26.1491 18.4826 25.9998 18.6667 25.9998H20C20.1841 25.9998 20.3334 25.8506 20.3334 25.6665C20.3334 25.4824 20.1841 25.3332 20 25.3332H18.6667C18.4826 25.3332 18.3334 25.1839 18.3334 24.9999V24.6665H20C20.1841 24.6665 20.3334 24.5173 20.3334 24.3332C20.3334 24.1491 20.1841 23.9999 20 23.9999H18.0001C17.816 23.9999 17.6667 23.8506 17.6667 23.6665V22.8849C17.6613 22.3865 17.4317 21.917 17.0417 21.6066C15.0506 19.9702 14.763 17.0295 16.3994 15.0383C17.3355 13.8993 18.7548 13.2697 20.2274 13.34C22.6901 13.4865 24.6246 15.5048 24.6666 17.9716C24.6786 19.3904 24.0407 20.7367 22.935 21.6259C22.5479 21.9447 22.3266 22.4221 22.3333 22.9235V23.6665C22.3333 23.8506 22.1841 23.9999 22 23.9999H21C20.8159 23.9999 20.6667 24.1491 20.6667 24.3332C20.6667 24.5173 20.8159 24.6665 21 24.6665H21.6667V24.9999C21.6667 25.1839 21.5174 25.3332 21.3333 25.3332H21C20.8159 25.3332 20.6667 25.4824 20.6667 25.6665C20.6667 25.8506 20.8159 25.9998 21 25.9998H21.3333C21.5174 25.9998 21.6667 26.1491 21.6667 26.3332C21.6667 26.5173 21.5174 26.6665 21.3333 26.6665H21C20.8159 26.6665 20.6667 26.8157 20.6667 26.9998C20.6667 27.1839 20.8159 27.3332 21 27.3332H21.3333C21.5174 27.3332 21.6667 27.4824 21.6667 27.6665C21.6667 27.8506 21.5174 27.9998 21.3333 27.9998H19.6667C19.4826 27.9998 19.3334 28.1491 19.3334 28.3331C19.3334 28.5172 19.4826 28.6665 19.6667 28.6665H20.943C20.759 29.1872 20.1877 29.4601 19.667 29.2761C19.5075 29.2197 19.365 29.1238 19.2527 28.9975C19.1303 28.86 18.9195 28.8477 18.782 28.9701C18.6445 29.0926 18.6323 29.3033 18.7547 29.4408C19.3643 30.1278 20.4154 30.1905 21.1024 29.5809C21.3861 29.3291 21.5752 28.9879 21.6383 28.6138C22.1604 28.4506 22.4513 27.8952 22.2882 27.3732C22.2448 27.2345 22.1715 27.107 22.0733 26.9998C22.42 26.623 22.42 26.0433 22.0733 25.6665C22.2398 25.4843 22.3325 25.2466 22.3333 24.9999V24.6052C22.7315 24.4644 22.9982 24.0888 23 23.6665V22.9235C22.9955 22.6241 23.1253 22.3383 23.3537 22.1446C24.618 21.1281 25.3474 19.5888 25.3333 17.9666C25.2851 15.1471 23.0739 12.8404 20.259 12.673Z" fill="#C49800"/>
</g>
<defs>
<clipPath id="clip0_118:1301">
<rect width="20" height="20" fill="white" transform="translate(10 10)"/>
</clipPath>
</defs>
</svg>
