<svg width="213" height="176" viewBox="0 0 213 176" fill="none" xmlns="http://www.w3.org/2000/svg">
<path fill-rule="evenodd" clip-rule="evenodd" d="M193.917 18.3915H25.1673C18.6622 18.3915 13.394 23.6596 13.394 30.1647C13.394 40.4373 13.394 53.7112 13.394 53.7112H193.917V18.3915Z" fill="#A5D5BA"/>
<path fill-rule="evenodd" clip-rule="evenodd" d="M193.917 11.7733C193.917 5.26814 188.649 0 182.144 0C165.549 0 135.629 0 120.615 0C114.983 0 109.778 3.02023 106.984 7.90535C102.35 16.0242 95.8069 27.4709 95.8069 27.4709H193.917V11.7733Z" fill="#A5D5BA"/>
<path d="M193.917 29.4237H13.394V36.7325H193.917V29.4237Z" fill="#77C197"/>
<path fill-rule="evenodd" clip-rule="evenodd" d="M207.135 52.0786C207.756 47.5827 206.406 43.0304 203.424 39.6083C200.441 36.18 196.121 34.2146 191.582 34.2146C151.565 34.2146 55.7338 34.2146 15.7173 34.2146C11.1775 34.2146 6.85755 36.18 3.87499 39.6083C0.898711 43.0304 -0.457569 47.5765 0.164059 52.0786C4.14499 80.7299 11.8682 136.331 15.4285 161.962C16.5085 169.723 23.1392 175.5 30.9755 175.5H176.311C184.147 175.5 190.778 169.723 191.858 161.962C195.431 136.331 203.154 80.7299 207.135 52.0786Z" fill="#A5D5BA"/>
<path fill-rule="evenodd" clip-rule="evenodd" d="M1.49522 61.5788C1.79034 58.3074 3.10266 55.1867 5.29406 52.6688C8.27034 49.2467 12.5903 47.2813 17.1301 47.2813C56.6757 47.2813 150.642 47.2813 190.181 47.2813C194.721 47.2813 199.041 49.2467 202.017 52.6688C204.209 55.1867 205.521 58.3137 205.816 61.5788L207.135 52.0786C207.756 47.5827 206.406 43.0304 203.424 39.6083C200.441 36.18 196.121 34.2146 191.582 34.2146C151.565 34.2146 55.7338 34.2146 15.7173 34.2146C11.1775 34.2146 6.85755 36.18 3.87499 39.6083C0.898711 43.0304 -0.457569 47.5765 0.164059 52.0786L1.49522 61.5788Z" fill="#E8F4ED"/>
<path fill-rule="evenodd" clip-rule="evenodd" d="M85.9988 136.356C85.9988 132.024 82.4888 128.507 78.15 128.507C69.4409 128.507 55.47 128.507 46.7546 128.507C42.422 128.507 38.9058 132.024 38.9058 136.356C38.9058 138.887 38.9058 141.681 38.9058 144.205C38.9058 148.544 42.422 152.054 46.7546 152.054C55.47 152.054 69.4409 152.054 78.15 152.054C82.4888 152.054 85.9988 148.544 85.9988 144.205C85.9988 141.681 85.9988 138.887 85.9988 136.356Z" fill="#1D9752"/>
<path fill-rule="evenodd" clip-rule="evenodd" d="M144.865 62.6337C122.123 62.6337 103.656 81.1004 103.656 103.843C103.656 126.586 122.123 145.053 144.865 145.053C167.608 145.053 186.075 126.586 186.075 103.843C186.075 81.1004 167.602 62.6337 144.865 62.6337ZM144.865 74.4069C161.109 74.4069 174.302 87.5993 174.302 103.843C174.302 120.087 161.103 133.273 144.865 133.273C128.628 133.273 115.429 120.081 115.429 103.837C115.429 87.593 128.621 74.4069 144.865 74.4069Z" fill="#1D9752"/>
<path fill-rule="evenodd" clip-rule="evenodd" d="M166.327 132.294L202.934 168.901C205.232 171.199 208.962 171.199 211.26 168.901C213.558 166.603 213.558 162.873 211.26 160.575L174.653 123.968C172.355 121.67 168.625 121.67 166.327 123.968C164.029 126.266 164.029 130.002 166.327 132.294Z" fill="#1D9752"/>
</svg>
