<svg width="111" height="59" viewBox="0 0 111 59" fill="none" xmlns="http://www.w3.org/2000/svg">
<rect x="0.5" width="110" height="59" rx="4" fill="#E6F4EC"/>
<path d="M40.5272 10.5942H12.7216C12.0466 10.5942 11.4994 11.1294 11.4994 11.7894V41.6697C11.4994 42.3298 12.0466 42.865 12.7216 42.865H40.5272C41.2022 42.865 41.7494 42.3298 41.7494 41.6697V11.7894C41.7494 11.1294 41.2022 10.5942 40.5272 10.5942Z" fill="#F5F5F5"/>
<path fill-rule="evenodd" clip-rule="evenodd" d="M31.1744 23.1081C31.1744 25.5763 29.1507 27.5555 26.6249 27.5555C24.1 27.5555 22.0753 25.5763 22.0753 23.1081C22.0753 20.6399 24.1 18.6616 26.6249 18.6616C29.1507 18.6616 31.1744 20.6399 31.1744 23.1081ZM26.625 35.4696C22.8973 35.4696 19.75 34.8771 19.75 32.5912C19.75 30.3045 22.9171 29.733 26.625 29.733C30.3535 29.733 33.5 30.3255 33.5 32.6114C33.5 34.8981 30.3329 35.4696 26.625 35.4696Z" fill="#0E9549"/>
<path opacity="0.6" d="M90.3333 7.82324H59.1667C57.1416 7.82324 55.5 9.42859 55.5 11.4089V14.9945C55.5 16.9748 57.1416 18.5801 59.1667 18.5801H90.3333C92.3584 18.5801 94 16.9748 94 14.9945V11.4089C94 9.42859 92.3584 7.82324 90.3333 7.82324Z" fill="#0E9549"/>
<path opacity="0.6" d="M98.5833 23.959H59.1667C57.1416 23.959 55.5 25.5643 55.5 27.5446V31.1303C55.5 33.1105 57.1416 34.7159 59.1667 34.7159H98.5833C100.608 34.7159 102.25 33.1105 102.25 31.1303V27.5446C102.25 25.5643 100.608 23.959 98.5833 23.959Z" fill="#0E9549"/>
<path opacity="0.6" d="M90.3333 40.0938H59.1667C57.1416 40.0938 55.5 41.6991 55.5 43.6794V47.265C55.5 49.2453 57.1416 50.8507 59.1667 50.8507H90.3333C92.3584 50.8507 94 49.2453 94 47.265V43.6794C94 41.6991 92.3584 40.0938 90.3333 40.0938Z" fill="#0E9549"/>
</svg>
