<svg width="256" height="129" viewBox="0 0 256 129" fill="none" xmlns="http://www.w3.org/2000/svg">
<rect x="0.5" width="255" height="129" rx="8" fill="#F5F5F5"/>
<path d="M93.2902 23.1641H28.8319C27.2671 23.1641 25.9985 24.3341 25.9985 25.7773V91.1088C25.9985 92.5521 27.2671 93.7221 28.8319 93.7221H93.2902C94.855 93.7221 96.1235 92.5521 96.1235 91.1088V25.7773C96.1235 24.3341 94.855 23.1641 93.2902 23.1641Z" fill="#77C197"/>
<path fill-rule="evenodd" clip-rule="evenodd" d="M71.6087 50.5247C71.6087 55.9214 66.9174 60.2486 61.0622 60.2486C55.209 60.2486 50.5156 55.9214 50.5156 50.5247C50.5156 45.1281 55.209 40.8027 61.0622 40.8027C66.9174 40.8027 71.6087 45.1281 71.6087 50.5247ZM61.0625 77.5523C52.4211 77.5523 45.125 76.2569 45.125 71.259C45.125 66.2593 52.467 65.0097 61.0625 65.0097C69.7059 65.0097 77 66.3051 77 71.3031C77 76.3028 69.658 77.5523 61.0625 77.5523Z" fill="#F5F5F5"/>
<path opacity="0.6" d="M208.75 17.1055H136.5C131.806 17.1055 128 20.6155 128 24.9452V32.785C128 37.1148 131.806 40.6248 136.5 40.6248H208.75C213.444 40.6248 217.25 37.1148 217.25 32.785V24.9452C217.25 20.6155 213.444 17.1055 208.75 17.1055Z" fill="#77C197"/>
<path opacity="0.6" d="M227.875 52.3848H136.5C131.806 52.3848 128 55.8948 128 60.2245V68.0643C128 72.3941 131.806 75.9041 136.5 75.9041H227.875C232.569 75.9041 236.375 72.3941 236.375 68.0643V60.2245C236.375 55.8948 232.569 52.3848 227.875 52.3848Z" fill="#77C197"/>
<path opacity="0.6" d="M208.75 87.6631H136.5C131.806 87.6631 128 91.1731 128 95.5029V103.343C128 107.672 131.806 111.182 136.5 111.182H208.75C213.444 111.182 217.25 107.672 217.25 103.343V95.5029C217.25 91.1731 213.444 87.6631 208.75 87.6631Z" fill="#77C197"/>
</svg>
