<svg width="15" height="15" viewBox="0 0 15 15" fill="none" xmlns="http://www.w3.org/2000/svg">
<g clip-path="url(#clip0_288:336)">
<path d="M2.04824 0.0118755C2.85876 -0.00991664 3.67069 0.00906359 4.48192 0.0013309C4.67824 -0.0031956 4.86848 0.069592 5.01164 0.204007C5.15479 0.338422 5.23941 0.523701 5.24725 0.719916C5.25509 0.91613 5.18552 1.10757 5.05354 1.25297C4.92156 1.39838 4.73773 1.48611 4.54168 1.49725C3.77192 1.50991 3.00147 1.49233 2.23101 1.50288C2.04005 1.50714 1.85806 1.58471 1.72274 1.71951C1.58742 1.85431 1.50914 2.036 1.50414 2.22694C1.49359 3.00021 1.51117 3.77347 1.49851 4.54112C1.4945 4.63948 1.47115 4.73609 1.4298 4.82543C1.38844 4.91477 1.3299 4.99508 1.25751 5.0618C1.18512 5.12851 1.10029 5.18031 1.00788 5.21424C0.91547 5.24817 0.81728 5.26357 0.718918 5.25956C0.620556 5.25554 0.523948 5.23219 0.43461 5.19084C0.345271 5.14949 0.264953 5.09094 0.19824 5.01855C0.0635071 4.87235 -0.0076289 4.67861 0.000481216 4.47996C0.00399607 3.6856 -0.00795444 2.89125 0.00540201 2.09689C0.0602338 1.02556 0.979017 0.0884993 2.04824 0.0118755Z" fill="#828282"/>
<path d="M10.4039 0.010227C11.1694 -0.00805024 11.9385 0.00530621 12.7061 0.000385411C13.0027 -0.00510528 13.2974 0.0481186 13.5734 0.156993C13.8493 0.265868 14.101 0.428243 14.3139 0.634773C14.5268 0.841302 14.6968 1.08791 14.8141 1.36039C14.9313 1.63288 14.9935 1.92586 14.9971 2.22248C14.9971 2.99575 15.002 3.76901 14.9971 4.54228C14.9873 4.71942 14.9149 4.88732 14.7929 5.01607C14.6708 5.14481 14.507 5.22603 14.3307 5.24525C13.9208 5.30079 13.5089 4.95633 13.5026 4.54228C13.4948 3.76901 13.5075 2.99996 13.4983 2.2288C13.4922 2.03896 13.4142 1.85854 13.28 1.7241C13.1458 1.58966 12.9655 1.51124 12.7757 1.50474C12.0024 1.4956 11.2292 1.50826 10.4559 1.49982C10.2688 1.49041 10.092 1.41112 9.96052 1.27763C9.82905 1.14413 9.75248 0.966156 9.74594 0.77891C9.7394 0.591663 9.80337 0.408781 9.92521 0.26644C10.047 0.124099 10.2179 0.0326655 10.4039 0.010227Z" fill="#828282"/>
<path d="M3.50599 3.792C3.98823 3.60361 4.55552 4.03664 4.49929 4.55121C4.47046 4.96807 4.61176 5.48335 4.25746 5.80039C3.90598 6.15188 3.24026 6.01128 3.05819 5.54802C2.95275 5.22747 3.02305 4.8788 3.00125 4.54629C2.99293 4.38297 3.03756 4.22133 3.1285 4.08542C3.21945 3.94951 3.35184 3.8466 3.50599 3.792Z" fill="#828282"/>
<path d="M6.4675 3.80676C6.92443 3.59587 7.50649 3.97336 7.50016 4.47599C7.50508 5.22676 7.50016 5.97753 7.50016 6.72901C7.49605 6.85667 7.52479 6.98324 7.58362 7.09661C7.64246 7.20997 7.72942 7.30633 7.83618 7.37645C8.08784 7.56554 8.44706 7.4362 8.69099 7.64639C9.0699 7.90789 9.09661 8.51877 8.74161 8.81191C8.45198 9.07764 8.02387 9.00734 7.6752 8.92509C6.7522 8.69381 6.03868 7.82072 6.00494 6.8682C5.99229 6.09493 6.00494 5.31744 6.00072 4.54207C5.99367 4.38642 6.03468 4.23237 6.11818 4.10082C6.20169 3.96928 6.32364 3.86661 6.4675 3.80676Z" fill="#828282"/>
<path d="M10.9108 3.83037C11.3965 3.55339 12.0517 3.99345 11.999 4.54458C11.9687 4.94668 12.1065 5.42681 11.8028 5.7558C11.5181 6.08831 10.9445 6.07706 10.6746 5.7312C10.4088 5.4233 10.5248 4.98886 10.496 4.6184C10.4781 4.4606 10.5081 4.30106 10.5821 4.16052C10.656 4.01999 10.7706 3.90495 10.9108 3.83037Z" fill="#828282"/>
<path d="M4.30316 9.02663C4.453 8.98658 4.61152 8.99356 4.75726 9.04662C4.903 9.09969 5.0289 9.19627 5.11791 9.32328C5.39031 9.67941 5.73914 9.96989 6.13869 10.1733C6.53825 10.3768 6.97835 10.488 7.42658 10.4988C7.87482 10.5096 8.31976 10.4197 8.72864 10.2357C9.13753 10.0517 9.49993 9.77836 9.78916 9.43576C9.91429 9.28321 10.0401 9.11169 10.2369 9.04842C10.421 8.98055 10.6242 8.98716 10.8034 9.06685C10.9826 9.14655 11.1237 9.29303 11.1965 9.47512C11.2444 9.5925 11.2613 9.7202 11.2457 9.846C11.2301 9.9718 11.1824 10.0915 11.1072 10.1936C10.7034 10.7353 10.1827 11.1791 9.58388 11.4921C8.98503 11.8051 8.32337 11.9791 7.64804 12.0013C6.97271 12.0235 6.30104 11.8934 5.68292 11.6204C5.06479 11.3475 4.51607 10.9389 4.07751 10.4248C3.92918 10.2491 3.76398 10.0621 3.75133 9.82028C3.73582 9.64431 3.78256 9.46848 3.8834 9.32344C3.98425 9.1784 4.1328 9.07336 4.30316 9.02663Z" fill="#828282"/>
<path d="M0.501092 9.79316C0.947478 9.61531 1.49298 9.97664 1.49861 10.4575C1.50704 11.2272 1.49509 11.9977 1.50353 12.7681C1.50848 12.9596 1.58656 13.1419 1.72174 13.2777C1.85692 13.4134 2.03894 13.4921 2.2304 13.4978C3.00367 13.5063 3.77061 13.4943 4.54036 13.5021C4.95512 13.5084 5.30028 13.9189 5.24333 14.328C5.22248 14.5155 5.13219 14.6884 4.99025 14.8127C4.8483 14.9369 4.66499 15.0035 4.47639 14.9994C3.68204 14.9994 2.88768 15.0085 2.09332 14.9931C1.00723 14.9403 0.054705 13.9969 0.005497 12.9087C-0.00785945 12.1137 0.00479403 11.3186 -0.00012677 10.5243C-0.00432983 10.3651 0.0418798 10.2087 0.131898 10.0774C0.221917 9.94611 0.351137 9.84662 0.501092 9.79316Z" fill="#828282"/>
<path d="M13.9962 9.79386C14.4468 9.61179 14.9909 9.97523 14.9951 10.4603C14.9986 11.2736 15.0042 12.0884 14.9951 12.9017C14.9424 13.9948 13.987 14.9473 12.8932 14.9944C12.1038 15.0057 11.3136 14.9944 10.5242 14.9987C10.3272 15.0046 10.1358 14.9327 9.99152 14.7985C9.84724 14.6642 9.7617 14.4785 9.75346 14.2816C9.74523 14.0847 9.81496 13.8925 9.94754 13.7467C10.0801 13.6009 10.2648 13.5132 10.4616 13.5027C11.2349 13.4901 12.0032 13.5077 12.7744 13.4971C12.9647 13.4914 13.1457 13.4131 13.2801 13.2782C13.4145 13.1433 13.4921 12.962 13.4971 12.7716C13.5076 11.9984 13.49 11.23 13.5027 10.4603C13.51 10.3129 13.5608 10.171 13.6486 10.0524C13.7364 9.93384 13.8574 9.84388 13.9962 9.79386Z" fill="#828282"/>
</g>
<defs>
<clipPath id="clip0_288:336">
<rect width="14.9993" height="15" fill="white"/>
</clipPath>
</defs>
</svg>
