<svg width="50" height="50" viewBox="0 0 50 50" fill="none" xmlns="http://www.w3.org/2000/svg">
<g clip-path="url(#clip0_288_260)">
<path d="M6.8277 0.0363297C9.52945 -0.0363107 12.2359 0.0269567 14.94 0.00118113C15.5944 -0.0139072 16.2285 0.228718 16.7057 0.676767C17.1829 1.12482 17.4649 1.74242 17.4911 2.39646C17.5172 3.05051 17.2853 3.68864 16.8454 4.17332C16.4054 4.65801 15.7927 4.95044 15.1392 4.98759C12.5733 5.02977 10.0051 4.97119 7.43694 5.00634C6.80042 5.02056 6.19378 5.27912 5.74271 5.72845C5.29164 6.17777 5.03072 6.78341 5.01403 7.41987C4.97888 9.99743 5.03746 12.575 4.99529 15.1338C4.9819 15.4617 4.90407 15.7837 4.76623 16.0815C4.62839 16.3793 4.43325 16.647 4.19194 16.8694C3.95063 17.0918 3.66789 17.2644 3.35985 17.3776C3.05181 17.4907 2.72451 17.542 2.39664 17.5286C2.06876 17.5152 1.74674 17.4374 1.44894 17.2995C1.15115 17.1617 0.883421 16.9666 0.661044 16.7252C0.211934 16.2379 -0.0251855 15.5921 0.00184819 14.9299C0.0135644 12.2821 -0.0262707 9.63423 0.0182509 6.98637C0.201023 3.41528 3.26363 0.291743 6.8277 0.0363297Z" fill="#26A05B"/>
<path d="M34.68 0.0321369C37.2318 -0.0287873 39.7953 0.0157342 42.3541 -0.000668423C43.3427 -0.0189707 44.3252 0.158442 45.245 0.521358C46.1648 0.884274 47.0037 1.42553 47.7135 2.11396C48.4232 2.80239 48.9898 3.6244 49.3807 4.53269C49.7715 5.44097 49.9788 6.41758 49.9907 7.4063C49.9907 9.98387 50.0071 12.5614 49.9907 15.139C49.9581 15.7294 49.7168 16.2891 49.31 16.7183C48.9032 17.1474 48.3572 17.4182 47.7693 17.4822C46.4032 17.6673 45.03 16.5192 45.009 15.139C44.9832 12.5614 45.0254 9.99793 44.9949 7.42739C44.9745 6.79457 44.7143 6.19318 44.267 5.74504C43.8197 5.2969 43.2188 5.03553 42.5861 5.01386C40.0085 4.9834 37.4309 5.02558 34.8534 4.99746C34.2296 4.9661 33.6404 4.70178 33.2021 4.2568C32.7639 3.81181 32.5087 3.21857 32.4869 2.59441C32.4651 1.97026 32.6783 1.36065 33.0844 0.886179C33.4905 0.411709 34.0599 0.106932 34.68 0.0321369V0.0321369Z" fill="#26A05B"/>
<path d="M11.6874 12.6381C13.2948 12.0101 15.1858 13.4535 14.9984 15.1687C14.9023 16.5583 15.3733 18.2759 14.1923 19.3327C13.0207 20.5043 10.8016 20.0357 10.1947 18.4915C9.84323 17.4229 10.0776 16.2607 10.0049 15.1523C9.97716 14.608 10.1259 14.0692 10.4291 13.6161C10.7322 13.1631 11.1735 12.8201 11.6874 12.6381V12.6381Z" fill="#26A05B"/>
<path d="M21.5592 12.6882C23.0823 11.9852 25.0225 13.2436 25.0014 14.919C25.0178 17.4216 25.0014 19.9241 25.0014 22.4291C24.9877 22.8546 25.0835 23.2765 25.2796 23.6544C25.4758 24.0323 25.7656 24.3535 26.1215 24.5872C26.9604 25.2175 28.1578 24.7863 28.9709 25.487C30.2339 26.3587 30.3229 28.3949 29.1396 29.3721C28.1742 30.2578 26.7471 30.0235 25.5849 29.7493C22.5082 28.9784 20.1298 26.0681 20.0174 22.893C19.9752 20.3155 20.0174 17.7238 20.0033 15.1392C19.9798 14.6204 20.1165 14.1069 20.3948 13.6684C20.6732 13.23 21.0797 12.8877 21.5592 12.6882Z" fill="#26A05B"/>
<path d="M36.3698 12.7656C37.989 11.8424 40.1729 13.3092 39.9971 15.1463C39.8964 16.4867 40.3556 18.0871 39.3433 19.1837C38.3943 20.2921 36.4823 20.2546 35.5825 19.1017C34.6967 18.0754 35.0833 16.6273 34.9873 15.3924C34.9276 14.8664 35.0275 14.3346 35.2741 13.8661C35.5207 13.3977 35.9024 13.0142 36.3698 12.7656V12.7656Z" fill="#26A05B"/>
<path d="M14.344 30.0865C14.8435 29.953 15.3719 29.9763 15.8577 30.1531C16.3435 30.33 16.7632 30.652 17.0599 31.0753C17.9679 32.2624 19.1306 33.2307 20.4625 33.9088C21.7943 34.5869 23.2613 34.9576 24.7554 34.9936C26.2495 35.0296 27.7327 34.7299 29.0956 34.1167C30.4586 33.5034 31.6666 32.5923 32.6307 31.4502C33.0478 30.9418 33.4672 30.37 34.1233 30.1591C34.7367 29.9329 35.4142 29.9549 36.0115 30.2206C36.6089 30.4862 37.079 30.9745 37.3219 31.5815C37.4815 31.9727 37.5379 32.3984 37.4858 32.8177C37.4337 33.2371 37.2748 33.636 37.0243 33.9763C35.6782 35.7821 33.9426 37.2615 31.9464 38.3047C29.9502 39.3479 27.7447 39.9281 25.4936 40.0021C23.2425 40.0762 21.0036 39.6422 18.9432 38.7325C16.8828 37.8228 15.0537 36.4606 13.5919 34.7472C13.0974 34.1614 12.5468 33.5381 12.5046 32.732C12.4529 32.1454 12.6087 31.5593 12.9448 31.0759C13.281 30.5924 13.7762 30.2423 14.344 30.0865Z" fill="#26A05B"/>
<path d="M1.66998 32.64C3.15794 32.0471 4.97629 33.2516 4.99503 34.8543C5.02315 37.4202 4.98332 39.9884 5.01144 42.5566C5.02793 43.1949 5.28821 43.8026 5.73881 44.2549C6.18942 44.7073 6.79614 44.9699 7.43434 44.9889C10.0119 45.017 12.5684 44.9772 15.1342 45.0029C16.5167 45.024 17.6673 46.3925 17.4775 47.7563C17.4079 48.3812 17.107 48.9575 16.6338 49.3717C16.1607 49.7858 15.5496 50.0079 14.921 49.9941C12.2731 49.9941 9.62527 50.0245 6.97741 49.973C3.35711 49.7972 0.182024 46.6526 0.0179978 43.0252C-0.0265237 40.375 0.0156546 37.7248 -0.000748087 35.0769C-0.0147583 34.5465 0.139274 34.0251 0.439336 33.5875C0.739397 33.1498 1.17013 32.8181 1.66998 32.64V32.64Z" fill="#26A05B"/>
<path d="M46.6541 32.6426C48.1561 32.0357 49.9698 33.2472 49.9838 34.864C49.9955 37.5751 50.0143 40.291 49.9838 43.0021C49.8081 46.6458 46.6236 49.8209 42.9775 49.9779C40.3461 50.0154 37.7123 49.9779 35.0808 49.992C34.4242 50.0119 33.7862 49.7721 33.3052 49.3247C32.8243 48.8772 32.5392 48.2582 32.5117 47.6018C32.4843 46.9455 32.7167 46.3048 33.1586 45.8188C33.6005 45.3327 34.2163 45.0405 34.8723 45.0055C37.4498 44.9634 40.011 45.0219 42.5815 44.9868C43.216 44.9679 43.8191 44.7067 44.2671 44.257C44.7151 43.8073 44.9739 43.2031 44.9904 42.5686C45.0255 39.991 44.9669 37.4299 45.0091 34.864C45.0336 34.3728 45.2029 33.8998 45.4956 33.5045C45.7883 33.1092 46.1913 32.8094 46.6541 32.6426V32.6426Z" fill="#26A05B"/>
</g>
<defs>
<clipPath id="clip0_288_260">
<rect width="49.9977" height="50" fill="white"/>
</clipPath>
</defs>
</svg>
