<svg width="30" height="30" viewBox="0 0 30 30" fill="none" xmlns="http://www.w3.org/2000/svg">
<path d="M15.6445 30C23.5728 30 30 23.5728 30 15.6445C30 7.71622 23.5728 1.28906 15.6445 1.28906C7.71622 1.28906 1.28906 7.71622 1.28906 15.6445C1.28906 23.5728 7.71622 30 15.6445 30Z" fill="#F24976"/>
<path d="M14.1597 14.1595C15.2689 13.0504 16.7435 12.4397 18.3118 12.4397C19.3804 12.4397 20.4051 12.7234 21.3006 13.2548V3.15015H0V21.7191C0 22.0414 0.263672 22.305 0.585937 22.305H14.0077C11.8719 20.0054 11.9224 16.397 14.1597 14.1595Z" fill="#EEF6FF"/>
<path d="M1.32891 21.7191V3.15015H0V21.7191C0 22.0414 0.263672 22.305 0.585938 22.305H1.91484C1.59258 22.305 1.32891 22.0414 1.32891 21.7191Z" fill="#C3DDF4"/>
<path d="M20.9657 0H0.334922C0.150703 0 0 0.150703 0 0.334922V3.31629H21.3006V0.334922C21.3006 0.150703 21.1499 0 20.9657 0Z" fill="#293D7C"/>
<path d="M1.66383 0H0.334922C0.150703 0 0 0.150703 0 0.334922V3.31629H1.32891V0.334922C1.32891 0.150703 1.47961 0 1.66383 0Z" fill="#1A2B63"/>
<path d="M9.273 10.4657C9.273 10.6268 9.14116 10.7587 8.98003 10.7587H2.45016C2.28903 10.7587 2.1572 10.6268 2.1572 10.4657V5.78296C2.1572 5.62183 2.28903 5.48999 2.45016 5.48999H8.97997C9.1411 5.48999 9.27294 5.62183 9.27294 5.78296V10.4657H9.273Z" fill="#69CDFF"/>
<path d="M3.4861 10.4657V5.78296C3.4861 5.62183 3.61794 5.48999 3.77907 5.48999H2.45016C2.28903 5.48999 2.1572 5.62183 2.1572 5.78296V10.4657C2.1572 10.6268 2.28903 10.7587 2.45016 10.7587H3.77907C3.61794 10.7587 3.4861 10.6268 3.4861 10.4657Z" fill="#52BBEF"/>
<path d="M12.7236 16.511H2.45016C2.28903 16.511 2.1572 16.6428 2.1572 16.804V19.6053C2.1572 19.7664 2.28903 19.8982 2.45016 19.8982H12.6599C12.3508 18.7903 12.3718 17.6088 12.7236 16.511Z" fill="#FF9518"/>
<path d="M3.4861 19.6053V16.804C3.4861 16.6428 3.61794 16.511 3.77907 16.511H2.45016C2.28903 16.511 2.1572 16.6428 2.1572 16.804V19.6053C2.1572 19.7664 2.28903 19.8982 2.45016 19.8982H3.77907C3.61794 19.8982 3.4861 19.7664 3.4861 19.6053Z" fill="#EF8318"/>
<path d="M12.7236 16.511H10.5967V19.8982H12.6599C12.3508 18.7903 12.3718 17.6088 12.7236 16.511Z" fill="#FFD00D"/>
<path d="M18.7942 5.92944H11.6113C11.3686 5.92944 11.1718 5.73269 11.1718 5.48999C11.1718 5.24729 11.3686 5.05054 11.6113 5.05054H18.7942C19.037 5.05054 19.2337 5.24729 19.2337 5.48999C19.2337 5.73269 19.037 5.92944 18.7942 5.92944Z" fill="#91E0E8"/>
<path d="M18.7942 7.6858H11.6113C11.3686 7.6858 11.1718 7.48904 11.1718 7.24634C11.1718 7.00364 11.3686 6.80688 11.6113 6.80688H18.7942C19.037 6.80688 19.2337 7.00364 19.2337 7.24634C19.2337 7.48904 19.037 7.6858 18.7942 7.6858Z" fill="#91E0E8"/>
<path d="M18.7942 9.44189H11.6113C11.3686 9.44189 11.1718 9.24514 11.1718 9.00244C11.1718 8.75975 11.3686 8.56299 11.6113 8.56299H18.7942C19.037 8.56299 19.2337 8.75975 19.2337 9.00244C19.2337 9.24514 19.037 9.44189 18.7942 9.44189Z" fill="#91E0E8"/>
<path d="M18.7942 11.1982H11.6113C11.3686 11.1982 11.1718 11.0015 11.1718 10.7588C11.1718 10.5161 11.3686 10.3193 11.6113 10.3193H18.7942C19.037 10.3193 19.2337 10.5161 19.2337 10.7588C19.2337 11.0015 19.037 11.1982 18.7942 11.1982Z" fill="#91E0E8"/>
<path d="M17.5464 12.4893H2.1572C1.91444 12.4893 1.71774 12.686 1.71774 12.9287C1.71774 13.1714 1.91444 13.3682 2.1572 13.3682H15.14C15.8658 12.9005 16.6841 12.6008 17.5464 12.4893Z" fill="#91E0E8"/>
<path d="M14.0456 14.2771H2.1572C1.91444 14.2771 1.71774 14.4739 1.71774 14.7165C1.71774 14.9592 1.91444 15.156 2.1572 15.156H13.3596C13.5566 14.8469 13.7851 14.5523 14.0456 14.2771Z" fill="#91E0E8"/>
<path d="M2.04463 2.02783C1.92867 2.02783 1.81553 1.98096 1.7335 1.89945C1.652 1.81742 1.60518 1.70434 1.60518 1.58838C1.60518 1.47289 1.65205 1.35986 1.7335 1.27783C1.81547 1.1958 1.92862 1.14893 2.04463 1.14893C2.16012 1.14893 2.27373 1.19574 2.35518 1.27783C2.43721 1.35986 2.48409 1.47295 2.48409 1.58838C2.48409 1.70434 2.43721 1.81748 2.35518 1.89945C2.27373 1.98096 2.16006 2.02783 2.04463 2.02783Z" fill="#E26693"/>
<path d="M3.48575 2.02783C3.37026 2.02783 3.25665 1.98096 3.17514 1.89887C3.09317 1.81742 3.0463 1.70434 3.0463 1.58838C3.0463 1.47289 3.09317 1.35986 3.17514 1.27783C3.25717 1.1958 3.37026 1.14893 3.48575 1.14893C3.60171 1.14893 3.71479 1.19574 3.79688 1.27783C3.87833 1.35986 3.9252 1.47295 3.9252 1.58838C3.9252 1.70381 3.87827 1.81748 3.79688 1.89887C3.71479 1.98096 3.60176 2.02783 3.48575 2.02783Z" fill="#FFAF10"/>
<path d="M4.92744 2.02783C4.81143 2.02783 4.69834 1.98096 4.6169 1.89945C4.53487 1.81742 4.48799 1.70434 4.48799 1.58838C4.48799 1.47289 4.53487 1.35986 4.6169 1.27783C4.69834 1.1958 4.81143 1.14893 4.92744 1.14893C5.04287 1.14893 5.15655 1.19574 5.23799 1.27783C5.32002 1.35986 5.3669 1.47295 5.3669 1.58838C5.3669 1.70434 5.32002 1.81748 5.23799 1.89945C5.15596 1.98096 5.04282 2.02783 4.92744 2.02783Z" fill="#37C47A"/>
<path d="M24.0098 22.8052L22.8055 24.0096L25.1748 26.379C25.5996 26.0016 26.0018 25.5993 26.3793 25.1745L24.0098 22.8052Z" fill="#445EA0"/>
<path d="M24.488 22.0789L23.4898 21.0808C23.2243 21.578 22.8825 22.045 22.4637 22.4637C22.0497 22.8777 21.5847 23.2222 21.0829 23.4915L22.0792 24.4877C22.1931 24.6017 22.3795 24.6017 22.4935 24.4877L24.488 22.4932C24.6019 22.3793 24.6019 22.1929 24.488 22.0789Z" fill="#293D7C"/>
<path d="M22.7627 23.8039L21.9108 22.9519C21.6488 23.1559 21.372 23.336 21.0829 23.4912L22.0791 24.4874C22.193 24.6014 22.3795 24.6014 22.4934 24.4874L23.1771 23.8038C23.0631 23.9178 22.8767 23.9178 22.7627 23.8039Z" fill="#1A2B63"/>
<path d="M22.5466 14.0766C24.8855 16.4155 24.8855 20.2076 22.5466 22.5464C20.2079 24.8851 16.4159 24.8852 14.0769 22.5464C11.738 20.2076 11.7382 16.4155 14.0769 14.0767C16.4159 11.7378 20.2079 11.7378 22.5466 14.0766Z" fill="#445EA0"/>
<path d="M21.2811 21.2807C19.6413 22.9205 16.9825 22.9205 15.3425 21.2805C13.7027 19.6409 13.7026 16.982 15.3425 15.3421C16.9823 13.7023 19.6412 13.7024 21.281 15.3421C22.9209 16.9821 22.9209 19.6408 21.2811 21.2807Z" fill="#69CDFF"/>
<path d="M21.2811 21.2807C21.4304 21.1313 21.5658 20.9733 21.6879 20.8086C20.044 22.0277 17.712 21.8923 16.2214 20.4016C14.7309 18.9112 14.5955 16.5792 15.8145 14.9353C15.6498 15.0575 15.4918 15.1928 15.3425 15.3421C13.7026 16.982 13.7027 19.6408 15.3425 21.2805C16.9825 22.9205 19.6413 22.9205 21.2811 21.2807Z" fill="#52BBEF"/>
<path d="M20.9657 0H6.79172V3.31629H21.3006V0.334922C21.3006 0.150703 21.1499 0 20.9657 0Z" fill="#445EA0"/>
<path d="M19.033 16.2029C19.4213 16.2029 19.7361 15.8881 19.7361 15.4998C19.7361 15.1114 19.4213 14.7966 19.033 14.7966C18.6447 14.7966 18.3299 15.1114 18.3299 15.4998C18.3299 15.8881 18.6447 16.2029 19.033 16.2029Z" fill="#D9EAFC"/>
<path d="M20.5101 16.7285C20.7852 16.7285 21.0082 16.5055 21.0082 16.2305C21.0082 15.9554 20.7852 15.7324 20.5101 15.7324C20.2351 15.7324 20.0121 15.9554 20.0121 16.2305C20.0121 16.5055 20.2351 16.7285 20.5101 16.7285Z" fill="#D9EAFC"/>
</svg>
