<svg width="16" height="18" viewBox="0 0 16 18" fill="none" xmlns="http://www.w3.org/2000/svg">
<path d="M12.8419 2.72499C12.7752 2.72499 12.7085 2.70832 12.6502 2.67499C11.0502 1.84999 9.66686 1.49999 8.00852 1.49999C6.35852 1.49999 4.79186 1.89166 3.36686 2.67499C3.16686 2.78332 2.91686 2.70832 2.80019 2.50832C2.69186 2.30832 2.76686 2.04999 2.96686 1.94166C4.51686 1.09999 6.21686 0.666656 8.00852 0.666656C9.78352 0.666656 11.3335 1.05832 13.0335 1.93332C13.2419 2.04166 13.3169 2.29166 13.2085 2.49166C13.1335 2.64166 12.9919 2.72499 12.8419 2.72499ZM0.916858 7.09999C0.833524 7.09999 0.750191 7.07499 0.675191 7.02499C0.483524 6.89166 0.441858 6.63332 0.575191 6.44166C1.40019 5.27499 2.45019 4.35832 3.70019 3.71666C6.31686 2.36666 9.66686 2.35832 12.2919 3.70832C13.5419 4.34999 14.5919 5.25832 15.4169 6.41666C15.5502 6.59999 15.5085 6.86666 15.3169 6.99999C15.1252 7.13332 14.8669 7.09166 14.7335 6.89999C13.9835 5.84999 13.0335 5.02499 11.9085 4.44999C9.51686 3.22499 6.45852 3.22499 4.07519 4.45832C2.94186 5.04166 1.99186 5.87499 1.24186 6.92499C1.17519 7.04166 1.05019 7.09999 0.916858 7.09999ZM6.12519 17.1583C6.01686 17.1583 5.90852 17.1167 5.83352 17.0333C5.10852 16.3083 4.71686 15.8417 4.15852 14.8333C3.58352 13.8083 3.28352 12.5583 3.28352 11.2167C3.28352 8.74166 5.40019 6.72499 8.00019 6.72499C10.6002 6.72499 12.7169 8.74166 12.7169 11.2167C12.7169 11.45 12.5335 11.6333 12.3002 11.6333C12.0669 11.6333 11.8835 11.45 11.8835 11.2167C11.8835 9.19999 10.1419 7.55832 8.00019 7.55832C5.85852 7.55832 4.11686 9.19999 4.11686 11.2167C4.11686 12.4167 4.38353 13.525 4.89186 14.425C5.42519 15.3833 5.79186 15.7917 6.43352 16.4417C6.59186 16.6083 6.59186 16.8667 6.43352 17.0333C6.34186 17.1167 6.23352 17.1583 6.12519 17.1583ZM12.1002 15.6167C11.1085 15.6167 10.2335 15.3667 9.51686 14.875C8.27519 14.0333 7.53352 12.6667 7.53352 11.2167C7.53352 10.9833 7.71686 10.8 7.95019 10.8C8.18352 10.8 8.36686 10.9833 8.36686 11.2167C8.36686 12.3917 8.96686 13.5 9.98352 14.1833C10.5752 14.5833 11.2669 14.775 12.1002 14.775C12.3002 14.775 12.6335 14.75 12.9669 14.6917C13.1919 14.65 13.4085 14.8 13.4502 15.0333C13.4919 15.2583 13.3419 15.475 13.1085 15.5167C12.6335 15.6083 12.2169 15.6167 12.1002 15.6167ZM10.4252 17.3333C10.3919 17.3333 10.3502 17.325 10.3169 17.3167C8.99186 16.95 8.12519 16.4583 7.21686 15.5667C6.05019 14.4083 5.40852 12.8667 5.40852 11.2167C5.40852 9.86666 6.55852 8.76666 7.97519 8.76666C9.39186 8.76666 10.5419 9.86666 10.5419 11.2167C10.5419 12.1083 11.3169 12.8333 12.2752 12.8333C13.2335 12.8333 14.0085 12.1083 14.0085 11.2167C14.0085 8.07499 11.3002 5.52499 7.96686 5.52499C5.60019 5.52499 3.43352 6.84166 2.45852 8.88332C2.13352 9.55832 1.96686 10.35 1.96686 11.2167C1.96686 11.8667 2.02519 12.8917 2.52519 14.225C2.60852 14.4417 2.50019 14.6833 2.28352 14.7583C2.06686 14.8417 1.82519 14.725 1.75019 14.5167C1.34186 13.425 1.14186 12.3417 1.14186 11.2167C1.14186 10.2167 1.33352 9.30832 1.70852 8.51666C2.81686 6.19166 5.27519 4.68332 7.96686 4.68332C11.7585 4.68332 14.8419 7.60832 14.8419 11.2083C14.8419 12.5583 13.6919 13.6583 12.2752 13.6583C10.8585 13.6583 9.70852 12.5583 9.70852 11.2083C9.70852 10.3167 8.93353 9.59166 7.97519 9.59166C7.01686 9.59166 6.24186 10.3167 6.24186 11.2083C6.24186 12.6333 6.79186 13.9667 7.80019 14.9667C8.59186 15.75 9.35019 16.1833 10.5252 16.5083C10.7502 16.5667 10.8752 16.8 10.8169 17.0167C10.7752 17.2083 10.6002 17.3333 10.4252 17.3333Z" fill="#0E9549"/>
</svg>
