<svg width="40" height="40" viewBox="0 0 40 40" fill="none" xmlns="http://www.w3.org/2000/svg">
<rect opacity="0.2" width="40" height="40" rx="10" fill="#E99B9B"/>
<path d="M29.9941 19.87C29.9775 19.8755 29.9609 19.881 29.9499 19.8921C29.3755 20.6377 28.6464 21.1845 27.7958 21.5767C27.2822 21.8142 26.7464 21.9854 26.1996 22.1069C26.0891 22.1345 25.9732 22.1511 25.8627 22.1732C25.7246 22.2063 25.708 22.2339 25.7743 22.3499C25.7909 22.3775 25.8075 22.4052 25.824 22.4328C25.8516 22.4825 25.8793 22.5322 25.9069 22.5819C26.2162 23.1397 26.4979 23.7086 26.7243 24.3051C26.9232 24.8243 27.0778 25.3546 27.1772 25.9014C27.2325 26.1886 27.2601 26.4813 27.2822 26.774C27.2877 26.8127 27.2877 26.8569 27.2766 26.8955C27.2711 26.9121 27.249 26.9397 27.2325 26.9452C27.1165 26.9784 26.995 26.9894 26.8679 26.995C26.2327 27.0226 25.6142 26.9452 25.0066 26.7795C24.4156 26.6194 23.8522 26.3874 23.3054 26.1057C23.0238 25.9621 22.7476 25.8019 22.477 25.6362C22.4383 25.6086 22.3886 25.5921 22.3444 25.5755C22.3334 25.57 22.3113 25.581 22.3057 25.5921C22.2892 25.6362 22.2671 25.6804 22.256 25.7301C22.1953 26.0229 22.118 26.3156 22.0241 26.6028C21.7148 27.5749 21.2563 28.4697 20.6598 29.2926C20.5217 29.4859 20.3726 29.6682 20.229 29.856C20.2014 29.8891 20.1793 29.9167 20.1517 29.9499C20.0965 30.0106 20.0633 30.0162 20.0081 29.9664C19.8534 29.8228 19.6988 29.6792 19.5497 29.5246C18.6659 28.5912 18.086 27.492 17.8098 26.2383C17.7712 26.0726 17.7436 25.9014 17.7104 25.7357C17.7049 25.7136 17.6939 25.686 17.6828 25.6694C17.6773 25.6583 17.6497 25.6473 17.6441 25.6473C17.5834 25.6694 17.5226 25.697 17.4674 25.7246C16.893 26.0339 16.302 26.3101 15.6889 26.531C15.1311 26.7354 14.5567 26.89 13.9657 26.9839C13.684 27.0281 13.4023 27.0557 13.1151 27.0612C13.082 27.0612 13.0488 27.0612 13.0157 27.0612C12.9549 27.0612 12.9218 27.0281 12.9163 26.9784C12.9107 26.9563 12.9107 26.9287 12.9052 26.9066C12.8997 26.774 12.8997 26.647 12.8997 26.5144C12.8997 26.4426 12.9052 26.3653 12.9107 26.2935C12.9384 25.6307 13.0764 24.9845 13.2974 24.3604C13.5238 23.7363 13.8331 23.1563 14.1921 22.5985C14.2418 22.5211 14.286 22.4438 14.3302 22.372C14.3413 22.3554 14.3247 22.3168 14.3081 22.3057C14.2805 22.2947 14.2474 22.2781 14.2197 22.2671C14.1479 22.245 14.0817 22.2229 14.0099 22.2008C13.452 22.0185 12.9052 21.8086 12.3695 21.5601C11.795 21.2895 11.2427 20.9691 10.7346 20.588C10.5192 20.4278 10.3093 20.2566 10.116 20.0688C10.0773 20.0302 10.0387 19.986 10 19.9418C10.0221 19.9087 10.0387 19.881 10.0608 19.859C10.6076 19.279 11.2151 18.7764 11.911 18.3898C12.5959 18.0087 13.325 17.7601 14.0982 17.6552C14.1148 17.6552 14.1314 17.6497 14.1479 17.6497C14.3854 17.611 14.391 17.6055 14.2695 17.4011C14.0099 16.9648 13.7834 16.5174 13.5901 16.0479C13.325 15.4128 13.1427 14.7555 13.0267 14.0761C12.9715 13.7392 12.9494 13.3968 12.9328 13.0543C12.9328 13.0212 12.9328 12.9881 12.9439 12.9604C12.9494 12.9384 12.9715 12.9163 12.9936 12.9107C13.0543 12.8942 13.1206 12.8831 13.1869 12.8831C13.4244 12.8776 13.6619 12.8721 13.8939 12.8831C14.2253 12.9052 14.5567 12.9384 14.8881 13.0046C15.6834 13.1648 16.4125 13.4686 17.0863 13.916C17.2244 14.0043 17.3514 14.1038 17.484 14.2032C17.5282 14.2363 17.5723 14.275 17.622 14.3081C17.6718 14.3413 17.7104 14.3247 17.7325 14.2639C17.7436 14.2197 17.7546 14.17 17.7657 14.1203C17.8485 13.7724 17.9424 13.4244 18.0584 13.0875C18.3456 12.259 18.7433 11.4857 19.279 10.7843C19.4502 10.5578 19.638 10.3424 19.8369 10.1326C19.881 10.0884 19.9308 10.0442 19.9749 10C20.0467 10.0055 20.0799 10.0552 20.1241 10.0939C20.4941 10.4308 20.8255 10.8009 21.1182 11.2041C21.6706 11.9663 22.0406 12.8113 22.2505 13.7282C22.2726 13.8331 22.2892 13.9381 22.3113 14.0375C22.3278 14.1093 22.3278 14.1866 22.3775 14.2529C22.4052 14.2474 22.4383 14.2418 22.4659 14.2308C22.5377 14.1921 22.604 14.1479 22.6758 14.1093C23.0956 13.8607 23.5264 13.6343 23.9793 13.4354C24.5979 13.1703 25.233 12.977 25.9014 12.8831C26.1941 12.8445 26.4868 12.8113 26.7796 12.8224C26.8182 12.8224 26.8624 12.8279 26.9011 12.8279C26.9232 12.8279 26.9618 12.8666 26.9673 12.8942C26.9784 12.9494 26.9894 13.0046 26.995 13.0599C27.0005 13.3029 27.0115 13.5514 27.0115 13.7945C27.0005 14.4793 26.8403 15.1311 26.5862 15.7662C26.3764 16.2909 26.1057 16.7825 25.8075 17.263C25.7633 17.3293 25.7246 17.4011 25.6859 17.4729C25.6694 17.495 25.6915 17.5447 25.7191 17.5558C25.7909 17.5779 25.8572 17.6 25.929 17.622C26.4426 17.7767 26.9508 17.9479 27.4479 18.1578C27.7848 18.3014 28.1162 18.4561 28.4365 18.6328C28.9888 18.9421 29.5025 19.2956 29.9499 19.743C29.9609 19.754 29.9775 19.754 29.9941 19.7595C29.9941 19.8092 29.9941 19.8424 29.9941 19.87ZM24.6862 17.8816C24.7194 17.8319 24.747 17.7712 24.7801 17.7215C24.9845 17.4066 25.1889 17.0918 25.3877 16.777C25.6307 16.3904 25.8351 15.9816 26.0063 15.5564C26.2493 14.9543 26.3874 14.3247 26.3929 13.6785C26.3929 13.6288 26.3874 13.579 26.3764 13.5349C26.3708 13.5183 26.3432 13.5017 26.3266 13.4907C26.3156 13.4852 26.2935 13.4852 26.2769 13.4852C25.9676 13.5128 25.6639 13.5625 25.3601 13.6343C24.8133 13.7668 24.2886 13.9712 23.7804 14.2197C23.3938 14.4131 23.0182 14.6285 22.6537 14.8549C22.4604 14.9764 22.2671 15.0979 22.0738 15.2139C22.0296 15.2415 21.9909 15.2636 21.9467 15.2857C21.9191 15.3023 21.8804 15.2802 21.8749 15.2471C21.8418 15.0206 21.8031 14.7942 21.77 14.5732C21.7203 14.2418 21.6595 13.916 21.5711 13.5901C21.306 12.6401 20.8476 11.795 20.1903 11.0605C20.1462 11.0107 20.102 10.9666 20.0523 10.9224C20.0412 10.9113 20.0026 10.9113 19.986 10.9224C19.9528 10.9445 19.9252 10.9776 19.8976 11.0052C19.5938 11.3808 19.3287 11.784 19.1078 12.2093C18.7764 12.8389 18.5389 13.5072 18.3787 14.2032C18.2904 14.5898 18.213 14.9819 18.1302 15.3741C18.1247 15.4072 18.1136 15.4349 18.097 15.4625C18.0915 15.4735 18.0639 15.479 18.0584 15.479C18.0252 15.4625 17.9866 15.4404 17.959 15.4128C17.7325 15.225 17.5061 15.0372 17.2851 14.8494C17.0532 14.6561 16.8101 14.4793 16.5505 14.3247C15.6944 13.8055 14.761 13.5459 13.7668 13.5128C13.6011 13.5072 13.5846 13.5349 13.5956 13.695C13.5956 13.7116 13.6011 13.7282 13.6011 13.7447C13.6674 14.2308 13.7668 14.7058 13.9215 15.1753C14.1479 15.8878 14.4628 16.5561 14.8494 17.1912C14.9819 17.4122 15.12 17.6386 15.2581 17.8595C15.2857 17.9093 15.3189 17.959 15.3465 18.0031C15.3575 18.0252 15.3686 18.0473 15.3796 18.0694C15.4017 18.1136 15.3851 18.1523 15.3354 18.1578C15.0427 18.1909 14.75 18.2241 14.4628 18.2517C14.2032 18.2738 13.9436 18.318 13.6895 18.3732C12.6456 18.6162 11.7509 19.1299 10.9666 19.8479C10.8948 19.9142 10.8948 19.9528 10.961 20.0081C11.0163 20.0523 11.077 20.0964 11.1378 20.1406C11.6625 20.5328 12.2314 20.8476 12.8279 21.1127C13.3857 21.3613 13.9602 21.5656 14.5456 21.7424C14.7776 21.8142 15.0151 21.8805 15.2471 21.9523C15.2747 21.9633 15.3023 21.9854 15.3299 22.002C15.3023 22.0517 15.2802 22.0959 15.2526 22.1345C15.12 22.3278 14.9875 22.5267 14.8549 22.72C14.6506 23.0182 14.4628 23.322 14.2915 23.6368C14.043 24.1008 13.8442 24.5758 13.7061 25.0839C13.6011 25.4705 13.5293 25.8627 13.5183 26.2659C13.5183 26.3046 13.5183 26.3487 13.5293 26.3874C13.5293 26.3984 13.5514 26.415 13.5625 26.4205C13.5846 26.4261 13.6122 26.4316 13.6343 26.4261C14.1038 26.3653 14.5622 26.2659 15.0151 26.1223C15.7 25.9069 16.3572 25.6252 16.9924 25.2883C17.2851 25.1336 17.5779 24.9679 17.8706 24.8022C17.9369 24.7691 17.9976 24.7304 18.0639 24.6973C18.1191 24.6697 18.1633 24.6918 18.1744 24.747C18.2075 24.9735 18.2462 25.1999 18.2738 25.4264C18.3125 25.7025 18.3622 25.9732 18.4284 26.2438C18.677 27.249 19.1354 28.1493 19.8203 28.9336C19.8534 28.9723 19.8866 29.0054 19.9197 29.0441C19.9308 29.0551 19.9418 29.0662 19.9528 29.0772C19.986 29.1048 20.0357 29.1048 20.0578 29.0717C20.1683 28.9226 20.2787 28.7679 20.3837 28.6133C20.9802 27.7074 21.4055 26.7243 21.6319 25.6583C21.6982 25.349 21.7534 25.0342 21.8197 24.7249C21.8252 24.6862 21.8418 24.6476 21.8528 24.6089C21.8584 24.5868 21.8915 24.5703 21.9136 24.5813C21.9688 24.6144 22.0241 24.6476 22.0793 24.6807C22.4052 24.8851 22.7255 25.095 23.0514 25.2938C23.5816 25.6141 24.1395 25.8793 24.7304 26.0836C25.1889 26.2383 25.6528 26.3432 26.1333 26.3929C26.2493 26.404 26.3598 26.404 26.4758 26.404C26.5973 26.404 26.6083 26.3653 26.5973 26.2714C26.5807 26.1609 26.5641 26.045 26.542 25.9345C26.4482 25.4595 26.3101 25.0011 26.1389 24.5537C25.8903 23.8964 25.5755 23.2723 25.222 22.6647C25.0894 22.4383 24.9569 22.2174 24.8243 21.9909C24.7967 21.9412 24.7691 21.8915 24.7415 21.8418C24.7304 21.8142 24.7525 21.7755 24.7801 21.7645C24.8022 21.7589 24.8299 21.7534 24.8519 21.7534C25.2054 21.6871 25.5589 21.6319 25.9124 21.5601C26.4426 21.4552 26.9563 21.295 27.4479 21.0741C27.9891 20.831 28.4807 20.5217 28.917 20.1185C28.9778 20.0633 29.033 20.0026 29.0883 19.9473C29.1159 19.9197 29.1103 19.8645 29.0772 19.8369C28.9447 19.7374 28.8176 19.638 28.6851 19.5441C28.2266 19.2293 27.7295 18.9808 27.2214 18.7654C26.658 18.5279 26.0781 18.3401 25.4871 18.1688C25.2496 18.1026 25.0176 18.0363 24.7801 17.9645C24.7525 17.9369 24.7194 17.9258 24.6862 17.8816Z" fill="#ED1C24"/>
<path d="M24.6862 17.8817C24.7139 17.9259 24.7525 17.9424 24.7912 17.9535C25.0287 18.0197 25.2607 18.086 25.4982 18.1578C26.0836 18.329 26.6691 18.5168 27.2324 18.7543C27.7461 18.9697 28.2377 19.2183 28.6961 19.5331C28.8287 19.627 28.9612 19.7264 29.0883 19.8258C29.1214 19.8535 29.1269 19.9032 29.0993 19.9363C29.0441 19.9971 28.9888 20.0523 28.9281 20.1075C28.4917 20.5107 28.0002 20.8255 27.4589 21.063C26.9673 21.284 26.4537 21.4441 25.9234 21.5491C25.57 21.6209 25.2165 21.6761 24.863 21.7424C24.8409 21.7479 24.8133 21.7479 24.7912 21.7534C24.758 21.759 24.736 21.8032 24.7525 21.8308C24.7801 21.8805 24.8022 21.9302 24.8354 21.9799C24.9679 22.2063 25.1005 22.4273 25.233 22.6537C25.5865 23.2613 25.9014 23.8854 26.1499 24.5427C26.3211 24.9956 26.4592 25.454 26.5531 25.9235C26.5752 26.0339 26.5973 26.1499 26.6083 26.2604C26.6194 26.3488 26.6083 26.393 26.4868 26.393C26.3708 26.393 26.2604 26.393 26.1444 26.3819C25.6639 26.3322 25.1944 26.2273 24.7415 26.0726C24.156 25.8682 23.5982 25.6031 23.0624 25.2828C22.7365 25.0839 22.4107 24.8741 22.0903 24.6697C22.0351 24.6366 21.9799 24.6034 21.9246 24.5703C21.9081 24.5592 21.8749 24.5758 21.8639 24.5979C21.8528 24.6366 21.8418 24.6752 21.8307 24.7139C21.77 25.0232 21.7092 25.338 21.643 25.6473C21.4165 26.7133 20.9912 27.6964 20.3947 28.6022C20.2898 28.7569 20.1793 28.906 20.0688 29.0607C20.0412 29.0938 19.9915 29.0993 19.9639 29.0662C19.9528 29.0551 19.9418 29.0441 19.9308 29.0331C19.8976 28.9944 19.8645 28.9612 19.8313 28.9226C19.1465 28.1438 18.688 27.2435 18.4395 26.2328C18.3732 25.9621 18.3235 25.6915 18.2848 25.4153C18.2517 25.1889 18.2186 24.9624 18.1854 24.736C18.1744 24.6808 18.1302 24.6587 18.075 24.6863C18.0087 24.7194 17.9479 24.7581 17.8816 24.7912C17.5889 24.9514 17.2962 25.1171 17.0034 25.2773C16.3683 25.6142 15.711 25.9014 15.0261 26.1113C14.5732 26.2493 14.1148 26.3543 13.6453 26.415C13.6232 26.4206 13.5956 26.415 13.5735 26.4095C13.5625 26.404 13.5404 26.393 13.5404 26.3764C13.5349 26.3377 13.5293 26.2935 13.5293 26.2549C13.5459 25.8517 13.6177 25.4595 13.7171 25.0729C13.8497 24.5648 14.054 24.0842 14.3026 23.6258C14.4738 23.311 14.6616 23.0072 14.866 22.709C14.9985 22.5156 15.1311 22.3168 15.2636 22.1235C15.2912 22.0848 15.3133 22.0407 15.341 21.9909C15.3078 21.9689 15.2857 21.9468 15.2581 21.9412C15.0261 21.8694 14.7886 21.8032 14.5567 21.7314C13.9712 21.5546 13.3968 21.3503 12.8389 21.1017C12.2424 20.8311 11.6735 20.5162 11.1488 20.1296C11.0881 20.0854 11.0328 20.0412 10.9721 19.9971C10.9058 19.9418 10.9058 19.9032 10.9776 19.8369C11.7619 19.1189 12.6567 18.6052 13.7006 18.3622C13.9546 18.3014 14.2142 18.2628 14.4738 18.2407C14.7665 18.2131 15.0593 18.1799 15.3465 18.1468C15.3907 18.1413 15.4128 18.1026 15.3907 18.0584C15.3796 18.0363 15.3686 18.0142 15.3575 17.9921C15.3299 17.9424 15.2968 17.8927 15.2692 17.8485C15.1311 17.6276 14.993 17.4067 14.8604 17.1802C14.4738 16.545 14.159 15.8767 13.9325 15.1642C13.7834 14.6948 13.684 14.2198 13.6122 13.7337C13.6122 13.7172 13.6067 13.7006 13.6067 13.684C13.5901 13.5238 13.6122 13.4962 13.7779 13.5018C14.7776 13.5349 15.7055 13.789 16.5616 14.3137C16.8212 14.4683 17.0642 14.6451 17.2962 14.8384C17.5226 15.0262 17.7491 15.214 17.97 15.4017C18.0031 15.4294 18.0363 15.4459 18.0694 15.468C18.0805 15.4735 18.1026 15.4625 18.1081 15.4514C18.1247 15.4238 18.1357 15.3907 18.1412 15.3631C18.2241 14.9709 18.3014 14.5788 18.3898 14.1922C18.5499 13.4962 18.7874 12.8334 19.1188 12.1983C19.3398 11.773 19.6049 11.3698 19.9087 10.9942C19.9363 10.9611 19.9639 10.9335 19.997 10.9114C20.0136 10.9003 20.0523 10.9003 20.0633 10.9114C20.113 10.9555 20.1572 10.9997 20.2014 11.0494C20.8587 11.784 21.3226 12.6291 21.5822 13.5791C21.6706 13.8994 21.7313 14.2308 21.781 14.5622C21.8142 14.7887 21.8528 15.0151 21.886 15.236C21.8915 15.2692 21.9302 15.2913 21.9578 15.2747C22.002 15.2526 22.0461 15.2305 22.0848 15.2029C22.2781 15.0814 22.4714 14.9599 22.6647 14.8439C23.0293 14.6174 23.4049 14.3965 23.7915 14.2087C24.2996 13.9602 24.8188 13.7558 25.3711 13.6233C25.6749 13.5515 25.9787 13.5018 26.288 13.4741C26.3045 13.4741 26.3211 13.4741 26.3377 13.4797C26.3598 13.4907 26.3874 13.5073 26.3874 13.5238C26.3984 13.568 26.404 13.6177 26.404 13.6674C26.3929 14.3192 26.2548 14.9433 26.0173 15.5453C25.8461 15.9706 25.6362 16.3738 25.3987 16.766C25.1999 17.0863 24.9955 17.3956 24.7912 17.7104C24.747 17.7712 24.7194 17.8264 24.6862 17.8817ZM26.2051 26.1996C26.2162 26.1996 26.2825 26.2052 26.3487 26.2052C26.3763 26.2052 26.4095 26.1665 26.404 26.1389C26.3819 26.0174 26.3653 25.8959 26.3377 25.7799C26.2162 25.222 26.0284 24.6808 25.8019 24.156C25.5921 23.67 25.3435 23.2005 25.0784 22.7421C24.9072 22.4549 24.736 22.1677 24.5703 21.8805C24.5371 21.8252 24.5095 21.7645 24.4764 21.7093C24.4598 21.6816 24.4764 21.6375 24.5095 21.6319C24.5813 21.6154 24.6531 21.5988 24.7249 21.5822C25.095 21.5159 25.465 21.4552 25.8296 21.3834C26.3598 21.2784 26.8734 21.1293 27.3705 20.9084C27.8455 20.6985 28.2819 20.4334 28.674 20.0965C28.7348 20.0412 28.79 19.986 28.8508 19.9308C28.8618 19.9197 28.8618 19.8755 28.8452 19.8645C28.801 19.8314 28.7569 19.7927 28.7127 19.7596C28.3592 19.511 27.9836 19.2956 27.5915 19.1078C27.0447 18.8482 26.4813 18.6383 25.9014 18.4671C25.465 18.3346 25.0232 18.2075 24.5868 18.0805C24.5426 18.0695 24.4929 18.0474 24.4488 18.0308C24.4322 18.0253 24.4156 17.9866 24.4267 17.97C24.4598 17.9148 24.4874 17.8541 24.5261 17.8043C24.7249 17.495 24.9293 17.1913 25.1281 16.882C25.3877 16.4732 25.6197 16.0535 25.8075 15.6116C26.0173 15.1201 26.1499 14.6119 26.2107 14.0817C26.2217 13.9767 26.2217 13.8718 26.2217 13.7669C26.2217 13.7006 26.1886 13.684 26.1223 13.6895C26.1057 13.6895 26.0891 13.6895 26.0726 13.6951C25.8627 13.7337 25.6528 13.7613 25.4485 13.8111C24.9072 13.9381 24.3935 14.1424 23.8909 14.3855C23.5319 14.5622 23.1839 14.761 22.847 14.9709C22.5488 15.1532 22.2505 15.341 21.9523 15.5288C21.9136 15.5564 21.8639 15.573 21.8252 15.5951C21.8087 15.6061 21.77 15.584 21.7645 15.5674C21.7534 15.5288 21.7368 15.4901 21.7313 15.4514C21.6927 15.2029 21.654 14.9544 21.6209 14.7003C21.5711 14.3634 21.5159 14.0265 21.422 13.6951C21.19 12.8334 20.7924 12.0547 20.218 11.3698C20.1738 11.3146 20.1185 11.2593 20.0688 11.2096C20.0578 11.1986 20.0136 11.1986 20.0026 11.2096C19.9639 11.2538 19.9252 11.2925 19.8921 11.3422C19.6435 11.6736 19.4226 12.0271 19.2348 12.4026C18.8924 13.0765 18.6659 13.789 18.5058 14.5235C18.4229 14.9157 18.3456 15.3078 18.2627 15.6945C18.2572 15.7276 18.2462 15.7552 18.2351 15.7884C18.2241 15.816 18.1799 15.8326 18.1523 15.8105C18.1081 15.7773 18.0584 15.7442 18.0197 15.7055C17.7325 15.468 17.4453 15.225 17.1526 14.9875C16.3296 14.3026 15.3851 13.8884 14.3192 13.7558C14.1756 13.7393 14.0264 13.7393 13.8773 13.7282C13.8331 13.7282 13.8 13.7669 13.8 13.8055C13.8 13.8608 13.8055 13.9215 13.811 13.9767C13.8828 14.402 13.9822 14.8218 14.1203 15.236C14.3468 15.9209 14.6616 16.5616 15.0372 17.1802C15.2084 17.4674 15.3851 17.7491 15.5619 18.0363C15.7497 18.3346 15.7607 18.3346 15.4128 18.3567C15.3796 18.3567 15.3465 18.3677 15.3133 18.3677C15.0703 18.3953 14.8273 18.4229 14.5843 18.4395C14.1756 18.4727 13.7779 18.5445 13.3857 18.6604C12.5849 18.9035 11.8779 19.3177 11.2483 19.859C11.2372 19.87 11.2262 19.8811 11.2151 19.8921C11.182 19.9253 11.182 19.9639 11.2262 19.9971C11.2759 20.0357 11.3311 20.0744 11.3808 20.113C11.6735 20.3229 11.9828 20.5052 12.2977 20.6764C12.9991 21.0465 13.7337 21.3337 14.4959 21.5601C14.8162 21.6595 15.1366 21.7534 15.4569 21.8473C15.4956 21.8584 15.5343 21.875 15.5729 21.8915C15.6005 21.9026 15.6171 21.9468 15.6005 21.9744C15.5674 22.0296 15.5343 22.0848 15.4956 22.1401C15.3189 22.4052 15.1366 22.6648 14.9599 22.9299C14.6285 23.4159 14.3413 23.9296 14.1203 24.4764C13.9104 25.0011 13.7779 25.5479 13.7171 26.1057C13.7116 26.1389 13.7171 26.172 13.7171 26.2052C13.7171 26.2217 13.7503 26.2493 13.7668 26.2493C13.7889 26.2493 13.8165 26.2493 13.8386 26.2438C14.3689 26.1555 14.8881 26.0174 15.3962 25.8351C16.0203 25.6087 16.6168 25.327 17.1912 25.0066C17.484 24.8464 17.7767 24.6808 18.0694 24.5151C18.1247 24.4819 18.1854 24.4543 18.2462 24.4267C18.2627 24.4156 18.3014 24.4322 18.3069 24.4543C18.318 24.493 18.3345 24.5316 18.3401 24.5703C18.3787 24.8299 18.4174 25.0839 18.4505 25.3435C18.5058 25.7467 18.5831 26.1499 18.6991 26.5366C18.9366 27.3374 19.3232 28.061 19.8534 28.7017C19.8921 28.7458 19.9307 28.7845 19.9694 28.8287C19.986 28.8453 20.0191 28.8453 20.0357 28.8232C20.0578 28.8011 20.0799 28.7735 20.0964 28.7458C20.7095 27.8677 21.1569 26.9121 21.4165 25.8738C21.5159 25.4706 21.5822 25.0619 21.665 24.6531C21.6871 24.5482 21.7092 24.4488 21.7313 24.3438C21.7368 24.3162 21.7866 24.2996 21.8142 24.3107C21.8694 24.3438 21.9302 24.377 21.9799 24.4101C22.256 24.5869 22.5267 24.7636 22.8028 24.9403C23.2502 25.2276 23.7142 25.4816 24.2002 25.6915C24.8243 25.9345 25.4705 26.1334 26.2051 26.1996Z" fill="white"/>
<path d="M26.2051 26.1995C25.4706 26.1387 24.8243 25.9344 24.2002 25.6637C23.7142 25.4539 23.2502 25.1943 22.8028 24.9126C22.5267 24.7358 22.256 24.5591 21.9799 24.3824C21.9246 24.3492 21.8694 24.3161 21.8142 24.2829C21.7866 24.2664 21.7369 24.2885 21.7313 24.3161C21.7092 24.421 21.6872 24.5204 21.6651 24.6254C21.5822 25.0341 21.5159 25.4428 21.4165 25.846C21.1569 26.8844 20.7095 27.8399 20.0965 28.7181C20.0799 28.7457 20.0578 28.7678 20.0357 28.7954C20.0191 28.812 19.986 28.8175 19.9694 28.8009C19.9308 28.7623 19.8866 28.7181 19.8534 28.6739C19.3177 28.0332 18.9366 27.3097 18.6991 26.5088C18.5831 26.1167 18.5058 25.719 18.4505 25.3158C18.4174 25.0562 18.3787 24.7966 18.3401 24.5425C18.3346 24.5039 18.318 24.4652 18.3069 24.4265C18.3014 24.41 18.2628 24.3934 18.2462 24.3989C18.1854 24.4265 18.1302 24.4542 18.0694 24.4873C17.7767 24.6475 17.484 24.8132 17.1912 24.9789C16.6113 25.2992 16.0148 25.5809 15.3962 25.8074C14.8881 25.9896 14.3689 26.1277 13.8386 26.2161C13.8166 26.2216 13.7889 26.2161 13.7669 26.2216C13.7503 26.2216 13.7171 26.194 13.7171 26.1774C13.7171 26.1443 13.7116 26.1111 13.7171 26.078C13.7779 25.5146 13.9105 24.9733 14.1203 24.4486C14.3413 23.9018 14.6285 23.3937 14.9599 22.9021C15.1366 22.637 15.3189 22.3774 15.4956 22.1123C15.5343 22.0571 15.5674 22.0019 15.6006 21.9466C15.6171 21.919 15.6006 21.8748 15.5729 21.8638C15.5343 21.8472 15.4956 21.8306 15.457 21.8196C15.1366 21.7202 14.8163 21.6263 14.4959 21.5324C13.7392 21.3004 12.9991 21.0187 12.2977 20.6487C11.9829 20.483 11.6735 20.2952 11.3808 20.0853C11.3256 20.0466 11.2759 20.008 11.2262 19.9693C11.182 19.9362 11.182 19.8975 11.2151 19.8644C11.2262 19.8533 11.2372 19.8423 11.2483 19.8312C11.8834 19.29 12.5849 18.8757 13.3857 18.6327C13.7779 18.5167 14.1756 18.4449 14.5843 18.4118C14.8273 18.3897 15.0703 18.362 15.3134 18.34C15.3465 18.3344 15.3796 18.3289 15.4128 18.3289C15.7552 18.3068 15.7442 18.3068 15.5619 18.0086C15.3852 17.7269 15.2084 17.4397 15.0372 17.1525C14.6616 16.5394 14.3523 15.8932 14.1203 15.2083C13.9823 14.7996 13.8828 14.3798 13.811 13.949C13.8 13.8938 13.8 13.833 13.8 13.7778C13.8 13.7391 13.8331 13.7004 13.8773 13.7004C14.0264 13.706 14.17 13.706 14.3192 13.7281C15.3796 13.8661 16.3241 14.2749 17.1526 14.9597C17.4398 15.1972 17.727 15.4403 18.0197 15.6778C18.0639 15.7164 18.1081 15.7496 18.1523 15.7827C18.1799 15.7993 18.2241 15.7882 18.2351 15.7606C18.2462 15.7275 18.2572 15.6999 18.2628 15.6667C18.3456 15.2746 18.4229 14.8824 18.5058 14.4958C18.6604 13.7612 18.8924 13.0487 19.2348 12.3749C19.4226 12.0048 19.6436 11.6513 19.8921 11.3144C19.9252 11.2702 19.9639 11.226 20.0026 11.1819C20.0136 11.1653 20.0578 11.1653 20.0688 11.1819C20.1186 11.2371 20.1683 11.2868 20.218 11.342C20.7924 12.0269 21.1901 12.8057 21.422 13.6673C21.5104 13.9987 21.5656 14.3356 21.6209 14.6725C21.6595 14.9211 21.6927 15.1696 21.7313 15.4237C21.7369 15.4624 21.7534 15.501 21.7645 15.5397C21.77 15.5618 21.8087 15.5783 21.8252 15.5673C21.8694 15.5452 21.9136 15.5231 21.9523 15.501C22.2505 15.3188 22.5488 15.131 22.847 14.9432C23.1895 14.7333 23.5319 14.5345 23.8909 14.3577C24.388 14.1147 24.9072 13.9159 25.4485 13.7833C25.6528 13.7336 25.8627 13.7004 26.0726 13.6673C26.0892 13.6618 26.1057 13.6618 26.1223 13.6618C26.1886 13.6618 26.2217 13.6728 26.2217 13.7391C26.2217 13.8441 26.2217 13.949 26.2107 14.0539C26.1499 14.5842 26.0174 15.0923 25.8075 15.5839C25.6197 16.0257 25.3877 16.451 25.1281 16.8542C24.9293 17.1635 24.7249 17.4673 24.5261 17.7766C24.4929 17.8318 24.4598 17.8871 24.4267 17.9423C24.4156 17.9589 24.4322 17.9975 24.4488 18.003C24.4929 18.0196 24.5371 18.0417 24.5868 18.0527C25.0232 18.1798 25.465 18.3068 25.9014 18.4394C26.4813 18.6161 27.0447 18.8205 27.5915 19.0801C27.9836 19.2679 28.3592 19.4777 28.7127 19.7318C28.7569 19.7649 28.8011 19.8036 28.8452 19.8367C28.8618 19.8478 28.8618 19.892 28.8508 19.903C28.79 19.9583 28.7348 20.019 28.674 20.0687C28.2819 20.4056 27.8455 20.6708 27.3705 20.8806C26.879 21.1016 26.3598 21.2507 25.8296 21.3556C25.4595 21.4274 25.0895 21.4882 24.7249 21.5545C24.6531 21.5655 24.5813 21.5876 24.5095 21.6042C24.4819 21.6097 24.4653 21.6539 24.4764 21.6815C24.504 21.7367 24.5371 21.7975 24.5703 21.8527C24.7415 22.1399 24.9127 22.4271 25.0784 22.7143C25.3435 23.1728 25.5921 23.6422 25.802 24.1283C26.0284 24.653 26.2162 25.1888 26.3377 25.7521C26.3653 25.8736 26.3819 25.9896 26.404 26.1111C26.4095 26.1387 26.3764 26.1774 26.3487 26.1774C26.2825 26.1995 26.2162 26.1995 26.2051 26.1995ZM21.2895 15.374C21.295 15.1199 21.2453 14.6725 21.179 14.3411C20.9967 13.4353 20.6267 12.6069 20.1241 11.8336C20.113 11.8115 20.0909 11.7949 20.0744 11.7784C20.0633 11.7618 20.0191 11.7673 20.0081 11.7839C19.986 11.8115 19.9694 11.8336 19.9473 11.8612C19.6601 12.3086 19.4061 12.7725 19.2017 13.2641C18.9366 13.9048 18.7819 14.5676 18.7433 15.2525C18.7267 15.5065 18.7433 15.7551 18.7654 16.0092C18.7985 16.3571 18.8593 16.7051 18.9532 17.042C19.1575 17.8097 19.4944 18.5222 19.9087 19.2016C19.9252 19.2292 19.9473 19.2513 19.9694 19.2789C19.9805 19.2955 20.0191 19.29 20.0357 19.2734C20.0578 19.2458 20.0799 19.2237 20.0965 19.1961C20.4334 18.6658 20.7151 18.108 20.9249 17.5115C21.1569 16.8542 21.284 16.1693 21.2895 15.374ZM14.2142 14.2417C14.2198 14.2693 14.2253 14.3135 14.2308 14.3522C14.3689 14.9487 14.5456 15.5342 14.8052 16.0865C15.0979 16.7051 15.4735 17.2629 15.9596 17.7434C16.3904 18.1743 16.8819 18.5167 17.4232 18.7984C18.0473 19.1243 18.7101 19.3507 19.3895 19.5219C19.4061 19.5274 19.4226 19.5274 19.4392 19.5274C19.4834 19.533 19.522 19.4998 19.522 19.4612C19.522 19.4391 19.522 19.4115 19.5165 19.3894C19.4889 19.2679 19.4613 19.1519 19.4282 19.0359C19.2514 18.362 19.0029 17.7214 18.6494 17.1138C18.0915 16.1528 17.3238 15.4071 16.3462 14.8769C15.7552 14.5565 15.1256 14.3356 14.4738 14.1865C14.4131 14.1699 14.3468 14.1589 14.2805 14.1478C14.2529 14.1423 14.2142 14.181 14.2142 14.2086C14.2142 14.2141 14.2142 14.2252 14.2142 14.2417ZM19.5607 20.5216C19.5386 20.5106 19.5165 20.494 19.5 20.494C19.4061 20.5106 19.3066 20.5272 19.2127 20.5492C18.5444 20.7149 17.9037 20.9469 17.3017 21.2783C16.2523 21.8527 15.4404 22.6702 14.877 23.7306C14.5567 24.3382 14.3357 24.9899 14.1921 25.6582C14.1866 25.6803 14.1866 25.7079 14.1866 25.73C14.1866 25.7355 14.1866 25.7466 14.1921 25.7521C14.1921 25.7687 14.2253 25.7963 14.2418 25.7963C14.3247 25.8074 14.402 25.7742 14.4793 25.7576C15.0372 25.6306 15.5785 25.4594 16.0976 25.2164C16.9703 24.8132 17.7104 24.2332 18.2848 23.46C18.5223 23.1396 18.7322 22.7972 18.909 22.4382C19.1962 21.8527 19.4061 21.2341 19.5607 20.599C19.5607 20.5769 19.5607 20.5492 19.5607 20.5216ZM25.8517 14.3135C25.8517 14.2914 25.8572 14.2638 25.8572 14.2417C25.8572 14.2252 25.8351 14.192 25.813 14.192C25.7633 14.192 25.7136 14.192 25.6694 14.2031C25.4319 14.2638 25.1944 14.3191 24.9624 14.3909C24.515 14.5234 24.0842 14.6946 23.67 14.91C22.7421 15.3906 22.0075 16.081 21.4607 16.9647C21.0023 17.7048 20.704 18.5112 20.4886 19.3562C20.4831 19.3894 20.4831 19.4225 20.4776 19.4556C20.4776 19.4777 20.5052 19.4998 20.5273 19.4998C20.577 19.4943 20.6267 19.4943 20.6709 19.4833C20.7924 19.4556 20.9084 19.4225 21.0244 19.3949C21.6264 19.2292 22.2008 19.0083 22.7476 18.71C23.7418 18.1632 24.5261 17.3955 25.0839 16.4013C25.2883 16.0368 25.454 15.6557 25.5865 15.2635C25.697 14.9487 25.7909 14.6339 25.8517 14.3135ZM15.5398 21.2728C15.8436 21.2728 16.2578 21.2341 16.534 21.1844C17.5171 21.0021 18.4119 20.61 19.2625 20.0908C19.2845 20.0798 19.3011 20.0632 19.3122 20.0411C19.3177 20.0301 19.3232 20.0024 19.3122 19.9969C19.279 19.9638 19.2404 19.9306 19.2017 19.903C18.8151 19.66 18.4119 19.4446 17.9921 19.2679C17.368 18.9972 16.7162 18.8205 16.0369 18.7542C15.5398 18.7045 15.0427 18.7211 14.5511 18.8039C14.1424 18.8757 13.7392 18.9806 13.3526 19.1298C12.8389 19.3231 12.3584 19.5772 11.8945 19.8699C11.8613 19.892 11.8337 19.9196 11.8061 19.9472C11.8006 19.9527 11.8006 19.9804 11.8061 19.9914C11.8282 20.0135 11.8503 20.0411 11.8779 20.0577C12.4358 20.4167 13.0157 20.726 13.6398 20.9414C14.2584 21.1568 14.8881 21.2728 15.5398 21.2728ZM20.5936 20.4553C20.5383 20.4443 20.5052 20.483 20.5162 20.5437C20.5383 20.6487 20.5604 20.7481 20.588 20.853C20.7427 21.4551 20.947 22.035 21.2342 22.5873C21.7976 23.6643 22.5985 24.5039 23.6645 25.0893C24.3107 25.4428 25.0011 25.6803 25.7246 25.835C25.7412 25.8405 25.7578 25.835 25.7743 25.835C25.7909 25.835 25.824 25.8074 25.824 25.7908C25.824 25.7687 25.8296 25.7411 25.824 25.719C25.708 25.1832 25.5589 24.664 25.3435 24.1559C25.106 23.587 24.7967 23.0623 24.3991 22.5928C23.9241 22.0295 23.3552 21.5876 22.7145 21.2396C22.0572 20.8806 21.3613 20.6376 20.6377 20.4609C20.6267 20.4609 20.6101 20.4609 20.5936 20.4553ZM18.7598 24.5315C18.7654 24.8629 18.7819 25.1998 18.8427 25.5312C18.9255 25.962 19.047 26.3873 19.2127 26.796C19.395 27.2489 19.627 27.6797 19.8866 28.094C19.9142 28.1326 19.9473 28.1713 19.9805 28.2044C19.986 28.21 20.0136 28.21 20.0247 28.2044C20.0467 28.1823 20.0744 28.1602 20.0909 28.1326C20.3947 27.6687 20.6543 27.1826 20.8642 26.6635C21.0796 26.1332 21.2287 25.5809 21.2784 25.012C21.3337 24.4265 21.3005 23.8411 21.1735 23.2611C20.9747 22.3609 20.5991 21.5324 20.1241 20.7481C20.113 20.726 20.0965 20.7094 20.0744 20.6928C20.0633 20.6873 20.0357 20.6818 20.0302 20.6928C20.0026 20.7205 19.975 20.7481 19.9529 20.7867C19.627 21.3059 19.3453 21.8472 19.1409 22.4271C18.8869 23.1065 18.7488 23.8079 18.7598 24.5315ZM24.4985 18.71C24.399 18.7155 24.3052 18.7211 24.2057 18.7266C23.7473 18.7432 23.2999 18.826 22.8581 18.953C22.1235 19.1629 21.4441 19.4888 20.7924 19.8809C20.7648 19.8975 20.7427 19.9196 20.7206 19.9472C20.7151 19.9583 20.7095 19.9804 20.7206 19.9914C20.7427 20.0135 20.7648 20.0411 20.7924 20.0577C21.0023 20.1792 21.2121 20.3117 21.4276 20.4222C22.2008 20.8365 23.0182 21.1237 23.8964 21.2231C24.4267 21.2838 24.9514 21.2728 25.4816 21.1844C26.0118 21.096 26.5255 20.9414 27.0226 20.7205C27.4092 20.5492 27.7848 20.3449 28.1383 20.1184C28.1714 20.0963 28.199 20.0687 28.2266 20.0411C28.2322 20.0356 28.2322 20.0024 28.2266 19.9969C28.199 19.9693 28.1714 19.9417 28.1383 19.9196C27.6467 19.5992 27.1275 19.3231 26.5807 19.1132C25.9069 18.8536 25.2165 18.7155 24.4985 18.71Z" fill="#ED1C24"/>
<path d="M21.2895 15.374C21.2839 16.1694 21.1569 16.8542 20.9194 17.517C20.7095 18.1135 20.4278 18.6714 20.0909 19.2016C20.0744 19.2292 20.0523 19.2513 20.0302 19.2789C20.0136 19.2955 19.9749 19.301 19.9639 19.2845C19.9418 19.2568 19.9197 19.2348 19.9031 19.2071C19.4944 18.5278 19.1575 17.8153 18.9476 17.0476C18.8592 16.7106 18.793 16.3627 18.7598 16.0147C18.7377 15.7607 18.7212 15.5121 18.7377 15.258C18.7764 14.5676 18.931 13.9048 19.1962 13.2697C19.4005 12.7781 19.6546 12.3142 19.9418 11.8668C19.9584 11.8392 19.9805 11.8171 20.0026 11.7895C20.0136 11.7729 20.0523 11.7674 20.0688 11.7839C20.0854 11.8005 20.102 11.8171 20.1185 11.8392C20.6212 12.6124 20.9967 13.4409 21.1735 14.3467C21.2453 14.6726 21.295 15.12 21.2895 15.374Z" fill="white"/>
<path d="M14.2142 14.2419C14.2142 14.2253 14.2142 14.2143 14.2142 14.2087C14.2142 14.1811 14.2474 14.1425 14.2805 14.148C14.3468 14.159 14.4075 14.1701 14.4738 14.1867C15.1255 14.3358 15.7552 14.5567 16.3462 14.8771C17.3238 15.4073 18.0915 16.1529 18.6494 17.114C19.0029 17.716 19.2514 18.3622 19.4281 19.036C19.4613 19.152 19.4889 19.2735 19.5165 19.3895C19.522 19.4116 19.522 19.4392 19.522 19.4613C19.5276 19.5 19.4834 19.5331 19.4392 19.5276C19.4226 19.5276 19.406 19.5221 19.3895 19.5221C18.7046 19.3509 18.0473 19.1244 17.4232 18.7985C16.8875 18.5169 16.3959 18.1744 15.9596 17.7436C15.4735 17.2631 15.0924 16.7052 14.8052 16.0866C14.5456 15.5288 14.3689 14.9489 14.2308 14.3524C14.2197 14.3137 14.2197 14.2695 14.2142 14.2419Z" fill="white"/>
<path d="M19.5607 20.5217C19.5607 20.5493 19.5607 20.5769 19.5552 20.599C19.4005 21.2341 19.1906 21.8527 18.9034 22.4382C18.7267 22.7972 18.5223 23.1397 18.2793 23.46C17.6994 24.2333 16.9648 24.8132 16.0921 25.2164C15.5729 25.4594 15.0316 25.6306 14.4738 25.7577C14.3965 25.7742 14.3192 25.8074 14.2363 25.7963C14.2142 25.7963 14.1866 25.7687 14.1866 25.7521C14.1866 25.7466 14.1811 25.7356 14.1811 25.73C14.1811 25.708 14.1811 25.6803 14.1866 25.6582C14.3357 24.9844 14.5511 24.3382 14.8715 23.7306C15.4348 22.6702 16.2412 21.8583 17.2962 21.2783C17.8982 20.9469 18.5444 20.715 19.2072 20.5493C19.3011 20.5272 19.4005 20.5106 19.4944 20.494C19.5165 20.4885 19.5386 20.5106 19.5607 20.5217Z" fill="white"/>
<path d="M25.8516 14.3136C25.7854 14.6339 25.697 14.9487 25.5921 15.258C25.4595 15.6502 25.2938 16.0313 25.0894 16.3958C24.5316 17.39 23.7473 18.1522 22.7531 18.7045C22.2063 19.0028 21.6319 19.2237 21.0299 19.3894C20.9139 19.4225 20.7924 19.4502 20.6764 19.4778C20.6267 19.4888 20.5825 19.4888 20.5328 19.4943C20.5107 19.4943 20.4831 19.4722 20.4831 19.4502C20.4831 19.417 20.4831 19.3839 20.4941 19.3507C20.704 18.5057 21.0023 17.6993 21.4662 16.9592C22.0185 16.0755 22.7531 15.3851 23.6755 14.9045C24.0897 14.6891 24.5206 14.5179 24.9679 14.3854C25.1999 14.3136 25.4374 14.2583 25.6749 14.1976C25.7191 14.1865 25.7688 14.1865 25.8185 14.1865C25.8351 14.1865 25.8627 14.2197 25.8627 14.2362C25.8572 14.2638 25.8572 14.2915 25.8516 14.3136Z" fill="white"/>
<path d="M15.5398 21.273C14.888 21.273 14.2584 21.157 13.6453 20.9471C13.0212 20.7262 12.4357 20.4224 11.8834 20.0634C11.8558 20.0468 11.8337 20.0247 11.8116 19.9971C11.8061 19.9861 11.8006 19.9585 11.8116 19.9529C11.8392 19.9253 11.8668 19.8977 11.9 19.8756C12.3584 19.5773 12.8445 19.3288 13.3581 19.1355C13.7503 18.9864 14.1479 18.8814 14.5567 18.8096C15.0482 18.7268 15.5453 18.7157 16.0424 18.7599C16.7218 18.8262 17.368 19.0029 17.9976 19.2736C18.4174 19.4558 18.8206 19.6657 19.2072 19.9087C19.2459 19.9364 19.2845 19.9695 19.3177 20.0026C19.3232 20.0082 19.3232 20.0358 19.3177 20.0468C19.3066 20.0689 19.2845 20.0855 19.268 20.0965C18.4229 20.6157 17.5226 21.0079 16.5395 21.1901C16.2578 21.2398 15.838 21.273 15.5398 21.273Z" fill="white"/>
<path d="M20.5935 20.4554C20.6101 20.4554 20.6267 20.461 20.6433 20.461C21.3668 20.6432 22.0627 20.8862 22.72 21.2397C23.3607 21.5877 23.9296 22.0351 24.4046 22.5929C24.8022 23.0624 25.1115 23.5871 25.349 24.156C25.5589 24.6586 25.708 25.1833 25.8296 25.7191C25.8351 25.7412 25.8296 25.7688 25.8296 25.7909C25.8296 25.8074 25.7964 25.835 25.7798 25.835C25.7633 25.835 25.7467 25.835 25.7301 25.835C25.0121 25.6804 24.3162 25.4484 23.67 25.0894C22.604 24.504 21.7976 23.6644 21.2398 22.5874C20.9525 22.0351 20.7427 21.4551 20.5935 20.8531C20.5659 20.7482 20.5438 20.6487 20.5217 20.5438C20.5052 20.483 20.5383 20.4499 20.5935 20.4554Z" fill="white"/>
<path d="M18.7598 24.5315C18.7543 23.808 18.8924 23.1065 19.1354 22.4272C19.3453 21.8472 19.6215 21.3059 19.9473 20.7868C19.9694 20.7536 19.997 20.7205 20.0246 20.6929C20.0302 20.6873 20.0578 20.6873 20.0688 20.6929C20.0854 20.7039 20.1075 20.726 20.1185 20.7481C20.5991 21.5324 20.9691 22.3609 21.168 23.2612C21.295 23.8411 21.3281 24.4266 21.2729 25.012C21.2177 25.5809 21.0741 26.1332 20.8587 26.6635C20.6488 27.1771 20.3837 27.6632 20.0854 28.1326C20.0688 28.1603 20.0467 28.1824 20.0191 28.2044C20.0081 28.21 19.9805 28.21 19.9749 28.2044C19.9418 28.1713 19.9087 28.1326 19.881 28.094C19.6159 27.6797 19.3895 27.2489 19.2072 26.796C19.0415 26.3873 18.92 25.962 18.8372 25.5312C18.7764 25.1998 18.7654 24.8684 18.7598 24.5315Z" fill="white"/>
<path d="M24.4985 18.7102C25.2165 18.7157 25.9069 18.8538 26.5752 19.1079C27.1275 19.3178 27.6412 19.5939 28.1327 19.9143C28.1659 19.9364 28.199 19.964 28.2211 19.9916C28.2266 20.0026 28.2322 20.0303 28.2211 20.0358C28.1935 20.0634 28.1659 20.0965 28.1327 20.1131C27.7737 20.3451 27.4037 20.5439 27.0171 20.7151C26.5255 20.9305 26.0118 21.0907 25.4761 21.1791C24.9514 21.2675 24.4211 21.273 23.8909 21.2177C23.0127 21.1183 22.1953 20.8311 21.422 20.4169C21.2066 20.3009 20.9967 20.1739 20.7869 20.0523C20.7592 20.0358 20.7371 20.0137 20.715 19.9861C20.7095 19.975 20.7095 19.9529 20.715 19.9419C20.7371 19.9198 20.7592 19.8922 20.7869 19.8756C21.4386 19.4835 22.118 19.1576 22.8525 18.9477C23.2944 18.8207 23.7363 18.7323 24.2002 18.7213C24.3051 18.7213 24.4046 18.7157 24.4985 18.7102Z" fill="white"/>
</svg>
