<svg width="20" height="20" viewBox="0 0 20 20" fill="none" xmlns="http://www.w3.org/2000/svg">
<path fill-rule="evenodd" clip-rule="evenodd" d="M4.99996 1.6665C5.4602 1.6665 5.83329 2.0396 5.83329 2.49984V12.4998C5.83329 12.9601 5.4602 13.3332 4.99996 13.3332C4.53972 13.3332 4.16663 12.9601 4.16663 12.4998V2.49984C4.16663 2.0396 4.53972 1.6665 4.99996 1.6665Z" fill="#1D9752"/>
<path fill-rule="evenodd" clip-rule="evenodd" d="M15 3.33317C14.0795 3.33317 13.3333 4.07936 13.3333 4.99984C13.3333 5.92031 14.0795 6.6665 15 6.6665C15.9204 6.6665 16.6666 5.92031 16.6666 4.99984C16.6666 4.07936 15.9204 3.33317 15 3.33317ZM11.6666 4.99984C11.6666 3.15889 13.159 1.6665 15 1.6665C16.8409 1.6665 18.3333 3.15889 18.3333 4.99984C18.3333 6.84079 16.8409 8.33317 15 8.33317C13.159 8.33317 11.6666 6.84079 11.6666 4.99984Z" fill="#1D9752"/>
<path fill-rule="evenodd" clip-rule="evenodd" d="M4.99996 13.3332C4.07948 13.3332 3.33329 14.0794 3.33329 14.9998C3.33329 15.9203 4.07948 16.6665 4.99996 16.6665C5.92043 16.6665 6.66663 15.9203 6.66663 14.9998C6.66663 14.0794 5.92043 13.3332 4.99996 13.3332ZM1.66663 14.9998C1.66663 13.1589 3.15901 11.6665 4.99996 11.6665C6.84091 11.6665 8.33329 13.1589 8.33329 14.9998C8.33329 16.8408 6.84091 18.3332 4.99996 18.3332C3.15901 18.3332 1.66663 16.8408 1.66663 14.9998Z" fill="#1D9752"/>
<path fill-rule="evenodd" clip-rule="evenodd" d="M15 6.6665C15.4602 6.6665 15.8333 7.0396 15.8333 7.49984C15.8333 9.70997 14.9553 11.8296 13.3925 13.3924C11.8297 14.9552 9.7101 15.8332 7.49996 15.8332C7.03972 15.8332 6.66663 15.4601 6.66663 14.9998C6.66663 14.5396 7.03972 14.1665 7.49996 14.1665C9.26807 14.1665 10.9638 13.4641 12.214 12.2139C13.4642 10.9636 14.1666 9.26795 14.1666 7.49984C14.1666 7.0396 14.5397 6.6665 15 6.6665Z" fill="#1D9752"/>
</svg>
