<svg width="250" height="76" viewBox="0 0 250 76" fill="none" xmlns="http://www.w3.org/2000/svg">
<g filter="url(#filter0_d_1670_18533)">
<rect x="8" y="2" width="234" height="60" rx="30" fill="url(#paint0_linear_1670_18533)" shape-rendering="crispEdges"/>
<path d="M34.956 19.8H46.404C49.14 19.8 51.552 20.328 53.64 21.384C55.752 22.416 57.384 23.88 58.536 25.776C59.712 27.672 60.3 29.88 60.3 32.4C60.3 34.92 59.712 37.128 58.536 39.024C57.384 40.92 55.752 42.396 53.64 43.452C51.552 44.484 49.14 45 46.404 45H34.956V19.8ZM46.116 40.212C48.636 40.212 50.64 39.516 52.128 38.124C53.64 36.708 54.396 34.8 54.396 32.4C54.396 30 53.64 28.104 52.128 26.712C50.64 25.296 48.636 24.588 46.116 24.588H40.788V40.212H46.116ZM31.536 30.24H47.088V34.128H31.536V30.24ZM73.5072 45.288C71.4672 45.288 69.6312 44.868 67.9992 44.028C66.3912 43.164 65.1312 41.976 64.2192 40.464C63.3072 38.952 62.8512 37.236 62.8512 35.316C62.8512 33.396 63.3072 31.68 64.2192 30.168C65.1312 28.656 66.3912 27.48 67.9992 26.64C69.6312 25.776 71.4672 25.344 73.5072 25.344C75.5472 25.344 77.3712 25.776 78.9792 26.64C80.5872 27.48 81.8472 28.656 82.7592 30.168C83.6712 31.68 84.1272 33.396 84.1272 35.316C84.1272 37.236 83.6712 38.952 82.7592 40.464C81.8472 41.976 80.5872 43.164 78.9792 44.028C77.3712 44.868 75.5472 45.288 73.5072 45.288ZM73.5072 40.68C74.9472 40.68 76.1232 40.2 77.0352 39.24C77.9712 38.256 78.4392 36.948 78.4392 35.316C78.4392 33.684 77.9712 32.388 77.0352 31.428C76.1232 30.444 74.9472 29.952 73.5072 29.952C72.0672 29.952 70.8792 30.444 69.9432 31.428C69.0072 32.388 68.5392 33.684 68.5392 35.316C68.5392 36.948 69.0072 38.256 69.9432 39.24C70.8792 40.2 72.0672 40.68 73.5072 40.68ZM73.4352 52.56C72.7152 52.56 72.1152 52.332 71.6352 51.876C71.1792 51.444 70.9512 50.868 70.9512 50.148C70.9512 49.428 71.1792 48.828 71.6352 48.348C72.1152 47.868 72.7152 47.628 73.4352 47.628C74.1312 47.628 74.7192 47.868 75.1992 48.348C75.6792 48.828 75.9192 49.428 75.9192 50.148C75.9192 50.868 75.6792 51.444 75.1992 51.876C74.7432 52.332 74.1552 52.56 73.4352 52.56ZM76.5672 23.148L73.4352 20.412L70.3032 23.148H66.1992L70.9512 17.964H75.9192L80.6712 23.148H76.5672ZM87.8811 25.632H93.4971V45H87.8811V25.632ZM90.6891 22.932C89.6571 22.932 88.8171 22.632 88.1691 22.032C87.5211 21.432 87.1971 20.688 87.1971 19.8C87.1971 18.912 87.5211 18.168 88.1691 17.568C88.8171 16.968 89.6571 16.668 90.6891 16.668C91.7211 16.668 92.5611 16.956 93.2091 17.532C93.8571 18.108 94.1811 18.828 94.1811 19.692C94.1811 20.628 93.8571 21.408 93.2091 22.032C92.5611 22.632 91.7211 22.932 90.6891 22.932ZM120.677 25.344C123.077 25.344 125.009 26.064 126.473 27.504C127.961 28.944 128.705 31.08 128.705 33.912V45H123.089V34.776C123.089 33.24 122.753 32.1 122.081 31.356C121.409 30.588 120.437 30.204 119.165 30.204C117.749 30.204 116.621 30.648 115.781 31.536C114.941 32.4 114.521 33.696 114.521 35.424V45H108.905V25.632H114.269V27.9C115.013 27.084 115.937 26.46 117.041 26.028C118.145 25.572 119.357 25.344 120.677 25.344ZM145.567 25.344C147.967 25.344 149.899 26.064 151.363 27.504C152.851 28.944 153.595 31.08 153.595 33.912V45H147.979V34.776C147.979 33.24 147.643 32.1 146.971 31.356C146.299 30.588 145.327 30.204 144.055 30.204C142.639 30.204 141.511 30.648 140.671 31.536C139.831 32.4 139.411 33.696 139.411 35.424V45H133.795V18.288H139.411V27.648C140.155 26.904 141.055 26.34 142.111 25.956C143.167 25.548 144.319 25.344 145.567 25.344ZM168.113 45.288C166.073 45.288 164.237 44.868 162.605 44.028C160.997 43.164 159.737 41.976 158.825 40.464C157.913 38.952 157.457 37.236 157.457 35.316C157.457 33.396 157.913 31.68 158.825 30.168C159.737 28.656 160.997 27.48 162.605 26.64C164.237 25.776 166.073 25.344 168.113 25.344C170.153 25.344 171.977 25.776 173.585 26.64C175.193 27.48 176.453 28.656 177.365 30.168C178.277 31.68 178.733 33.396 178.733 35.316C178.733 37.236 178.277 38.952 177.365 40.464C176.453 41.976 175.193 43.164 173.585 44.028C171.977 44.868 170.153 45.288 168.113 45.288ZM168.113 40.68C169.553 40.68 170.729 40.2 171.641 39.24C172.577 38.256 173.045 36.948 173.045 35.316C173.045 33.684 172.577 32.388 171.641 31.428C170.729 30.444 169.553 29.952 168.113 29.952C166.673 29.952 165.485 30.444 164.549 31.428C163.613 32.388 163.145 33.684 163.145 35.316C163.145 36.948 163.613 38.256 164.549 39.24C165.485 40.2 166.673 40.68 168.113 40.68ZM169.625 17.964H175.673L169.157 23.148H164.765L169.625 17.964ZM207.291 25.344C209.715 25.344 211.635 26.064 213.051 27.504C214.491 28.92 215.211 31.056 215.211 33.912V45H209.595V34.776C209.595 33.24 209.271 32.1 208.623 31.356C207.999 30.588 207.099 30.204 205.923 30.204C204.603 30.204 203.559 30.636 202.791 31.5C202.023 32.34 201.639 33.6 201.639 35.28V45H196.023V34.776C196.023 31.728 194.799 30.204 192.351 30.204C191.055 30.204 190.023 30.636 189.255 31.5C188.487 32.34 188.103 33.6 188.103 35.28V45H182.487V25.632H187.851V27.864C188.571 27.048 189.447 26.424 190.479 25.992C191.535 25.56 192.687 25.344 193.935 25.344C195.303 25.344 196.539 25.62 197.643 26.172C198.747 26.7 199.635 27.48 200.307 28.512C201.099 27.504 202.095 26.724 203.295 26.172C204.519 25.62 205.851 25.344 207.291 25.344Z" fill="white"/>
</g>
<defs>
<filter id="filter0_d_1670_18533" x="0" y="0" width="250" height="76" filterUnits="userSpaceOnUse" color-interpolation-filters="sRGB">
<feFlood flood-opacity="0" result="BackgroundImageFix"/>
<feColorMatrix in="SourceAlpha" type="matrix" values="0 0 0 0 0 0 0 0 0 0 0 0 0 0 0 0 0 0 127 0" result="hardAlpha"/>
<feOffset dy="6"/>
<feGaussianBlur stdDeviation="4"/>
<feComposite in2="hardAlpha" operator="out"/>
<feColorMatrix type="matrix" values="0 0 0 0 0 0 0 0 0 0 0 0 0 0 0 0 0 0 0.25 0"/>
<feBlend mode="normal" in2="BackgroundImageFix" result="effect1_dropShadow_1670_18533"/>
<feBlend mode="normal" in="SourceGraphic" in2="effect1_dropShadow_1670_18533" result="shape"/>
</filter>
<linearGradient id="paint0_linear_1670_18533" x1="125" y1="2" x2="125" y2="62" gradientUnits="userSpaceOnUse">
<stop stop-color="#33AB48"/>
<stop offset="1" stop-color="#006837"/>
</linearGradient>
</defs>
</svg>
