<svg width="20" height="14" viewBox="0 0 20 14" fill="none" xmlns="http://www.w3.org/2000/svg">
<path d="M15.8334 3.66683L12.5 7.00016H15C15 9.7585 12.7584 12.0002 10 12.0002C9.15837 12.0002 8.35837 11.7918 7.66671 11.4168L6.45004 12.6335C7.47504 13.2835 8.69171 13.6668 10 13.6668C13.6834 13.6668 16.6667 10.6835 16.6667 7.00016H19.1667L15.8334 3.66683ZM5.00004 7.00016C5.00004 4.24183 7.24171 2.00016 10 2.00016C10.8417 2.00016 11.6417 2.2085 12.3334 2.5835L13.55 1.36683C12.525 0.716829 11.3084 0.333496 10 0.333496C6.31671 0.333496 3.33337 3.31683 3.33337 7.00016H0.833374L4.16671 10.3335L7.50004 7.00016H5.00004Z" fill="#1D9752"/>
</svg>
