<svg width="24" height="24" viewBox="0 0 24 24" fill="none" xmlns="http://www.w3.org/2000/svg">
<path d="M21.3518 4.76613L12.2609 2.03885C12.0908 1.98705 11.9092 1.98705 11.7391 2.03885L2.64818 4.76613C2.46083 4.82226 2.29658 4.93731 2.17981 5.0942C2.06305 5.25109 1.99999 5.44146 2 5.63704C2 17.9289 11.5655 21.897 11.6618 21.9361C11.8791 22.0222 12.1209 22.0222 12.3382 21.9361C12.4345 21.897 22 17.9289 22 5.63704C22 5.44146 21.937 5.25109 21.8202 5.0942C21.7034 4.93731 21.5392 4.82226 21.3518 4.76613ZM14.8064 15.1925L12 13.7152L9.19091 15.1925L9.72727 12.0643L7.45455 9.84885L10.5955 9.39431L12 6.54613L13.4045 9.39249L16.5455 9.84704L14.2727 12.0643L14.8064 15.1925Z" fill="#26A05B"/>
</svg>
