<svg width="20" height="20" viewBox="0 0 20 20" fill="none" xmlns="http://www.w3.org/2000/svg">
<path fill-rule="evenodd" clip-rule="evenodd" d="M3.33325 3.33366C3.11224 3.33366 2.90028 3.42146 2.744 3.57774C2.58772 3.73402 2.49992 3.94598 2.49992 4.16699V12.5003C2.49992 12.7213 2.58772 12.9333 2.744 13.0896C2.90028 13.2459 3.11224 13.3337 3.33325 13.3337H4.16658C4.62682 13.3337 4.99992 13.7068 4.99992 14.167C4.99992 14.6272 4.62682 15.0003 4.16658 15.0003H3.33325C2.67021 15.0003 2.03433 14.7369 1.56548 14.2681C1.09664 13.7993 0.833252 13.1634 0.833252 12.5003V4.16699C0.833252 3.50395 1.09664 2.86807 1.56548 2.39923C2.03433 1.93038 2.67021 1.66699 3.33325 1.66699H16.6666C17.3296 1.66699 17.9655 1.93038 18.4344 2.39923C18.9032 2.86807 19.1666 3.50395 19.1666 4.16699V12.5003C19.1666 13.1634 18.9032 13.7993 18.4344 14.2681C17.9655 14.7369 17.3296 15.0003 16.6666 15.0003H15.8333C15.373 15.0003 14.9999 14.6272 14.9999 14.167C14.9999 13.7068 15.373 13.3337 15.8333 13.3337H16.6666C16.8876 13.3337 17.0996 13.2459 17.2558 13.0896C17.4121 12.9333 17.4999 12.7213 17.4999 12.5003V4.16699C17.4999 3.94598 17.4121 3.73402 17.2558 3.57774C17.0996 3.42146 16.8876 3.33366 16.6666 3.33366H3.33325Z" fill="#1D9752"/>
<path fill-rule="evenodd" clip-rule="evenodd" d="M10 11.667C10.2473 11.667 10.4819 11.7768 10.6402 11.9668L14.8069 16.9668C15.0139 17.2152 15.0585 17.561 14.9213 17.8538C14.7842 18.1466 14.49 18.3337 14.1667 18.3337H5.83334C5.51 18.3337 5.21584 18.1466 5.07869 17.8538C4.94154 17.561 4.98616 17.2152 5.19316 16.9668L9.35983 11.9668C9.51815 11.7768 9.75269 11.667 10 11.667ZM7.61255 16.667H12.3875L10 13.802L7.61255 16.667Z" fill="#1D9752"/>
</svg>
