<svg width="20" height="20" viewBox="0 0 20 20" fill="none" xmlns="http://www.w3.org/2000/svg">
<g clip-path="url(#clip0_977_12968)">
<path fill-rule="evenodd" clip-rule="evenodd" d="M9.20245 2.53553C10.2969 1.44105 11.7814 0.826172 13.3292 0.826172C14.877 0.826172 16.3615 1.44105 17.456 2.53553C18.5504 3.63001 19.1653 5.11445 19.1653 6.66229C19.1653 8.20982 18.5507 9.69398 17.4566 10.7884C17.4564 10.7886 17.4562 10.7888 17.456 10.789L11.8402 16.4215C11.6838 16.5783 11.4715 16.6665 11.25 16.6665H4.16671C3.70647 16.6665 3.33337 16.2934 3.33337 15.8331V8.74979C3.33337 8.52877 3.42117 8.31681 3.57745 8.16053L9.20245 2.53553ZM13.3292 2.49284C12.2234 2.49284 11.1629 2.93212 10.381 3.71404L5.00004 9.09496V14.9998H10.9041L16.2766 9.6114L16.2775 9.61053C17.0594 8.82861 17.4987 7.76809 17.4987 6.66229C17.4987 5.55648 17.0594 4.49596 16.2775 3.71404C15.4955 2.93212 14.435 2.49284 13.3292 2.49284Z" fill="#1D9752"/>
<path fill-rule="evenodd" clip-rule="evenodd" d="M13.9226 6.07757C14.2481 6.40301 14.2481 6.93065 13.9226 7.25609L2.25596 18.9228C1.93053 19.2482 1.40289 19.2482 1.07745 18.9228C0.752015 18.5973 0.752015 18.0697 1.07745 17.7442L12.7441 6.07757C13.0696 5.75214 13.5972 5.75214 13.9226 6.07757Z" fill="#1D9752"/>
<path fill-rule="evenodd" clip-rule="evenodd" d="M6.66663 12.4998C6.66663 12.0396 7.03972 11.6665 7.49996 11.6665H14.5833C15.0435 11.6665 15.4166 12.0396 15.4166 12.4998C15.4166 12.9601 15.0435 13.3332 14.5833 13.3332H7.49996C7.03972 13.3332 6.66663 12.9601 6.66663 12.4998Z" fill="#1D9752"/>
</g>
<defs>
<clipPath id="clip0_977_12968">
<rect width="20" height="20" fill="white"/>
</clipPath>
</defs>
</svg>
