<svg width="16" height="16" viewBox="0 0 16 16" fill="none" xmlns="http://www.w3.org/2000/svg">
<path fill-rule="evenodd" clip-rule="evenodd" d="M2.66666 8.00001C2.66666 7.63182 2.96514 7.33334 3.33333 7.33334H12.6667C13.0349 7.33334 13.3333 7.63182 13.3333 8.00001C13.3333 8.3682 13.0349 8.66668 12.6667 8.66668H3.33333C2.96514 8.66668 2.66666 8.3682 2.66666 8.00001Z" fill="#1D9752"/>
<path fill-rule="evenodd" clip-rule="evenodd" d="M8.4714 2.86192C8.73175 3.12227 8.73175 3.54438 8.4714 3.80473L4.27614 7.99999L8.4714 12.1953C8.73175 12.4556 8.73175 12.8777 8.4714 13.1381C8.21105 13.3984 7.78894 13.3984 7.52859 13.1381L2.86193 8.47139C2.60158 8.21104 2.60158 7.78893 2.86193 7.52858L7.52859 2.86192C7.78894 2.60157 8.21105 2.60157 8.4714 2.86192Z" fill="#1D9752"/>
</svg>
