<svg width="250" height="76" viewBox="0 0 250 76" fill="none" xmlns="http://www.w3.org/2000/svg">
<g filter="url(#filter0_d_1670_18515)">
<rect x="8" y="2" width="234" height="60" rx="30" fill="url(#paint0_linear_1670_18515)" shape-rendering="crispEdges"/>
<path d="M51.456 19.8H62.904C65.64 19.8 68.052 20.328 70.14 21.384C72.252 22.416 73.884 23.88 75.036 25.776C76.212 27.672 76.8 29.88 76.8 32.4C76.8 34.92 76.212 37.128 75.036 39.024C73.884 40.92 72.252 42.396 70.14 43.452C68.052 44.484 65.64 45 62.904 45H51.456V19.8ZM62.616 40.212C65.136 40.212 67.14 39.516 68.628 38.124C70.14 36.708 70.896 34.8 70.896 32.4C70.896 30 70.14 28.104 68.628 26.712C67.14 25.296 65.136 24.588 62.616 24.588H57.288V40.212H62.616ZM48.036 30.24H63.588V34.128H48.036V30.24ZM97.6392 28.188C98.5992 29.076 99.3312 30.132 99.8352 31.356C100.363 32.556 100.627 33.876 100.627 35.316C100.627 37.236 100.171 38.952 99.2592 40.464C98.3472 41.976 97.0872 43.164 95.4792 44.028C93.8712 44.868 92.0472 45.288 90.0072 45.288C87.9672 45.288 86.1312 44.868 84.4992 44.028C82.8912 43.164 81.6312 41.976 80.7192 40.464C79.8072 38.952 79.3512 37.236 79.3512 35.316C79.3512 33.396 79.8072 31.68 80.7192 30.168C81.6552 28.656 82.9272 27.48 84.5352 26.64C86.1672 25.776 88.0032 25.344 90.0432 25.344C90.5232 25.344 91.3632 25.404 92.5632 25.524C93.3792 25.62 93.9672 25.668 94.3272 25.668C95.0712 25.668 95.6352 25.452 96.0192 25.02C96.4272 24.588 96.6312 24.024 96.6312 23.328C96.6312 22.56 96.3792 21.84 95.8752 21.168L99.1512 19.944C99.9672 21.048 100.375 22.248 100.375 23.544C100.375 24.576 100.135 25.5 99.6552 26.316C99.1752 27.108 98.5032 27.732 97.6392 28.188ZM90.0072 40.68C91.4232 40.68 92.5992 40.2 93.5352 39.24C94.4712 38.256 94.9392 36.948 94.9392 35.316C94.9392 33.684 94.4712 32.388 93.5352 31.428C92.6232 30.444 91.4472 29.952 90.0072 29.952C88.5672 29.952 87.3792 30.444 86.4432 31.428C85.5072 32.388 85.0392 33.684 85.0392 35.316C85.0392 36.948 85.5072 38.256 86.4432 39.24C87.3792 40.2 88.5672 40.68 90.0072 40.68ZM116.153 25.344C118.553 25.344 120.485 26.064 121.949 27.504C123.437 28.944 124.181 31.08 124.181 33.912V45H118.565V34.776C118.565 33.24 118.229 32.1 117.557 31.356C116.885 30.588 115.913 30.204 114.641 30.204C113.225 30.204 112.097 30.648 111.257 31.536C110.417 32.4 109.997 33.696 109.997 35.424V45H104.381V25.632H109.745V27.9C110.489 27.084 111.413 26.46 112.517 26.028C113.621 25.572 114.833 25.344 116.153 25.344ZM158.691 25.632L150.519 45H144.723L136.587 25.632H142.383L147.747 38.808L153.291 25.632H158.691ZM168.162 25.344C171.162 25.344 173.466 26.064 175.074 27.504C176.682 28.92 177.486 31.068 177.486 33.948V45H172.23V42.588C171.174 44.388 169.206 45.288 166.326 45.288C164.838 45.288 163.542 45.036 162.438 44.532C161.358 44.028 160.53 43.332 159.954 42.444C159.378 41.556 159.09 40.548 159.09 39.42C159.09 37.62 159.762 36.204 161.106 35.172C162.474 34.14 164.574 33.624 167.406 33.624H171.87C171.87 32.4 171.498 31.464 170.754 30.816C170.01 30.144 168.894 29.808 167.406 29.808C166.374 29.808 165.354 29.976 164.346 30.312C163.362 30.624 162.522 31.056 161.826 31.608L159.81 27.684C160.866 26.94 162.126 26.364 163.59 25.956C165.078 25.548 166.602 25.344 168.162 25.344ZM167.73 41.508C168.69 41.508 169.542 41.292 170.286 40.86C171.03 40.404 171.558 39.744 171.87 38.88V36.9H168.018C165.714 36.9 164.562 37.656 164.562 39.168C164.562 39.888 164.838 40.464 165.39 40.896C165.966 41.304 166.746 41.508 167.73 41.508ZM201.441 25.632L192.693 46.188C191.805 48.42 190.701 49.992 189.381 50.904C188.085 51.816 186.513 52.272 184.665 52.272C183.657 52.272 182.661 52.116 181.677 51.804C180.693 51.492 179.889 51.06 179.265 50.508L181.317 46.512C181.749 46.896 182.241 47.196 182.793 47.412C183.369 47.628 183.933 47.736 184.485 47.736C185.253 47.736 185.877 47.544 186.357 47.16C186.837 46.8 187.269 46.188 187.653 45.324L187.725 45.144L179.337 25.632H185.133L190.569 38.772L196.041 25.632H201.441Z" fill="white"/>
</g>
<defs>
<filter id="filter0_d_1670_18515" x="0" y="0" width="250" height="76" filterUnits="userSpaceOnUse" color-interpolation-filters="sRGB">
<feFlood flood-opacity="0" result="BackgroundImageFix"/>
<feColorMatrix in="SourceAlpha" type="matrix" values="0 0 0 0 0 0 0 0 0 0 0 0 0 0 0 0 0 0 127 0" result="hardAlpha"/>
<feOffset dy="6"/>
<feGaussianBlur stdDeviation="4"/>
<feComposite in2="hardAlpha" operator="out"/>
<feColorMatrix type="matrix" values="0 0 0 0 0 0 0 0 0 0 0 0 0 0 0 0 0 0 0.25 0"/>
<feBlend mode="normal" in2="BackgroundImageFix" result="effect1_dropShadow_1670_18515"/>
<feBlend mode="normal" in="SourceGraphic" in2="effect1_dropShadow_1670_18515" result="shape"/>
</filter>
<linearGradient id="paint0_linear_1670_18515" x1="125" y1="2" x2="125" y2="62" gradientUnits="userSpaceOnUse">
<stop stop-color="#33AB48"/>
<stop offset="1" stop-color="#006837"/>
</linearGradient>
</defs>
</svg>
