<svg width="109" height="36" viewBox="0 0 109 36" fill="none" xmlns="http://www.w3.org/2000/svg">
<path d="M37.1407 15.1038H35.0751V12.7384H42.0188V15.1038H39.9232V23.4238H37.1407V15.1038Z" fill="white"/>
<path d="M42.4235 12.7384H45.1185V14.7441H42.4235V12.7384ZM42.4235 15.3286H45.1185V23.4263H42.4235V15.3286Z" fill="white"/>
<path d="M48.6953 19.8321V20.8936C48.6953 21.6229 48.9401 21.9851 49.4297 21.9851C49.6894 21.9851 49.8817 21.8802 50.0066 21.6704C50.1315 21.4606 50.194 21.0959 50.194 20.5789H52.6193C52.5993 21.598 52.3395 22.3523 51.84 22.8468C51.3404 23.3414 50.5436 23.5887 49.4446 23.5887C48.1583 23.5887 47.2616 23.2764 46.7571 22.652C46.2525 22.0276 46.0002 20.9386 46.0002 19.3825C46.0002 17.8463 46.2675 16.7523 46.802 16.0979C47.3365 15.446 48.2157 15.1188 49.4446 15.1188C50.5611 15.1188 51.3829 15.411 51.9074 15.9955C52.4319 16.58 52.6917 17.5841 52.6917 19.0103V19.8346H48.6953V19.8321ZM50.1765 18.0062C50.1765 17.5666 50.1215 17.2519 50.0116 17.0571C49.9017 16.8622 49.7069 16.7648 49.4272 16.7648C49.1574 16.7648 48.9676 16.8622 48.8577 17.0571C48.7478 17.2519 48.6928 17.5691 48.6928 18.0062V18.3659H50.174V18.0062H50.1765Z" fill="white"/>
<path d="M53.4385 15.3286H56.0437V16.3152H56.0737C56.4233 15.5184 57.0778 15.1188 58.0344 15.1188C58.6938 15.1188 59.2083 15.2837 59.583 15.6134C59.9577 15.9431 60.145 16.51 60.145 17.3193V23.4263H57.4499V18.0836C57.4499 17.7439 57.4 17.4992 57.3001 17.3493C57.2001 17.1994 57.0303 17.1245 56.7905 17.1245C56.5507 17.1245 56.3809 17.1994 56.281 17.3493C56.1811 17.4992 56.1311 17.7439 56.1311 18.0836V23.4263H53.436V15.3286H53.4385Z" fill="white"/>
<path d="M61.339 12.7384H64.4537L66.2496 19.325H66.2795V12.7384H68.8822V23.4263H65.8299L63.9741 16.8247H63.9441V23.4263H61.339V12.7384Z" fill="white"/>
<path d="M74.2247 15.1288H76.7399V23.2915C76.7399 25.1873 75.6109 26.1339 73.358 26.1339C72.7285 26.1339 72.2015 26.0765 71.7719 25.9616C71.3423 25.8467 70.9801 25.6144 70.6804 25.2647C70.3807 24.915 70.2258 24.4454 70.2158 23.8585H72.6411C72.6411 24.2781 72.8659 24.4879 73.3155 24.4879C73.5653 24.4879 73.7651 24.423 73.915 24.2931C74.0648 24.1632 74.1398 23.8934 74.1398 23.4838V21.9877H74.1098C73.8101 22.7969 73.2031 23.1991 72.2839 23.1991C70.7079 23.1991 69.9186 21.8678 69.9186 19.2027C69.9186 17.7165 70.1284 16.665 70.548 16.0455C70.9676 15.4261 71.5896 15.1164 72.4188 15.1164C73.3355 15.1164 73.93 15.561 74.1997 16.4477H74.2297V15.1288H74.2247ZM72.6086 19.1602C72.6086 19.967 72.6686 20.509 72.7885 20.7837C72.9084 21.0585 73.1082 21.1959 73.3879 21.1959C73.6577 21.1959 73.85 21.061 73.9649 20.7912C74.0798 20.5215 74.1373 19.977 74.1373 19.1602C74.1373 18.3609 74.0773 17.8239 73.9574 17.5442C73.8375 17.2644 73.6477 17.1245 73.3879 17.1245C73.1182 17.1245 72.9209 17.2644 72.796 17.5442C72.6711 17.8214 72.6086 18.3609 72.6086 19.1602Z" fill="white"/>
<path d="M81.7979 23.4239C81.7479 23.294 81.693 22.9893 81.633 22.5122H81.6031C81.3033 23.2315 80.6939 23.5887 79.7772 23.5887C78.2811 23.5887 77.5317 22.8119 77.5317 21.2533C77.5317 20.494 77.6941 19.922 78.0188 19.5324C78.3435 19.1427 78.928 18.848 79.7772 18.6482L80.8388 18.3934C81.1285 18.3235 81.3333 18.2211 81.4532 18.0862C81.5731 17.9513 81.633 17.759 81.633 17.5092C81.633 17.0097 81.4032 16.7599 80.9437 16.7599C80.6739 16.7599 80.4816 16.8348 80.3667 16.9847C80.2518 17.1345 80.1893 17.4193 80.1793 17.8389H77.844C77.844 17.2894 77.9439 16.8248 78.1437 16.4402C78.3435 16.0555 78.6083 15.7733 78.943 15.5959C79.2777 15.4161 79.6024 15.2912 79.9221 15.2213C80.2418 15.1513 80.5815 15.1164 80.9412 15.1164C81.9777 15.1164 82.772 15.3062 83.3215 15.6858C83.871 16.0655 84.1458 16.7424 84.1458 17.7215V21.6729C84.1458 22.5222 84.2307 23.1042 84.4005 23.4239H81.7979ZM80.7963 21.8228C81.3558 21.8228 81.633 21.3782 81.633 20.4915V19.5199H81.6031C81.5531 19.5898 81.4857 19.6398 81.4007 19.6697C81.3158 19.6997 81.2009 19.7322 81.0561 19.7672C80.9112 19.8021 80.7888 19.8446 80.6889 19.8946C80.3192 20.0644 80.1344 20.4141 80.1344 20.9436C80.1344 21.2134 80.1943 21.4282 80.3142 21.588C80.4366 21.7429 80.5965 21.8228 80.7963 21.8228Z" fill="white"/>
<path d="M85.557 24.1882C85.7269 24.2281 85.9267 24.2481 86.1565 24.2481C86.4562 24.2481 86.681 24.1757 86.8309 24.0308C86.9807 23.8859 87.0532 23.6337 87.0532 23.5138C87.0532 23.4438 87.0132 23.259 86.9333 22.9593L84.7452 15.1288L87.5452 15.1164L88.3994 20.7887H88.4294L89.2362 15.1288L91.9537 15.1313L89.7332 23.6487C89.5034 24.5553 89.1912 25.2972 88.7916 25.6319C88.392 25.9666 87.82 26.1339 87.0706 26.1339C86.4712 26.1339 85.9691 26.1139 85.5595 26.074V24.1882H85.557Z" fill="white"/>
<path d="M94.1169 20.4615H91.6017V23.4264H94.1169V20.4615Z" fill="white"/>
<path d="M94.7137 15.1337H97.4713L98.2605 21.1508H98.2905L99.0648 15.1337L101.87 15.1362L99.8466 23.4237H96.6745L94.7137 15.1337Z" fill="white"/>
<path d="M102.272 15.1338H104.877V16.3152H104.907C105.257 15.5159 105.911 15.1188 106.868 15.1188C107.527 15.1188 108.042 15.2837 108.416 15.6134C108.791 15.9431 108.978 16.5125 108.978 17.3193V23.4263H106.283V18.0836C106.283 17.7439 106.233 17.4992 106.133 17.3518C106.034 17.2019 105.864 17.127 105.624 17.127C105.384 17.127 105.214 17.2019 105.114 17.3518C105.014 17.5017 104.964 17.7464 104.964 18.0836V23.4263H102.269V15.1338H102.272Z" fill="white"/>
<path d="M15.9674 36C15.4953 36 15.0532 35.7702 14.781 35.3831L9.67807 28.0946C9.6456 28.0497 9.61562 27.9997 9.58815 27.9498L9.50072 27.7899L9.39083 27.9348C9.11857 28.287 8.69146 28.4968 8.24686 28.4968H1.44549C0.903482 28.4968 0.411427 28.197 0.16415 27.7175C-0.0856249 27.2379 -0.0481589 26.6634 0.261562 26.2188L6.01387 17.9988L0.261562 9.78617C-0.0481589 9.34407 -0.0856249 8.76958 0.16415 8.28752C0.413924 7.80545 0.90598 7.50822 1.44799 7.50822H8.25435C8.69645 7.50822 9.12107 7.71553 9.39332 8.06522L9.50572 8.21009L9.59314 8.04773C9.61812 8.00277 9.6456 7.95531 9.68306 7.90286L14.7835 0.616936C15.0532 0.229785 15.4953 0 15.9674 0C16.4395 0 16.8841 0.232286 17.1513 0.619436L22.2542 7.90536C22.2842 7.95032 22.3142 7.99778 22.3441 8.04773L22.4316 8.20509L22.544 8.06272C22.8212 7.70804 23.2358 7.50572 23.6854 7.50572H30.4893C31.0313 7.50572 31.5234 7.80545 31.7731 8.28502C32.0229 8.76459 31.9854 9.33907 31.6757 9.78367L25.9209 17.9988L31.6857 26.2163C31.9979 26.6609 32.0354 27.2354 31.7856 27.715C31.5358 28.197 31.0463 28.4943 30.5043 28.4943H23.7004C23.2533 28.4943 22.8237 28.282 22.549 27.9248L22.4341 27.7724L22.3491 27.9423C22.3267 27.9897 22.2967 28.0372 22.2592 28.0921L17.1563 35.3806C16.8841 35.7677 16.4395 36 15.9674 36Z" fill="white"/>
<path d="M12.3106 15.476H10.2899C10.1051 15.476 9.93275 15.3861 9.82535 15.2338L6.98292 11.1749H5.59916L9.23588 16.3652C9.34079 16.5176 9.51563 16.6075 9.70046 16.6075H13.8967C14.0815 16.6075 14.2564 16.6974 14.3613 16.8498L21.4249 26.9382C21.5623 27.133 21.5623 27.3928 21.4249 27.5876L16.322 34.876C16.0972 35.1982 15.6201 35.1982 15.3928 34.876L10.2899 27.5876C10.1526 27.3928 10.1526 27.133 10.2899 26.9382L13.0025 23.0667C13.2273 22.7445 13.7044 22.7445 13.9291 23.0642L14.9407 24.5029C15.0781 24.6977 15.0781 24.9575 14.9407 25.1548L13.6919 26.9382C13.5545 27.133 13.5545 27.3928 13.6919 27.5876L15.8574 30.6798L18.023 27.5876C18.1603 27.3928 18.1603 27.133 18.023 26.9382L12.9101 19.6373C12.8027 19.4849 12.6303 19.395 12.4455 19.395H9.69547C9.51064 19.395 9.33829 19.4849 9.23089 19.6373L5.59167 24.8326L6.97792 24.8276L9.82036 20.7713C9.92776 20.6214 10.1001 20.5315 10.2849 20.5315H11.8535C12.0384 20.5315 12.2107 20.6214 12.3181 20.7738L12.5429 21.096C12.6778 21.2908 12.6778 21.5506 12.5429 21.7454L8.59896 27.3778C8.49405 27.5302 8.31921 27.6201 8.13438 27.6201H1.33551C0.878425 27.6201 0.608668 27.103 0.870931 26.7284L6.74813 18.3285C6.8855 18.1336 6.8855 17.8739 6.74813 17.679L0.87343 9.28162C0.611166 8.90696 0.878425 8.38992 1.33801 8.38992H8.14437C8.3292 8.38992 8.50154 8.47985 8.60895 8.63221L12.7777 14.5868C13.0375 14.959 12.7702 15.476 12.3106 15.476Z" fill="#ED3938"/>
<path d="M19.4193 20.5265H21.4375C21.6223 20.5265 21.7947 20.6164 21.9021 20.7687L24.7445 24.8276H26.1283L22.4915 19.6373C22.3866 19.4849 22.2118 19.395 22.027 19.395H17.8307C17.6459 19.395 17.4711 19.3051 17.3662 19.1552L10.29 9.05931C10.1527 8.86448 10.1527 8.60472 10.29 8.4099L15.3929 1.12148C15.6177 0.799269 16.0948 0.799269 16.3196 1.12148L21.4225 8.4099C21.5599 8.60472 21.5599 8.86448 21.4225 9.05931L18.7124 12.9308C18.4851 13.253 18.0081 13.253 17.7833 12.9308L16.7742 11.4896C16.6368 11.2948 16.6368 11.035 16.7742 10.8402L18.0181 9.06181C18.1554 8.86698 18.1554 8.60722 18.0181 8.4124L15.8525 5.31769L13.687 8.4099C13.5496 8.60472 13.5496 8.86448 13.687 9.05931L18.8124 16.3652C18.9198 16.5176 19.0921 16.6075 19.2769 16.6075H22.0095C22.1943 16.6075 22.3691 16.5176 22.474 16.3652L26.1083 11.1749H24.7245L21.8821 15.2337C21.7772 15.3861 21.6023 15.476 21.4175 15.476H19.8564C19.6716 15.476 19.4967 15.3861 19.3918 15.2337L19.162 14.9065C19.0247 14.7117 19.0247 14.4519 19.162 14.2571L23.1035 8.6297C23.2109 8.47984 23.3832 8.38741 23.5681 8.38741H30.3719C30.829 8.38741 31.0988 8.90445 30.8365 9.27911L24.9568 17.674C24.8194 17.8689 24.8194 18.1286 24.9568 18.3235L30.849 26.7209C31.1138 27.0955 30.844 27.6126 30.3869 27.6126H23.583C23.3982 27.6126 23.2259 27.5226 23.1185 27.3703L18.9497 21.4182C18.6925 21.0435 18.9597 20.5265 19.4193 20.5265Z" fill="#ED3938"/>
</svg>
