<svg width="190" height="59" viewBox="0 0 190 59" fill="none" xmlns="http://www.w3.org/2000/svg">
<path d="M64.3222 41.0049H62.8622V45.81H61.6714V41.0049H60.2373V40.0296H64.3222V41.0049Z" fill="#0F9B55"/>
<path d="M66.7611 45.81C66.7301 45.744 66.6938 45.6322 66.6628 45.4748C66.4557 45.7491 66.1813 45.8862 65.8292 45.8862C65.4617 45.8862 65.1562 45.7643 64.918 45.5306C64.6747 45.2919 64.5557 44.9821 64.5557 44.6062C64.5557 44.1541 64.7006 43.8087 64.9957 43.5598C65.2908 43.316 65.7102 43.189 66.259 43.1839H66.6058V42.8385C66.6058 42.6455 66.5696 42.5084 66.5023 42.4322C66.435 42.356 66.3366 42.3154 66.2072 42.3154C65.9225 42.3154 65.7775 42.4779 65.7775 42.8081H64.6333C64.6333 42.4119 64.7834 42.0817 65.0889 41.8277C65.3944 41.5687 65.7775 41.4417 66.2383 41.4417C66.7198 41.4417 67.0873 41.5636 67.3514 41.8074C67.6154 42.0512 67.7448 42.4017 67.7448 42.8589V44.8805C67.75 45.2513 67.8018 45.5408 67.9053 45.749V45.8151H66.7611V45.81ZM66.7819 40.9439H65.8137L64.6954 39.7147H65.9794L66.7819 40.9439ZM66.0881 45.0074C66.2175 45.0074 66.3211 44.9821 66.4143 44.9313C66.5023 44.8805 66.5696 44.8195 66.611 44.7535V43.8595H66.3366C66.1399 43.8595 65.9898 43.9205 65.8759 44.0424C65.762 44.1643 65.7102 44.3268 65.7102 44.53C65.705 44.85 65.8344 45.0074 66.0881 45.0074Z" fill="#0F9B55"/>
<path d="M68.9971 40.4055C68.9971 40.2328 69.054 40.0906 69.1679 39.9788C69.2818 39.8671 69.432 39.8112 69.6235 39.8112C69.8151 39.8112 69.9652 39.8671 70.0739 39.9788C70.1878 40.0906 70.2448 40.2328 70.2448 40.4055C70.2448 40.5782 70.1879 40.7204 70.0791 40.8322C69.9652 40.9439 69.8151 41.0049 69.6235 41.0049C69.432 41.0049 69.2818 40.949 69.1679 40.8322C69.0489 40.7204 68.9971 40.5731 68.9971 40.4055ZM70.1982 45.81H69.0489V41.5179H70.1982V45.81Z" fill="#0F9B55"/>
<path d="M75.4014 44.9567C75.7328 44.9567 75.9037 44.7434 75.9088 44.3218H76.9857C76.9805 44.7891 76.8356 45.17 76.5456 45.4545C76.2557 45.744 75.8829 45.8862 75.4274 45.8862C74.863 45.8862 74.4333 45.7135 74.1382 45.3681C73.8431 45.0227 73.693 44.5199 73.6826 43.8494V43.5091C73.6826 42.8335 73.8276 42.3205 74.1227 41.9649C74.4178 41.6094 74.8475 41.4316 75.4222 41.4316C75.9037 41.4316 76.2868 41.5789 76.5612 41.8684C76.8356 42.1579 76.9805 42.5744 76.9857 43.1129H75.9088C75.9037 42.8741 75.8674 42.6862 75.7846 42.5592C75.7069 42.4272 75.5775 42.3662 75.3963 42.3662C75.1996 42.3662 75.0546 42.4373 74.9666 42.5744C74.8786 42.7116 74.8371 42.9808 74.8268 43.3821V43.8189C74.8268 44.1694 74.8475 44.4132 74.8786 44.5504C74.9148 44.6875 74.9717 44.7891 75.0546 44.8551C75.1374 44.9211 75.2513 44.9567 75.4014 44.9567Z" fill="#0F9B55"/>
<path d="M79.1605 41.8938C79.409 41.5891 79.7145 41.4367 80.0769 41.4367C80.4755 41.4367 80.7758 41.5738 80.9881 41.8481C81.1952 42.1224 81.2987 42.5338 81.3039 43.0773V45.805H80.1545V43.0875C80.1545 42.8386 80.1131 42.6557 80.0354 42.544C79.9578 42.4322 79.8284 42.3764 79.6523 42.3764C79.4452 42.3764 79.2847 42.4678 79.1657 42.6557V45.805H78.0215V39.7097H79.1657V41.8938H79.1605Z" fill="#0F9B55"/>
<path d="M83.7623 45.81H82.6182V41.5179H83.7623V45.81ZM83.431 39.7706H84.715L83.5915 40.9998H82.6389L83.431 39.7706Z" fill="#0F9B55"/>
<path d="M86.1699 41.5129L86.201 41.9395C86.4599 41.6043 86.7964 41.4367 87.2157 41.4367C87.9664 41.4367 88.3547 41.9548 88.3754 42.9859V45.805H87.2261V43.0672C87.2261 42.8234 87.1898 42.6456 87.1122 42.5389C87.0397 42.4272 86.9103 42.3764 86.7239 42.3764C86.5168 42.3764 86.3563 42.483 86.2373 42.6913V45.8101H85.0879V41.5179H86.1699V41.5129Z" fill="#0F9B55"/>
<path d="M90.7265 41.8938C90.975 41.5891 91.2805 41.4367 91.6377 41.4367C92.0364 41.4367 92.3418 41.5738 92.5489 41.8481C92.756 42.1224 92.8595 42.5338 92.8647 43.0773V45.805H91.7154V43.0875C91.7154 42.8386 91.6739 42.6557 91.5963 42.544C91.5186 42.4322 91.3892 42.3764 91.208 42.3764C91.0009 42.3764 90.8404 42.4678 90.7213 42.6557V45.805H89.5771V39.7097H90.7213V41.8938H90.7265Z" fill="#0F9B55"/>
<path d="M100.056 41.0049H98.5956V45.81H97.4048V41.0049H95.9707V40.0296H100.056V41.0049Z" fill="#EE3C39"/>
<path d="M101.097 40.4055C101.097 40.2328 101.154 40.0906 101.268 39.9788C101.381 39.8671 101.532 39.8112 101.718 39.8112C101.904 39.8112 102.06 39.8671 102.174 39.9788C102.287 40.0906 102.344 40.2328 102.344 40.4055C102.344 40.5782 102.287 40.7204 102.174 40.8322C102.06 40.9439 101.91 41.0049 101.718 41.0049C101.526 41.0049 101.376 40.949 101.262 40.8322C101.148 40.7204 101.097 40.5731 101.097 40.4055ZM102.298 45.81H101.148V41.5179H102.298V45.81Z" fill="#EE3C39"/>
<path d="M105.362 45.8862C104.772 45.8862 104.316 45.7135 103.985 45.3732C103.654 45.0278 103.493 44.5351 103.493 43.8951V43.5548C103.493 42.8792 103.643 42.3561 103.949 41.9903C104.249 41.6246 104.684 41.4367 105.248 41.4367C105.797 41.4367 106.211 41.6094 106.491 41.9548C106.77 42.3002 106.91 42.8081 106.915 43.4887V44.0373H104.637C104.653 44.3573 104.725 44.591 104.85 44.7383C104.974 44.8856 105.171 44.9618 105.435 44.9618C105.818 44.9618 106.139 44.8348 106.392 44.5757L106.843 45.2564C106.703 45.4443 106.496 45.6018 106.232 45.7186C105.963 45.8304 105.673 45.8862 105.362 45.8862ZM106.491 40.822V40.8678H105.595L105.088 40.2938L104.58 40.8678H103.705V40.8017L104.756 39.7097H105.414L106.491 40.822ZM105.191 46.1859C105.388 46.1859 105.549 46.2367 105.673 46.3434C105.797 46.45 105.854 46.577 105.854 46.7396C105.854 46.897 105.792 47.0291 105.673 47.1358C105.549 47.2424 105.388 47.2932 105.191 47.2932C105 47.2932 104.839 47.2424 104.715 47.1358C104.591 47.0342 104.529 46.9021 104.529 46.7396C104.529 46.5821 104.591 46.45 104.715 46.3434C104.839 46.2367 105 46.1859 105.191 46.1859ZM104.643 43.2551H105.787V43.1535C105.782 42.8995 105.74 42.7014 105.657 42.5694C105.574 42.4373 105.435 42.3713 105.238 42.3713C105.036 42.3713 104.896 42.4424 104.803 42.5795C104.71 42.7167 104.658 42.9453 104.643 43.2551Z" fill="#EE3C39"/>
<path d="M109.022 41.5128L109.054 41.9395C109.312 41.6043 109.649 41.4366 110.068 41.4366C110.819 41.4366 111.207 41.9547 111.228 42.9859V45.8049H110.079V43.0672C110.079 42.8233 110.042 42.6455 109.965 42.5389C109.892 42.4271 109.763 42.3763 109.576 42.3763C109.369 42.3763 109.209 42.483 109.09 42.6912V45.81H107.94V41.5179H109.022V41.5128Z" fill="#EE3C39"/>
<path d="M116.224 44.2202L116.778 41.5128H117.969L116.767 45.81H115.675L114.469 41.5128H115.67L116.224 44.2202Z" fill="#EE3C39"/>
<path d="M120.941 45.81C120.91 45.744 120.879 45.6322 120.842 45.4748C120.641 45.7491 120.361 45.8862 120.009 45.8862C119.641 45.8862 119.341 45.7643 119.098 45.5306C118.854 45.2919 118.735 44.9821 118.735 44.6062C118.735 44.1541 118.88 43.8087 119.175 43.5598C119.471 43.316 119.89 43.189 120.439 43.1839H120.786V42.8385C120.786 42.6455 120.749 42.5084 120.682 42.4322C120.615 42.356 120.516 42.3154 120.387 42.3154C120.102 42.3154 119.957 42.4779 119.957 42.8081H118.813C118.813 42.4119 118.963 42.0817 119.269 41.8277C119.574 41.5687 119.957 41.4417 120.418 41.4417C120.899 41.4417 121.267 41.5636 121.531 41.8074C121.795 42.0512 121.925 42.4017 121.925 42.8589V44.8805C121.93 45.2513 121.982 45.5408 122.085 45.749V45.8151H120.941V45.81ZM120.962 40.9439H119.993L118.875 39.7147H120.159L120.962 40.9439ZM120.263 45.0074C120.387 45.0074 120.496 44.9821 120.589 44.9313C120.677 44.8805 120.744 44.8195 120.786 44.7535V43.8595H120.511C120.314 43.8595 120.164 43.9205 120.05 44.0424C119.936 44.1643 119.885 44.3268 119.885 44.53C119.885 44.85 120.009 45.0074 120.263 45.0074Z" fill="#EE3C39"/>
<path d="M129.67 45.81H128.484L126.744 42.0208V45.81H125.554V40.0296H126.744L128.489 43.824V40.0296H129.67V45.81Z" fill="#EE3C39"/>
<path d="M130.845 43.5294C130.845 42.8233 130.974 42.3002 131.233 41.9548C131.492 41.6094 131.854 41.4366 132.32 41.4366C132.719 41.4366 133.024 41.589 133.237 41.8989L133.283 41.5179H134.314V45.81C134.314 46.3586 134.158 46.7751 133.842 47.0647C133.527 47.3542 133.081 47.4964 132.496 47.4964C132.258 47.4964 132.004 47.4507 131.74 47.3542C131.476 47.2577 131.28 47.1408 131.15 46.9935L131.533 46.2164C131.642 46.3281 131.782 46.4196 131.953 46.4907C132.124 46.5618 132.289 46.5973 132.445 46.5973C132.698 46.5973 132.885 46.5364 132.998 46.4196C133.112 46.2977 133.169 46.1046 133.169 45.8354V45.4646C132.952 45.744 132.667 45.8862 132.315 45.8862C131.849 45.8862 131.487 45.7084 131.233 45.3529C130.979 44.9973 130.85 44.4945 130.845 43.8494V43.5294ZM131.989 43.8138C131.989 44.21 132.041 44.4995 132.149 44.6824C132.253 44.8653 132.419 44.9567 132.652 44.9567C132.885 44.9567 133.061 44.8754 133.175 44.7078V42.6557C133.055 42.4729 132.885 42.3814 132.662 42.3814C132.434 42.3814 132.268 42.4729 132.155 42.6557C132.046 42.8386 131.994 43.1332 131.994 43.5344V43.8138H131.989Z" fill="#EE3C39"/>
<path d="M137.642 45.81C137.611 45.744 137.58 45.6323 137.544 45.4748C137.337 45.7491 137.062 45.8862 136.71 45.8862C136.343 45.8862 136.042 45.7643 135.799 45.5307C135.556 45.2919 135.437 44.9821 135.437 44.6062C135.437 44.1541 135.581 43.8087 135.877 43.5598C136.167 43.316 136.591 43.1891 137.14 43.184H137.487V42.8386C137.487 42.6456 137.45 42.5084 137.383 42.4322C137.316 42.356 137.218 42.3154 137.088 42.3154C136.803 42.3154 136.658 42.4779 136.658 42.8081H135.514C135.514 42.4119 135.664 42.0818 135.97 41.8278C136.275 41.5687 136.658 41.4417 137.119 41.4417C137.601 41.4417 137.973 41.5636 138.232 41.8074C138.496 42.0513 138.626 42.4017 138.626 42.8589V44.8805C138.631 45.2513 138.683 45.5408 138.786 45.7491V45.8151H137.642V45.81ZM136.964 45.0075C137.088 45.0075 137.197 44.9821 137.285 44.9313C137.373 44.8805 137.44 44.8195 137.482 44.7535V43.8595H137.207C137.016 43.8595 136.86 43.9205 136.746 44.0424C136.632 44.1643 136.581 44.3269 136.581 44.53C136.586 44.85 136.71 45.0075 136.964 45.0075Z" fill="#EE3C39"/>
<path d="M141.22 43.9408L141.805 41.5179H143.027L141.588 46.4551C141.37 47.1815 140.966 47.5472 140.371 47.5472C140.231 47.5472 140.076 47.5218 139.9 47.471V46.5923L140.034 46.5973C140.21 46.5973 140.345 46.5618 140.438 46.4957C140.526 46.4297 140.599 46.3129 140.64 46.1453L140.728 45.8557L139.465 41.5179H140.697L141.22 43.9408Z" fill="#EE3C39"/>
<path d="M147.831 44.9567C148.163 44.9567 148.333 44.7434 148.339 44.3218H149.415C149.41 44.7891 149.265 45.17 148.975 45.4545C148.685 45.744 148.313 45.8862 147.857 45.8862C147.293 45.8862 146.863 45.7135 146.568 45.3681C146.273 45.0227 146.117 44.5199 146.112 43.8494V43.5091C146.112 42.8335 146.257 42.3205 146.552 41.9649C146.847 41.6094 147.277 41.4316 147.852 41.4316C148.333 41.4316 148.716 41.5789 148.991 41.8684C149.27 42.1579 149.41 42.5744 149.415 43.1129H148.339C148.333 42.8741 148.297 42.6862 148.219 42.5592C148.142 42.4272 148.012 42.3662 147.831 42.3662C147.629 42.3662 147.489 42.4373 147.401 42.5744C147.313 42.7116 147.267 42.9808 147.262 43.3821V43.8189C147.262 44.1694 147.277 44.4132 147.313 44.5504C147.35 44.6875 147.407 44.7891 147.489 44.8551C147.567 44.9211 147.681 44.9567 147.831 44.9567Z" fill="#0F9B55"/>
<path d="M151.59 41.8939C151.839 41.5891 152.144 41.4367 152.507 41.4367C152.905 41.4367 153.211 41.5738 153.418 41.8481C153.625 42.1224 153.728 42.5338 153.734 43.0773V45.805H152.584V43.0875C152.584 42.8386 152.543 42.6558 152.465 42.544C152.387 42.4323 152.258 42.3764 152.082 42.3764C151.875 42.3764 151.714 42.4678 151.595 42.6558V45.805H150.451V39.7097H151.595V41.8939H151.59Z" fill="#0F9B55"/>
<path d="M154.831 43.5243C154.831 42.8741 154.986 42.3662 155.302 41.9954C155.613 41.6246 156.048 41.4417 156.602 41.4417C157.161 41.4417 157.596 41.6297 157.906 41.9954C158.217 42.3662 158.377 42.8792 158.377 43.5345V43.8087C158.377 44.464 158.222 44.9719 157.912 45.3427C157.601 45.7084 157.166 45.8964 156.607 45.8964C156.048 45.8964 155.613 45.7135 155.297 45.3427C154.981 44.9719 154.831 44.4589 154.831 43.8037V43.5243ZM155.98 43.8037C155.98 44.5706 156.187 44.9567 156.607 44.9567C156.995 44.9567 157.202 44.6367 157.228 43.9967L157.233 43.5243C157.233 43.1332 157.176 42.8437 157.068 42.6557C156.959 42.4678 156.804 42.3713 156.602 42.3713C156.405 42.3713 156.255 42.4678 156.146 42.6557C156.037 42.8437 155.986 43.1332 155.986 43.5243V43.8037H155.98Z" fill="#0F9B55"/>
<path d="M162.897 41.5129L162.928 41.909C163.182 41.5941 163.523 41.4316 163.943 41.4316C164.378 41.4316 164.688 41.6246 164.869 42.0106C165.123 41.6246 165.475 41.4316 165.941 41.4316C166.707 41.4316 167.101 41.9497 167.116 42.991V45.805H165.972V43.0621C165.972 42.8132 165.936 42.6354 165.869 42.5288C165.796 42.4221 165.682 42.3713 165.511 42.3713C165.299 42.3713 165.139 42.4983 165.035 42.7573L165.045 42.8945V45.805H163.901V43.0722C163.901 42.8284 163.865 42.6456 163.798 42.5389C163.73 42.4271 163.611 42.3763 163.44 42.3763C163.244 42.3763 163.088 42.483 162.969 42.6913V45.81H161.825V41.5179H162.897V41.5129Z" fill="#0F9B55"/>
<path d="M168.245 43.5243C168.245 42.8741 168.4 42.3662 168.716 41.9954C169.027 41.6246 169.462 41.4417 170.016 41.4417C170.575 41.4417 171.01 41.6297 171.32 41.9954C171.631 42.3662 171.792 42.8792 171.792 43.5345V43.8087C171.792 44.464 171.636 44.9719 171.326 45.3427C171.015 45.7085 170.58 45.8964 170.021 45.8964C169.462 45.8964 169.022 45.7135 168.711 45.3427C168.4 44.9719 168.245 44.4589 168.245 43.8037V43.5243ZM170.011 46.2113C170.207 46.2113 170.368 46.2621 170.492 46.3688C170.616 46.4755 170.673 46.6075 170.673 46.765C170.673 46.9224 170.611 47.0545 170.492 47.1612C170.368 47.2628 170.212 47.3186 170.011 47.3186C169.814 47.3186 169.659 47.2678 169.534 47.1612C169.41 47.0545 169.348 46.9275 169.348 46.765C169.348 46.6075 169.41 46.4755 169.534 46.3688C169.659 46.2621 169.814 46.2113 170.011 46.2113ZM169.394 43.8037C169.394 44.5706 169.602 44.9567 170.021 44.9567C170.409 44.9567 170.616 44.6367 170.642 43.9967L170.647 43.5243C170.647 43.1332 170.59 42.8437 170.482 42.6557C170.373 42.4678 170.212 42.3713 170.016 42.3713C169.819 42.3713 169.669 42.4678 169.56 42.6557C169.451 42.8437 169.4 43.1332 169.4 43.5243V43.8037H169.394Z" fill="#0F9B55"/>
<path d="M172.915 40.4054C172.915 40.2327 172.972 40.0905 173.086 39.9788C173.2 39.867 173.35 39.8112 173.541 39.8112C173.728 39.8112 173.883 39.867 173.997 39.9788C174.111 40.0905 174.168 40.2327 174.168 40.4054C174.168 40.5781 174.111 40.7204 174.002 40.8321C173.888 40.9439 173.738 41.0048 173.547 41.0048C173.355 41.0048 173.205 40.949 173.091 40.8321C172.972 40.7204 172.915 40.5731 172.915 40.4054ZM174.116 45.81H172.967V41.5178H174.116V45.81Z" fill="#0F9B55"/>
<path d="M178.786 41.5129L178.817 41.9395C179.076 41.6043 179.413 41.4367 179.832 41.4367C180.583 41.4367 180.971 41.9548 180.992 42.9859V45.805H179.842V43.0672C179.842 42.8234 179.806 42.6456 179.728 42.5389C179.651 42.4272 179.526 42.3764 179.34 42.3764C179.133 42.3764 178.973 42.483 178.853 42.6913V45.8101H177.704V41.5179H178.786V41.5129Z" fill="#0F9B55"/>
<path d="M183.347 41.8938C183.596 41.5891 183.901 41.4367 184.264 41.4367C184.662 41.4367 184.968 41.5738 185.175 41.8481C185.382 42.1224 185.485 42.5338 185.491 43.0773V45.805H184.341V43.0875C184.341 42.8386 184.3 42.6557 184.222 42.544C184.145 42.4322 184.015 42.3764 183.834 42.3764C183.627 42.3764 183.466 42.4678 183.347 42.6557V45.805H182.203V39.7097H183.347V41.8938Z" fill="#0F9B55"/>
<path d="M188.799 45.81C188.768 45.744 188.732 45.6323 188.701 45.4748C188.499 45.7491 188.219 45.8862 187.867 45.8862C187.5 45.8862 187.199 45.7643 186.956 45.5307C186.713 45.2919 186.594 44.9821 186.594 44.6062C186.594 44.1541 186.739 43.8087 187.034 43.5598C187.324 43.316 187.748 43.1891 188.297 43.184H188.644V42.8386C188.644 42.6456 188.608 42.5084 188.54 42.4322C188.473 42.351 188.375 42.3154 188.245 42.3154C187.961 42.3154 187.816 42.4779 187.816 42.8081H186.671C186.671 42.4119 186.822 42.0817 187.127 41.8278C187.432 41.5687 187.816 41.4417 188.276 41.4417C188.758 41.4417 189.125 41.5636 189.389 41.8074C189.654 42.0513 189.783 42.4017 189.783 42.8589V44.8805C189.788 45.2513 189.84 45.5408 189.943 45.7491V45.8151H188.799V45.81ZM188.82 40.9439H187.852L186.734 39.7147H188.017L188.82 40.9439ZM188.126 45.0075C188.256 45.0075 188.359 44.9821 188.452 44.9313C188.54 44.8805 188.608 44.8195 188.649 44.7535V43.8595H188.375C188.178 43.8595 188.028 43.9205 187.914 44.0424C187.8 44.1643 187.748 44.3269 187.748 44.53C187.743 44.85 187.873 45.0075 188.126 45.0075Z" fill="#0F9B55"/>
<path d="M64.3222 41.0049H62.8622V45.81H61.6714V41.0049H60.2373V40.0296H64.3222V41.0049Z" fill="#0F9B55"/>
<path d="M66.7611 45.81C66.7301 45.744 66.6938 45.6322 66.6628 45.4748C66.4557 45.7491 66.1813 45.8862 65.8292 45.8862C65.4617 45.8862 65.1562 45.7643 64.918 45.5306C64.6747 45.2919 64.5557 44.9821 64.5557 44.6062C64.5557 44.1541 64.7006 43.8087 64.9957 43.5598C65.2908 43.316 65.7102 43.189 66.259 43.1839H66.6058V42.8385C66.6058 42.6455 66.5696 42.5084 66.5023 42.4322C66.435 42.356 66.3366 42.3154 66.2072 42.3154C65.9225 42.3154 65.7775 42.4779 65.7775 42.8081H64.6333C64.6333 42.4119 64.7834 42.0817 65.0889 41.8277C65.3944 41.5687 65.7775 41.4417 66.2383 41.4417C66.7198 41.4417 67.0873 41.5636 67.3514 41.8074C67.6154 42.0512 67.7448 42.4017 67.7448 42.8589V44.8805C67.75 45.2513 67.8018 45.5408 67.9053 45.749V45.8151H66.7611V45.81ZM66.7819 40.9439H65.8137L64.6954 39.7147H65.9794L66.7819 40.9439ZM66.0881 45.0074C66.2175 45.0074 66.3211 44.9821 66.4143 44.9313C66.5023 44.8805 66.5696 44.8195 66.611 44.7535V43.8595H66.3366C66.1399 43.8595 65.9898 43.9205 65.8759 44.0424C65.762 44.1643 65.7102 44.3268 65.7102 44.53C65.705 44.85 65.8344 45.0074 66.0881 45.0074Z" fill="#0F9B55"/>
<path d="M68.9971 40.4055C68.9971 40.2328 69.054 40.0906 69.1679 39.9788C69.2818 39.8671 69.432 39.8112 69.6235 39.8112C69.8151 39.8112 69.9652 39.8671 70.0739 39.9788C70.1878 40.0906 70.2448 40.2328 70.2448 40.4055C70.2448 40.5782 70.1879 40.7204 70.0791 40.8322C69.9652 40.9439 69.8151 41.0049 69.6235 41.0049C69.432 41.0049 69.2818 40.949 69.1679 40.8322C69.0489 40.7204 68.9971 40.5731 68.9971 40.4055ZM70.1982 45.81H69.0489V41.5179H70.1982V45.81Z" fill="#0F9B55"/>
<path d="M75.4014 44.9567C75.7328 44.9567 75.9037 44.7434 75.9088 44.3218H76.9857C76.9805 44.7891 76.8356 45.17 76.5456 45.4545C76.2557 45.744 75.8829 45.8862 75.4274 45.8862C74.863 45.8862 74.4333 45.7135 74.1382 45.3681C73.8431 45.0227 73.693 44.5199 73.6826 43.8494V43.5091C73.6826 42.8335 73.8276 42.3205 74.1227 41.9649C74.4178 41.6094 74.8475 41.4316 75.4222 41.4316C75.9037 41.4316 76.2868 41.5789 76.5612 41.8684C76.8356 42.1579 76.9805 42.5744 76.9857 43.1129H75.9088C75.9037 42.8741 75.8674 42.6862 75.7846 42.5592C75.7069 42.4272 75.5775 42.3662 75.3963 42.3662C75.1996 42.3662 75.0546 42.4373 74.9666 42.5744C74.8786 42.7116 74.8371 42.9808 74.8268 43.3821V43.8189C74.8268 44.1694 74.8475 44.4132 74.8786 44.5504C74.9148 44.6875 74.9717 44.7891 75.0546 44.8551C75.1374 44.9211 75.2513 44.9567 75.4014 44.9567Z" fill="#0F9B55"/>
<path d="M79.1605 41.8938C79.409 41.5891 79.7145 41.4367 80.0769 41.4367C80.4755 41.4367 80.7758 41.5738 80.9881 41.8481C81.1952 42.1224 81.2987 42.5338 81.3039 43.0773V45.805H80.1545V43.0875C80.1545 42.8386 80.1131 42.6557 80.0354 42.544C79.9578 42.4322 79.8284 42.3764 79.6523 42.3764C79.4452 42.3764 79.2847 42.4678 79.1657 42.6557V45.805H78.0215V39.7097H79.1657V41.8938H79.1605Z" fill="#0F9B55"/>
<path d="M83.7623 45.81H82.6182V41.5179H83.7623V45.81ZM83.431 39.7706H84.715L83.5915 40.9998H82.6389L83.431 39.7706Z" fill="#0F9B55"/>
<path d="M86.1699 41.5129L86.201 41.9395C86.4599 41.6043 86.7964 41.4367 87.2157 41.4367C87.9664 41.4367 88.3547 41.9548 88.3754 42.9859V45.805H87.2261V43.0672C87.2261 42.8234 87.1898 42.6456 87.1122 42.5389C87.0397 42.4272 86.9103 42.3764 86.7239 42.3764C86.5168 42.3764 86.3563 42.483 86.2373 42.6913V45.8101H85.0879V41.5179H86.1699V41.5129Z" fill="#0F9B55"/>
<path d="M90.7265 41.8938C90.975 41.5891 91.2805 41.4367 91.6377 41.4367C92.0364 41.4367 92.3418 41.5738 92.5489 41.8481C92.756 42.1224 92.8595 42.5338 92.8647 43.0773V45.805H91.7154V43.0875C91.7154 42.8386 91.6739 42.6557 91.5963 42.544C91.5186 42.4322 91.3892 42.3764 91.208 42.3764C91.0009 42.3764 90.8404 42.4678 90.7213 42.6557V45.805H89.5771V39.7097H90.7213V41.8938H90.7265Z" fill="#0F9B55"/>
<path d="M100.056 41.0049H98.5956V45.81H97.4048V41.0049H95.9707V40.0296H100.056V41.0049Z" fill="#EE3C39"/>
<path d="M101.097 40.4055C101.097 40.2328 101.154 40.0906 101.268 39.9788C101.381 39.8671 101.532 39.8112 101.718 39.8112C101.904 39.8112 102.06 39.8671 102.174 39.9788C102.287 40.0906 102.344 40.2328 102.344 40.4055C102.344 40.5782 102.287 40.7204 102.174 40.8322C102.06 40.9439 101.91 41.0049 101.718 41.0049C101.526 41.0049 101.376 40.949 101.262 40.8322C101.148 40.7204 101.097 40.5731 101.097 40.4055ZM102.298 45.81H101.148V41.5179H102.298V45.81Z" fill="#EE3C39"/>
<path d="M105.362 45.8862C104.772 45.8862 104.316 45.7135 103.985 45.3732C103.654 45.0278 103.493 44.5351 103.493 43.8951V43.5548C103.493 42.8792 103.643 42.3561 103.949 41.9903C104.249 41.6246 104.684 41.4367 105.248 41.4367C105.797 41.4367 106.211 41.6094 106.491 41.9548C106.77 42.3002 106.91 42.8081 106.915 43.4887V44.0373H104.637C104.653 44.3573 104.725 44.591 104.85 44.7383C104.974 44.8856 105.171 44.9618 105.435 44.9618C105.818 44.9618 106.139 44.8348 106.392 44.5757L106.843 45.2564C106.703 45.4443 106.496 45.6018 106.232 45.7186C105.963 45.8304 105.673 45.8862 105.362 45.8862ZM106.491 40.822V40.8678H105.595L105.088 40.2938L104.58 40.8678H103.705V40.8017L104.756 39.7097H105.414L106.491 40.822ZM105.191 46.1859C105.388 46.1859 105.549 46.2367 105.673 46.3434C105.797 46.45 105.854 46.577 105.854 46.7396C105.854 46.897 105.792 47.0291 105.673 47.1358C105.549 47.2424 105.388 47.2932 105.191 47.2932C105 47.2932 104.839 47.2424 104.715 47.1358C104.591 47.0342 104.529 46.9021 104.529 46.7396C104.529 46.5821 104.591 46.45 104.715 46.3434C104.839 46.2367 105 46.1859 105.191 46.1859ZM104.643 43.2551H105.787V43.1535C105.782 42.8995 105.74 42.7014 105.657 42.5694C105.574 42.4373 105.435 42.3713 105.238 42.3713C105.036 42.3713 104.896 42.4424 104.803 42.5795C104.71 42.7167 104.658 42.9453 104.643 43.2551Z" fill="#EE3C39"/>
<path d="M109.022 41.5128L109.054 41.9395C109.312 41.6043 109.649 41.4366 110.068 41.4366C110.819 41.4366 111.207 41.9547 111.228 42.9859V45.8049H110.079V43.0672C110.079 42.8233 110.042 42.6455 109.965 42.5389C109.892 42.4271 109.763 42.3763 109.576 42.3763C109.369 42.3763 109.209 42.483 109.09 42.6912V45.81H107.94V41.5179H109.022V41.5128Z" fill="#EE3C39"/>
<path d="M116.224 44.2202L116.778 41.5128H117.969L116.767 45.81H115.675L114.469 41.5128H115.67L116.224 44.2202Z" fill="#EE3C39"/>
<path d="M120.941 45.81C120.91 45.744 120.879 45.6322 120.842 45.4748C120.641 45.7491 120.361 45.8862 120.009 45.8862C119.641 45.8862 119.341 45.7643 119.098 45.5306C118.854 45.2919 118.735 44.9821 118.735 44.6062C118.735 44.1541 118.88 43.8087 119.175 43.5598C119.471 43.316 119.89 43.189 120.439 43.1839H120.786V42.8385C120.786 42.6455 120.749 42.5084 120.682 42.4322C120.615 42.356 120.516 42.3154 120.387 42.3154C120.102 42.3154 119.957 42.4779 119.957 42.8081H118.813C118.813 42.4119 118.963 42.0817 119.269 41.8277C119.574 41.5687 119.957 41.4417 120.418 41.4417C120.899 41.4417 121.267 41.5636 121.531 41.8074C121.795 42.0512 121.925 42.4017 121.925 42.8589V44.8805C121.93 45.2513 121.982 45.5408 122.085 45.749V45.8151H120.941V45.81ZM120.962 40.9439H119.993L118.875 39.7147H120.159L120.962 40.9439ZM120.263 45.0074C120.387 45.0074 120.496 44.9821 120.589 44.9313C120.677 44.8805 120.744 44.8195 120.786 44.7535V43.8595H120.511C120.314 43.8595 120.164 43.9205 120.05 44.0424C119.936 44.1643 119.885 44.3268 119.885 44.53C119.885 44.85 120.009 45.0074 120.263 45.0074Z" fill="#EE3C39"/>
<path d="M129.67 45.81H128.484L126.744 42.0208V45.81H125.554V40.0296H126.744L128.489 43.824V40.0296H129.67V45.81Z" fill="#EE3C39"/>
<path d="M130.845 43.5294C130.845 42.8233 130.974 42.3002 131.233 41.9548C131.492 41.6094 131.854 41.4366 132.32 41.4366C132.719 41.4366 133.024 41.589 133.237 41.8989L133.283 41.5179H134.314V45.81C134.314 46.3586 134.158 46.7751 133.842 47.0647C133.527 47.3542 133.081 47.4964 132.496 47.4964C132.258 47.4964 132.004 47.4507 131.74 47.3542C131.476 47.2577 131.28 47.1408 131.15 46.9935L131.533 46.2164C131.642 46.3281 131.782 46.4196 131.953 46.4907C132.124 46.5618 132.289 46.5973 132.445 46.5973C132.698 46.5973 132.885 46.5364 132.998 46.4196C133.112 46.2977 133.169 46.1046 133.169 45.8354V45.4646C132.952 45.744 132.667 45.8862 132.315 45.8862C131.849 45.8862 131.487 45.7084 131.233 45.3529C130.979 44.9973 130.85 44.4945 130.845 43.8494V43.5294ZM131.989 43.8138C131.989 44.21 132.041 44.4995 132.149 44.6824C132.253 44.8653 132.419 44.9567 132.652 44.9567C132.885 44.9567 133.061 44.8754 133.175 44.7078V42.6557C133.055 42.4729 132.885 42.3814 132.662 42.3814C132.434 42.3814 132.268 42.4729 132.155 42.6557C132.046 42.8386 131.994 43.1332 131.994 43.5344V43.8138H131.989Z" fill="#EE3C39"/>
<path d="M137.642 45.81C137.611 45.744 137.58 45.6323 137.544 45.4748C137.337 45.7491 137.062 45.8862 136.71 45.8862C136.343 45.8862 136.042 45.7643 135.799 45.5307C135.556 45.2919 135.437 44.9821 135.437 44.6062C135.437 44.1541 135.581 43.8087 135.877 43.5598C136.167 43.316 136.591 43.1891 137.14 43.184H137.487V42.8386C137.487 42.6456 137.45 42.5084 137.383 42.4322C137.316 42.356 137.218 42.3154 137.088 42.3154C136.803 42.3154 136.658 42.4779 136.658 42.8081H135.514C135.514 42.4119 135.664 42.0818 135.97 41.8278C136.275 41.5687 136.658 41.4417 137.119 41.4417C137.601 41.4417 137.973 41.5636 138.232 41.8074C138.496 42.0513 138.626 42.4017 138.626 42.8589V44.8805C138.631 45.2513 138.683 45.5408 138.786 45.7491V45.8151H137.642V45.81ZM136.964 45.0075C137.088 45.0075 137.197 44.9821 137.285 44.9313C137.373 44.8805 137.44 44.8195 137.482 44.7535V43.8595H137.207C137.016 43.8595 136.86 43.9205 136.746 44.0424C136.632 44.1643 136.581 44.3269 136.581 44.53C136.586 44.85 136.71 45.0075 136.964 45.0075Z" fill="#EE3C39"/>
<path d="M141.22 43.9408L141.805 41.5179H143.027L141.588 46.4551C141.37 47.1815 140.966 47.5472 140.371 47.5472C140.231 47.5472 140.076 47.5218 139.9 47.471V46.5923L140.034 46.5973C140.21 46.5973 140.345 46.5618 140.438 46.4957C140.526 46.4297 140.599 46.3129 140.64 46.1453L140.728 45.8557L139.465 41.5179H140.697L141.22 43.9408Z" fill="#EE3C39"/>
<path d="M147.831 44.9567C148.163 44.9567 148.333 44.7434 148.339 44.3218H149.415C149.41 44.7891 149.265 45.17 148.975 45.4545C148.685 45.744 148.313 45.8862 147.857 45.8862C147.293 45.8862 146.863 45.7135 146.568 45.3681C146.273 45.0227 146.117 44.5199 146.112 43.8494V43.5091C146.112 42.8335 146.257 42.3205 146.552 41.9649C146.847 41.6094 147.277 41.4316 147.852 41.4316C148.333 41.4316 148.716 41.5789 148.991 41.8684C149.27 42.1579 149.41 42.5744 149.415 43.1129H148.339C148.333 42.8741 148.297 42.6862 148.219 42.5592C148.142 42.4272 148.012 42.3662 147.831 42.3662C147.629 42.3662 147.489 42.4373 147.401 42.5744C147.313 42.7116 147.267 42.9808 147.262 43.3821V43.8189C147.262 44.1694 147.277 44.4132 147.313 44.5504C147.35 44.6875 147.407 44.7891 147.489 44.8551C147.567 44.9211 147.681 44.9567 147.831 44.9567Z" fill="#0F9B55"/>
<path d="M151.59 41.8939C151.839 41.5891 152.144 41.4367 152.507 41.4367C152.905 41.4367 153.211 41.5738 153.418 41.8481C153.625 42.1224 153.728 42.5338 153.734 43.0773V45.805H152.584V43.0875C152.584 42.8386 152.543 42.6558 152.465 42.544C152.387 42.4323 152.258 42.3764 152.082 42.3764C151.875 42.3764 151.714 42.4678 151.595 42.6558V45.805H150.451V39.7097H151.595V41.8939H151.59Z" fill="#0F9B55"/>
<path d="M154.831 43.5243C154.831 42.8741 154.986 42.3662 155.302 41.9954C155.613 41.6246 156.048 41.4417 156.602 41.4417C157.161 41.4417 157.596 41.6297 157.906 41.9954C158.217 42.3662 158.377 42.8792 158.377 43.5345V43.8087C158.377 44.464 158.222 44.9719 157.912 45.3427C157.601 45.7084 157.166 45.8964 156.607 45.8964C156.048 45.8964 155.613 45.7135 155.297 45.3427C154.981 44.9719 154.831 44.4589 154.831 43.8037V43.5243ZM155.98 43.8037C155.98 44.5706 156.187 44.9567 156.607 44.9567C156.995 44.9567 157.202 44.6367 157.228 43.9967L157.233 43.5243C157.233 43.1332 157.176 42.8437 157.068 42.6557C156.959 42.4678 156.804 42.3713 156.602 42.3713C156.405 42.3713 156.255 42.4678 156.146 42.6557C156.037 42.8437 155.986 43.1332 155.986 43.5243V43.8037H155.98Z" fill="#0F9B55"/>
<path d="M162.897 41.5129L162.928 41.909C163.182 41.5941 163.523 41.4316 163.943 41.4316C164.378 41.4316 164.688 41.6246 164.869 42.0106C165.123 41.6246 165.475 41.4316 165.941 41.4316C166.707 41.4316 167.101 41.9497 167.116 42.991V45.805H165.972V43.0621C165.972 42.8132 165.936 42.6354 165.869 42.5288C165.796 42.4221 165.682 42.3713 165.511 42.3713C165.299 42.3713 165.139 42.4983 165.035 42.7573L165.045 42.8945V45.805H163.901V43.0722C163.901 42.8284 163.865 42.6456 163.798 42.5389C163.73 42.4271 163.611 42.3763 163.44 42.3763C163.244 42.3763 163.088 42.483 162.969 42.6913V45.81H161.825V41.5179H162.897V41.5129Z" fill="#0F9B55"/>
<path d="M168.245 43.5243C168.245 42.8741 168.4 42.3662 168.716 41.9954C169.027 41.6246 169.462 41.4417 170.016 41.4417C170.575 41.4417 171.01 41.6297 171.32 41.9954C171.631 42.3662 171.792 42.8792 171.792 43.5345V43.8087C171.792 44.464 171.636 44.9719 171.326 45.3427C171.015 45.7085 170.58 45.8964 170.021 45.8964C169.462 45.8964 169.022 45.7135 168.711 45.3427C168.4 44.9719 168.245 44.4589 168.245 43.8037V43.5243ZM170.011 46.2113C170.207 46.2113 170.368 46.2621 170.492 46.3688C170.616 46.4755 170.673 46.6075 170.673 46.765C170.673 46.9224 170.611 47.0545 170.492 47.1612C170.368 47.2628 170.212 47.3186 170.011 47.3186C169.814 47.3186 169.659 47.2678 169.534 47.1612C169.41 47.0545 169.348 46.9275 169.348 46.765C169.348 46.6075 169.41 46.4755 169.534 46.3688C169.659 46.2621 169.814 46.2113 170.011 46.2113ZM169.394 43.8037C169.394 44.5706 169.602 44.9567 170.021 44.9567C170.409 44.9567 170.616 44.6367 170.642 43.9967L170.647 43.5243C170.647 43.1332 170.59 42.8437 170.482 42.6557C170.373 42.4678 170.212 42.3713 170.016 42.3713C169.819 42.3713 169.669 42.4678 169.56 42.6557C169.451 42.8437 169.4 43.1332 169.4 43.5243V43.8037H169.394Z" fill="#0F9B55"/>
<path d="M172.915 40.4054C172.915 40.2327 172.972 40.0905 173.086 39.9788C173.2 39.867 173.35 39.8112 173.541 39.8112C173.728 39.8112 173.883 39.867 173.997 39.9788C174.111 40.0905 174.168 40.2327 174.168 40.4054C174.168 40.5781 174.111 40.7204 174.002 40.8321C173.888 40.9439 173.738 41.0048 173.547 41.0048C173.355 41.0048 173.205 40.949 173.091 40.8321C172.972 40.7204 172.915 40.5731 172.915 40.4054ZM174.116 45.81H172.967V41.5178H174.116V45.81Z" fill="#0F9B55"/>
<path d="M178.786 41.5129L178.817 41.9395C179.076 41.6043 179.413 41.4367 179.832 41.4367C180.583 41.4367 180.971 41.9548 180.992 42.9859V45.805H179.842V43.0672C179.842 42.8234 179.806 42.6456 179.728 42.5389C179.651 42.4272 179.526 42.3764 179.34 42.3764C179.133 42.3764 178.973 42.483 178.853 42.6913V45.8101H177.704V41.5179H178.786V41.5129Z" fill="#0F9B55"/>
<path d="M183.347 41.8938C183.596 41.5891 183.901 41.4367 184.264 41.4367C184.662 41.4367 184.968 41.5738 185.175 41.8481C185.382 42.1224 185.485 42.5338 185.491 43.0773V45.805H184.341V43.0875C184.341 42.8386 184.3 42.6557 184.222 42.544C184.145 42.4322 184.015 42.3764 183.834 42.3764C183.627 42.3764 183.466 42.4678 183.347 42.6557V45.805H182.203V39.7097H183.347V41.8938Z" fill="#0F9B55"/>
<path d="M188.799 45.81C188.768 45.744 188.732 45.6323 188.701 45.4748C188.499 45.7491 188.219 45.8862 187.867 45.8862C187.5 45.8862 187.199 45.7643 186.956 45.5307C186.713 45.2919 186.594 44.9821 186.594 44.6062C186.594 44.1541 186.739 43.8087 187.034 43.5598C187.324 43.316 187.748 43.1891 188.297 43.184H188.644V42.8386C188.644 42.6456 188.608 42.5084 188.54 42.4322C188.473 42.351 188.375 42.3154 188.245 42.3154C187.961 42.3154 187.816 42.4779 187.816 42.8081H186.671C186.671 42.4119 186.822 42.0817 187.127 41.8278C187.432 41.5687 187.816 41.4417 188.276 41.4417C188.758 41.4417 189.125 41.5636 189.389 41.8074C189.654 42.0513 189.783 42.4017 189.783 42.8589V44.8805C189.788 45.2513 189.84 45.5408 189.943 45.7491V45.8151H188.799V45.81ZM188.82 40.9439H187.852L186.734 39.7147H188.017L188.82 40.9439ZM188.126 45.0075C188.256 45.0075 188.359 44.9821 188.452 44.9313C188.54 44.8805 188.608 44.8195 188.649 44.7535V43.8595H188.375C188.178 43.8595 188.028 43.9205 187.914 44.0424C187.8 44.1643 187.748 44.3269 187.748 44.53C187.743 44.85 187.873 45.0075 188.126 45.0075Z" fill="#0F9B55"/>
<path d="M64.3222 41.0049H62.8622V45.81H61.6714V41.0049H60.2373V40.0296H64.3222V41.0049Z" fill="#0F9B55"/>
<path d="M66.7611 45.81C66.7301 45.744 66.6938 45.6322 66.6628 45.4748C66.4557 45.7491 66.1813 45.8862 65.8292 45.8862C65.4617 45.8862 65.1562 45.7643 64.918 45.5306C64.6747 45.2919 64.5557 44.9821 64.5557 44.6062C64.5557 44.1541 64.7006 43.8087 64.9957 43.5598C65.2908 43.316 65.7102 43.189 66.259 43.1839H66.6058V42.8385C66.6058 42.6455 66.5696 42.5084 66.5023 42.4322C66.435 42.356 66.3366 42.3154 66.2072 42.3154C65.9225 42.3154 65.7775 42.4779 65.7775 42.8081H64.6333C64.6333 42.4119 64.7834 42.0817 65.0889 41.8277C65.3944 41.5687 65.7775 41.4417 66.2383 41.4417C66.7198 41.4417 67.0873 41.5636 67.3514 41.8074C67.6154 42.0512 67.7448 42.4017 67.7448 42.8589V44.8805C67.75 45.2513 67.8018 45.5408 67.9053 45.749V45.8151H66.7611V45.81ZM66.7819 40.9439H65.8137L64.6954 39.7147H65.9794L66.7819 40.9439ZM66.0881 45.0074C66.2175 45.0074 66.3211 44.9821 66.4143 44.9313C66.5023 44.8805 66.5696 44.8195 66.611 44.7535V43.8595H66.3366C66.1399 43.8595 65.9898 43.9205 65.8759 44.0424C65.762 44.1643 65.7102 44.3268 65.7102 44.53C65.705 44.85 65.8344 45.0074 66.0881 45.0074Z" fill="#0F9B55"/>
<path d="M68.9971 40.4055C68.9971 40.2328 69.054 40.0906 69.1679 39.9788C69.2818 39.8671 69.432 39.8112 69.6235 39.8112C69.8151 39.8112 69.9652 39.8671 70.0739 39.9788C70.1878 40.0906 70.2448 40.2328 70.2448 40.4055C70.2448 40.5782 70.1879 40.7204 70.0791 40.8322C69.9652 40.9439 69.8151 41.0049 69.6235 41.0049C69.432 41.0049 69.2818 40.949 69.1679 40.8322C69.0489 40.7204 68.9971 40.5731 68.9971 40.4055ZM70.1982 45.81H69.0489V41.5179H70.1982V45.81Z" fill="#0F9B55"/>
<path d="M75.4014 44.9567C75.7328 44.9567 75.9037 44.7434 75.9088 44.3218H76.9857C76.9805 44.7891 76.8356 45.17 76.5456 45.4545C76.2557 45.744 75.8829 45.8862 75.4274 45.8862C74.863 45.8862 74.4333 45.7135 74.1382 45.3681C73.8431 45.0227 73.693 44.5199 73.6826 43.8494V43.5091C73.6826 42.8335 73.8276 42.3205 74.1227 41.9649C74.4178 41.6094 74.8475 41.4316 75.4222 41.4316C75.9037 41.4316 76.2868 41.5789 76.5612 41.8684C76.8356 42.1579 76.9805 42.5744 76.9857 43.1129H75.9088C75.9037 42.8741 75.8674 42.6862 75.7846 42.5592C75.7069 42.4272 75.5775 42.3662 75.3963 42.3662C75.1996 42.3662 75.0546 42.4373 74.9666 42.5744C74.8786 42.7116 74.8371 42.9808 74.8268 43.3821V43.8189C74.8268 44.1694 74.8475 44.4132 74.8786 44.5504C74.9148 44.6875 74.9717 44.7891 75.0546 44.8551C75.1374 44.9211 75.2513 44.9567 75.4014 44.9567Z" fill="#0F9B55"/>
<path d="M79.1605 41.8938C79.409 41.5891 79.7145 41.4367 80.0769 41.4367C80.4755 41.4367 80.7758 41.5738 80.9881 41.8481C81.1952 42.1224 81.2987 42.5338 81.3039 43.0773V45.805H80.1545V43.0875C80.1545 42.8386 80.1131 42.6557 80.0354 42.544C79.9578 42.4322 79.8284 42.3764 79.6523 42.3764C79.4452 42.3764 79.2847 42.4678 79.1657 42.6557V45.805H78.0215V39.7097H79.1657V41.8938H79.1605Z" fill="#0F9B55"/>
<path d="M83.7623 45.81H82.6182V41.5179H83.7623V45.81ZM83.431 39.7706H84.715L83.5915 40.9998H82.6389L83.431 39.7706Z" fill="#0F9B55"/>
<path d="M86.1699 41.5129L86.201 41.9395C86.4599 41.6043 86.7964 41.4367 87.2157 41.4367C87.9664 41.4367 88.3547 41.9548 88.3754 42.9859V45.805H87.2261V43.0672C87.2261 42.8234 87.1898 42.6456 87.1122 42.5389C87.0397 42.4272 86.9103 42.3764 86.7239 42.3764C86.5168 42.3764 86.3563 42.483 86.2373 42.6913V45.8101H85.0879V41.5179H86.1699V41.5129Z" fill="#0F9B55"/>
<path d="M90.7265 41.8938C90.975 41.5891 91.2805 41.4367 91.6377 41.4367C92.0364 41.4367 92.3418 41.5738 92.5489 41.8481C92.756 42.1224 92.8595 42.5338 92.8647 43.0773V45.805H91.7154V43.0875C91.7154 42.8386 91.6739 42.6557 91.5963 42.544C91.5186 42.4322 91.3892 42.3764 91.208 42.3764C91.0009 42.3764 90.8404 42.4678 90.7213 42.6557V45.805H89.5771V39.7097H90.7213V41.8938H90.7265Z" fill="#0F9B55"/>
<path d="M100.056 41.0049H98.5956V45.81H97.4048V41.0049H95.9707V40.0296H100.056V41.0049Z" fill="#EE3C39"/>
<path d="M101.097 40.4055C101.097 40.2328 101.154 40.0906 101.268 39.9788C101.381 39.8671 101.532 39.8112 101.718 39.8112C101.904 39.8112 102.06 39.8671 102.174 39.9788C102.287 40.0906 102.344 40.2328 102.344 40.4055C102.344 40.5782 102.287 40.7204 102.174 40.8322C102.06 40.9439 101.91 41.0049 101.718 41.0049C101.526 41.0049 101.376 40.949 101.262 40.8322C101.148 40.7204 101.097 40.5731 101.097 40.4055ZM102.298 45.81H101.148V41.5179H102.298V45.81Z" fill="#EE3C39"/>
<path d="M105.362 45.8862C104.772 45.8862 104.316 45.7135 103.985 45.3732C103.654 45.0278 103.493 44.5351 103.493 43.8951V43.5548C103.493 42.8792 103.643 42.3561 103.949 41.9903C104.249 41.6246 104.684 41.4367 105.248 41.4367C105.797 41.4367 106.211 41.6094 106.491 41.9548C106.77 42.3002 106.91 42.8081 106.915 43.4887V44.0373H104.637C104.653 44.3573 104.725 44.591 104.85 44.7383C104.974 44.8856 105.171 44.9618 105.435 44.9618C105.818 44.9618 106.139 44.8348 106.392 44.5757L106.843 45.2564C106.703 45.4443 106.496 45.6018 106.232 45.7186C105.963 45.8304 105.673 45.8862 105.362 45.8862ZM106.491 40.822V40.8678H105.595L105.088 40.2938L104.58 40.8678H103.705V40.8017L104.756 39.7097H105.414L106.491 40.822ZM105.191 46.1859C105.388 46.1859 105.549 46.2367 105.673 46.3434C105.797 46.45 105.854 46.577 105.854 46.7396C105.854 46.897 105.792 47.0291 105.673 47.1358C105.549 47.2424 105.388 47.2932 105.191 47.2932C105 47.2932 104.839 47.2424 104.715 47.1358C104.591 47.0342 104.529 46.9021 104.529 46.7396C104.529 46.5821 104.591 46.45 104.715 46.3434C104.839 46.2367 105 46.1859 105.191 46.1859ZM104.643 43.2551H105.787V43.1535C105.782 42.8995 105.74 42.7014 105.657 42.5694C105.574 42.4373 105.435 42.3713 105.238 42.3713C105.036 42.3713 104.896 42.4424 104.803 42.5795C104.71 42.7167 104.658 42.9453 104.643 43.2551Z" fill="#EE3C39"/>
<path d="M109.022 41.5128L109.054 41.9395C109.312 41.6043 109.649 41.4366 110.068 41.4366C110.819 41.4366 111.207 41.9547 111.228 42.9859V45.8049H110.079V43.0672C110.079 42.8233 110.042 42.6455 109.965 42.5389C109.892 42.4271 109.763 42.3763 109.576 42.3763C109.369 42.3763 109.209 42.483 109.09 42.6912V45.81H107.94V41.5179H109.022V41.5128Z" fill="#EE3C39"/>
<path d="M116.224 44.2202L116.778 41.5128H117.969L116.767 45.81H115.675L114.469 41.5128H115.67L116.224 44.2202Z" fill="#EE3C39"/>
<path d="M120.941 45.81C120.91 45.744 120.879 45.6322 120.842 45.4748C120.641 45.7491 120.361 45.8862 120.009 45.8862C119.641 45.8862 119.341 45.7643 119.098 45.5306C118.854 45.2919 118.735 44.9821 118.735 44.6062C118.735 44.1541 118.88 43.8087 119.175 43.5598C119.471 43.316 119.89 43.189 120.439 43.1839H120.786V42.8385C120.786 42.6455 120.749 42.5084 120.682 42.4322C120.615 42.356 120.516 42.3154 120.387 42.3154C120.102 42.3154 119.957 42.4779 119.957 42.8081H118.813C118.813 42.4119 118.963 42.0817 119.269 41.8277C119.574 41.5687 119.957 41.4417 120.418 41.4417C120.899 41.4417 121.267 41.5636 121.531 41.8074C121.795 42.0512 121.925 42.4017 121.925 42.8589V44.8805C121.93 45.2513 121.982 45.5408 122.085 45.749V45.8151H120.941V45.81ZM120.962 40.9439H119.993L118.875 39.7147H120.159L120.962 40.9439ZM120.263 45.0074C120.387 45.0074 120.496 44.9821 120.589 44.9313C120.677 44.8805 120.744 44.8195 120.786 44.7535V43.8595H120.511C120.314 43.8595 120.164 43.9205 120.05 44.0424C119.936 44.1643 119.885 44.3268 119.885 44.53C119.885 44.85 120.009 45.0074 120.263 45.0074Z" fill="#EE3C39"/>
<path d="M129.67 45.81H128.484L126.744 42.0208V45.81H125.554V40.0296H126.744L128.489 43.824V40.0296H129.67V45.81Z" fill="#EE3C39"/>
<path d="M130.845 43.5294C130.845 42.8233 130.974 42.3002 131.233 41.9548C131.492 41.6094 131.854 41.4366 132.32 41.4366C132.719 41.4366 133.024 41.589 133.237 41.8989L133.283 41.5179H134.314V45.81C134.314 46.3586 134.158 46.7751 133.842 47.0647C133.527 47.3542 133.081 47.4964 132.496 47.4964C132.258 47.4964 132.004 47.4507 131.74 47.3542C131.476 47.2577 131.28 47.1408 131.15 46.9935L131.533 46.2164C131.642 46.3281 131.782 46.4196 131.953 46.4907C132.124 46.5618 132.289 46.5973 132.445 46.5973C132.698 46.5973 132.885 46.5364 132.998 46.4196C133.112 46.2977 133.169 46.1046 133.169 45.8354V45.4646C132.952 45.744 132.667 45.8862 132.315 45.8862C131.849 45.8862 131.487 45.7084 131.233 45.3529C130.979 44.9973 130.85 44.4945 130.845 43.8494V43.5294ZM131.989 43.8138C131.989 44.21 132.041 44.4995 132.149 44.6824C132.253 44.8653 132.419 44.9567 132.652 44.9567C132.885 44.9567 133.061 44.8754 133.175 44.7078V42.6557C133.055 42.4729 132.885 42.3814 132.662 42.3814C132.434 42.3814 132.268 42.4729 132.155 42.6557C132.046 42.8386 131.994 43.1332 131.994 43.5344V43.8138H131.989Z" fill="#EE3C39"/>
<path d="M137.642 45.81C137.611 45.744 137.58 45.6323 137.544 45.4748C137.337 45.7491 137.062 45.8862 136.71 45.8862C136.343 45.8862 136.042 45.7643 135.799 45.5307C135.556 45.2919 135.437 44.9821 135.437 44.6062C135.437 44.1541 135.581 43.8087 135.877 43.5598C136.167 43.316 136.591 43.1891 137.14 43.184H137.487V42.8386C137.487 42.6456 137.45 42.5084 137.383 42.4322C137.316 42.356 137.218 42.3154 137.088 42.3154C136.803 42.3154 136.658 42.4779 136.658 42.8081H135.514C135.514 42.4119 135.664 42.0818 135.97 41.8278C136.275 41.5687 136.658 41.4417 137.119 41.4417C137.601 41.4417 137.973 41.5636 138.232 41.8074C138.496 42.0513 138.626 42.4017 138.626 42.8589V44.8805C138.631 45.2513 138.683 45.5408 138.786 45.7491V45.8151H137.642V45.81ZM136.964 45.0075C137.088 45.0075 137.197 44.9821 137.285 44.9313C137.373 44.8805 137.44 44.8195 137.482 44.7535V43.8595H137.207C137.016 43.8595 136.86 43.9205 136.746 44.0424C136.632 44.1643 136.581 44.3269 136.581 44.53C136.586 44.85 136.71 45.0075 136.964 45.0075Z" fill="#EE3C39"/>
<path d="M141.22 43.9408L141.805 41.5179H143.027L141.588 46.4551C141.37 47.1815 140.966 47.5472 140.371 47.5472C140.231 47.5472 140.076 47.5218 139.9 47.471V46.5923L140.034 46.5973C140.21 46.5973 140.345 46.5618 140.438 46.4957C140.526 46.4297 140.599 46.3129 140.64 46.1453L140.728 45.8557L139.465 41.5179H140.697L141.22 43.9408Z" fill="#EE3C39"/>
<path d="M147.831 44.9567C148.163 44.9567 148.333 44.7434 148.339 44.3218H149.415C149.41 44.7891 149.265 45.17 148.975 45.4545C148.685 45.744 148.313 45.8862 147.857 45.8862C147.293 45.8862 146.863 45.7135 146.568 45.3681C146.273 45.0227 146.117 44.5199 146.112 43.8494V43.5091C146.112 42.8335 146.257 42.3205 146.552 41.9649C146.847 41.6094 147.277 41.4316 147.852 41.4316C148.333 41.4316 148.716 41.5789 148.991 41.8684C149.27 42.1579 149.41 42.5744 149.415 43.1129H148.339C148.333 42.8741 148.297 42.6862 148.219 42.5592C148.142 42.4272 148.012 42.3662 147.831 42.3662C147.629 42.3662 147.489 42.4373 147.401 42.5744C147.313 42.7116 147.267 42.9808 147.262 43.3821V43.8189C147.262 44.1694 147.277 44.4132 147.313 44.5504C147.35 44.6875 147.407 44.7891 147.489 44.8551C147.567 44.9211 147.681 44.9567 147.831 44.9567Z" fill="#0F9B55"/>
<path d="M151.59 41.8939C151.839 41.5891 152.144 41.4367 152.507 41.4367C152.905 41.4367 153.211 41.5738 153.418 41.8481C153.625 42.1224 153.728 42.5338 153.734 43.0773V45.805H152.584V43.0875C152.584 42.8386 152.543 42.6558 152.465 42.544C152.387 42.4323 152.258 42.3764 152.082 42.3764C151.875 42.3764 151.714 42.4678 151.595 42.6558V45.805H150.451V39.7097H151.595V41.8939H151.59Z" fill="#0F9B55"/>
<path d="M154.831 43.5243C154.831 42.8741 154.986 42.3662 155.302 41.9954C155.613 41.6246 156.048 41.4417 156.602 41.4417C157.161 41.4417 157.596 41.6297 157.906 41.9954C158.217 42.3662 158.377 42.8792 158.377 43.5345V43.8087C158.377 44.464 158.222 44.9719 157.912 45.3427C157.601 45.7084 157.166 45.8964 156.607 45.8964C156.048 45.8964 155.613 45.7135 155.297 45.3427C154.981 44.9719 154.831 44.4589 154.831 43.8037V43.5243ZM155.98 43.8037C155.98 44.5706 156.187 44.9567 156.607 44.9567C156.995 44.9567 157.202 44.6367 157.228 43.9967L157.233 43.5243C157.233 43.1332 157.176 42.8437 157.068 42.6557C156.959 42.4678 156.804 42.3713 156.602 42.3713C156.405 42.3713 156.255 42.4678 156.146 42.6557C156.037 42.8437 155.986 43.1332 155.986 43.5243V43.8037H155.98Z" fill="#0F9B55"/>
<path d="M162.897 41.5129L162.928 41.909C163.182 41.5941 163.523 41.4316 163.943 41.4316C164.378 41.4316 164.688 41.6246 164.869 42.0106C165.123 41.6246 165.475 41.4316 165.941 41.4316C166.707 41.4316 167.101 41.9497 167.116 42.991V45.805H165.972V43.0621C165.972 42.8132 165.936 42.6354 165.869 42.5288C165.796 42.4221 165.682 42.3713 165.511 42.3713C165.299 42.3713 165.139 42.4983 165.035 42.7573L165.045 42.8945V45.805H163.901V43.0722C163.901 42.8284 163.865 42.6456 163.798 42.5389C163.73 42.4271 163.611 42.3763 163.44 42.3763C163.244 42.3763 163.088 42.483 162.969 42.6913V45.81H161.825V41.5179H162.897V41.5129Z" fill="#0F9B55"/>
<path d="M168.245 43.5243C168.245 42.8741 168.4 42.3662 168.716 41.9954C169.027 41.6246 169.462 41.4417 170.016 41.4417C170.575 41.4417 171.01 41.6297 171.32 41.9954C171.631 42.3662 171.792 42.8792 171.792 43.5345V43.8087C171.792 44.464 171.636 44.9719 171.326 45.3427C171.015 45.7085 170.58 45.8964 170.021 45.8964C169.462 45.8964 169.022 45.7135 168.711 45.3427C168.4 44.9719 168.245 44.4589 168.245 43.8037V43.5243ZM170.011 46.2113C170.207 46.2113 170.368 46.2621 170.492 46.3688C170.616 46.4755 170.673 46.6075 170.673 46.765C170.673 46.9224 170.611 47.0545 170.492 47.1612C170.368 47.2628 170.212 47.3186 170.011 47.3186C169.814 47.3186 169.659 47.2678 169.534 47.1612C169.41 47.0545 169.348 46.9275 169.348 46.765C169.348 46.6075 169.41 46.4755 169.534 46.3688C169.659 46.2621 169.814 46.2113 170.011 46.2113ZM169.394 43.8037C169.394 44.5706 169.602 44.9567 170.021 44.9567C170.409 44.9567 170.616 44.6367 170.642 43.9967L170.647 43.5243C170.647 43.1332 170.59 42.8437 170.482 42.6557C170.373 42.4678 170.212 42.3713 170.016 42.3713C169.819 42.3713 169.669 42.4678 169.56 42.6557C169.451 42.8437 169.4 43.1332 169.4 43.5243V43.8037H169.394Z" fill="#0F9B55"/>
<path d="M172.915 40.4054C172.915 40.2327 172.972 40.0905 173.086 39.9788C173.2 39.867 173.35 39.8112 173.541 39.8112C173.728 39.8112 173.883 39.867 173.997 39.9788C174.111 40.0905 174.168 40.2327 174.168 40.4054C174.168 40.5781 174.111 40.7204 174.002 40.8321C173.888 40.9439 173.738 41.0048 173.547 41.0048C173.355 41.0048 173.205 40.949 173.091 40.8321C172.972 40.7204 172.915 40.5731 172.915 40.4054ZM174.116 45.81H172.967V41.5178H174.116V45.81Z" fill="#0F9B55"/>
<path d="M178.786 41.5129L178.817 41.9395C179.076 41.6043 179.413 41.4367 179.832 41.4367C180.583 41.4367 180.971 41.9548 180.992 42.9859V45.805H179.842V43.0672C179.842 42.8234 179.806 42.6456 179.728 42.5389C179.651 42.4272 179.526 42.3764 179.34 42.3764C179.133 42.3764 178.973 42.483 178.853 42.6913V45.8101H177.704V41.5179H178.786V41.5129Z" fill="#0F9B55"/>
<path d="M183.347 41.8938C183.596 41.5891 183.901 41.4367 184.264 41.4367C184.662 41.4367 184.968 41.5738 185.175 41.8481C185.382 42.1224 185.485 42.5338 185.491 43.0773V45.805H184.341V43.0875C184.341 42.8386 184.3 42.6557 184.222 42.544C184.145 42.4322 184.015 42.3764 183.834 42.3764C183.627 42.3764 183.466 42.4678 183.347 42.6557V45.805H182.203V39.7097H183.347V41.8938Z" fill="#0F9B55"/>
<path d="M188.799 45.81C188.768 45.744 188.732 45.6323 188.701 45.4748C188.499 45.7491 188.219 45.8862 187.867 45.8862C187.5 45.8862 187.199 45.7643 186.956 45.5307C186.713 45.2919 186.594 44.9821 186.594 44.6062C186.594 44.1541 186.739 43.8087 187.034 43.5598C187.324 43.316 187.748 43.1891 188.297 43.184H188.644V42.8386C188.644 42.6456 188.608 42.5084 188.54 42.4322C188.473 42.351 188.375 42.3154 188.245 42.3154C187.961 42.3154 187.816 42.4779 187.816 42.8081H186.671C186.671 42.4119 186.822 42.0817 187.127 41.8278C187.432 41.5687 187.816 41.4417 188.276 41.4417C188.758 41.4417 189.125 41.5636 189.389 41.8074C189.654 42.0513 189.783 42.4017 189.783 42.8589V44.8805C189.788 45.2513 189.84 45.5408 189.943 45.7491V45.8151H188.799V45.81ZM188.82 40.9439H187.852L186.734 39.7147H188.017L188.82 40.9439ZM188.126 45.0075C188.256 45.0075 188.359 44.9821 188.452 44.9313C188.54 44.8805 188.608 44.8195 188.649 44.7535V43.8595H188.375C188.178 43.8595 188.028 43.9205 187.914 44.0424C187.8 44.1643 187.748 44.3269 187.748 44.53C187.743 44.85 187.873 45.0075 188.126 45.0075Z" fill="#0F9B55"/>
<path d="M63.8666 17.1773H60.2373V13.1036H72.4349V17.1773H68.7539V31.5115H63.8666V17.1773Z" fill="#1D9752"/>
<path d="M73.1445 13.1036H77.8765V16.5576H73.1445V13.1036ZM73.1445 17.5634H77.8765V31.5115H73.1445V17.5634Z" fill="#1D9752"/>
<path d="M84.1565 25.3247V27.1533C84.1565 28.4079 84.5862 29.0377 85.4457 29.0377C85.9013 29.0377 86.2378 28.8549 86.4552 28.4942C86.6727 28.1336 86.7866 27.5038 86.7866 26.6098H91.0423C91.006 28.3622 90.5504 29.6625 89.6755 30.5159C88.8005 31.3692 87.3975 31.7908 85.4715 31.7908C83.2091 31.7908 81.6404 31.2524 80.7551 30.1806C79.8698 29.1089 79.4297 27.2295 79.4297 24.5475C79.4297 21.9012 79.8956 20.0167 80.8379 18.8891C81.775 17.7614 83.323 17.2027 85.4767 17.2027C87.4389 17.2027 88.8782 17.7056 89.7997 18.7113C90.7161 19.717 91.1769 21.4491 91.1769 23.9075V25.3247H84.1565ZM86.7555 22.1805C86.7555 21.4237 86.6571 20.8802 86.4656 20.5449C86.274 20.2097 85.9323 20.0421 85.4405 20.0421C84.9693 20.0421 84.6328 20.2097 84.4413 20.5449C84.2497 20.8802 84.1513 21.4288 84.1513 22.1805V22.8002H86.7555V22.1805Z" fill="#1D9752"/>
<path d="M92.4869 17.5633H97.0584V19.2649H97.1102C97.7211 17.8884 98.8705 17.2027 100.553 17.2027C101.708 17.2027 102.619 17.4871 103.271 18.056C103.929 18.6249 104.255 19.6002 104.255 20.997V31.5165H99.5228V22.3126C99.5228 21.7285 99.4348 21.3069 99.2587 21.0478C99.0827 20.7888 98.7876 20.6618 98.3683 20.6618C97.9489 20.6618 97.6486 20.7888 97.4726 21.0478C97.2966 21.3069 97.2085 21.7285 97.2085 22.3126V31.5165H92.4766V17.5633H92.4869Z" fill="#1D9752"/>
<path d="M106.361 13.1036H111.829L114.981 24.446H115.033V13.1036H119.605V31.5115H114.241L110.985 20.1437H110.933V31.5115H106.361V13.1036Z" fill="#1D9752"/>
<path d="M128.986 17.2179H133.402V31.2778C133.402 34.5438 131.425 36.1743 127.464 36.1743C126.361 36.1743 125.429 36.0778 124.679 35.8797C123.923 35.6816 123.286 35.2804 122.758 34.681C122.235 34.0765 121.961 33.2689 121.945 32.2581H126.201C126.201 32.9794 126.594 33.34 127.381 33.34C127.821 33.34 128.168 33.2283 128.432 33.0048C128.696 32.7813 128.826 32.314 128.826 31.613V29.0327H128.774C128.246 30.4244 127.179 31.1203 125.569 31.1203C122.799 31.1203 121.417 28.8244 121.417 24.2326C121.417 21.6726 121.785 19.8592 122.52 18.7926C123.255 17.7259 124.353 17.1925 125.802 17.1925C127.412 17.1925 128.458 17.9595 128.929 19.4884H128.981V17.2179H128.986ZM126.149 24.1666C126.149 25.5583 126.253 26.493 126.465 26.9654C126.677 27.4377 127.024 27.6765 127.516 27.6765C127.987 27.6765 128.329 27.4428 128.525 26.9806C128.727 26.5184 128.831 25.5787 128.831 24.1717C128.831 22.7951 128.727 21.8707 128.515 21.3881C128.308 20.9056 127.971 20.6669 127.516 20.6669C127.045 20.6669 126.698 20.9107 126.475 21.3881C126.258 21.8605 126.149 22.7901 126.149 24.1666Z" fill="#1D9752"/>
<path d="M142.286 31.5114C142.198 31.2879 142.1 30.7647 141.996 29.9368H141.944C141.416 31.1762 140.35 31.7908 138.74 31.7908C136.11 31.7908 134.8 30.4498 134.8 27.7679C134.8 26.4625 135.085 25.472 135.654 24.8015C136.224 24.131 137.254 23.6231 138.745 23.2828L140.609 22.8459C141.116 22.724 141.478 22.5513 141.686 22.3177C141.898 22.084 142.001 21.7539 142.001 21.3221C142.001 20.4637 141.598 20.0319 140.79 20.0319C140.319 20.0319 139.977 20.1589 139.78 20.418C139.578 20.677 139.47 21.1647 139.449 21.8859H135.349C135.349 20.9412 135.525 20.1386 135.871 19.4732C136.218 18.8129 136.689 18.3252 137.28 18.0154C137.865 17.7056 138.439 17.4922 138.999 17.3703C139.558 17.2484 140.153 17.1925 140.785 17.1925C142.607 17.1925 144 17.5176 144.963 18.1729C145.926 18.8281 146.407 19.9964 146.407 21.6777V28.4841C146.407 29.947 146.557 30.9527 146.852 31.5013H142.286V31.5114ZM140.521 28.7533C141.499 28.7533 141.991 27.9863 141.991 26.4574V24.7812H141.939C141.851 24.9031 141.732 24.9895 141.587 25.0402C141.437 25.091 141.235 25.1469 140.981 25.2079C140.728 25.2688 140.51 25.3399 140.339 25.4263C139.692 25.7158 139.366 26.3203 139.366 27.2295C139.366 27.6917 139.47 28.0625 139.682 28.3368C139.894 28.6162 140.174 28.7533 140.521 28.7533Z" fill="#1D9752"/>
<path d="M148.882 32.827C149.177 32.8981 149.529 32.9286 149.933 32.9286C150.461 32.9286 150.855 32.8016 151.114 32.5527C151.373 32.3038 151.502 31.8721 151.502 31.6638C151.502 31.5419 151.43 31.227 151.29 30.7089L147.448 17.2179L152.361 17.1976L153.863 26.9704H153.915L155.328 17.2179L160.096 17.223L156.198 31.8974C155.794 33.4619 155.245 34.7369 154.546 35.3159C153.842 35.8899 152.838 36.1794 151.523 36.1794C150.472 36.1794 149.586 36.1439 148.867 36.0778V32.827H148.882Z" fill="#1D9752"/>
<path d="M163.912 26.4067H159.496V31.5115H163.912V26.4067Z" fill="#EE3C39"/>
<path d="M164.963 17.2281H169.804L171.191 27.5952H171.243L172.599 17.2281L177.528 17.2332L173.976 31.5114H168.406L164.963 17.2281Z" fill="#EE3C39"/>
<path d="M178.232 17.2281H182.803V19.265H182.855C183.466 17.8884 184.615 17.2027 186.298 17.2027C187.452 17.2027 188.364 17.4872 189.016 18.0561C189.673 18.625 190 19.6053 190 20.9971V31.5165H185.268V22.3126C185.268 21.7285 185.18 21.3069 185.004 21.0478C184.828 20.7888 184.532 20.6618 184.113 20.6618C183.694 20.6618 183.393 20.7939 183.223 21.0478C183.047 21.3069 182.959 21.7285 182.959 22.3126V31.5165H178.227V17.2281H178.232Z" fill="#EE3C39"/>
<path d="M20.269 25.152H16.7226C16.3964 25.152 16.0961 24.9996 15.9097 24.7355L10.9189 17.7462H8.48555L14.8691 26.6911C15.0555 26.9501 15.3609 27.1076 15.6819 27.1076H23.0492C23.3753 27.1076 23.6808 27.265 23.8672 27.5241L36.2719 44.9059C36.51 45.2411 36.51 45.6881 36.2719 46.0284L27.3101 58.5848C26.9114 59.1384 26.0779 59.1384 25.6792 58.5848L16.7174 46.0284C16.4792 45.6932 16.4792 45.2462 16.7174 44.911L21.4805 38.2417C21.8739 37.688 22.7126 37.688 23.1113 38.2366L24.8871 40.7154C25.1304 41.0506 25.1304 41.5027 24.8871 41.8379L22.6919 44.911C22.4538 45.2462 22.4538 45.6932 22.6919 46.0284L26.4972 51.3567L30.2973 46.0284C30.5355 45.6932 30.5355 45.2462 30.2973 44.911L21.32 32.3343C21.1336 32.0753 20.8281 31.9178 20.502 31.9178H15.6716C15.3454 31.9178 15.0451 32.0753 14.8587 32.3343L8.47003 41.2843L10.9033 41.2741L15.8942 34.2848C16.0806 34.0257 16.386 33.8683 16.7122 33.8683H19.4665C19.7927 33.8683 20.093 34.0257 20.2845 34.2848L20.678 34.8385C20.9162 35.1737 20.9162 35.6207 20.678 35.9559L13.7508 45.6627C13.5645 45.9218 13.259 46.0792 12.938 46.0792H0.994075C0.191601 46.0792 -0.279533 45.1903 0.181242 44.5452L10.5047 30.074C10.7428 29.7387 10.7428 29.2917 10.5047 28.9565L0.186425 14.4954C-0.274351 13.8503 0.196783 12.9614 0.999257 12.9614H12.9483C13.2745 12.9614 13.5748 13.1189 13.7612 13.3779L21.0818 23.6383C21.5426 24.2631 21.0715 25.152 20.269 25.152Z" fill="#EE3C39"/>
<path d="M32.7461 33.8531H36.2925C36.6187 33.8531 36.9242 34.0105 37.1054 34.2696L42.0963 41.2589H44.5295L38.146 32.314C37.9596 32.055 37.6542 31.8975 37.3332 31.8975H29.966C29.6398 31.8975 29.3343 31.7451 29.1479 31.481L16.7225 14.0941C16.4792 13.7589 16.4792 13.3119 16.7225 12.9716L25.6844 0.415243C26.083 -0.138414 26.9165 -0.138414 27.3152 0.415243L36.277 12.9716C36.5204 13.3068 36.5204 13.7538 36.277 14.0891L31.5191 20.7583C31.1205 21.312 30.2818 21.312 29.8883 20.7583L28.1177 18.2745C27.8795 17.9392 27.8795 17.4923 28.1177 17.1519L30.3025 14.0891C30.5406 13.7538 30.5406 13.3068 30.3025 12.9716L26.5024 7.63818L22.7023 12.9665C22.4641 13.3017 22.4641 13.7487 22.7023 14.0891L31.7003 26.6759C31.8867 26.9349 32.1922 27.0924 32.5183 27.0924H37.3176C37.6438 27.0924 37.9493 26.9349 38.1305 26.6759L44.514 17.731H42.0859L37.095 24.7254C36.9086 24.9844 36.6032 25.1419 36.2822 25.1419H33.5382C33.2121 25.1419 32.9066 24.9844 32.7254 24.7254L32.3216 24.1615C32.0835 23.8263 32.0835 23.3793 32.3216 23.0441L39.2384 13.3475C39.4248 13.0884 39.7303 12.9309 40.0564 12.9309H52.0055C52.808 12.9309 53.2843 13.8198 52.8235 14.47L42.4949 28.9311C42.2567 29.2664 42.2567 29.7133 42.4949 30.0537L52.8287 44.525C53.2895 45.1751 52.8183 46.064 52.0159 46.064H40.0668C39.7406 46.064 39.4403 45.9065 39.2488 45.6475L31.9281 35.3921C31.4725 34.742 31.9437 33.8531 32.7461 33.8531Z" fill="#EE3C39"/>
</svg>
