<svg width="6" height="12" viewBox="0 0 6 12" fill="none" xmlns="http://www.w3.org/2000/svg">
<path d="M5.66671 1.86743V0.779563C5.66671 0.685271 5.58043 0.6332 5.52217 0.6909L0.471205 5.64614C0.42829 5.68806 0.393565 5.74173 0.369678 5.80307C0.345791 5.86441 0.333374 5.9318 0.333374 6.00008C0.333374 6.06837 0.345791 6.13575 0.369678 6.19709C0.393565 6.25843 0.42829 6.31211 0.471205 6.35403L5.52217 11.3093C5.58155 11.367 5.66671 11.3149 5.66671 11.2206V10.1327C5.66671 10.0638 5.64094 9.99762 5.59836 9.9554L1.56476 6.00078L5.59836 2.04476C5.64094 2.00254 5.66671 1.93639 5.66671 1.86743Z" fill="#B8B8B8"/>
</svg>
