<svg width="44" height="50" viewBox="0 0 44 50" fill="none" xmlns="http://www.w3.org/2000/svg">
<path d="M38.6905 21.875H36.369V14.8438C36.369 6.66016 29.7723 0 21.6667 0C13.561 0 6.96429 6.66016 6.96429 14.8438V21.875H4.64286C2.07961 21.875 0 23.9746 0 26.5625V45.3125C0 47.9004 2.07961 50 4.64286 50H38.6905C41.2537 50 43.3333 47.9004 43.3333 45.3125V26.5625C43.3333 23.9746 41.2537 21.875 38.6905 21.875ZM28.631 21.875H14.7024V14.8438C14.7024 10.9668 17.8266 7.8125 21.6667 7.8125C25.5067 7.8125 28.631 10.9668 28.631 14.8438V21.875Z" fill="#26A05B"/>
</svg>
