<svg width="30" height="30" viewBox="0 0 30 30" fill="none" xmlns="http://www.w3.org/2000/svg">
<g clip-path="url(#clip0_118:1112)">
<path d="M29.9929 27.8724L27.6361 14.8874C27.6126 14.7578 27.5322 14.6455 27.417 14.5815L21.4848 11.282C21.4078 11.2391 21.3215 11.2221 21.2368 11.2287L22.316 25.151L22.2798 25.1672L29.3793 28.3522C29.4371 28.378 29.4985 28.3908 29.5596 28.3908C29.6563 28.3908 29.7522 28.359 29.831 28.2973C29.9598 28.1967 30.0221 28.0331 29.9929 27.8724Z" fill="#44C868"/>
<path d="M15 14.4361L8.93292 11.2761C8.86021 11.2382 8.77958 11.2227 8.70019 11.2281C8.72122 11.2268 8.74238 11.2269 8.76335 11.2285L7.68411 25.1509L14.8197 28.3521C14.8773 28.3779 14.9388 28.3907 15 28.3907V14.4361Z" fill="#44C868"/>
<path d="M8.76329 11.2287C8.67851 11.2221 8.5922 11.2391 8.51521 11.282L2.58299 14.5814C2.46779 14.6454 2.3874 14.7576 2.3639 14.8873L0.00708268 27.8724C-0.0220971 28.033 0.0402468 28.1966 0.168978 28.2973C0.247903 28.359 0.343704 28.3908 0.440384 28.3908C0.501498 28.3908 0.562963 28.3781 0.620678 28.3522L7.68147 25.1845L8.76329 11.2287Z" fill="#4CE166"/>
<path d="M21.2367 11.2283C21.1783 11.2328 21.1206 11.2483 21.0671 11.2762L15 14.4362V28.3908C15 28.3908 15 28.3908 15.0001 28.3908C15.0613 28.3908 15.1228 28.378 15.1804 28.3522L22.316 25.1509L21.2367 11.2283Z" fill="#4CE166"/>
<path d="M1.64964 18.8222L1.17087 21.46L8.26037 17.7155L8.42496 15.5921L8.45227 15.24L1.64964 18.8222Z" fill="#FFDB56"/>
<path d="M8.32419 16.8923L8.26038 17.7157L1.17087 21.4602L0.00708268 27.8723C-0.0220971 28.033 0.0402468 28.1966 0.168978 28.2972C0.247903 28.3589 0.343704 28.3907 0.440384 28.3907C0.501498 28.3907 0.562963 28.378 0.620678 28.3521L7.68147 25.1845L8.32419 16.8923Z" fill="#A8EEFC"/>
<path d="M15.0018 16.1765L8.4523 15.24L8.26041 17.7155L15.0001 27.9506V24.2289L10.9784 17.8962L15.0018 18.3774V16.1765Z" fill="#FFBB24"/>
<path d="M26.95 14.3216L24.1003 12.7366L21.4026 13.3669L21.4363 13.8026L21.5695 15.5214L26.95 14.3216Z" fill="#FFBB24"/>
<path d="M21.8088 18.608L21.5533 15.3122L21.4025 13.3669L15.0018 16.1766V18.3775L19.1828 16.5594L21.8088 18.608Z" fill="#FFDB56"/>
<path d="M29.9929 27.8723L29.4009 24.6106L21.5695 15.5215L21.8088 18.6081L29.8402 28.289C29.9623 28.1878 30.0213 28.0289 29.9929 27.8723Z" fill="#FFBB24"/>
<path d="M15.0282 1.60938C11.6319 1.60938 8.8688 4.3702 8.8688 7.76372C8.8688 9.86291 9.86543 12.1167 11.8311 14.4623C13.2748 16.1851 14.6988 17.2932 14.7588 17.3395C14.8381 17.4009 14.9332 17.4315 15.0283 17.4315C15.1233 17.4315 15.2184 17.4009 15.2977 17.3395C15.3576 17.2932 16.7817 16.1851 18.2254 14.4623C20.1911 12.1167 21.1877 9.86297 21.1877 7.76372C21.1876 4.3702 18.4245 1.60938 15.0282 1.60938ZM17.3093 7.76366C17.3093 9.02238 16.288 10.0428 15.0282 10.0428C13.7684 10.0428 12.7471 9.02244 12.7471 7.76366C12.7471 6.50489 13.7684 5.48448 15.0282 5.48448C16.288 5.48448 17.3093 6.50495 17.3093 7.76366Z" fill="#FF4A4A"/>
<path d="M15.0282 1.60938C14.759 1.60938 14.4939 1.62684 14.2337 1.66047C17.2562 2.05111 19.5987 4.63915 19.5987 7.76372C19.5987 9.86291 18.6021 12.1167 16.6364 14.4623C15.708 15.5702 14.7884 16.4233 14.2338 16.9038C14.5416 17.1706 14.7375 17.323 14.7588 17.3395C14.8381 17.4009 14.9332 17.4315 15.0283 17.4315C15.1233 17.4315 15.2184 17.4009 15.2977 17.3395C15.3576 17.2932 16.7817 16.1851 18.2254 14.4623C20.1911 12.1167 21.1877 9.86297 21.1877 7.76372C21.1876 4.3702 18.4245 1.60938 15.0282 1.60938Z" fill="#E7343F"/>
<path d="M15.1804 28.3521L17.8338 27.1617L15 24.229V28.3907C15 28.3907 15 28.3907 15.0001 28.3907C15.0613 28.3907 15.1228 28.378 15.1804 28.3521Z" fill="#FFDB56"/>
<path d="M27.636 14.8872C27.6125 14.7576 27.5321 14.6453 27.4169 14.5813L26.9499 14.3215L21.5694 15.5214L29.4008 24.6105L27.636 14.8872Z" fill="#1EA4E9"/>
<path d="M14.9999 28.3906C15 28.3906 15 28.3906 14.9999 28.3906V27.9507L8.26038 17.7156L7.68399 25.1508L14.8196 28.3521C14.8772 28.3779 14.9386 28.3906 14.9999 28.3906Z" fill="#1EA4E9"/>
</g>
<defs>
<clipPath id="clip0_118:1112">
<rect width="30" height="30" fill="white"/>
</clipPath>
</defs>
</svg>
