<svg width="161" height="43" viewBox="0 0 161 43" fill="none" xmlns="http://www.w3.org/2000/svg">
<path d="M32.6 37C31.6933 38.12 30.5867 38.9733 29.28 39.56C28 40.1467 26.5867 40.44 25.04 40.44C22.96 40.44 21.08 39.9867 19.4 39.08C17.72 38.2 15.8 36.6267 13.64 34.36C11.1067 34.04 8.84 33.2267 6.84 31.92C4.86667 30.6133 3.32 28.9333 2.2 26.88C1.10667 24.8 0.56 22.5067 0.56 20C0.56 17.2533 1.21333 14.7867 2.52 12.6C3.85333 10.3867 5.68 8.65333 8 7.4C10.3467 6.14667 12.9733 5.52 15.88 5.52C18.7867 5.52 21.4 6.14667 23.72 7.4C26.04 8.65333 27.8667 10.3867 29.2 12.6C30.5333 14.7867 31.2 17.2533 31.2 20C31.2 23.2533 30.28 26.1067 28.44 28.56C26.6267 31.0133 24.2133 32.72 21.2 33.68C21.8667 34.3733 22.5067 34.8667 23.12 35.16C23.76 35.48 24.44 35.64 25.16 35.64C26.8933 35.64 28.4133 34.9467 29.72 33.56L32.6 37ZM7.12 20C7.12 21.7333 7.49333 23.28 8.24 24.64C9.01333 26 10.0667 27.0667 11.4 27.84C12.7333 28.5867 14.2267 28.96 15.88 28.96C17.5333 28.96 19.0267 28.5867 20.36 27.84C21.6933 27.0667 22.7333 26 23.48 24.64C24.2533 23.28 24.64 21.7333 24.64 20C24.64 18.2667 24.2533 16.72 23.48 15.36C22.7333 14 21.6933 12.9467 20.36 12.2C19.0267 11.4267 17.5333 11.04 15.88 11.04C14.2267 11.04 12.7333 11.4267 11.4 12.2C10.0667 12.9467 9.01333 14 8.24 15.36C7.49333 16.72 7.12 18.2667 7.12 20ZM57.31 12.48V34H51.39V31.44C50.5633 32.3733 49.5767 33.0933 48.43 33.6C47.2833 34.08 46.0433 34.32 44.71 34.32C41.8833 34.32 39.6433 33.5067 37.99 31.88C36.3367 30.2533 35.51 27.84 35.51 24.64V12.48H41.75V23.72C41.75 27.1867 43.2033 28.92 46.11 28.92C47.6033 28.92 48.8033 28.44 49.71 27.48C50.6167 26.4933 51.07 25.04 51.07 23.12V12.48H57.31ZM71.7709 12.16C75.1043 12.16 77.6643 12.96 79.4509 14.56C81.2376 16.1333 82.1309 18.52 82.1309 21.72V34H76.2909V31.32C75.1176 33.32 72.9309 34.32 69.7309 34.32C68.0776 34.32 66.6376 34.04 65.4109 33.48C64.2109 32.92 63.2909 32.1467 62.6509 31.16C62.0109 30.1733 61.6909 29.0533 61.6909 27.8C61.6909 25.8 62.4376 24.2267 63.9309 23.08C65.4509 21.9333 67.7843 21.36 70.9309 21.36H75.8909C75.8909 20 75.4776 18.96 74.6509 18.24C73.8243 17.4933 72.5843 17.12 70.9309 17.12C69.7843 17.12 68.6509 17.3067 67.5309 17.68C66.4376 18.0267 65.5043 18.5067 64.7309 19.12L62.4909 14.76C63.6643 13.9333 65.0643 13.2933 66.6909 12.84C68.3443 12.3867 70.0376 12.16 71.7709 12.16ZM71.2909 30.12C72.3576 30.12 73.3043 29.88 74.1309 29.4C74.9576 28.8933 75.5443 28.16 75.8909 27.2V25H71.6109C69.0509 25 67.7709 25.84 67.7709 27.52C67.7709 28.32 68.0776 28.96 68.6909 29.44C69.3309 29.8933 70.1976 30.12 71.2909 30.12ZM71.6509 8.04C72.3976 7.69333 72.9176 7.32 73.2109 6.92C73.5309 6.52 73.6909 6.08 73.6909 5.6C73.6909 5.09333 73.5176 4.69333 73.1709 4.4C72.8243 4.08 72.3709 3.92 71.8109 3.92C71.0109 3.92 70.2243 4.17333 69.4509 4.68L68.1709 2.16C69.3176 1.25333 70.7576 0.799998 72.4909 0.799998C73.9043 0.799998 75.0509 1.2 75.9309 2C76.8376 2.77333 77.2909 3.8 77.2909 5.08C77.2909 7.32 76.0643 9 73.6109 10.12L71.6509 8.04ZM100.858 12.16C103.525 12.16 105.672 12.96 107.298 14.56C108.952 16.16 109.778 18.5333 109.778 21.68V34H103.538V22.64C103.538 20.9333 103.165 19.6667 102.418 18.84C101.672 17.9867 100.592 17.56 99.1784 17.56C97.6051 17.56 96.3518 18.0533 95.4184 19.04C94.4851 20 94.0184 21.44 94.0184 23.36V34H87.7784V12.48H93.7384V15C94.5651 14.0933 95.5918 13.4 96.8184 12.92C98.0451 12.4133 99.3918 12.16 100.858 12.16ZM126.763 4.32H133.003V34H126.763V4.32ZM160.154 12.48L150.434 35.32C149.447 37.8 148.221 39.5467 146.754 40.56C145.314 41.5733 143.567 42.08 141.514 42.08C140.394 42.08 139.287 41.9067 138.194 41.56C137.101 41.2133 136.207 40.7333 135.514 40.12L137.794 35.68C138.274 36.1067 138.821 36.44 139.434 36.68C140.074 36.92 140.701 37.04 141.314 37.04C142.167 37.04 142.861 36.8267 143.394 36.4C143.927 36 144.407 35.32 144.834 34.36L144.914 34.16L135.594 12.48H142.034L148.074 27.08L154.154 12.48H160.154ZM149.194 3.96H155.914L148.674 9.72H143.794L149.194 3.96Z" fill="white"/>
</svg>
