<svg width="30" height="30" viewBox="0 0 30 30" fill="none" xmlns="http://www.w3.org/2000/svg">
<path d="M15 30C23.2843 30 30 23.2843 30 15C30 6.71573 23.2843 0 15 0C6.71573 0 0 6.71573 0 15C0 23.2843 6.71573 30 15 30Z" fill="#FFE14D"/>
<path d="M30 15C30 6.72896 23.271 0 15 0V30C23.271 30 30 23.271 30 15Z" fill="#FFBB33"/>
<path d="M15 26.4258C8.7 26.4258 3.57422 21.3 3.57422 15C3.57422 8.7 8.7 3.57422 15 3.57422C21.3 3.57422 26.4258 8.7 26.4258 15C26.4258 21.3 21.3 26.4258 15 26.4258Z" fill="#FFBB33"/>
<path d="M26.4258 15C26.4258 8.7 21.3 3.57422 15 3.57422V26.4258C21.3 26.4258 26.4258 21.3 26.4258 15Z" fill="#E68A2E"/>
<path d="M15.8789 14.1837V10.7087C16.8898 10.9567 17.6367 11.6071 17.6367 12.3547C17.6367 12.8405 18.0298 13.2336 18.5156 13.2336C19.0014 13.2336 19.3945 12.8405 19.3945 12.3547C19.3945 10.6566 17.8828 9.23673 15.8789 8.91024V7.96021C15.8789 7.4744 15.4858 7.0813 15 7.0813C14.5142 7.0813 14.1211 7.4744 14.1211 7.96021V8.91024C12.1172 9.23673 10.6055 10.6566 10.6055 12.3547C10.6055 14.0529 12.1172 15.4727 14.1211 15.7992V19.2742C13.1102 19.0262 12.3633 18.3758 12.3633 17.6282C12.3633 17.1424 11.9702 16.7493 11.4844 16.7493C10.9986 16.7493 10.6055 17.1424 10.6055 17.6282C10.6055 19.3263 12.1172 20.7462 14.1211 21.0727V22.0313C14.1211 22.5171 14.5142 22.9102 15 22.9102C15.4858 22.9102 15.8789 22.5171 15.8789 22.0313V21.0727C17.8828 20.7462 19.3945 19.3263 19.3945 17.6282C19.3945 15.93 17.8828 14.5101 15.8789 14.1837ZM12.3633 12.3547C12.3633 11.6071 13.1102 10.9567 14.1211 10.7087V14.0008C13.1102 13.7527 12.3633 13.1023 12.3633 12.3547ZM15.8789 19.2742V15.9822C16.8898 16.2302 17.6367 16.8806 17.6367 17.6282C17.6367 18.3758 16.8898 19.0261 15.8789 19.2742Z" fill="#FFE14D"/>
<path d="M15.8789 22.0313V21.0727C17.8828 20.7462 19.3945 19.3263 19.3945 17.6282C19.3945 15.93 17.8828 14.5102 15.8789 14.1837V10.7087C16.8898 10.9567 17.6367 11.6071 17.6367 12.3547C17.6367 12.8405 18.0298 13.2336 18.5156 13.2336C19.0014 13.2336 19.3945 12.8405 19.3945 12.3547C19.3945 10.6566 17.8828 9.23673 15.8789 8.91024V7.96021C15.8789 7.4744 15.4858 7.0813 15 7.0813V22.9102C15.4858 22.9102 15.8789 22.5171 15.8789 22.0313ZM15.8789 15.9821C16.8898 16.2301 17.6367 16.8805 17.6367 17.6281C17.6367 18.3757 16.8898 19.0261 15.8789 19.2741V15.9821Z" fill="#FFBB33"/>
</svg>
