<svg width="16" height="16" viewBox="0 0 16 16" fill="none" xmlns="http://www.w3.org/2000/svg">
<path d="M5.3335 7.33366H10.6668V8.66699H5.3335V7.33366ZM13.4002 8.00033H14.6668C14.6668 6.16033 13.1735 4.66699 11.3335 4.66699H8.66683V5.93366H11.3335C12.4735 5.93366 13.4002 6.86033 13.4002 8.00033ZM2.60016 8.00033C2.60016 6.86033 3.52683 5.93366 4.66683 5.93366H7.3335V4.66699H4.66683C2.82683 4.66699 1.3335 6.16033 1.3335 8.00033C1.3335 9.84033 2.82683 11.3337 4.66683 11.3337H7.3335V10.067H4.66683C3.52683 10.067 2.60016 9.14033 2.60016 8.00033ZM12.6668 8.00033H11.3335V10.0003H9.3335V11.3337H11.3335V13.3337H12.6668V11.3337H14.6668V10.0003H12.6668V8.00033Z" fill="#EC1E24"/>
</svg>
