<svg width="134" height="110" viewBox="0 0 134 110" fill="none" xmlns="http://www.w3.org/2000/svg">
<path fill-rule="evenodd" clip-rule="evenodd" d="M121.542 11.4756H16.2539C12.1952 11.4756 8.9082 14.7625 8.9082 18.8213C8.9082 25.2307 8.9082 33.5127 8.9082 33.5127H121.542V11.4756Z" fill="#A5D5BA"/>
<path fill-rule="evenodd" clip-rule="evenodd" d="M121.542 7.34571C121.542 3.28696 118.255 0 114.197 0C103.842 0 85.1742 0 75.807 0C72.2928 0 69.045 1.88442 67.3016 4.9324C64.4104 9.998 60.3281 17.14 60.3281 17.14H121.542V7.34571Z" fill="#A5D5BA"/>
<path d="M121.542 18.3584H8.9082V22.9186H121.542V18.3584Z" fill="#77C197"/>
<path fill-rule="evenodd" clip-rule="evenodd" d="M129.789 32.4935C130.177 29.6885 129.335 26.8481 127.474 24.713C125.613 22.5739 122.917 21.3477 120.085 21.3477C95.1174 21.3477 35.3253 21.3477 10.3578 21.3477C7.52525 21.3477 4.82987 22.5739 2.96895 24.713C1.11196 26.8481 0.265734 29.6845 0.653587 32.4935C3.13742 50.3701 7.9562 85.0614 10.1775 101.053C10.8514 105.896 14.9885 109.5 19.8778 109.5H110.557C115.446 109.5 119.583 105.896 120.257 101.053C122.487 85.0614 127.305 50.3701 129.789 32.4935Z" fill="#A5D5BA"/>
<path fill-rule="evenodd" clip-rule="evenodd" d="M1.48414 38.421C1.66827 36.3799 2.48708 34.4328 3.85436 32.8618C5.71135 30.7267 8.40673 29.5004 11.2392 29.5004C35.913 29.5004 94.5415 29.5004 119.211 29.5004C122.044 29.5004 124.739 30.7267 126.596 32.8618C127.963 34.4328 128.782 36.3838 128.966 38.421L129.789 32.4935C130.177 29.6885 129.335 26.8481 127.474 24.713C125.613 22.5739 122.917 21.3477 120.085 21.3477C95.1174 21.3477 35.3253 21.3477 10.3578 21.3477C7.52525 21.3477 4.82987 22.5739 2.96895 24.713C1.11196 26.8481 0.265734 29.6845 0.653587 32.4935L1.48414 38.421Z" fill="#E8F4ED"/>
<path fill-rule="evenodd" clip-rule="evenodd" d="M54.2085 85.0768C54.2085 82.3736 52.0185 80.1797 49.3114 80.1797C43.8775 80.1797 35.1606 80.1797 29.7228 80.1797C27.0196 80.1797 24.8257 82.3736 24.8257 85.0768C24.8257 86.6557 24.8257 88.399 24.8257 89.974C24.8257 92.6811 27.0196 94.8711 29.7228 94.8711C35.1606 94.8711 43.8775 94.8711 49.3114 94.8711C52.0185 94.8711 54.2085 92.6811 54.2085 89.974C54.2085 88.399 54.2085 86.6557 54.2085 85.0768Z" fill="#1D9752"/>
<path fill-rule="evenodd" clip-rule="evenodd" d="M90.9373 39.0791C76.7473 39.0791 65.2253 50.6011 65.2253 64.791C65.2253 78.981 76.7473 90.503 90.9373 90.503C105.127 90.503 116.649 78.981 116.649 64.791C116.649 50.6011 105.123 39.0791 90.9373 39.0791ZM90.9373 46.4248C101.072 46.4248 109.304 54.6559 109.304 64.791C109.304 74.9262 101.068 83.1533 90.9373 83.1533C80.8061 83.1533 72.571 74.9222 72.571 64.7871C72.571 54.652 80.8022 46.4248 90.9373 46.4248Z" fill="#1D9752"/>
<path fill-rule="evenodd" clip-rule="evenodd" d="M104.328 82.5428L127.168 105.383C128.602 106.817 130.929 106.817 132.363 105.383C133.797 103.949 133.797 101.622 132.363 100.188L109.523 77.3479C108.089 75.914 105.762 75.914 104.328 77.3479C102.894 78.7818 102.894 81.1128 104.328 82.5428Z" fill="#1D9752"/>
</svg>
