<svg width="236" height="32" viewBox="0 0 236 32" fill="none" xmlns="http://www.w3.org/2000/svg">
<path d="M9.12 8.28H0.16V3H24.56V8.28H15.6V31H9.12V8.28ZM40.6866 9.16C43.3532 9.16 45.4999 9.96 47.1266 11.56C48.7799 13.16 49.6066 15.5333 49.6066 18.68V31H43.3666V19.64C43.3666 17.9333 42.9932 16.6667 42.2466 15.84C41.4999 14.9867 40.4199 14.56 39.0066 14.56C37.4332 14.56 36.1799 15.0533 35.2466 16.04C34.3132 17 33.8466 18.44 33.8466 20.36V31H27.6066V1.32H33.8466V11.72C34.6732 10.8933 35.6732 10.2667 36.8466 9.84C38.0199 9.38667 39.2999 9.16 40.6866 9.16ZM63.9428 9.16C67.2761 9.16 69.8361 9.96 71.6228 11.56C73.4095 13.1333 74.3028 15.52 74.3028 18.72V31H68.4628V28.32C67.2895 30.32 65.1028 31.32 61.9028 31.32C60.2495 31.32 58.8095 31.04 57.5828 30.48C56.3828 29.92 55.4628 29.1467 54.8228 28.16C54.1828 27.1733 53.8628 26.0533 53.8628 24.8C53.8628 22.8 54.6095 21.2267 56.1028 20.08C57.6228 18.9333 59.9561 18.36 63.1028 18.36H68.0628C68.0628 17 67.6495 15.96 66.8228 15.24C65.9961 14.4933 64.7561 14.12 63.1028 14.12C61.9561 14.12 60.8228 14.3067 59.7028 14.68C58.6095 15.0267 57.6761 15.5067 56.9028 16.12L54.6628 11.76C55.8361 10.9333 57.2361 10.2933 58.8628 9.84C60.5161 9.38667 62.2095 9.16 63.9428 9.16ZM63.4628 27.12C64.5295 27.12 65.4761 26.88 66.3028 26.4C67.1295 25.8933 67.7161 25.16 68.0628 24.2V22H63.7828C61.2228 22 59.9428 22.84 59.9428 24.52C59.9428 25.32 60.2495 25.96 60.8628 26.44C61.5028 26.8933 62.3695 27.12 63.4628 27.12ZM93.0303 9.16C95.697 9.16 97.8436 9.96 99.4703 11.56C101.124 13.16 101.95 15.5333 101.95 18.68V31H95.7103V19.64C95.7103 17.9333 95.337 16.6667 94.5903 15.84C93.8436 14.9867 92.7636 14.56 91.3503 14.56C89.777 14.56 88.5236 15.0533 87.5903 16.04C86.657 17 86.1903 18.44 86.1903 20.36V31H79.9503V9.48H85.9103V12C86.737 11.0933 87.7636 10.4 88.9903 9.92C90.217 9.41333 91.5636 9.16 93.0303 9.16ZM120.687 9.16C123.353 9.16 125.5 9.96 127.127 11.56C128.78 13.16 129.607 15.5333 129.607 18.68V31H123.367V19.64C123.367 17.9333 122.993 16.6667 122.247 15.84C121.5 14.9867 120.42 14.56 119.007 14.56C117.433 14.56 116.18 15.0533 115.247 16.04C114.313 17 113.847 18.44 113.847 20.36V31H107.607V1.32H113.847V11.72C114.673 10.8933 115.673 10.2667 116.847 9.84C118.02 9.38667 119.3 9.16 120.687 9.16ZM160.471 29.96C159.858 30.4133 159.098 30.76 158.191 31C157.311 31.2133 156.378 31.32 155.391 31.32C152.831 31.32 150.844 30.6667 149.431 29.36C148.044 28.0533 147.351 26.1333 147.351 23.6V14.76H144.031V9.96H147.351V4.72H153.591V9.96H158.951V14.76H153.591V23.52C153.591 24.4267 153.818 25.1333 154.271 25.64C154.751 26.12 155.418 26.36 156.271 26.36C157.258 26.36 158.098 26.0933 158.791 25.56L160.471 29.96ZM173.55 31.32C171.283 31.32 169.243 30.8533 167.43 29.92C165.643 28.96 164.243 27.64 163.23 25.96C162.216 24.28 161.71 22.3733 161.71 20.24C161.71 18.1067 162.216 16.2 163.23 14.52C164.243 12.84 165.643 11.5333 167.43 10.6C169.243 9.64 171.283 9.16 173.55 9.16C175.816 9.16 177.843 9.64 179.63 10.6C181.416 11.5333 182.816 12.84 183.83 14.52C184.843 16.2 185.35 18.1067 185.35 20.24C185.35 22.3733 184.843 24.28 183.83 25.96C182.816 27.64 181.416 28.96 179.63 29.92C177.843 30.8533 175.816 31.32 173.55 31.32ZM173.55 26.2C175.15 26.2 176.456 25.6667 177.47 24.6C178.51 23.5067 179.03 22.0533 179.03 20.24C179.03 18.4267 178.51 16.9867 177.47 15.92C176.456 14.8267 175.15 14.28 173.55 14.28C171.95 14.28 170.63 14.8267 169.59 15.92C168.55 16.9867 168.03 18.4267 168.03 20.24C168.03 22.0533 168.55 23.5067 169.59 24.6C170.63 25.6667 171.95 26.2 173.55 26.2ZM197.849 9.16C201.182 9.16 203.742 9.96 205.529 11.56C207.316 13.1333 208.209 15.52 208.209 18.72V31H202.369V28.32C201.196 30.32 199.009 31.32 195.809 31.32C194.156 31.32 192.716 31.04 191.489 30.48C190.289 29.92 189.369 29.1467 188.729 28.16C188.089 27.1733 187.769 26.0533 187.769 24.8C187.769 22.8 188.516 21.2267 190.009 20.08C191.529 18.9333 193.862 18.36 197.009 18.36H201.969C201.969 17 201.556 15.96 200.729 15.24C199.902 14.4933 198.662 14.12 197.009 14.12C195.862 14.12 194.729 14.3067 193.609 14.68C192.516 15.0267 191.582 15.5067 190.809 16.12L188.569 11.76C189.742 10.9333 191.142 10.2933 192.769 9.84C194.422 9.38667 196.116 9.16 197.849 9.16ZM197.369 27.12C198.436 27.12 199.382 26.88 200.209 26.4C201.036 25.8933 201.622 25.16 201.969 24.2V22H197.689C195.129 22 193.849 22.84 193.849 24.52C193.849 25.32 194.156 25.96 194.769 26.44C195.409 26.8933 196.276 27.12 197.369 27.12ZM200.249 0.959998H206.969L199.729 6.72H194.849L200.249 0.959998ZM226.937 9.16C229.603 9.16 231.75 9.96 233.377 11.56C235.03 13.16 235.857 15.5333 235.857 18.68V31H229.617V19.64C229.617 17.9333 229.243 16.6667 228.497 15.84C227.75 14.9867 226.67 14.56 225.257 14.56C223.683 14.56 222.43 15.0533 221.497 16.04C220.563 17 220.097 18.44 220.097 20.36V31H213.857V9.48H219.817V12C220.643 11.0933 221.67 10.4 222.897 9.92C224.123 9.41333 225.47 9.16 226.937 9.16Z" fill="white"/>
</svg>
