<svg width="33" height="32" viewBox="0 0 33 32" fill="none" xmlns="http://www.w3.org/2000/svg">
<g clip-path="url(#clip0_1929_13688)">
<path d="M12.0623 12.9825C7.99347 12.9825 4.68335 16.2927 4.68335 20.3615C4.68335 24.4302 7.99354 27.7405 12.0623 27.7405C16.1311 27.7405 19.4412 24.4302 19.4412 20.3615C19.4412 16.2927 16.1311 12.9825 12.0623 12.9825ZM12.0623 26.4906C8.68278 26.4906 5.93334 23.7412 5.93334 20.3615C5.93334 16.982 8.68278 14.2326 12.0623 14.2326C15.4419 14.2326 18.1913 16.982 18.1913 20.3615C18.1913 23.741 15.4419 26.4906 12.0623 26.4906Z" fill="#1D9752"/>
<path d="M12.9614 19.8477C12.8811 19.8193 12.8044 19.7919 12.7309 19.7655V18.0735C12.8983 18.1375 13.0155 18.2286 13.077 18.3161C13.2751 18.5988 13.665 18.6671 13.9476 18.4689C14.2301 18.2706 14.2985 17.8807 14.1002 17.5982C13.8327 17.2169 13.3541 16.8967 12.7309 16.7828V16.7136C12.7309 16.3685 12.451 16.0886 12.106 16.0886C11.7608 16.0886 11.4809 16.3685 11.4809 16.7136V16.8284C11.4088 16.8454 11.3358 16.8649 11.2619 16.8872C10.5295 17.1078 9.97674 17.8184 9.91762 18.6153C9.85906 19.4041 10.2782 20.0891 11.0386 20.4477C11.1376 20.4944 11.2892 20.5577 11.4809 20.633V22.6861C11.2314 22.6008 11.0065 22.4687 10.8559 22.2818C10.6394 22.0129 10.2459 21.9705 9.97713 22.1871C9.70825 22.4036 9.66594 22.797 9.88237 23.0658C10.2927 23.5753 10.8922 23.8541 11.4809 23.978V24.0093C11.4809 24.3543 11.7608 24.6342 12.1059 24.6342C12.4459 24.6342 12.7226 24.3625 12.7307 24.0243C13.768 23.8705 14.5002 23.2023 14.6168 22.2843C14.7493 21.2411 14.0686 20.2391 12.9614 19.8477ZM11.1642 18.7078C11.1808 18.4829 11.3086 18.2673 11.4809 18.152V19.2691C11.253 19.1341 11.1466 18.9456 11.1642 18.7078ZM13.3768 22.1268C13.3378 22.4342 13.107 22.6536 12.7308 22.7517V21.105C13.2304 21.3551 13.4191 21.7937 13.3768 22.1268Z" fill="#1D9752"/>
<path d="M31.875 20.3186H23.6231C23.5829 18.5216 22.7602 16.0503 21.3518 13.5067C20.1605 11.3548 18.691 9.4025 17.2136 7.9875C17.3905 7.87712 17.5082 7.68075 17.5082 7.45687V4.04425C17.5082 3.69913 17.2284 3.41925 16.8833 3.41925H16.0259C16.054 3.3825 16.0815 3.3465 16.1081 3.31187C16.7449 2.48057 17.4666 1.53831 17.6791 0.797187C17.7331 0.6085 17.6954 0.4055 17.5773 0.248875C17.4593 0.0921875 17.2744 0 17.0782 0H7.04643C6.85019 0 6.66538 0.0921875 6.54732 0.248813C6.42925 0.4055 6.39163 0.608562 6.44562 0.797125C6.65799 1.53819 7.37969 2.48044 8.01644 3.31163C8.043 3.34631 8.07062 3.38238 8.09875 3.41919H7.24144C6.89631 3.41919 6.61644 3.69906 6.61644 4.04419V7.45681C6.61644 7.683 6.73663 7.88112 6.91663 7.99088C5.43932 9.40813 3.96881 11.3639 2.77506 13.5199C1.32925 16.1311 0.5 18.659 0.5 20.4554C0.5 23.7088 1.65606 26.6547 3.75532 28.7505C5.85419 30.846 8.80437 32 12.0623 32C15.6698 32 18.8021 30.6255 20.9094 28.1724V31.375C20.9094 31.7201 21.1893 32 21.5345 32H31.875C32.2201 32 32.5 31.7201 32.5 31.375V20.9436C32.5 20.5984 32.2201 20.3186 31.875 20.3186ZM22.1594 25.0457H31.25V27.2729H22.1594V25.0457ZM31.25 23.7957H22.1594V21.5685H31.25V23.7957ZM9.00881 2.55156C8.70813 2.15906 8.34232 1.68144 8.0615 1.25001H16.0632C15.7823 1.6815 15.4165 2.15919 15.1158 2.55175C14.83 2.92481 14.6216 3.19919 14.4767 3.41925H9.64787C9.503 3.19919 9.29456 2.92475 9.00881 2.55156ZM7.86643 4.66925H16.2583V6.83187H7.86643V4.66925ZM12.0623 30.75C5.99062 30.75 1.75001 26.5168 1.75001 20.4554C1.75001 18.8876 2.54199 16.5213 3.86857 14.1254C5.23082 11.6653 6.95707 9.49318 8.60457 8.16612C8.63657 8.14037 8.66525 8.11206 8.69082 8.08181H12.8998L11.9908 9.62369C11.8154 9.92107 11.9144 10.3042 12.2117 10.4795C12.5092 10.6549 12.8923 10.5558 13.0675 10.2586L13.7905 9.03231L15.3427 12.4621C15.4471 12.6929 15.6744 12.8295 15.9124 12.8295C15.9986 12.8295 16.0861 12.8116 16.1697 12.7738C16.4841 12.6315 16.6237 12.2611 16.4813 11.9467L14.7322 8.08181H15.441C15.4664 8.11163 15.4948 8.1395 15.5265 8.16494C17.1745 9.48975 18.8991 11.6574 20.2582 14.112C21.5654 16.4731 22.3307 18.7232 22.3727 20.3185H21.5343C21.1892 20.3185 20.9093 20.5984 20.9093 20.9435V26.0404C19.1175 29.0339 15.8948 30.75 12.0623 30.75ZM31.25 30.75H22.1594V28.5228H31.25V30.75Z" fill="#1D9752"/>
</g>
<defs>
<clipPath id="clip0_1929_13688">
<rect width="32" height="32" fill="white" transform="translate(0.5)"/>
</clipPath>
</defs>
</svg>
