<svg width="29" height="32" viewBox="0 0 29 32" fill="none" xmlns="http://www.w3.org/2000/svg">
<path d="M27.0934 4.52199H20.235V3.72625C20.235 1.67156 18.5634 0 16.5087 0H3.79821C1.74353 0 0.0718994 1.67156 0.0718994 3.72625V28.2737C0.0718994 30.3284 1.74353 32 3.79815 32H16.5087C18.5634 32 20.2349 30.3284 20.2349 28.2737V23.4329H27.0933C28.105 23.4329 28.928 22.6097 28.928 21.5981V6.35668C28.9282 5.34507 28.105 4.52199 27.0934 4.52199ZM27.6782 6.35668V16.1077H10.674V15.4816C12.5205 15.1823 13.9349 13.5766 13.9349 11.6469C13.9349 9.7175 12.521 8.11213 10.674 7.81244V5.772H27.0934C27.4159 5.772 27.6782 6.03432 27.6782 6.35668ZM27.6782 19.581H10.674V17.3577H27.6782V19.581ZM10.674 9.08682C11.8266 9.36769 12.6849 10.409 12.6849 11.6469C12.6849 12.8849 11.8266 13.9262 10.674 14.207V9.08682ZM16.5087 30.75H3.79821C2.43277 30.75 1.32197 29.6391 1.32197 28.2737V26.871H18.9849V28.2737C18.9849 29.6391 17.8741 30.75 16.5087 30.75ZM18.9849 25.621H1.3219V3.72625C1.3219 2.36081 2.43277 1.25001 3.79821 1.25001H16.5087C17.8741 1.25001 18.9849 2.36081 18.9849 3.72625V4.52194H10.0489C9.70376 4.52194 9.42397 4.80181 9.42397 5.14693V22.8078C9.42397 23.1529 9.70376 23.4327 10.0489 23.4327H18.9849V25.621ZM27.0934 22.1828H10.674V20.831H27.6782V21.5981C27.6782 21.9205 27.4159 22.1828 27.0934 22.1828Z" fill="#1D9752"/>
</svg>
