<svg width="6" height="12" viewBox="0 0 6 12" fill="none" xmlns="http://www.w3.org/2000/svg">
<path d="M5.52886 5.64542L0.477912 0.69078C0.464714 0.67773 0.448852 0.66962 0.432149 0.667381C0.415446 0.665143 0.398579 0.668866 0.383485 0.678124C0.368392 0.687382 0.355683 0.701798 0.346819 0.719719C0.337955 0.737639 0.333295 0.758335 0.333375 0.779431V1.86717C0.333375 1.93612 0.359145 2.00226 0.401722 2.04447L4.43531 6.00002L0.401722 9.95557C0.358025 9.99778 0.333375 10.0639 0.333375 10.1329V11.2206C0.333375 11.3149 0.419649 11.367 0.477912 11.3093L5.52886 6.35463C5.57179 6.31257 5.60652 6.25877 5.63041 6.19733C5.65429 6.13588 5.66671 6.0684 5.66671 6.00002C5.66671 5.93164 5.65429 5.86416 5.63041 5.80272C5.60652 5.74127 5.57179 5.68747 5.52886 5.64542Z" fill="#B8B8B8"/>
</svg>
