<svg width="33" height="32" viewBox="0 0 33 32" fill="none" xmlns="http://www.w3.org/2000/svg">
<g clip-path="url(#clip0_1929_13695)">
<path d="M26.7162 19.822L23.3042 21.9469C22.719 20.1595 21.0551 18.9022 19.1374 18.8766L15.6686 18.8061C13.7053 17.6538 11.1829 18.1022 9.73237 19.8868C9.35862 20.3467 9.05194 20.7809 8.81713 21.1826H7.92725V20.712C7.92725 20.3668 7.64737 20.087 7.30225 20.087H1.125C0.779875 20.087 0.5 20.3668 0.5 20.712V28.0946C0.5 28.4398 0.779875 28.7196 1.125 28.7196H7.30225C7.64737 28.7196 7.92725 28.4398 7.92725 28.0946V27.2946L16.5078 29.1786C17.0906 29.3092 17.6826 29.3734 18.2718 29.3734C19.7588 29.3733 21.2261 28.9642 22.4685 28.1802C22.5166 28.1498 27.8011 24.5674 32.2257 21.5675C32.3754 21.4659 32.4739 21.3045 32.4954 21.1249C32.5172 20.9453 32.4599 20.7652 32.3385 20.631C30.9048 19.0457 28.5419 18.7044 26.7162 19.822ZM6.67725 27.4696H1.75001V21.3371H6.67725V27.4696ZM21.7956 27.1268C20.3391 28.0436 18.5118 28.3469 16.7785 27.9583L7.92725 26.0149V22.4327H9.18787C9.42394 22.4327 9.63987 22.2997 9.74612 22.0888C9.95431 21.6754 10.2761 21.1999 10.7024 20.6753C11.79 19.3371 13.702 19.027 15.1496 19.9539C15.2467 20.0161 15.3589 20.0501 15.474 20.0525L19.1164 20.1266C20.4909 20.1449 21.6826 21.0404 22.1096 22.3162H14.5502C14.2051 22.3162 13.9252 22.5961 13.9252 22.9412C13.9252 23.2864 14.2051 23.5662 14.5502 23.5662H22.89C23.0068 23.5662 23.1212 23.5335 23.2204 23.4717L27.3729 20.8856C28.4687 20.2148 29.8374 20.2775 30.8587 20.9842C27.4698 23.2819 22.0101 26.983 21.7956 27.1268Z" fill="#1D9752"/>
<path d="M4.76258 24.515C4.41745 24.515 4.13757 24.7948 4.13757 25.1401V25.5992C4.13757 25.9445 4.41745 26.2242 4.76258 26.2242C5.1077 26.2242 5.38757 25.9445 5.38757 25.5992V25.1401C5.38757 24.7948 5.10776 24.515 4.76258 24.515Z" fill="#1D9752"/>
<path d="M30.7947 2.62659H13.3226C12.3822 2.62659 11.6171 3.39165 11.6171 4.33203V15.3081C11.6171 16.2485 12.3822 17.0136 13.3226 17.0136H30.7947C31.735 17.0136 32.5002 16.2485 32.5002 15.3081V4.33203C32.5002 3.39165 31.735 2.62659 30.7947 2.62659ZM31.2501 15.3081C31.2501 15.5592 31.0458 15.7635 30.7947 15.7635H13.3226C13.0714 15.7635 12.8671 15.5592 12.8671 15.3081V4.33203C12.8671 4.0809 13.0715 3.87659 13.3226 3.87659H30.7947C31.0459 3.87659 31.2501 4.0809 31.2501 4.33203V15.3081Z" fill="#1D9752"/>
<path d="M29.1249 7.16583C28.5361 7.16583 28.0572 6.68683 28.0572 6.09802C28.0572 6.07771 28.0577 6.05752 28.0588 6.03752C28.0687 5.86583 28.0074 5.69765 27.8893 5.57265C27.7712 5.44758 27.6068 5.37671 27.4348 5.37671H16.682C16.5103 5.37671 16.346 5.4474 16.2279 5.57214C16.11 5.69695 16.0485 5.86484 16.058 6.03634C16.0591 6.05677 16.0597 6.07733 16.0597 6.09802C16.0597 6.68683 15.5807 7.16583 14.9919 7.16583C14.6467 7.16583 14.3668 7.44565 14.3668 7.79083V11.9458C14.3668 12.2911 14.6467 12.5709 14.9919 12.5709C15.5807 12.5709 16.0597 13.0498 16.0597 13.6387C16.0597 13.9839 16.3395 14.2637 16.6847 14.2637H27.4321C27.7772 14.2637 28.0571 13.9839 28.0571 13.6387C28.0571 13.0498 28.5361 12.5709 29.1249 12.5709C29.47 12.5709 29.7499 12.2911 29.7499 11.9458V7.79083C29.75 7.44565 29.4701 7.16583 29.1249 7.16583ZM28.4999 11.4064C27.7234 11.6241 27.1104 12.2371 26.8927 13.0136H17.2242C17.0065 12.237 16.3935 11.6241 15.617 11.4064V8.3302C16.4253 8.10358 17.0564 7.44858 17.249 6.62664H26.8678C27.0604 7.44852 27.6915 8.10358 28.4998 8.3302V11.4064H28.4999Z" fill="#1D9752"/>
<path d="M22.0585 7.85461C20.9747 7.85461 20.093 8.7363 20.093 9.82005C20.093 10.9038 20.9747 11.7855 22.0585 11.7855C23.1422 11.7855 24.0239 10.9038 24.0239 9.82005C24.0239 8.7363 23.1421 7.85461 22.0585 7.85461ZM22.0585 10.5355C21.6639 10.5355 21.343 10.2146 21.343 9.82005C21.343 9.42555 21.664 9.10461 22.0585 9.10461C22.453 9.10461 22.7739 9.42555 22.7739 9.82005C22.7739 10.2146 22.4529 10.5355 22.0585 10.5355Z" fill="#1D9752"/>
</g>
<defs>
<clipPath id="clip0_1929_13695">
<rect width="32" height="32" fill="white" transform="translate(0.5)"/>
</clipPath>
</defs>
</svg>
