<svg width="29" height="32" viewBox="0 0 29 32" fill="none" xmlns="http://www.w3.org/2000/svg">
<path d="M28.6694 11.1328L24.4941 4.60068C24.3794 4.421 24.1809 4.31231 23.9675 4.31231C23.7543 4.31231 23.5558 4.421 23.4409 4.60068L19.2657 11.1328C19.1427 11.3251 19.1345 11.5693 19.2441 11.7696C19.3538 11.9698 19.564 12.0943 19.7923 12.0943H21.4509V14.6427C20.3829 13.373 18.974 12.3989 17.3668 11.8628V8.99106H19.4481C19.6763 8.99106 19.8866 8.86656 19.9962 8.66632C20.106 8.46599 20.0977 8.22188 19.9747 8.0295L15.0266 0.288375C14.9117 0.108688 14.7132 0 14.5 0C14.2868 0 14.0883 0.108688 13.9734 0.288375L9.02533 8.02944C8.90232 8.22181 8.89408 8.46594 9.00376 8.66625C9.11345 8.8665 9.32359 8.991 9.55196 8.991H11.6332V11.8627C10.026 12.3988 8.61714 13.3729 7.54907 14.6426V12.0944H9.20775C9.43602 12.0944 9.64615 11.9699 9.75591 11.7696C9.86556 11.5693 9.85735 11.3252 9.73436 11.1328L5.55908 4.60068C5.44426 4.421 5.2457 4.31231 5.03245 4.31231C4.81919 4.31231 4.6207 4.421 4.50583 4.60068L0.330576 11.1328C0.207579 11.3251 0.199323 11.5693 0.309008 11.7696C0.418704 11.9698 0.628891 12.0943 0.8572 12.0943H2.51582V31.375C2.51582 31.7201 2.79563 32 3.14083 32H6.92407C7.26926 32 7.54907 31.7201 7.54907 31.375V26.3181C8.61714 27.5878 10.026 28.5619 11.6332 29.0979V31.375C11.6332 31.7201 11.913 32 12.2583 32H16.7417C17.0869 32 17.3668 31.7201 17.3668 31.375V29.0979C18.974 28.5619 20.3829 27.5878 21.4509 26.3181V31.375C21.4509 31.7201 21.7307 32 22.0759 32H25.8592C26.2043 32 26.4842 31.7201 26.4842 31.375V12.0944H28.1428C28.3712 12.0944 28.5813 11.9699 28.6911 11.7696C28.8007 11.5693 28.7925 11.3251 28.6694 11.1328ZM12.2583 7.74107H10.6932L14.5 1.78544L18.3068 7.74107H16.7417C16.3965 7.74107 16.1168 8.02094 16.1168 8.36606V11.5435C15.592 11.4487 15.0516 11.3993 14.5 11.3993C13.9483 11.3993 13.4081 11.4487 12.8833 11.5435V8.36606C12.8833 8.02094 12.6035 7.74107 12.2583 7.74107ZM6.29908 30.75H3.76583V11.4693C3.76583 11.1243 3.48601 10.8444 3.14083 10.8444H1.99845L5.03245 6.09781L8.06638 10.8444H6.92407C6.57888 10.8444 6.29908 11.1243 6.29908 11.4693V16.5817C5.73489 17.7636 5.41888 19.0859 5.41888 20.4804C5.41888 21.875 5.73489 23.1972 6.29908 24.3791V30.75ZM16.1168 30.75H12.8833V29.4174C13.4081 29.5121 13.9483 29.5616 14.5 29.5616C15.0516 29.5616 15.592 29.5121 16.1168 29.4174V30.75ZM14.5 28.3115C10.1819 28.3115 6.66889 24.7985 6.66889 20.4804C6.66889 16.1622 10.1819 12.6493 14.5 12.6493C18.8181 12.6493 22.3312 16.1623 22.3312 20.4804C22.3312 24.7986 18.8181 28.3115 14.5 28.3115ZM25.8592 10.8444C25.514 10.8444 25.2342 11.1243 25.2342 11.4693V30.75H22.701V24.3791C23.265 23.1971 23.5811 21.875 23.5811 20.4804C23.5811 19.0859 23.2651 17.7637 22.701 16.5818V11.4693C22.701 11.1243 22.4211 10.8444 22.0759 10.8444H20.9336L23.9675 6.09781L27.0015 10.8444H25.8592Z" fill="#1D9752"/>
<path d="M15.5732 19.9858C15.4339 19.9365 15.3027 19.8896 15.1796 19.845V17.4066C15.5378 17.4919 15.7845 17.6656 15.8993 17.8292C16.0975 18.1118 16.4874 18.1801 16.7699 17.9817C17.0525 17.7836 17.1207 17.3938 16.9226 17.1111C16.5905 16.638 15.9791 16.2457 15.1796 16.1335V15.9132C15.1796 15.568 14.8997 15.2881 14.5546 15.2881C14.2094 15.2881 13.9296 15.568 13.9296 15.9132V16.1833C13.8033 16.2094 13.6743 16.2418 13.5432 16.2814C12.6872 16.5392 12.0411 17.3717 11.9717 18.3059C11.9035 19.2259 12.3947 20.0259 13.2853 20.4458C13.4235 20.511 13.6455 20.6029 13.9295 20.7128V23.6003C13.5099 23.4919 13.1157 23.2927 12.8668 22.9836C12.6502 22.7148 12.2569 22.6723 11.9879 22.8888C11.7191 23.1054 11.6768 23.4989 11.8932 23.7677C12.411 24.4103 13.1844 24.745 13.9295 24.8794V25.0476C13.9295 25.3927 14.2093 25.6725 14.5546 25.6725C14.8997 25.6725 15.1795 25.3927 15.1795 25.0476V24.9281C16.7479 24.7583 17.4289 23.7587 17.542 22.868C17.6986 21.636 16.889 20.4509 15.5732 19.9858ZM13.8186 19.3154C13.2849 19.0638 13.1977 18.6778 13.2183 18.3985C13.2498 17.9754 13.538 17.5885 13.9038 17.4783C13.9124 17.4757 13.921 17.4732 13.9296 17.4707V19.365C13.8843 19.3455 13.8474 19.3289 13.8186 19.3154ZM16.302 22.7106C16.2375 23.2183 15.8322 23.5604 15.1796 23.6672V21.1725C16.0447 21.4884 16.3683 22.189 16.302 22.7106Z" fill="#1D9752"/>
</svg>
