<svg width="16" height="16" viewBox="0 0 16 16" fill="none" xmlns="http://www.w3.org/2000/svg">
<path fill-rule="evenodd" clip-rule="evenodd" d="M7.33337 2.66634C4.75605 2.66634 2.66671 4.75568 2.66671 7.33301C2.66671 9.91034 4.75605 11.9997 7.33337 11.9997C9.9107 11.9997 12 9.91034 12 7.33301C12 4.75568 9.9107 2.66634 7.33337 2.66634ZM1.33337 7.33301C1.33337 4.0193 4.01967 1.33301 7.33337 1.33301C10.6471 1.33301 13.3334 4.0193 13.3334 7.33301C13.3334 10.6467 10.6471 13.333 7.33337 13.333C4.01967 13.333 1.33337 10.6467 1.33337 7.33301Z" fill="#676767"/>
<path fill-rule="evenodd" clip-rule="evenodd" d="M10.6286 10.6289C10.889 10.3685 11.3111 10.3685 11.5714 10.6289L14.4714 13.5289C14.7318 13.7892 14.7318 14.2113 14.4714 14.4717C14.2111 14.732 13.789 14.732 13.5286 14.4717L10.6286 11.5717C10.3683 11.3113 10.3683 10.8892 10.6286 10.6289Z" fill="#676767"/>
</svg>
