<svg width="11" height="20" viewBox="0 0 11 20" fill="none" xmlns="http://www.w3.org/2000/svg">
<path fill-rule="evenodd" clip-rule="evenodd" d="M3.96447 2.29796C4.90215 1.36028 6.17392 0.833496 7.5 0.833496H10C10.4602 0.833496 10.8333 1.20659 10.8333 1.66683V5.00016C10.8333 5.4604 10.4602 5.8335 10 5.8335H7.5V7.50016H10C10.2566 7.50016 10.4989 7.61839 10.6568 7.82065C10.8148 8.02292 10.8707 8.28666 10.8085 8.53561L9.97512 11.8689C9.88238 12.2399 9.54906 12.5002 9.16667 12.5002H7.5V18.3335C7.5 18.7937 7.1269 19.1668 6.66667 19.1668H3.33333C2.8731 19.1668 2.5 18.7937 2.5 18.3335V12.5002H0.833333C0.373096 12.5002 0 12.1271 0 11.6668V8.3335C0 7.87326 0.373096 7.50016 0.833333 7.50016H2.5V5.8335C2.5 4.50741 3.02678 3.23564 3.96447 2.29796ZM7.5 2.50016C6.61595 2.50016 5.7681 2.85135 5.14298 3.47647C4.51786 4.10159 4.16667 4.94944 4.16667 5.8335V8.3335C4.16667 8.79373 3.79357 9.16683 3.33333 9.16683H1.66667V10.8335H3.33333C3.79357 10.8335 4.16667 11.2066 4.16667 11.6668V17.5002H5.83333V11.6668C5.83333 11.2066 6.20643 10.8335 6.66667 10.8335H8.51602L8.93269 9.16683H6.66667C6.20643 9.16683 5.83333 8.79373 5.83333 8.3335V5.8335C5.83333 5.39147 6.00893 4.96755 6.32149 4.65498C6.63405 4.34242 7.05797 4.16683 7.5 4.16683H9.16667V2.50016H7.5Z" fill="#165CC6"/>
</svg>
