<svg width="20" height="21" viewBox="0 0 20 21" fill="none" xmlns="http://www.w3.org/2000/svg">
<path fill-rule="evenodd" clip-rule="evenodd" d="M10 3.98169C6.20304 3.98169 3.125 7.05973 3.125 10.8567C3.125 14.6536 6.20304 17.7317 10 17.7317C13.797 17.7317 16.875 14.6536 16.875 10.8567C16.875 7.05973 13.797 3.98169 10 3.98169ZM1.875 10.8567C1.875 6.36938 5.51269 2.73169 10 2.73169C14.4873 2.73169 18.125 6.36938 18.125 10.8567C18.125 15.344 14.4873 18.9817 10 18.9817C5.51269 18.9817 1.875 15.344 1.875 10.8567Z" fill="#CC8400"/>
<path fill-rule="evenodd" clip-rule="evenodd" d="M10 6.48169C10.3452 6.48169 10.625 6.76151 10.625 7.10669V11.4817C10.625 11.8269 10.3452 12.1067 10 12.1067C9.65482 12.1067 9.375 11.8269 9.375 11.4817V7.10669C9.375 6.76151 9.65482 6.48169 10 6.48169Z" fill="#CC8400"/>
<path d="M10 15.2317C10.5178 15.2317 10.9375 14.812 10.9375 14.2942C10.9375 13.7764 10.5178 13.3567 10 13.3567C9.48223 13.3567 9.0625 13.7764 9.0625 14.2942C9.0625 14.812 9.48223 15.2317 10 15.2317Z" fill="#CC8400"/>
</svg>
