<svg width="250" height="76" viewBox="0 0 250 76" fill="none" xmlns="http://www.w3.org/2000/svg">
<g filter="url(#filter0_d_1670_18649)">
<rect x="8" y="2" width="234" height="60" rx="30" fill="url(#paint0_linear_1670_18649)" shape-rendering="crispEdges"/>
<path d="M59.208 24.552H51.144V19.8H73.104V24.552H65.04V45H59.208V24.552ZM75.424 25.632H81.04V45H75.424V25.632ZM78.232 22.932C77.2 22.932 76.36 22.632 75.712 22.032C75.064 21.432 74.74 20.688 74.74 19.8C74.74 18.912 75.064 18.168 75.712 17.568C76.36 16.968 77.2 16.668 78.232 16.668C79.264 16.668 80.104 16.956 80.752 17.532C81.4 18.108 81.724 18.828 81.724 19.692C81.724 20.628 81.4 21.408 80.752 22.032C80.104 22.632 79.264 22.932 78.232 22.932ZM105.224 35.388C105.224 35.46 105.188 35.964 105.116 36.9H90.4642C90.7282 38.1 91.3522 39.048 92.3362 39.744C93.3202 40.44 94.5442 40.788 96.0082 40.788C97.0162 40.788 97.9042 40.644 98.6722 40.356C99.4642 40.044 100.196 39.564 100.868 38.916L103.856 42.156C102.032 44.244 99.3682 45.288 95.8642 45.288C93.6802 45.288 91.7482 44.868 90.0682 44.028C88.3882 43.164 87.0922 41.976 86.1802 40.464C85.2682 38.952 84.8122 37.236 84.8122 35.316C84.8122 33.42 85.2562 31.716 86.1442 30.204C87.0562 28.668 88.2922 27.48 89.8522 26.64C91.4362 25.776 93.2002 25.344 95.1442 25.344C97.0402 25.344 98.7562 25.752 100.292 26.568C101.828 27.384 103.028 28.56 103.892 30.096C104.78 31.608 105.224 33.372 105.224 35.388ZM95.1802 29.592C93.9082 29.592 92.8402 29.952 91.9762 30.672C91.1122 31.392 90.5842 32.376 90.3922 33.624H99.9322C99.7402 32.4 99.2122 31.428 98.3482 30.708C97.4842 29.964 96.4282 29.592 95.1802 29.592ZM95.0362 52.56C94.3162 52.56 93.7162 52.332 93.2362 51.876C92.7802 51.444 92.5522 50.868 92.5522 50.148C92.5522 49.428 92.7802 48.828 93.2362 48.348C93.7162 47.868 94.3162 47.628 95.0362 47.628C95.7322 47.628 96.3202 47.868 96.8002 48.348C97.2802 48.828 97.5202 49.428 97.5202 50.148C97.5202 50.868 97.2802 51.444 96.8002 51.876C96.3442 52.332 95.7562 52.56 95.0362 52.56ZM98.1682 23.148L95.0362 20.412L91.9042 23.148H87.8002L92.5522 17.964H97.5202L102.272 23.148H98.1682ZM120.735 25.344C123.135 25.344 125.067 26.064 126.531 27.504C128.019 28.944 128.763 31.08 128.763 33.912V45H123.147V34.776C123.147 33.24 122.811 32.1 122.139 31.356C121.467 30.588 120.495 30.204 119.223 30.204C117.807 30.204 116.679 30.648 115.839 31.536C114.999 32.4 114.579 33.696 114.579 35.424V45H108.963V25.632H114.327V27.9C115.071 27.084 115.995 26.46 117.099 26.028C118.203 25.572 119.415 25.344 120.735 25.344ZM144.049 25.632H149.665V45H144.049V25.632ZM148.441 17.964H154.489L147.973 23.148H143.581L148.441 17.964ZM164.237 45.288C162.173 45.288 160.313 44.868 158.657 44.028C157.025 43.164 155.741 41.976 154.805 40.464C153.893 38.952 153.437 37.236 153.437 35.316C153.437 33.396 153.893 31.68 154.805 30.168C155.741 28.656 157.025 27.48 158.657 26.64C160.313 25.776 162.173 25.344 164.237 25.344C166.277 25.344 168.053 25.776 169.565 26.64C171.101 27.48 172.217 28.692 172.913 30.276L168.557 32.616C167.549 30.84 166.097 29.952 164.201 29.952C162.737 29.952 161.525 30.432 160.565 31.392C159.605 32.352 159.125 33.66 159.125 35.316C159.125 36.972 159.605 38.28 160.565 39.24C161.525 40.2 162.737 40.68 164.201 40.68C166.121 40.68 167.573 39.792 168.557 38.016L172.913 40.392C172.217 41.928 171.101 43.128 169.565 43.992C168.053 44.856 166.277 45.288 164.237 45.288ZM187.778 25.344C190.178 25.344 192.11 26.064 193.574 27.504C195.062 28.944 195.806 31.08 195.806 33.912V45H190.19V34.776C190.19 33.24 189.854 32.1 189.182 31.356C188.51 30.588 187.538 30.204 186.266 30.204C184.85 30.204 183.722 30.648 182.882 31.536C182.042 32.4 181.622 33.696 181.622 35.424V45H176.006V18.288H181.622V27.648C182.366 26.904 183.266 26.34 184.322 25.956C185.378 25.548 186.53 25.344 187.778 25.344Z" fill="white"/>
</g>
<defs>
<filter id="filter0_d_1670_18649" x="0" y="0" width="250" height="76" filterUnits="userSpaceOnUse" color-interpolation-filters="sRGB">
<feFlood flood-opacity="0" result="BackgroundImageFix"/>
<feColorMatrix in="SourceAlpha" type="matrix" values="0 0 0 0 0 0 0 0 0 0 0 0 0 0 0 0 0 0 127 0" result="hardAlpha"/>
<feOffset dy="6"/>
<feGaussianBlur stdDeviation="4"/>
<feComposite in2="hardAlpha" operator="out"/>
<feColorMatrix type="matrix" values="0 0 0 0 0 0 0 0 0 0 0 0 0 0 0 0 0 0 0.25 0"/>
<feBlend mode="normal" in2="BackgroundImageFix" result="effect1_dropShadow_1670_18649"/>
<feBlend mode="normal" in="SourceGraphic" in2="effect1_dropShadow_1670_18649" result="shape"/>
</filter>
<linearGradient id="paint0_linear_1670_18649" x1="125" y1="2" x2="125" y2="62" gradientUnits="userSpaceOnUse">
<stop stop-color="#33AB48"/>
<stop offset="1" stop-color="#006837"/>
</linearGradient>
</defs>
</svg>
