<svg width="40" height="40" viewBox="0 0 40 40" fill="none" xmlns="http://www.w3.org/2000/svg">
<rect opacity="0.2" width="40" height="40" rx="10" fill="#E99B9B"/>
<path d="M13.6111 21.6026C13.7592 21.325 13.9074 21.0474 14.0555 20.7656C14.1529 20.7824 14.2714 20.7614 14.3264 20.8792C14.4407 21.1189 14.6523 21.2788 14.8386 21.4512C14.974 21.5774 15.1433 21.6699 15.2957 21.7793C15.228 21.9644 15.1349 22.1326 15.0333 22.2966C14.9359 22.3093 14.8978 22.3934 14.8386 22.4523C14.7031 22.5869 14.555 22.6584 14.3603 22.5953C14.1656 22.4817 14.0174 22.3177 13.8777 22.1452C13.865 22.1326 13.8566 22.1158 13.8439 22.1032C13.7762 21.9307 13.6449 21.7877 13.6111 21.6026Z" fill="#6B0102"/>
<path d="M25.1073 20.584C24.9337 20.5882 24.756 20.5924 24.5824 20.5966C24.5147 20.5924 24.4512 20.5755 24.3877 20.5503C24.1041 20.4367 23.8332 20.2979 23.592 20.1045L23.5877 20.1087C23.592 20.0246 23.5115 19.9867 23.4861 19.9194C23.4227 19.7554 23.3719 19.5913 23.4015 19.4105C23.4734 19.2633 23.5962 19.1623 23.702 19.0445C23.8713 18.9941 24.0406 19.0025 24.2142 19.0025C24.7856 19.0067 25.357 19.0067 25.9284 19.0109C25.9242 19.0193 25.9242 19.0277 25.9242 19.0403C25.8734 19.0403 25.8269 19.0403 25.7761 19.0403C25.666 19.0403 25.5517 19.0403 25.4417 19.0403C25.2935 19.0403 25.1454 19.0403 24.9972 19.0403C24.8449 19.0403 24.6925 19.0403 24.4893 19.0403C24.6121 19.1497 24.5867 19.2548 24.5867 19.3558C24.5867 19.6292 24.5867 19.9068 24.5867 20.1802C24.5867 20.4452 24.6586 20.5167 24.9211 20.5167C24.9845 20.5251 25.0523 20.4914 25.1073 20.5503C25.1073 20.5671 25.1073 20.5755 25.1073 20.584Z" fill="#6B0102"/>
<path d="M13.611 21.6026C13.6449 21.7877 13.7719 21.9307 13.8396 22.1032C13.8523 22.1158 13.8608 22.1326 13.8735 22.1452C13.8481 22.1705 13.8227 22.1957 13.7973 22.2209C13.7296 22.1915 13.7169 22.1242 13.683 22.0737C13.6364 21.9349 13.5433 21.8214 13.4629 21.7036C13.4629 21.6573 13.4375 21.6321 13.3909 21.6279C13.3909 21.6153 13.3909 21.6026 13.3909 21.59C13.3952 21.426 13.2343 21.3335 13.2047 21.182C13.1708 21.0895 13.1327 21.0012 13.1031 20.9044C13.0735 20.8035 13.0396 20.8245 12.9804 20.8834C12.9084 20.9549 12.8364 21.0517 12.756 21.0895C12.4682 21.2199 12.32 21.5017 12.0661 21.6742C12.028 21.6489 12.0618 21.548 11.9433 21.5396C11.9264 21.5354 11.9391 21.548 11.956 21.548C11.9941 21.5522 11.9603 21.5269 11.9645 21.5185C11.9518 21.5101 11.9391 21.5017 11.9264 21.4933C11.9222 21.5017 11.9179 21.5101 11.9433 21.5354C11.9349 21.6742 12.1042 21.7877 12.0026 21.9181C11.8375 21.7414 11.7656 21.5143 11.6682 21.2998C11.7613 21.2073 11.7952 21.1232 11.6386 21.0643C11.6259 20.9886 11.6809 20.9633 11.7275 20.9171C11.9137 20.7236 12.1465 20.568 12.2608 20.3198C12.3158 20.202 12.3539 20.1936 12.4428 20.2525C12.4894 20.2819 12.5317 20.2988 12.574 20.2525C12.6121 20.2146 12.6121 20.1642 12.5909 20.1179C12.5105 19.9202 12.5105 19.9202 12.7179 19.916C12.7179 19.9497 12.7222 19.9749 12.756 19.9917C13.0015 20.4712 13.247 20.9507 13.4925 21.4302C13.5306 21.4975 13.5433 21.5732 13.611 21.6026Z" fill="#E71D25"/>
<path d="M23.592 20.1084C23.8333 20.2977 24.1042 20.4407 24.3878 20.5542C24.4513 20.5795 24.5148 20.5963 24.5825 20.6005C24.7941 20.7477 25.0481 20.794 25.2851 20.8907C25.6238 21.0295 25.9793 21.1305 26.3095 21.2945C26.2502 21.3366 26.1867 21.3408 26.1148 21.3366C25.9793 21.2398 25.8015 21.244 25.6661 21.1515C25.6492 21.1221 25.6238 21.1136 25.5899 21.1179C25.5645 21.1179 25.5391 21.1179 25.5179 21.1179C25.3529 21.0758 25.2047 20.9833 25.0354 20.9664C24.9931 20.9622 24.9719 20.937 24.9423 20.9118C24.8492 20.815 24.7899 20.7814 24.6756 20.9286C24.5148 21.1389 24.2947 21.3029 24.0957 21.4838C24.0322 21.5427 23.9815 21.6226 23.8968 21.6604C23.9899 21.7908 23.8714 21.8287 23.7571 21.8918C23.9137 21.9128 23.9899 22.018 24.1211 22.0474C24.083 22.0684 24.0576 22.0853 24.0322 22.0979C23.6428 21.9507 23.2365 21.8245 22.9021 21.5595C22.9698 21.5595 23.0375 21.5343 23.0968 21.5847C23.1434 21.6226 23.1857 21.5931 23.2026 21.5553C23.2957 21.3029 23.5285 21.1767 23.6894 20.9875C23.7783 20.8865 23.8672 20.7856 24.0195 20.7688C24.0873 20.7603 24.0873 20.7225 24.0576 20.651C24.0026 20.508 23.8841 20.4407 23.7656 20.3692C23.7275 20.2724 23.5243 20.2766 23.592 20.1084Z" fill="#E71D25"/>
<path d="M24.2523 22.6324C24.5909 22.6282 24.9338 22.624 25.2724 22.624C25.3528 22.6366 25.4332 22.6493 25.5136 22.6619C25.5221 22.6661 25.5348 22.6703 25.5475 22.6703C25.7888 22.8049 26.0427 22.9311 26.2544 23.1161C26.2628 23.1582 26.284 23.1876 26.3306 23.1918V23.196C26.4195 23.4021 26.5422 23.5914 26.4533 23.8396C26.3898 24.0162 26.2247 24.0667 26.1147 24.1845C26.0978 24.1887 26.0851 24.1887 26.0681 24.1929C26.0554 24.1845 26.047 24.1845 26.0343 24.1971C25.9877 24.2013 25.9369 24.2055 25.8904 24.2097C25.4671 24.2013 25.0438 24.1971 24.6205 24.1887C24.6205 24.1803 24.6205 24.1677 24.6205 24.1592C24.6459 24.1592 24.6713 24.1592 24.6967 24.1592C24.8449 24.1592 24.993 24.1592 25.1412 24.1592C25.2343 24.1508 25.3443 24.1971 25.4078 24.134C25.4628 24.0835 25.357 24.0078 25.3655 23.9321C25.3697 23.869 25.3697 23.8101 25.3655 23.747C25.3528 23.5662 25.4036 23.3769 25.302 23.2045C25.2766 23.1624 25.2893 23.1077 25.3316 23.0699C25.4671 22.9437 25.3994 22.8469 25.2893 22.7502C25.2766 22.6619 25.2046 22.6787 25.1496 22.6787C25.0099 22.6787 24.8703 22.6787 24.7306 22.6787C24.5951 22.6787 24.4597 22.6787 24.32 22.6787C24.2946 22.6787 24.2692 22.6787 24.248 22.6787C24.2523 22.6535 24.2523 22.6408 24.2523 22.6324Z" fill="#6B0102"/>
<path d="M21.7295 20.2183C21.7803 20.2603 21.8015 20.3108 21.7973 20.3739C21.7888 20.3823 21.7719 20.3949 21.7761 20.4034C21.8396 20.6179 21.7507 20.7356 21.5772 20.8828C21.2174 21.1857 20.9041 21.539 20.574 21.8713C20.4936 21.9512 20.4089 22.0227 20.3835 22.1405C20.3708 22.2078 20.3158 22.212 20.2565 22.2288C20.1253 22.2624 20.011 22.3466 19.9814 22.4727C19.956 22.5821 19.9094 22.5905 19.8206 22.5989C19.7444 22.6031 19.6385 22.54 19.6005 22.6704C19.4396 22.6704 19.2788 22.6704 19.1179 22.6704C19.1222 22.6242 19.1052 22.5442 19.1518 22.54C19.2703 22.5358 19.3126 22.4433 19.3888 22.3886C19.7401 22.1363 19.9899 21.7998 20.2396 21.4591C20.2608 21.4296 20.2819 21.4086 20.3116 21.417C20.4555 21.4591 20.5063 21.3539 20.5655 21.2656C20.7602 21.1562 20.9507 21.0385 21.0481 20.8198C21.175 20.8282 21.2047 20.7146 21.2597 20.6431C21.374 20.4875 21.5221 20.3529 21.5899 20.1426C21.6745 20.273 21.6745 20.273 21.7295 20.2183Z" fill="#AA0F14"/>
<path d="M23.7021 19.0488C23.5963 19.1666 23.4693 19.2675 23.4016 19.4148C23.3762 19.3853 23.355 19.3769 23.3296 19.4106C23.2323 19.5451 23.2915 19.8227 23.4354 19.9279C23.4354 19.9658 23.4354 19.9994 23.4354 20.0373C23.4312 20.1003 23.3804 20.1424 23.355 20.1971C23.3 20.3064 23.1476 20.3064 23.1137 20.4074C23.0418 20.6051 22.7413 20.6682 22.8471 20.971C22.737 20.8953 22.8047 20.8028 22.737 20.7607C22.5889 20.8238 22.555 20.9794 22.4661 21.0846C22.2883 20.8028 22.3137 20.4999 22.3942 20.2013C22.555 19.5872 23.0968 19.1077 23.7021 19.0488Z" fill="#C5161D"/>
<path d="M19.1223 22.6621C19.2831 22.6621 19.444 22.6621 19.6048 22.6621C19.863 22.6621 20.117 22.6621 20.3752 22.6621C20.4641 22.6621 20.5487 22.6579 20.6122 22.5906C20.7265 22.599 20.8154 22.4897 20.9339 22.5191C20.6461 22.7504 20.3032 22.8009 19.9519 22.8051C19.3847 22.8135 18.8175 22.8093 18.2503 22.8093C18.0472 22.8093 17.8397 22.822 17.6408 22.8009C17.3657 22.7715 17.0906 22.7336 16.8874 22.5149C16.9212 22.5065 16.972 22.4981 16.9339 22.4518C16.8789 22.3845 16.8789 22.2962 16.8535 22.2205C17.0059 22.2373 17.1244 22.2247 17.1456 22.027C17.154 21.9387 17.2429 21.8672 17.3234 21.8251C17.4757 21.7452 17.5773 21.619 17.645 21.4676C17.6916 21.3709 17.7636 21.3246 17.8778 21.333C18.0683 21.3414 18.2588 21.3372 18.4535 21.3372C18.4366 21.4382 18.3731 21.4844 18.2757 21.4844C18.2038 21.4802 18.1699 21.5055 18.1487 21.5812C18.1276 21.6737 18.0429 21.7284 17.9667 21.7788C17.8651 21.8504 17.772 21.9345 17.7085 22.0396C17.6535 22.1322 17.6239 22.2499 17.4757 22.2247C17.4503 22.2205 17.4376 22.2415 17.4334 22.271C17.3953 22.4813 17.3699 22.4939 17.1667 22.4476C17.1413 22.4434 17.1032 22.4434 17.099 22.4728C17.2302 22.6411 17.3995 22.6958 17.6027 22.6663C17.6493 22.6579 17.7001 22.6663 17.7509 22.6663C17.9498 22.6663 18.1487 22.6663 18.3477 22.6663C18.6016 22.6621 18.8598 22.6621 19.1223 22.6621Z" fill="#DD1B24"/>
<path d="M27.4608 22.2041C27.4946 22.2251 27.4946 22.2588 27.4946 22.2924C27.3888 22.4607 27.5327 22.6163 27.5285 22.7761C27.5031 23.3692 27.029 23.9286 26.4026 24.1094C26.3349 24.0421 26.4238 24.0295 26.4449 24.0001C26.6481 23.7645 26.6354 23.3608 26.4153 23.1799C26.4026 23.142 26.3857 23.1084 26.373 23.0705C26.3645 22.9822 26.3814 22.9191 26.4957 22.9149C26.5804 22.9149 26.6354 22.856 26.6862 22.7887C26.7708 22.6794 26.864 22.5658 26.9952 22.5027C27.1476 22.427 27.2745 22.3261 27.3423 22.1494C27.4058 22.2756 27.4058 22.2756 27.4608 22.2041Z" fill="#8A0607"/>
<path d="M20.6121 22.5902C20.5486 22.6575 20.464 22.6617 20.3751 22.6617C20.1169 22.6617 19.8629 22.6617 19.6047 22.6617C19.6428 22.5356 19.7487 22.5987 19.8248 22.5902C19.9137 22.5818 19.9603 22.5776 19.9857 22.4641C20.0111 22.3379 20.1254 22.2538 20.2608 22.2201C20.3201 22.2075 20.3709 22.1991 20.3878 22.1318C20.4132 22.014 20.4978 21.9425 20.5783 21.8626C20.9084 21.5303 21.2216 21.1728 21.5814 20.8742C21.755 20.727 21.8396 20.6092 21.7804 20.3947C21.7804 20.3863 21.7931 20.3779 21.8015 20.3652C21.8608 20.5587 21.8989 20.7522 21.8777 20.9583C21.8015 21.0929 21.8015 21.2401 21.81 21.3873V21.3999C21.5857 21.3915 21.5391 21.7322 21.2851 21.6649C21.2809 21.6649 21.2767 21.6733 21.2724 21.6775C21.2259 21.7785 21.0989 21.8542 21.1751 21.9972C21.2174 22.0729 21.1243 22.1234 21.1074 22.115C20.883 22.0098 20.9804 22.3926 20.7857 22.3253C20.8449 22.5145 20.6587 22.4514 20.591 22.5145C20.574 22.5314 20.519 22.5145 20.5232 22.5566C20.5275 22.6029 20.5783 22.586 20.6121 22.5902Z" fill="#9E0B0F"/>
<path d="M21.0566 20.8151C20.9592 21.0296 20.7688 21.1473 20.5741 21.2609C20.5614 21.2609 20.5487 21.2609 20.536 21.2609C20.5233 21.16 20.4429 21.1978 20.3836 21.1852C20.5233 21.1095 20.6757 21.0464 20.7899 20.9286C20.7942 20.916 20.7942 20.9034 20.7984 20.8908C20.8026 20.8782 20.8069 20.8697 20.8069 20.8571C20.9381 20.8193 20.9719 20.7015 21.0185 20.5963C21.0481 20.5795 21.0524 20.5543 21.0566 20.5248C21.1497 20.4407 21.1243 20.3314 21.1286 20.2262C21.209 20.079 21.1582 19.9991 20.9973 19.9654C20.7561 19.9192 20.5106 19.8855 20.2778 19.8224C19.7106 19.6626 19.1307 19.5574 18.5635 19.4018C18.3646 19.3471 18.1572 19.3429 17.954 19.2714C17.7381 19.1957 17.5011 19.1663 17.2725 19.12C17.2217 19.1116 17.1879 19.1368 17.1879 19.1915C17.1286 19.1873 17.0651 19.2083 17.0312 19.1368C17.1498 19.0485 17.2852 19.0107 17.4291 19.0107C18.3138 19.0065 19.1942 19.0107 20.0788 19.0107C20.1169 19.0107 20.155 19.0065 20.1804 19.0401C19.3889 19.0401 18.5974 19.0401 17.8101 19.0401C17.8101 19.0653 17.8101 19.0948 17.8101 19.12C17.9836 19.12 18.1614 19.1242 18.3349 19.12C18.4789 19.1158 18.6101 19.141 18.7455 19.1915C19.0037 19.2925 19.2746 19.3556 19.5413 19.4271C19.719 19.4733 19.9011 19.4859 20.0788 19.5322C20.3074 19.5911 20.519 19.7089 20.7603 19.7131C20.8238 19.8435 20.9423 19.7972 21.027 19.7678C21.1286 19.7341 21.1286 19.6458 21.0862 19.5574C21.0566 19.4944 21.0566 19.4271 21.0608 19.3598C21.0862 19.3892 21.1074 19.4229 21.1328 19.4523C21.1455 19.5196 21.1413 19.5911 21.1709 19.6458C21.3317 19.9528 21.2682 20.2557 21.1794 20.5669C21.1497 20.6552 21.0481 20.7099 21.0566 20.8151Z" fill="#D21920"/>
<path d="M11.2282 20.4243C11.097 20.2014 10.9573 19.9827 11.0123 19.7051C11.1689 19.7472 11.0208 19.9112 11.1393 19.9869C11.1986 19.7934 11.1562 19.621 11.0885 19.4443C11.279 19.0448 11.7023 18.9017 12.1298 19.0868C12.0874 19.1163 12.0747 19.1289 12.1298 19.1709C12.2567 19.2593 12.3837 19.3602 12.4176 19.5327C12.3583 19.5411 12.2906 19.4485 12.2737 19.5705C12.2652 19.6336 12.2102 19.6757 12.1552 19.7051C11.8589 19.8649 11.6557 20.1215 11.4525 20.3781C11.406 20.4412 11.3552 20.4832 11.3128 20.3739C11.3001 20.3486 11.3001 20.3024 11.262 20.3234C11.2366 20.3402 11.2366 20.3907 11.2282 20.4243Z" fill="#CE1820"/>
<path d="M11.2283 20.4244C11.2367 20.3908 11.2367 20.3403 11.2579 20.3235C11.296 20.3025 11.296 20.3487 11.3087 20.374C11.351 20.4833 11.4018 20.4371 11.4484 20.3782C11.6515 20.1216 11.8547 19.865 12.151 19.7052C12.206 19.6758 12.2611 19.6337 12.2695 19.5706C12.2865 19.4486 12.3542 19.537 12.4134 19.5328C12.3796 19.3603 12.2568 19.2594 12.1256 19.171C12.0664 19.129 12.0833 19.1164 12.1256 19.0869C12.3034 19.1542 12.4177 19.2846 12.4981 19.4486C12.5785 19.6043 12.6505 19.7641 12.7267 19.9239C12.515 19.9281 12.515 19.9281 12.5997 20.1258C12.6208 20.1763 12.6208 20.2226 12.5828 20.2604C12.5404 20.3025 12.4939 20.2898 12.4515 20.2604C12.3584 20.1973 12.3203 20.2099 12.2695 20.3277C12.1552 20.5759 11.9224 20.7315 11.7362 20.925C11.6939 20.9712 11.6346 20.9965 11.6473 21.0722C11.6431 21.0764 11.6431 21.0806 11.6388 21.089C11.6431 21.0848 11.6431 21.0806 11.6473 21.0722C11.8039 21.1311 11.7701 21.2152 11.6769 21.3077C11.5076 21.0259 11.3637 20.7273 11.2283 20.4244Z" fill="#DD1B24"/>
<path d="M20.7561 19.7091C20.5149 19.7049 20.3032 19.5871 20.0747 19.5282C19.8969 19.482 19.7149 19.4694 19.5371 19.4231C19.2704 19.3516 18.9995 19.2885 18.7413 19.1876C18.6059 19.1329 18.4747 19.1118 18.3308 19.116C18.1572 19.1203 17.9795 19.116 17.8059 19.116C17.8059 19.0908 17.8059 19.0614 17.8059 19.0361C18.5974 19.0361 19.389 19.0361 20.1763 19.0361C20.5064 19.0403 20.79 19.1707 21.0567 19.3516C21.0482 19.4189 21.0482 19.4862 21.0821 19.5493C21.1244 19.6376 21.1244 19.7301 21.0228 19.7596C20.9381 19.789 20.8239 19.8395 20.7561 19.7091C20.8239 19.7007 20.8958 19.7301 20.9551 19.6628C20.8831 19.6544 20.7985 19.5745 20.7561 19.7091Z" fill="#E71D25"/>
<path d="M26.1148 21.3331C26.1825 21.3373 26.2502 21.3289 26.3095 21.291C26.7031 21.4382 27.0756 21.6107 27.3338 21.964C27.2957 21.985 27.2576 22.006 27.228 21.9514C27.1984 21.8967 27.156 21.8546 27.0841 21.8504C27.0714 21.8504 27.0587 21.8504 27.0502 21.8504C27.0375 21.7537 26.9571 21.7831 26.9021 21.7747C26.8978 21.7032 26.8428 21.7032 26.792 21.7032C26.7878 21.6569 26.7624 21.6317 26.7158 21.6275C26.7116 21.6023 26.7116 21.5644 26.6693 21.5728C26.6566 21.577 26.6481 21.6107 26.6396 21.6275C26.5254 21.6149 26.4407 21.6527 26.3518 21.7369C26.1444 21.9219 26.0301 22.2079 25.7423 22.3089C25.7254 22.3173 25.7084 22.3636 25.7127 22.3888C25.7338 22.4855 25.6492 22.5108 25.5984 22.5528C25.573 22.5528 25.5518 22.5528 25.5264 22.5528C25.5095 22.5234 25.4841 22.5192 25.4545 22.515C25.2936 22.3762 25.0735 22.3594 24.8958 22.2584C25.0524 22.2332 25.1709 22.1617 25.2301 22.006C25.2428 21.9766 25.2852 21.9598 25.3106 21.9345C25.4248 21.8084 25.5815 21.7158 25.6407 21.5434C25.6619 21.4803 25.7127 21.4929 25.7592 21.4803C25.8735 21.4466 26.0132 21.4382 26.1148 21.3331Z" fill="#B81319"/>
<path d="M16.6714 20.592C16.6714 20.3229 16.6714 20.0495 16.6714 19.7803C16.6841 19.7803 16.6926 19.7803 16.7052 19.7803C16.6926 19.9317 16.7857 19.999 16.9169 19.999C17.0989 19.9948 17.264 20.0705 17.4375 20.0957C17.8735 20.163 18.2883 20.3565 18.737 20.3733C18.7751 20.3733 18.8132 20.3859 18.8216 20.428C18.8386 20.5374 18.9232 20.5163 18.9909 20.5163C19.2322 20.5163 19.4735 20.5163 19.7147 20.5163C19.7698 20.5163 19.846 20.4911 19.8671 20.5794C19.4438 20.5794 19.0248 20.5794 18.6015 20.5794C18.5761 20.55 18.555 20.55 18.5296 20.5794C18.4534 20.5794 18.3772 20.5794 18.3052 20.5794C18.2883 20.5626 18.2798 20.5668 18.2671 20.5836V20.592C18.1825 20.7056 18.2544 20.8402 18.2206 20.958C18.1825 20.9538 18.1105 20.9622 18.1317 20.8991C18.1867 20.7308 18.0809 20.7308 17.9666 20.693C17.6068 20.5794 17.2089 20.6005 16.8788 20.3859C16.828 20.3523 16.773 20.3649 16.7984 20.4406C16.8407 20.5752 16.7772 20.6005 16.6714 20.592Z" fill="#770102"/>
<path d="M20.3836 21.1852C20.4429 21.1936 20.5233 21.1599 20.536 21.2609C20.409 21.2735 20.3032 21.3829 20.1635 21.3366C19.5921 21.3366 19.0206 21.3366 18.4535 21.3366C18.263 21.3366 18.0683 21.345 17.8778 21.3324C17.7593 21.324 17.6873 21.3702 17.645 21.467C17.573 21.6184 17.4757 21.7446 17.3233 21.8245C17.2429 21.8666 17.154 21.9339 17.1455 22.0264C17.1286 22.2241 17.0059 22.2367 16.8535 22.2199C16.8492 22.182 16.8408 22.1484 16.79 22.1526C16.7773 22.1526 16.7604 22.1778 16.7604 22.1862C16.7773 22.2283 16.8196 22.2157 16.8535 22.2199C16.8789 22.2956 16.8789 22.3839 16.9339 22.4512C16.972 22.4975 16.9254 22.5059 16.8873 22.5143C16.7731 22.447 16.7307 22.3292 16.6672 22.2241C16.6672 22.0011 16.6672 21.7782 16.6672 21.5511C16.718 21.488 16.6757 21.3198 16.8535 21.3829C16.8577 21.3829 16.8789 21.3492 16.8873 21.3282C16.9424 21.2188 17.0355 21.1768 17.154 21.1768C17.1879 21.181 17.2217 21.1852 17.2556 21.1894C17.2683 21.2062 17.2852 21.2441 17.2979 21.2441C17.5942 21.2483 17.8947 21.2861 18.191 21.2272C18.1995 21.2146 18.2122 21.202 18.2207 21.1852H18.2291C18.2376 21.1894 18.2461 21.1936 18.2545 21.1936C18.2715 21.2062 18.2884 21.2188 18.3053 21.2314C18.3265 21.2398 18.3519 21.2567 18.373 21.2567C18.9572 21.2567 19.5455 21.2567 20.1296 21.2567C20.1889 21.2567 20.2397 21.2483 20.2735 21.1936C20.3116 21.1936 20.3455 21.1894 20.3836 21.1852Z" fill="#E71D25"/>
<path d="M14.8133 22.742C14.6482 23.0785 14.4916 23.4192 14.3181 23.7557C14.098 24.1931 13.5773 24.3319 13.1794 24.0669C13.3064 24.0838 13.3784 24.0038 13.4292 23.9155C13.4842 23.8146 13.5477 23.722 13.6408 23.6632C13.9244 23.4823 14.1064 23.2005 14.3308 22.9649C14.4112 22.8808 14.5466 22.864 14.5847 22.7378C14.6228 22.7126 14.6609 22.6873 14.6948 22.6621C14.7329 22.6916 14.754 22.7462 14.8133 22.742Z" fill="#92090B"/>
<path d="M17.2597 21.1937C17.2259 21.1895 17.192 21.1853 17.1539 21.1811C16.9634 21.0676 16.7772 20.9498 16.6714 20.7437C16.6714 20.6932 16.6714 20.6428 16.6714 20.5923C16.7772 20.6007 16.8407 20.5755 16.8026 20.4493C16.7772 20.3694 16.8322 20.3609 16.883 20.3946C17.2132 20.6091 17.6111 20.5881 17.9708 20.7016C18.0894 20.7395 18.1952 20.7395 18.1359 20.9077C18.1148 20.9708 18.1825 20.9624 18.2248 20.9666C18.2333 20.9792 18.2417 20.9919 18.2502 21.0045C18.2502 21.0423 18.2502 21.076 18.2502 21.1138C18.2206 21.1349 18.229 21.1643 18.229 21.1895H18.2206C17.9116 21.1895 17.6026 21.1895 17.2936 21.1895C17.2809 21.1895 17.2724 21.1895 17.2597 21.1937Z" fill="#6B0102"/>
<path d="M13.2048 21.1855C13.2344 21.3328 13.3952 21.4253 13.391 21.5935C13.1667 21.8795 12.8492 22.0899 12.6968 22.4221C12.6249 22.4095 12.6714 22.317 12.5868 22.3212C12.6037 22.502 12.4513 22.5525 12.337 22.6324C12.2693 22.4936 12.1974 22.359 12.1296 22.2202C12.1974 22.2118 12.2397 22.1614 12.2651 22.1109C12.4471 21.8038 12.7815 21.6272 12.9423 21.3033C12.9508 21.2907 12.9762 21.2697 12.9847 21.2739C13.0947 21.3243 13.1328 21.215 13.2048 21.1855Z" fill="#CE1820"/>
<path d="M29.6448 18.9696C29.4755 18.3891 29.175 17.8928 28.6798 17.5269C27.6724 16.7866 26.3264 16.9002 25.4586 17.7961C25.4205 17.8381 25.3782 17.9222 25.3147 17.8718C25.2343 17.8087 25.3317 17.7624 25.3655 17.7288C26.0555 17.039 26.8809 16.7656 27.8332 17.0095C28.8195 17.2619 29.4501 17.9054 29.7168 18.8938L29.7041 18.9023C29.6575 18.898 29.6406 18.9191 29.6448 18.9611V18.9696Z" fill="#E62731"/>
<path d="M30.8723 19.0826C30.7707 18.5232 30.6014 17.989 30.2754 17.5137C29.7379 16.7272 29.0099 16.2224 28.0786 15.9953C27.7273 15.907 27.3802 15.8986 27.0247 15.9028C26.9781 15.9028 26.8977 15.9406 26.8977 15.8481C26.8977 15.7808 26.9654 15.7934 27.0162 15.7892C28.6712 15.6967 30.25 16.6767 30.8088 18.3423C30.868 18.5232 30.9146 18.7082 30.9442 18.8933C30.8299 18.9227 30.8977 19.0195 30.8723 19.0826Z" fill="#E62731"/>
<path d="M12.9509 23.8484C12.8535 23.7138 12.7901 23.5582 12.7266 23.4068C12.8197 23.3941 12.9678 23.4656 12.9213 23.2596C12.917 23.2343 12.9636 23.188 12.9932 23.1586C13.1075 23.0408 13.2218 22.9189 13.3488 22.8095C13.5223 22.6581 13.6662 22.473 13.8821 22.3721C13.9498 22.452 14.0556 22.4983 14.1064 22.5908C14.0514 22.6917 14.1403 22.6539 14.1826 22.6665C14.1149 22.7759 13.9922 22.8137 13.899 22.8978C13.734 23.0577 13.5985 23.2511 13.3996 23.3815C13.2938 23.4488 13.1922 23.5077 13.1202 23.6255C13.0736 23.697 13.0525 23.8105 12.9509 23.8484Z" fill="#AA0F14"/>
<path d="M12.3372 22.6326C12.4514 22.5527 12.6038 22.5023 12.5869 22.3214C12.6715 22.3172 12.625 22.4097 12.6969 22.4223C12.8536 22.0901 13.1668 21.8798 13.3911 21.5938C13.3911 21.6064 13.3911 21.619 13.3911 21.6316C13.3911 21.6821 13.4123 21.7073 13.4631 21.7073C13.5477 21.8251 13.6366 21.9386 13.6832 22.0774C13.6408 22.0774 13.6028 22.0859 13.5604 22.1069C13.3911 22.2036 13.2811 22.3677 13.1414 22.4981C12.9382 22.6873 12.7604 22.906 12.57 23.1121C12.4853 22.9523 12.3964 22.8009 12.3372 22.6326Z" fill="#BE151C"/>
<path d="M12.9509 23.8479C13.0525 23.8101 13.0737 23.7007 13.116 23.625C13.188 23.503 13.2895 23.4483 13.3954 23.381C13.5943 23.2507 13.7298 23.0572 13.8948 22.8973C13.9837 22.809 14.1107 22.7712 14.1784 22.666C14.225 22.666 14.2758 22.6702 14.3223 22.6702C14.3816 22.8006 14.4959 22.7165 14.5848 22.7417C14.5467 22.8637 14.4112 22.8847 14.3308 22.9689C14.1065 23.2044 13.9245 23.4862 13.6409 23.6671C13.552 23.7259 13.4843 23.8185 13.4292 23.9194C13.3784 24.0078 13.3065 24.0877 13.1795 24.0708C13.0779 24.0204 13.0017 23.9447 12.9509 23.8479Z" fill="#9E0B0F"/>
<path d="M16.6715 22.2246C16.735 22.3298 16.7773 22.4475 16.8916 22.5148C17.0947 22.7378 17.3699 22.7756 17.645 22.8008C17.8482 22.8219 18.0513 22.8093 18.2545 22.8093C18.2503 22.8429 18.2461 22.8723 18.2418 22.906C18.2334 23.0448 18.2291 23.1836 18.2207 23.3266C18.1783 23.2551 18.1021 23.2467 18.0344 23.2172C17.8736 23.1499 17.6916 23.2257 17.5434 23.1668C17.2556 23.0574 16.9635 23.0448 16.6672 23.0322C16.6715 22.763 16.6715 22.4938 16.6715 22.2246Z" fill="#6B0102"/>
<path d="M26.9697 20.5381C26.8258 20.5885 26.6776 20.6012 26.5252 20.5801C26.4829 20.4708 26.3856 20.5381 26.3178 20.5213C26.2713 20.5086 26.2036 20.5423 26.212 20.4413C26.2501 20.0922 26.2162 19.7473 26.2289 19.3982C26.2332 19.2636 26.2289 19.1375 26.1189 19.0449C26.2543 19.0449 26.3898 19.0449 26.5295 19.0449C26.5591 19.1879 26.7115 19.0617 26.7792 19.1669C26.6268 19.1963 26.6395 19.3057 26.6395 19.4193C26.6438 19.6169 26.648 19.8146 26.6395 20.0081C26.6268 20.2058 26.6438 20.374 26.8639 20.4455C26.8385 20.4455 26.8131 20.4455 26.7919 20.4455C26.7496 20.4582 26.6819 20.4161 26.6607 20.496C26.7199 20.5339 26.775 20.5128 26.83 20.517C26.8723 20.5213 26.9231 20.5086 26.9697 20.5381Z" fill="#C5161D"/>
<path d="M25.4459 19.04C25.556 19.04 25.6703 19.04 25.7803 19.04C25.793 19.12 25.8904 19.1578 25.8904 19.2461C25.8819 19.6667 25.9285 20.0874 25.8565 20.508C25.92 20.5584 26.0343 20.4617 26.0766 20.5837C26.0004 20.5837 25.9285 20.5837 25.8523 20.5837C25.8227 20.55 25.7803 20.5584 25.7422 20.5542C25.7168 20.5416 25.6872 20.5164 25.6618 20.5206C25.4756 20.5458 25.4375 20.4617 25.4417 20.2934C25.4502 19.877 25.4459 19.4606 25.4459 19.04Z" fill="#9E0B0F"/>
<path d="M25.446 19.04C25.446 19.4564 25.4545 19.877 25.4418 20.2934C25.4376 20.4659 25.4757 20.55 25.6619 20.5206C25.6873 20.5164 25.7169 20.5416 25.7423 20.5542C25.7423 20.5626 25.7381 20.571 25.7423 20.5837C25.5688 20.5837 25.3953 20.5837 25.2217 20.5837C25.1921 20.55 25.1498 20.5584 25.1117 20.5542C25.0566 20.4953 24.9889 20.529 24.9254 20.5206C24.9043 20.4154 25.0736 20.4869 25.0566 20.3607C24.9974 19.9233 25.0778 19.4775 25.0016 19.04C25.1455 19.04 25.2937 19.04 25.446 19.04Z" fill="#8A0607"/>
<path d="M21.1285 20.2268C21.1243 20.3319 21.1497 20.4413 21.0566 20.5254C21.0566 20.5002 21.0566 20.4749 21.0523 20.4497C21.0227 20.3403 20.9211 20.3277 20.8365 20.3025C20.4259 20.1763 20.0026 20.1132 19.5836 20.0207C19.118 19.9155 18.6608 19.7725 18.1867 19.6926C17.7508 19.6169 17.3233 19.4907 16.8831 19.415C16.8831 19.3771 16.8831 19.3393 16.8831 19.2972C16.8831 19.2846 16.8831 19.2762 16.8915 19.2678C16.9042 19.251 16.9127 19.2341 16.9254 19.2173C16.9254 19.2005 16.9338 19.1963 16.9508 19.1963C16.9889 19.2888 17.082 19.3014 17.1582 19.3351C17.3063 19.4024 17.4756 19.3814 17.6196 19.4234C18.0259 19.5454 18.4449 19.6127 18.8555 19.701C18.991 19.7305 19.1222 19.8062 19.2703 19.7809C19.3888 19.7683 19.4989 19.8188 19.609 19.844C19.973 19.9324 20.3497 19.9828 20.7137 20.0838C20.8491 20.1258 21.0185 20.0964 21.1285 20.2268Z" fill="#B81319"/>
<path d="M27.0799 21.8496C27.1519 21.8496 27.1942 21.8959 27.2238 21.9506C27.2577 22.0052 27.2915 21.9884 27.3296 21.9632C27.3931 22.0305 27.4481 22.1062 27.4608 22.2029C27.4058 22.2744 27.4058 22.2744 27.3423 22.1482C27.2746 22.3249 27.1519 22.4258 26.9952 22.5016C26.864 22.5646 26.7709 22.6782 26.6863 22.7876C26.6355 22.8549 26.5804 22.9137 26.4958 22.9137C26.3773 22.9137 26.3646 22.9768 26.373 23.0694C26.2841 22.981 26.1995 22.8969 26.1106 22.8086C26.1529 22.8002 26.2079 22.8296 26.2418 22.7749C26.2376 22.7119 26.0386 22.7371 26.1656 22.6361C26.3519 22.4931 26.4915 22.2997 26.6778 22.1651C26.8217 22.0725 26.8894 21.8875 27.0799 21.8496Z" fill="#92090B"/>
<path d="M23.7697 20.374C23.8883 20.4455 24.0025 20.5128 24.0618 20.6558C24.0914 20.7273 24.0914 20.7652 24.0237 20.7736C23.8713 20.7904 23.7824 20.8914 23.6936 20.9923C23.5285 21.1816 23.2957 21.3078 23.2068 21.5601C23.1899 21.6022 23.1475 21.6274 23.101 21.5896C23.0375 21.5391 22.974 21.5643 22.9063 21.5643C22.7412 21.476 22.6142 21.3498 22.5168 21.19C22.593 21.1774 22.6269 21.2321 22.6692 21.2741C22.7369 21.3456 22.775 21.3751 22.8639 21.2741C23.1391 20.9629 23.4734 20.7063 23.7359 20.3824C23.7401 20.374 23.757 20.374 23.7697 20.374Z" fill="#DD1B24"/>
<path d="M23.7698 20.374C23.7571 20.3782 23.7402 20.374 23.736 20.3824C23.4735 20.7063 23.1392 20.9628 22.864 21.2741C22.7709 21.375 22.737 21.3456 22.6693 21.2741C22.627 21.232 22.5931 21.1731 22.5169 21.1899C22.4831 21.1647 22.4661 21.1353 22.4619 21.0932C22.5508 20.9881 22.5847 20.8324 22.7328 20.7693C22.8005 20.8114 22.7328 20.9039 22.8429 20.9796C22.737 20.6726 23.0376 20.6137 23.1095 20.416C23.1476 20.3151 23.3 20.3151 23.3508 20.2057C23.3762 20.1553 23.427 20.109 23.4312 20.0459C23.482 20.0669 23.5159 20.13 23.5836 20.1174L23.5878 20.1132C23.5243 20.2772 23.7275 20.273 23.7698 20.374Z" fill="#D21920"/>
<path d="M13.205 21.1854C13.133 21.2148 13.0907 21.3242 12.9849 21.2737C12.9764 21.2695 12.951 21.2905 12.9425 21.3031C12.7817 21.6228 12.4473 21.8036 12.2653 22.1107C12.2357 22.1612 12.1976 22.2158 12.1298 22.22C12.1129 22.1149 11.9944 22.0476 12.0113 21.9256C12.1129 21.791 11.9436 21.6817 11.9775 21.5555C12.0706 21.5513 12.0325 21.6522 12.0706 21.6775C12.3203 21.505 12.4685 21.2232 12.7605 21.0928C12.8409 21.055 12.9129 20.9582 12.9849 20.8867C13.0399 20.832 13.078 20.8068 13.1076 20.9078C13.133 21.0045 13.1711 21.0928 13.205 21.1854Z" fill="#DD1B24"/>
<path d="M12.5742 23.1079C12.7647 22.9018 12.9382 22.6831 13.1456 22.4938C13.2853 22.3635 13.3954 22.1994 13.5647 22.1027C13.6028 22.0817 13.6451 22.0732 13.6874 22.0732C13.7213 22.1279 13.734 22.1952 13.8017 22.2205C13.8271 22.2709 13.8525 22.3172 13.8779 22.3677C13.6663 22.4728 13.5181 22.6579 13.3446 22.8051C13.2176 22.9145 13.1075 23.0364 12.989 23.1542C12.9594 23.1836 12.9128 23.2299 12.9171 23.2551C12.9636 23.4612 12.8155 23.3897 12.7224 23.4024C12.6589 23.314 12.6123 23.2131 12.5742 23.1079Z" fill="#B81319"/>
<path d="M26.8556 20.4461C26.6313 20.3746 26.6186 20.2021 26.6313 20.0086C26.644 19.811 26.6355 19.6175 26.6313 19.4198C26.6313 19.3062 26.6186 19.1969 26.771 19.1674C26.7032 19.0623 26.5509 19.1885 26.5212 19.0455C26.644 19.0455 26.771 19.0455 26.8937 19.0455C26.9487 19.037 26.9995 19.0497 27.0419 19.0875C26.9953 19.1548 26.9953 19.2305 27.008 19.302C27.0207 19.3904 26.9445 19.5039 27.0757 19.5628C27.1858 19.6133 27.1858 19.6553 27.0842 19.7226C27.0419 19.7521 26.9445 19.8152 27.0842 19.8614C27.0419 20.0044 26.9995 20.1559 27.0165 20.3031C27.0249 20.4377 26.9784 20.4671 26.8556 20.4461Z" fill="#D21920"/>
<path d="M26.0766 20.5837C26.0342 20.4617 25.92 20.5584 25.8565 20.508C25.9284 20.0916 25.8776 19.6667 25.8903 19.2461C25.8946 19.1578 25.793 19.1242 25.7803 19.04C25.8311 19.04 25.8776 19.04 25.9284 19.04C25.9919 19.04 26.0554 19.0442 26.1189 19.0442C26.2289 19.141 26.2374 19.263 26.2289 19.3976C26.2162 19.7467 26.2501 20.0958 26.212 20.4407C26.1993 20.5416 26.2713 20.508 26.3178 20.5206C26.3898 20.5374 26.4829 20.4701 26.5252 20.5795C26.4871 20.5795 26.449 20.5795 26.411 20.5795C26.3983 20.5626 26.3856 20.5668 26.3771 20.5795C26.2755 20.5837 26.1739 20.5837 26.0766 20.5837Z" fill="#B81319"/>
<path d="M24.0322 22.098C24.0576 22.0853 24.083 22.0685 24.1211 22.0475C23.9899 22.0181 23.9137 21.9129 23.7571 21.8919C23.8756 21.8288 23.9941 21.7909 23.8968 21.6605C23.9814 21.6227 24.028 21.5428 24.0957 21.4839C24.2946 21.303 24.5147 21.139 24.6756 20.9287C24.7899 20.7815 24.8449 20.8109 24.9423 20.9119C24.9676 20.9413 24.993 20.9665 25.0354 20.9665C25.0311 21.0296 25.0057 21.0885 24.9592 21.1306C24.7687 21.3198 24.5825 21.5217 24.3751 21.6942C24.2311 21.812 24.1846 21.9213 24.2904 22.0769C24.2523 22.1022 24.2142 22.1274 24.1804 22.1526C24.1253 22.1484 24.0788 22.1232 24.0322 22.098Z" fill="#DD1B24"/>
<path d="M27.0799 19.8559C26.9402 19.8097 27.0376 19.7466 27.0799 19.7171C27.1815 19.6499 27.1815 19.6078 27.0714 19.5573C26.9445 19.4984 27.0206 19.3849 27.0037 19.2965C26.991 19.225 26.9952 19.1493 27.0376 19.082C27.3466 19.225 27.5328 19.5195 27.5116 19.8265C27.4862 20.1714 27.2873 20.428 26.9614 20.5373C26.9148 20.5079 26.864 20.5205 26.8132 20.5163C26.8005 20.4911 26.7878 20.47 26.7751 20.4448C26.8005 20.4448 26.8259 20.4448 26.8471 20.4448C26.9656 20.4658 27.0164 20.4364 27.0037 20.2976C26.9995 20.1504 27.0376 19.999 27.0799 19.8559C27.1053 19.8517 27.1392 19.8517 27.1349 19.8097C27.1349 19.8055 27.1265 19.7971 27.1222 19.7971C27.0841 19.7971 27.0841 19.8265 27.0799 19.8559Z" fill="#E71D25"/>
<path d="M16.0028 20.3738C15.9562 20.5042 15.8969 20.6346 15.8165 20.7482C15.7488 20.6725 15.7996 20.5547 15.7192 20.479C15.5456 20.3234 15.3763 20.1593 15.2197 19.9911C15.1139 19.8775 14.9022 19.8144 14.9403 19.5789C14.953 19.5032 14.8811 19.4485 14.7922 19.5368C14.7372 19.5915 14.7033 19.6714 14.6229 19.7051C14.6229 19.6883 14.6187 19.6672 14.6187 19.6504C14.6779 19.4906 14.7456 19.3349 14.8853 19.2256C14.9784 19.2845 15.0462 19.356 15.0335 19.478C15.0292 19.5074 15.0419 19.5579 15.08 19.5368C15.2197 19.4527 15.2578 19.5789 15.3255 19.6462C15.5245 19.8523 15.753 20.0332 15.8885 20.2939C15.9054 20.3318 15.9435 20.3738 16.0028 20.3738Z" fill="#BE151C"/>
<path d="M16.0028 20.374C15.9435 20.374 15.9054 20.332 15.8843 20.2941C15.7446 20.0333 15.5203 19.8525 15.3213 19.6464C15.2578 19.5791 15.2197 19.4487 15.0758 19.537C15.0419 19.5581 15.025 19.5076 15.0292 19.4781C15.0419 19.3562 14.9742 19.2847 14.8811 19.2258C14.97 19.1248 15.08 19.0617 15.2155 19.0449C15.3552 19.251 15.4822 19.4655 15.7277 19.5665C15.7657 19.5833 15.8123 19.6169 15.8208 19.6464C15.8631 19.8483 16.1086 19.9324 16.1171 20.1511C16.0874 20.231 16.062 20.3109 16.0028 20.374Z" fill="#CE1820"/>
<path d="M16.6714 23.0322C16.9677 23.0448 17.264 23.0575 17.5476 23.1668C17.6957 23.2257 17.8777 23.15 18.0386 23.2173C18.1063 23.2467 18.1825 23.2551 18.2248 23.3267C18.229 23.3855 18.2333 23.4444 18.2375 23.5033C18.2333 23.558 18.2417 23.6169 18.1994 23.6589C17.7126 23.457 17.2047 23.3309 16.6756 23.3267C16.6714 23.2299 16.6714 23.1332 16.6714 23.0322Z" fill="#8A0607"/>
<path d="M15.2959 21.7788C15.1435 21.6695 14.9742 21.577 14.8387 21.4508C14.6525 21.2741 14.4408 21.1143 14.3266 20.8787C14.2715 20.761 14.153 20.7862 14.0557 20.7652C14.1107 20.6053 14.1911 20.4623 14.28 20.3193C14.2842 20.3362 14.2842 20.353 14.2885 20.3698C14.2885 20.4119 14.2969 20.4455 14.3266 20.4834C14.5043 20.7189 14.7287 20.9082 14.9445 21.1017C15.0419 21.19 15.0504 21.3751 15.2451 21.3835C15.2916 21.3877 15.3297 21.5433 15.3678 21.6316C15.3255 21.6737 15.3509 21.7452 15.2959 21.7788Z" fill="#770102"/>
<path d="M16.1169 20.1557C16.1084 19.9369 15.8629 19.8528 15.8206 19.6509C15.8122 19.6173 15.7656 19.5836 15.7275 19.571C15.482 19.4659 15.355 19.2556 15.2153 19.0495C15.5286 18.9527 15.7995 19.041 16.0026 19.2724C16.2354 19.5289 16.2862 19.8318 16.1169 20.1557Z" fill="#DD1B24"/>
<path d="M29.264 19.5789C29.2471 19.7472 29.2471 19.928 29.1836 20.1005C29.1709 20.1383 29.1625 20.2014 29.1074 20.1888C29.0397 20.1762 29.0651 20.1173 29.0778 20.0668C29.1709 19.6504 29.1794 19.2382 29.0101 18.8387C28.7476 18.212 28.2863 17.8124 27.626 17.6441C27.5752 17.6315 27.4947 17.6441 27.5074 17.5642C27.5201 17.4843 27.5921 17.518 27.6429 17.5306C28.4302 17.7367 28.955 18.2162 29.1794 18.9985C29.2344 19.1836 29.2683 19.377 29.264 19.5789Z" fill="#E62731"/>
<path d="M16.7011 19.781C16.6884 19.781 16.68 19.781 16.6673 19.781C16.6461 19.6885 16.68 19.6085 16.7096 19.5244C16.7434 19.537 16.7773 19.5497 16.8112 19.5581C16.8493 19.6338 16.9212 19.6506 16.9932 19.6674C17.2471 19.7263 17.5053 19.7978 17.7593 19.8483C18.517 19.9997 19.2662 20.1848 20.0154 20.3698C20.0577 20.3825 20.0789 20.4035 20.0831 20.4413C20.0746 20.4708 20.0746 20.5128 20.0323 20.5002C19.6175 20.374 19.1942 20.2857 18.7709 20.2016C18.5 20.1469 18.2376 20.0502 17.9667 20.0039C17.6873 19.9534 17.4038 19.924 17.1413 19.8357C16.9932 19.7852 16.8577 19.7431 16.7011 19.781Z" fill="#92090B"/>
<path d="M22.9062 24.1516C22.847 24.1474 22.8004 24.1263 22.7623 24.0759C22.8639 23.6384 22.7919 23.2094 22.6946 22.7846C22.7877 22.6921 22.902 22.6584 23.029 22.6416C23.0671 22.65 23.1052 22.6584 23.139 22.6668C23.1221 22.7425 23.0586 22.793 23.0628 22.8856C23.0713 23.1842 23.0671 23.487 23.0671 23.7857C23.0671 23.8361 23.0501 23.9034 23.1306 23.9202C23.2321 23.9413 23.1983 23.9791 23.1433 24.0212C23.1009 24.0548 23.1052 24.1095 23.1009 24.1558C23.0332 24.1516 22.9697 24.1516 22.9062 24.1516Z" fill="#CE1820"/>
<path d="M15.3677 21.6357C15.3254 21.5473 15.2873 21.3917 15.2449 21.3875C15.0502 21.3791 15.0418 21.194 14.9444 21.1057C14.7285 20.9122 14.5042 20.7229 14.3264 20.4874C14.2968 20.4495 14.2883 20.4159 14.2883 20.3738C14.5127 20.3318 14.6439 20.4327 14.809 20.5883C14.9867 20.7608 15.1053 21.0258 15.3931 21.0763C15.4396 21.0847 15.482 21.1393 15.4777 21.2066C15.4777 21.2529 15.4693 21.3076 15.5243 21.337C15.4862 21.4422 15.4396 21.5473 15.3677 21.6357Z" fill="#8A0607"/>
<path d="M14.6144 19.6504C14.6144 19.6672 14.6187 19.6882 14.6187 19.7051C14.8896 20.0458 15.2578 20.2939 15.533 20.6304C15.5964 20.7061 15.6557 20.8071 15.7785 20.8155C15.7319 20.9501 15.6726 21.072 15.5922 21.1898C15.5076 20.9921 15.406 20.7986 15.2324 20.6683C15.0462 20.5295 14.915 20.3444 14.7541 20.1804C14.661 20.0878 14.534 20.0163 14.5044 19.8733C14.5171 19.7892 14.5721 19.7219 14.6144 19.6504Z" fill="#9E0B0F"/>
<path d="M20.6121 22.5902C20.5782 22.5818 20.5274 22.5986 20.5189 22.5523C20.5105 22.5103 20.5655 22.5271 20.5867 22.5103C20.6544 22.4514 20.8406 22.5103 20.7814 22.321C20.9761 22.3883 20.8745 22.0097 21.1031 22.1107C21.12 22.1191 21.2131 22.0686 21.1708 21.9929C21.0946 21.8541 21.2216 21.7784 21.2681 21.6733C21.2724 21.6691 21.2766 21.6606 21.2808 21.6606C21.5348 21.7279 21.5814 21.3872 21.8057 21.3957C21.6787 21.892 21.4036 22.2747 20.938 22.5103C20.8152 22.4892 20.7263 22.6028 20.6121 22.5902Z" fill="#92090B"/>
<path d="M14.5044 19.877C14.5383 20.02 14.6653 20.0915 14.7542 20.184C14.915 20.3438 15.0462 20.5331 15.2325 20.6719C15.406 20.8023 15.5076 20.9958 15.5923 21.1935C15.5838 21.2481 15.5626 21.2986 15.5203 21.3365C15.4653 21.307 15.4737 21.2523 15.4737 21.2061C15.478 21.1388 15.4314 21.0841 15.3891 21.0757C15.1013 21.0252 14.9827 20.7602 14.805 20.5878C14.6399 20.4322 14.5087 20.3312 14.2843 20.3733C14.2801 20.3564 14.2801 20.3396 14.2759 20.3228C14.3351 20.163 14.4113 20.0158 14.5044 19.877Z" fill="#92090B"/>
<path d="M22.6906 22.7842C22.7879 23.209 22.8599 23.638 22.7583 24.0754C22.2673 23.8147 22.2292 23.1123 22.6906 22.7842Z" fill="#DD1B24"/>
<path d="M16.6715 23.3311C17.2048 23.3353 17.7085 23.4614 18.1953 23.6633C18.1868 23.7517 18.1403 23.819 18.081 23.8821C18.0895 23.7895 18.0344 23.7727 17.954 23.7727C17.6746 23.7643 17.408 23.6928 17.1329 23.6339C17.0313 23.6129 16.9339 23.4783 16.8112 23.5918C16.7307 23.596 16.7392 23.6591 16.735 23.7138C16.6588 23.596 16.6546 23.4614 16.6715 23.3311Z" fill="#AA0F14"/>
<path d="M30.4237 19.8565C30.3898 20.2729 30.2543 20.6599 30.0596 21.0258C30.0342 21.0678 30.0131 21.1478 29.9411 21.1015C29.8819 21.0636 29.9369 21.0132 29.958 20.9753C30.2374 20.4664 30.3517 19.9196 30.3221 19.3434C30.3009 18.8891 30.1697 18.4643 29.958 18.0605C29.9326 18.01 29.8607 17.9427 29.9284 17.9007C30.0004 17.8586 30.03 17.9469 30.0554 17.9974C30.2416 18.3718 30.411 18.7545 30.3983 19.1877C30.3178 19.398 30.3559 19.6167 30.3771 19.8313C30.3729 19.8397 30.4067 19.8481 30.4237 19.8565Z" fill="#E62731"/>
<path d="M15.7784 20.8202C15.6599 20.8075 15.6007 20.7108 15.5329 20.6351C15.2536 20.2986 14.8895 20.0504 14.6187 19.7098C14.6991 19.6803 14.7329 19.6004 14.788 19.5415C14.8769 19.4532 14.9488 19.5121 14.9361 19.5836C14.898 19.8149 15.1097 19.878 15.2155 19.9958C15.3721 20.164 15.5414 20.328 15.7149 20.4837C15.7996 20.5594 15.7488 20.6771 15.8123 20.7529C15.8123 20.7781 15.8123 20.8033 15.7784 20.8202Z" fill="#AA0F14"/>
<path d="M21.0567 20.8155C21.0482 20.7104 21.1498 20.6557 21.1794 20.5589C21.2683 20.2477 21.3318 19.9449 21.1709 19.6378C21.1413 19.5831 21.1455 19.5074 21.1328 19.4443C21.2979 19.4738 21.3699 19.6126 21.4588 19.7219C21.5815 19.8649 21.7 20.0206 21.7297 20.2183C21.6746 20.2771 21.6746 20.2771 21.6027 20.1383C21.535 20.3528 21.3868 20.4832 21.2725 20.6389C21.2133 20.7146 21.1836 20.8239 21.0567 20.8155Z" fill="#B81319"/>
<path d="M30.9444 20.1509C30.8216 20.8912 30.4915 21.5305 29.9835 22.0773C29.9497 22.1151 29.9116 22.1446 29.8777 22.1824C29.8481 22.2161 29.8058 22.2497 29.7677 22.2161C29.7126 22.1656 29.7719 22.1277 29.8015 22.0941C29.882 22.0016 29.9751 21.9174 30.0513 21.8249C30.4618 21.3244 30.7243 20.7608 30.8343 20.1257C30.8428 20.071 30.8597 20.0205 30.8724 19.9658C30.8978 20.0289 30.8301 20.1214 30.9444 20.1509Z" fill="#E62731"/>
<path d="M16.7351 23.7128C16.7436 23.6623 16.7309 23.595 16.8113 23.5908C16.8198 23.6665 16.7774 23.7759 16.9213 23.7717C17.188 23.7633 17.4166 23.9231 17.679 23.9441C17.7467 23.9483 17.7975 23.9862 17.8695 23.9357C17.9245 23.8979 17.9626 23.9315 17.9668 23.9946C17.552 24.3942 16.8494 24.1418 16.7351 23.7128Z" fill="#DD1B24"/>
<path d="M29.7295 20.1175C29.683 20.6054 29.429 20.9882 29.1073 21.3373C28.9761 21.4761 28.8279 21.5981 28.6629 21.6948C28.6248 21.7158 28.574 21.7705 28.5359 21.7116C28.4978 21.6528 28.5613 21.6317 28.6036 21.6065C29.0607 21.2952 29.3867 20.883 29.5687 20.3615C29.6152 20.2311 29.6491 20.0965 29.6872 19.9619C29.6914 20.0166 29.666 20.0797 29.7295 20.1175Z" fill="#E62731"/>
<path d="M17.9668 23.9997C17.9584 23.9366 17.9245 23.9029 17.8695 23.9408C17.8017 23.9871 17.7467 23.9534 17.679 23.9492C17.4166 23.9282 17.188 23.7684 16.9213 23.7768C16.7774 23.781 16.8197 23.6716 16.8113 23.5959C16.934 23.4865 17.0314 23.6169 17.133 23.638C17.4039 23.6926 17.6748 23.7641 17.9541 23.7768C18.0345 23.781 18.0896 23.7936 18.0811 23.8861C18.0599 23.9366 18.0218 23.9744 17.9668 23.9997Z" fill="#BE151C"/>
<path d="M19.2702 19.7812C19.1221 19.8065 18.9909 19.7308 18.8554 19.7013C18.4448 19.613 18.0258 19.5457 17.6195 19.4237C17.4755 19.3816 17.3062 19.4027 17.1581 19.3354C17.0819 19.2975 16.9888 19.2891 16.9507 19.1966C16.9761 19.1755 17.0015 19.1587 17.0311 19.1377C17.065 19.2092 17.1285 19.1882 17.1877 19.1924C17.2512 19.2428 17.3232 19.2765 17.4036 19.2933C17.9411 19.4069 18.4829 19.5162 19.0163 19.6424C19.1052 19.6592 19.2194 19.6761 19.2702 19.7812Z" fill="#BE151C"/>
<path d="M24.1804 22.149C24.2185 22.1237 24.2566 22.0985 24.2905 22.0732C24.3624 22.1069 24.4259 22.1574 24.5148 22.1447C24.6376 22.1826 24.7603 22.2205 24.8873 22.2583C25.0651 22.3593 25.2852 22.3761 25.446 22.5149C25.4164 22.5191 25.3698 22.5317 25.391 22.5611C25.4291 22.6158 25.4756 22.5654 25.518 22.5485C25.518 22.5822 25.518 22.62 25.5137 22.6537C25.4333 22.6411 25.3529 22.6284 25.2725 22.6158C25.264 22.5359 25.1963 22.5317 25.1413 22.5107C24.8196 22.3929 24.5021 22.2709 24.1804 22.149Z" fill="#E62731"/>
<path d="M27.7869 16.3867C28.1763 16.4414 28.5361 16.5844 28.8705 16.7821C28.9085 16.8031 28.9932 16.8241 28.9424 16.8999C28.8958 16.963 28.8535 16.9041 28.8154 16.8788C28.498 16.6769 28.1424 16.576 27.7869 16.4835C27.8377 16.454 27.8461 16.4204 27.7869 16.3867Z" fill="#E62731"/>
<path d="M16.6715 20.7441C16.7773 20.9502 16.9678 21.068 17.154 21.1816C17.0355 21.1816 16.9424 21.2236 16.8873 21.333C16.8789 21.354 16.8577 21.3877 16.8535 21.3877C16.6799 21.3204 16.7223 21.4886 16.6672 21.5559C16.6715 21.2867 16.6715 21.0133 16.6715 20.7441Z" fill="#DD1B24"/>
<path d="M26.6736 16.4963C26.3646 16.5804 26.0598 16.6687 25.7804 16.8243C25.7508 16.8412 25.7 16.8874 25.6704 16.8286C25.6323 16.7613 25.6958 16.7444 25.7381 16.7234C25.9498 16.6183 26.1529 16.4921 26.4069 16.4837C26.4958 16.4837 26.5677 16.3827 26.6736 16.3911C26.6482 16.4206 26.6228 16.45 26.5974 16.4795C26.6185 16.4837 26.6482 16.4879 26.6736 16.4963Z" fill="#E62731"/>
<path d="M26.6735 16.4962C26.6439 16.492 26.6185 16.4878 26.5889 16.4836C26.6143 16.4542 26.6397 16.4247 26.6651 16.3953C27.0375 16.3322 27.41 16.3154 27.7825 16.3911C27.8418 16.4247 27.8333 16.4584 27.7825 16.492C27.7571 16.492 27.7275 16.4878 27.7021 16.4878C27.664 16.4415 27.609 16.4626 27.5624 16.4584C27.3508 16.4584 27.1391 16.4584 26.9275 16.4584C26.8471 16.4668 26.7497 16.4205 26.6735 16.4962Z" fill="#E71D25"/>
<path d="M22.9062 24.1504C22.9697 24.1504 23.0332 24.1546 23.0967 24.1546C23.2025 24.2135 23.3126 24.142 23.4184 24.1546C23.8205 24.1967 24.2226 24.1756 24.6247 24.1714C25.048 24.1798 25.4713 24.184 25.8946 24.1925C25.8396 24.2303 25.7761 24.2135 25.7126 24.2135C24.8872 24.2135 24.066 24.2135 23.2406 24.2093C23.1264 24.2093 23.0078 24.2135 22.9062 24.1504Z" fill="#C06263"/>
<path d="M26.4152 23.1797C26.6353 23.3605 26.6438 23.7601 26.4448 23.9999C26.4237 24.0251 26.3348 24.0419 26.4025 24.1092C26.3136 24.1555 26.2162 24.1681 26.1189 24.1723C26.2289 24.0588 26.394 24.0083 26.4575 23.8274C26.5464 23.5793 26.4194 23.39 26.3348 23.1839C26.3602 23.1839 26.3898 23.1839 26.4152 23.1797Z" fill="#BE151C"/>
<path d="M30.9443 20.1512C30.83 20.1217 30.8977 20.0292 30.8765 19.9661C30.8765 19.6717 30.8765 19.3773 30.8765 19.0828C30.8977 19.0197 30.83 18.923 30.9485 18.8936C30.9527 18.9314 30.9527 18.9651 30.957 19.0029C30.8977 19.3562 30.9654 19.7137 30.9527 20.067C30.9485 20.0965 30.9443 20.1217 30.9443 20.1512Z" fill="#E71D25"/>
<path d="M14.5847 22.7375C14.4958 22.7123 14.3815 22.7964 14.3223 22.666C14.3519 22.6492 14.3604 22.624 14.3604 22.5945C14.5551 22.6576 14.7032 22.5861 14.8387 22.4515C14.8979 22.3926 14.9402 22.3085 15.0334 22.2959C15.0249 22.38 14.9741 22.4473 14.9318 22.5188C14.8471 22.5567 14.7498 22.5735 14.699 22.666C14.6567 22.6871 14.6186 22.7123 14.5847 22.7375Z" fill="#B81319"/>
<path d="M29.7297 20.117C29.6662 20.0792 29.6958 20.0161 29.6831 19.9614C29.6831 19.9109 29.6873 19.8605 29.6873 19.81C29.7551 19.646 29.7127 19.4777 29.717 19.3095C29.7339 19.2674 29.7466 19.2254 29.7635 19.1875C29.8566 19.423 29.7889 19.6712 29.7847 19.9109C29.7805 19.9656 29.8143 20.0666 29.7297 20.117Z" fill="#E71D25"/>
<path d="M30.9486 20.0671C30.957 19.7138 30.8936 19.3562 30.9528 19.0029C31.0205 19.3604 31.0121 19.7138 30.9486 20.0671Z" fill="#CE1820"/>
<path d="M30.4237 19.8569C30.4068 19.8485 30.3772 19.8443 30.3772 19.8359C30.3602 19.6214 30.3179 19.4027 30.3983 19.1924C30.4788 19.4069 30.428 19.634 30.4237 19.8569Z" fill="#E71D25"/>
<path d="M11.0841 19.4482C11.1518 19.6207 11.1942 19.7973 11.1349 19.9908C11.0206 19.9151 11.1688 19.7511 11.0079 19.709C10.9995 19.6123 11.0249 19.524 11.0841 19.4482Z" fill="#BE151C"/>
<path d="M23.1391 22.6622C23.101 22.6538 23.0629 22.6454 23.0291 22.6369C23.4396 22.6117 23.846 22.6201 24.2566 22.6285C24.2566 22.6411 24.2566 22.6496 24.2566 22.6622C24.1592 22.6622 24.0576 22.6622 23.9603 22.6622C23.8714 22.6622 23.7867 22.6622 23.6978 22.6622C23.6132 22.6622 23.5243 22.6622 23.4396 22.6622C23.338 22.6664 23.2365 22.6664 23.1391 22.6622Z" fill="#92090B"/>
<path d="M29.7591 19.1838C29.7422 19.2258 29.7295 19.2679 29.7126 19.3057C29.7041 19.3015 29.6957 19.3015 29.6872 19.3057C29.6703 19.1922 29.6576 19.0828 29.6406 18.9693L29.6491 18.9609C29.6957 18.9651 29.7126 18.944 29.7083 18.902L29.721 18.8936C29.7718 18.9861 29.7845 19.0828 29.7591 19.1838Z" fill="#E62731"/>
<path d="M26.1148 19.0443C26.0513 19.0443 25.9878 19.0401 25.9243 19.0401C25.9243 19.0317 25.9243 19.0233 25.9285 19.0107C26.2502 19.0149 26.5719 18.9644 26.8936 19.0401C26.7709 19.0401 26.6439 19.0401 26.5211 19.0401C26.3857 19.0443 26.2502 19.0443 26.1148 19.0443Z" fill="#AA0F14"/>
<path d="M27.5286 22.7757C27.5328 22.6117 27.3889 22.4602 27.4947 22.292C27.5582 22.4476 27.5794 22.6074 27.5286 22.7757Z" fill="#AA0F14"/>
<path d="M14.6948 22.6619C14.7456 22.5735 14.843 22.5525 14.9276 22.5146C14.8895 22.5904 14.8514 22.6619 14.8133 22.7376C14.7541 22.746 14.7329 22.6913 14.6948 22.6619Z" fill="#9E0B0F"/>
<path d="M18.2334 23.5074C18.2292 23.4485 18.2249 23.3896 18.2207 23.3308C18.2292 23.192 18.2334 23.049 18.2419 22.9102C18.2588 23.1078 18.2757 23.3097 18.2334 23.5074Z" fill="#DD1B24"/>
<path d="M21.8016 21.3958C21.7931 21.2486 21.7931 21.1014 21.8693 20.9668C21.882 21.114 21.865 21.257 21.8016 21.3958Z" fill="#92090B"/>
<path d="M29.6915 19.3057C29.7 19.3057 29.7084 19.3057 29.7169 19.3057C29.7127 19.4739 29.7592 19.6421 29.6873 19.8062C29.6915 19.6421 29.6915 19.4739 29.6915 19.3057Z" fill="#C06263"/>
<path d="M16.8155 19.558C16.7816 19.5454 16.7477 19.5328 16.7139 19.5244C16.735 19.4613 16.752 19.3982 16.8155 19.3604C16.8155 19.4024 16.8155 19.4445 16.8155 19.4865C16.8155 19.5118 16.8155 19.5328 16.8155 19.558Z" fill="#AA0F14"/>
<path d="M26.6736 16.4954C26.7498 16.4197 26.8471 16.466 26.9318 16.4576C26.8471 16.487 26.7625 16.4996 26.6736 16.4954Z" fill="#E62731"/>
<path d="M16.8152 19.4865C16.8152 19.4445 16.8152 19.4024 16.8152 19.3604C16.8406 19.3772 16.866 19.394 16.8914 19.4108C16.8914 19.4361 16.8914 19.4613 16.8914 19.4823C16.8617 19.4865 16.8406 19.4865 16.8152 19.4865Z" fill="#B81319"/>
<path d="M16.8873 19.4107C16.8619 19.3939 16.8365 19.3771 16.8111 19.3603C16.8069 19.3056 16.8408 19.2972 16.8831 19.293C16.8873 19.335 16.8873 19.3729 16.8873 19.4107Z" fill="#BE151C"/>
<path d="M27.5664 16.4543C27.613 16.4586 27.668 16.4375 27.7061 16.4838C27.6595 16.4712 27.613 16.4628 27.5664 16.4543Z" fill="#E62731"/>
<path d="M25.1074 20.5547C25.1455 20.5589 25.1878 20.5505 25.2175 20.5841C25.1794 20.5841 25.1413 20.5841 25.1074 20.5841C25.1074 20.5757 25.1074 20.5673 25.1074 20.5547Z" fill="#AA0F14"/>
<path d="M25.7422 20.5841C25.7422 20.5757 25.7422 20.5673 25.7422 20.5547C25.7803 20.5589 25.8226 20.5463 25.8522 20.5841C25.8141 20.5841 25.7803 20.5841 25.7422 20.5841Z" fill="#C5161D"/>
<path d="M12.7647 20.0034C12.7308 19.9908 12.7266 19.9614 12.7266 19.9277C12.752 19.9446 12.7604 19.9698 12.7647 20.0034Z" fill="#DD1B24"/>
<path d="M26.3772 20.5839C26.3899 20.5671 26.3984 20.5671 26.4111 20.5839L26.3941 20.5923L26.3772 20.5839Z" fill="#C5161D"/>
<path d="M26.0427 24.1807C26.0512 24.1723 26.0639 24.168 26.0766 24.1765C26.0639 24.1807 26.0512 24.1807 26.0427 24.1807Z" fill="#C06263"/>
<path d="M16.9296 19.2129C16.9169 19.2297 16.9085 19.2465 16.8958 19.2634C16.8873 19.2339 16.9042 19.2213 16.9296 19.2129Z" fill="#BE151C"/>
<path d="M14.3561 22.5946C14.3561 22.624 14.3476 22.6493 14.318 22.6661C14.2714 22.6661 14.2206 22.6619 14.1741 22.6619C14.1741 22.6156 14.1444 22.5904 14.0979 22.5862C14.0471 22.4894 13.9413 22.4474 13.8736 22.3675C13.8482 22.317 13.8228 22.2707 13.7974 22.2202C13.8228 22.195 13.8482 22.1698 13.8736 22.1445C14.0175 22.317 14.1614 22.481 14.3561 22.5946Z" fill="#CE1820"/>
<path d="M13.8779 22.1446C13.8652 22.132 13.8567 22.1152 13.844 22.1025C13.8525 22.1152 13.8652 22.132 13.8779 22.1446Z" fill="#CE1820"/>
<path d="M24.9972 19.04C25.0776 19.4775 24.993 19.9233 25.0522 20.3607C25.0691 20.4869 24.8998 20.4154 24.921 20.5206C24.6586 20.5206 24.5866 20.4491 24.5866 20.1841C24.5866 19.9107 24.5866 19.6331 24.5866 19.3597C24.5866 19.2588 24.612 19.1536 24.4893 19.0442C24.6924 19.04 24.8448 19.04 24.9972 19.04Z" fill="#770102"/>
<path d="M23.4354 19.9278C23.2915 19.8227 23.2322 19.5409 23.3296 19.4105C23.355 19.3768 23.3804 19.3852 23.4015 19.4147C23.3719 19.5955 23.4227 19.7596 23.4862 19.9236C23.4692 19.9236 23.4523 19.9278 23.4354 19.9278Z" fill="#DD1B24"/>
<path d="M23.4353 19.9283C23.4522 19.9241 23.4692 19.9241 23.4861 19.9199C23.5115 19.9872 23.5919 20.0251 23.5877 20.1092C23.52 20.1218 23.4861 20.0587 23.4353 20.0377C23.4353 20.004 23.4353 19.9662 23.4353 19.9283Z" fill="#E71D25"/>
<path d="M13.4672 21.7027C13.4164 21.7027 13.3953 21.6774 13.3953 21.627C13.4418 21.6312 13.4672 21.6564 13.4672 21.7027Z" fill="#CE1820"/>
<path d="M11.9224 21.5307C11.9266 21.5181 11.9308 21.5097 11.9351 21.4971C11.9478 21.5055 11.9605 21.5139 11.9732 21.5223C11.9647 21.5307 12.0028 21.556 11.9647 21.5517C11.9478 21.5517 11.9351 21.5391 11.9224 21.5307Z" fill="#DD1B24"/>
<path d="M24.883 22.2583C24.7602 22.2205 24.6375 22.1826 24.5105 22.1447C24.519 22.0606 24.5613 21.9975 24.6248 21.9429C24.9338 21.6779 25.2343 21.4045 25.5137 21.1143C25.5391 21.1143 25.5645 21.1143 25.5856 21.1143C25.6025 21.1437 25.6279 21.1479 25.6618 21.1479C25.7973 21.2404 25.975 21.2362 26.1105 21.333C26.0131 21.4381 25.8734 21.4423 25.7465 21.4802C25.6999 21.4928 25.6491 21.4802 25.6279 21.5433C25.5729 21.7157 25.4163 21.8083 25.2978 21.9344C25.2724 21.9597 25.2301 21.9765 25.2174 22.0059C25.1623 22.1616 25.0396 22.2331 24.883 22.2583Z" fill="#C5161D"/>
<path d="M25.5179 21.1143C25.2343 21.4087 24.938 21.6821 24.629 21.9429C24.5656 21.9976 24.5232 22.0607 24.5148 22.1448C24.4301 22.1574 24.3624 22.1027 24.2904 22.0733C24.1888 21.9177 24.2312 21.8083 24.3751 21.6905C24.5825 21.5181 24.7687 21.3204 24.9592 21.1269C25.0015 21.0849 25.0312 21.026 25.0354 20.9629C25.2089 20.9797 25.3571 21.0722 25.5179 21.1143Z" fill="#D21920"/>
<path d="M25.6663 21.1479C25.6366 21.1479 25.607 21.1395 25.5901 21.1143C25.6239 21.1143 25.6493 21.1185 25.6663 21.1479Z" fill="#D21920"/>
<path d="M25.1454 24.1426C24.9973 24.1426 24.8491 24.1426 24.701 24.1426C24.6332 23.7557 24.6798 23.3645 24.6629 22.9734C24.6586 22.8598 24.6798 22.7589 24.7391 22.6663C24.8787 22.6663 25.0184 22.6663 25.1581 22.6663C25.2174 22.6663 25.2851 22.6495 25.2978 22.7378C25.0396 22.7378 25.0396 22.7378 25.0396 22.9902C25.0396 23.0575 25.0311 23.1248 25.0396 23.1921C25.0735 23.5075 24.9338 23.844 25.1454 24.1426Z" fill="#8A0607"/>
<path d="M24.739 22.666C24.6798 22.7585 24.6586 22.8595 24.6628 22.9731C24.6798 23.3642 24.6374 23.7554 24.7009 24.1423C24.6755 24.1423 24.6501 24.1423 24.6247 24.1423C24.5274 24.1423 24.4258 24.1423 24.3284 24.1423C24.2734 23.6502 24.2649 23.1581 24.3284 22.666C24.4639 22.666 24.5993 22.666 24.739 22.666Z" fill="#92090B"/>
<path d="M24.3286 22.666C24.2652 23.1581 24.2736 23.6502 24.3286 24.1423C24.2313 24.1423 24.1297 24.1423 24.0324 24.1423C23.8715 24.0624 23.9181 23.9152 23.9223 23.7848C23.935 23.4105 23.8842 23.0361 23.9562 22.666C24.0535 22.666 24.1551 22.666 24.2525 22.666C24.2779 22.666 24.3032 22.666 24.3286 22.666Z" fill="#9E0B0F"/>
<path d="M25.1454 24.1421C24.9338 23.8477 25.0735 23.5112 25.0354 23.1916C25.0269 23.1243 25.0354 23.057 25.0354 22.9897C25.0354 22.7373 25.0354 22.7373 25.2936 22.7373C25.3994 22.8298 25.4714 22.9308 25.3359 23.057C25.2936 23.0948 25.2809 23.1495 25.3063 23.1916C25.4079 23.364 25.3613 23.5533 25.3698 23.7341C25.374 23.7972 25.374 23.8561 25.3698 23.9192C25.3655 23.9949 25.4671 24.0706 25.4121 24.1211C25.3486 24.18 25.2386 24.1337 25.1454 24.1421Z" fill="#770102"/>
<path d="M26.4153 23.179C26.3857 23.1832 26.3603 23.1832 26.3307 23.1874V23.1832C26.3349 23.1285 26.3053 23.1075 26.2545 23.1075C26.0428 22.9224 25.7931 22.8004 25.5476 22.6616C25.5984 22.6574 25.6619 22.6659 25.6661 22.5859C25.6788 22.5859 25.6915 22.5859 25.7042 22.5859C25.8608 22.6238 25.954 22.771 26.1106 22.8089C26.1995 22.8972 26.2841 22.9813 26.373 23.0696C26.3857 23.1075 26.4026 23.1453 26.4153 23.179Z" fill="#D21920"/>
<path d="M24.0322 24.1426C24.1296 24.1426 24.2311 24.1426 24.3285 24.1426C24.4259 24.1426 24.5274 24.1426 24.6248 24.1426C24.6248 24.151 24.6248 24.1636 24.6248 24.172C24.2227 24.1762 23.8206 24.1973 23.4185 24.151C23.4227 24.1468 23.4312 24.1426 23.4354 24.1426C23.5327 24.1426 23.6343 24.1426 23.7317 24.1426C23.8333 24.1426 23.9306 24.1426 24.0322 24.1426Z" fill="#8A0607"/>
<path d="M25.6661 22.5906C25.6618 22.6705 25.6026 22.6621 25.5475 22.6663C25.5348 22.6663 25.5264 22.6621 25.5137 22.6579C25.5137 22.6242 25.5137 22.5864 25.5179 22.5527C25.5433 22.5527 25.5645 22.5527 25.5899 22.5527C25.6068 22.5822 25.6364 22.5906 25.6661 22.5906Z" fill="#E71D25"/>
<path d="M26.2544 23.1118C26.3094 23.1076 26.3348 23.1328 26.3306 23.1875C26.2883 23.1791 26.2671 23.1538 26.2544 23.1118Z" fill="#BE151C"/>
<path d="M20.1634 21.3365C20.3031 21.3785 20.4089 21.2734 20.5359 21.2607C20.5486 21.2607 20.5613 21.2607 20.574 21.2607C20.5105 21.3491 20.4597 21.4542 20.32 21.4122C20.2904 21.4037 20.2692 21.4248 20.2481 21.4542C20.0026 21.7949 19.7486 22.1314 19.3973 22.3838C19.3211 22.4384 19.2788 22.531 19.1603 22.5352C19.1095 22.5352 19.1306 22.6193 19.1264 22.6656C18.864 22.6656 18.6058 22.6656 18.3433 22.6656C18.3349 22.552 18.3941 22.5142 18.4999 22.5184C18.6015 22.5184 18.7412 22.5604 18.6819 22.3669C18.6693 22.3249 18.7116 22.3038 18.7539 22.3038C18.8047 22.3038 18.8513 22.2954 18.8894 22.2576C19.1814 21.9884 19.4058 21.6603 19.6809 21.3785C19.8417 21.3491 20.0068 21.4122 20.1634 21.3365Z" fill="#B81319"/>
<path d="M19.6811 21.3712C19.4059 21.653 19.1774 21.9811 18.8895 22.2503C18.8514 22.2882 18.8049 22.2966 18.7541 22.2966C18.7118 22.2966 18.6694 22.3218 18.6821 22.3597C18.7414 22.5574 18.6017 22.5153 18.5001 22.5111C18.3943 22.5111 18.335 22.5447 18.3435 22.6583C18.1446 22.6583 17.9456 22.6583 17.7467 22.6583C17.7594 22.5868 17.662 22.5994 17.6536 22.5237C17.8102 22.5153 17.9541 22.4858 17.9456 22.284C17.9456 22.2671 17.9795 22.2503 18.0007 22.2377C18.1911 22.1073 18.3774 21.9643 18.5213 21.7834C18.7668 21.4806 19.0546 21.3039 19.461 21.3628C19.5287 21.3797 19.6049 21.3712 19.6811 21.3712Z" fill="#C5161D"/>
<path d="M19.681 21.3706C19.6048 21.3706 19.5329 21.379 19.4567 21.3706C19.0503 21.3117 18.7583 21.4925 18.517 21.7912C18.3731 21.972 18.1869 22.115 17.9964 22.2454C17.9752 22.258 17.9414 22.2791 17.9414 22.2917C17.9498 22.4936 17.8059 22.523 17.6493 22.5314C17.6578 22.6029 17.7551 22.5945 17.7424 22.666C17.6916 22.666 17.6408 22.6618 17.5943 22.666C17.3911 22.6955 17.2218 22.645 17.0906 22.4726C17.0948 22.4389 17.1329 22.4389 17.1583 22.4473C17.3657 22.4936 17.3869 22.481 17.425 22.2707C17.4292 22.2412 17.4419 22.2202 17.4673 22.2244C17.6154 22.2454 17.6451 22.1319 17.7001 22.0393C17.7636 21.9342 17.8567 21.8501 17.9583 21.7786C18.0345 21.7239 18.1191 21.6734 18.1403 21.5809C18.1572 21.5052 18.1911 21.4799 18.2673 21.4841C18.3689 21.4883 18.4324 21.4379 18.4451 21.3369C19.0165 21.3369 19.5879 21.3369 20.1551 21.3369C20.0069 21.4126 19.8419 21.3495 19.681 21.3706Z" fill="#D21920"/>
<path d="M16.701 19.7812C16.8576 19.7433 16.9931 19.7854 17.1412 19.8359C17.4036 19.9284 17.6872 19.9578 17.9666 20.0041C18.2375 20.0504 18.4999 20.1471 18.7708 20.2018C19.1941 20.2859 19.6174 20.3742 20.0322 20.5004C20.0745 20.513 20.0787 20.471 20.083 20.4415C20.1211 20.4415 20.1592 20.4373 20.193 20.45C20.4555 20.5551 20.7348 20.5888 21.0142 20.5888C20.9676 20.6939 20.9338 20.8117 20.8025 20.8495C20.7137 20.8285 20.6248 20.7991 20.5274 20.8075C20.4301 20.8159 20.3285 20.8117 20.2523 20.7402C20.1592 20.5972 20.011 20.5761 19.8586 20.5761C19.8375 20.4878 19.7613 20.513 19.7063 20.513C19.465 20.5088 19.2237 20.513 18.9825 20.513C18.9105 20.513 18.8301 20.5341 18.8131 20.4247C18.8047 20.3827 18.7708 20.37 18.7285 20.37C18.2798 20.3532 17.865 20.1597 17.429 20.0924C17.2555 20.0672 17.0904 19.9915 16.9084 19.9957C16.7814 19.9999 16.6925 19.9326 16.701 19.7812ZM20.447 20.7149C20.4428 20.7065 20.4428 20.6897 20.4343 20.6855C20.4258 20.6813 20.4131 20.6939 20.4047 20.6939C20.4089 20.7023 20.4089 20.7191 20.4174 20.7234C20.4216 20.7276 20.4343 20.7191 20.447 20.7149Z" fill="#8A0607"/>
<path d="M19.2703 19.7804C19.2195 19.6753 19.1052 19.6584 19.0163 19.6374C18.4787 19.5154 17.9412 19.4061 17.4036 19.2883C17.3232 19.2715 17.2512 19.2378 17.1877 19.1873C17.192 19.1327 17.2258 19.1074 17.2724 19.1158C17.501 19.1621 17.738 19.1873 17.9539 19.2673C18.1528 19.3388 18.3602 19.343 18.5634 19.3977C19.1306 19.5533 19.7105 19.6584 20.2777 19.8183C20.5147 19.8856 20.756 19.915 20.9972 19.9613C21.1581 19.9907 21.2089 20.0706 21.1284 20.222C21.0184 20.0917 20.8491 20.1253 20.7094 20.0832C20.3496 19.9781 19.9729 19.9276 19.6046 19.8435C19.4946 19.8183 19.3888 19.7678 19.2703 19.7804Z" fill="#C5161D"/>
<path d="M21.0183 20.5925C20.7347 20.5925 20.4596 20.5589 20.1972 20.4537C20.1633 20.4411 20.1252 20.4495 20.0871 20.4453C20.0829 20.4033 20.0617 20.3822 20.0194 20.3738C19.2702 20.1887 18.521 20.0037 17.7633 19.8523C17.5051 19.8018 17.2512 19.7303 16.9972 19.6714C16.9252 19.6546 16.8533 19.6335 16.8152 19.562C16.8152 19.5368 16.8152 19.5116 16.8152 19.4863C16.8406 19.4863 16.866 19.4863 16.8914 19.4863C16.9422 19.6335 17.0861 19.5452 17.1792 19.5873C17.3951 19.6798 17.6363 19.7177 17.8649 19.7723C18.1654 19.8438 18.4617 19.9196 18.7665 19.9826C19.0162 20.0373 19.2617 20.092 19.5115 20.1467C19.8289 20.2182 20.1506 20.2771 20.4681 20.3738C20.5527 20.399 20.6416 20.4832 20.7347 20.3864C20.7516 20.3654 20.8109 20.378 20.8151 20.4033C20.8448 20.6935 20.9802 20.4327 21.0606 20.4495C21.0606 20.4748 21.0606 20.5 21.0649 20.5252C21.0522 20.5505 21.0479 20.5799 21.0183 20.5925Z" fill="#9E0B0F"/>
<path d="M20.2566 20.748C20.337 20.8238 20.4344 20.828 20.5317 20.8153C20.6291 20.8069 20.7138 20.8364 20.8069 20.8574C20.8026 20.87 20.7984 20.8784 20.7984 20.8911C20.7942 20.8953 20.7815 20.8953 20.7815 20.8995C20.7815 20.9079 20.7857 20.9205 20.7857 20.9289C20.6714 21.0467 20.5233 21.1098 20.3794 21.1855C20.3413 21.1897 20.3074 21.1939 20.2693 21.1981C20.2312 21.1939 20.1931 21.1897 20.155 21.1855C20.282 21.0593 20.337 20.9163 20.2566 20.748Z" fill="#770102"/>
<path d="M20.7899 20.9246C20.7856 20.9162 20.7856 20.9035 20.7856 20.8951C20.7856 20.8909 20.7941 20.8909 20.8026 20.8867C20.7941 20.9035 20.7899 20.9162 20.7899 20.9246Z" fill="#8A0607"/>
<path d="M11.643 21.0762C11.6388 21.0804 11.6388 21.0846 11.6345 21.093C11.6388 21.0846 11.643 21.0804 11.643 21.0762Z" fill="#E71D25"/>
<path d="M20.7561 19.7095C20.7984 19.5791 20.8831 19.6548 20.955 19.6633C20.9 19.7263 20.8238 19.6969 20.7561 19.7095C20.7561 19.7053 20.7561 19.7095 20.7561 19.7095Z" fill="#D21920"/>
<path d="M26.1106 22.8132C25.954 22.7753 25.8609 22.6281 25.7043 22.5903C25.6789 22.5482 25.6323 22.5566 25.5942 22.5566C25.6493 22.5146 25.7297 22.4935 25.7085 22.3926C25.7043 22.3673 25.7212 22.3211 25.7382 22.3127C26.0217 22.2075 26.1403 21.9257 26.3477 21.7406C26.4408 21.6565 26.5212 21.6187 26.6355 21.6313C26.6482 21.7322 26.7286 21.6986 26.7879 21.707C26.8429 21.707 26.8937 21.707 26.8979 21.7785C26.8895 21.9173 26.9995 21.8248 27.0461 21.8542C27.0588 21.8542 27.0715 21.8542 27.0799 21.8542C26.8895 21.8879 26.8217 22.0771 26.6778 22.1739C26.4874 22.3043 26.3477 22.4977 26.1657 22.6449C26.0387 22.7459 26.2376 22.7207 26.2419 22.7837C26.2122 22.8342 26.153 22.8006 26.1106 22.8132Z" fill="#AA0F14"/>
<path d="M27.0461 21.8501C26.9995 21.8207 26.8895 21.9132 26.8979 21.7744C26.9529 21.7828 27.0334 21.7534 27.0461 21.8501Z" fill="#92090B"/>
<path d="M26.7835 21.7027C26.7242 21.6943 26.648 21.7279 26.6311 21.627C26.6565 21.627 26.6819 21.627 26.7073 21.627C26.7581 21.6312 26.7835 21.6564 26.7835 21.7027Z" fill="#92090B"/>
<path d="M25.5181 22.5526C25.4757 22.5694 25.4292 22.6199 25.3911 22.5652C25.3699 22.5315 25.4165 22.5231 25.4461 22.5189C25.4757 22.5147 25.5054 22.5189 25.5181 22.5526Z" fill="#E71D25"/>
<path d="M26.7073 21.6272C26.6819 21.6272 26.6565 21.6272 26.6311 21.6272C26.6396 21.6061 26.648 21.5767 26.6607 21.5725C26.7031 21.5641 26.7031 21.6019 26.7073 21.6272Z" fill="#AA0F14"/>
<path d="M20.2567 20.7482C20.3328 20.9207 20.282 21.0595 20.1551 21.1856H20.1593C20.1466 21.1898 20.1339 21.1898 20.1212 21.194C20.0408 21.2319 19.9561 21.2319 19.8715 21.2319C19.3466 21.2319 18.826 21.2361 18.3011 21.2403C18.2842 21.2277 18.2673 21.2151 18.2503 21.2025C18.2503 21.173 18.2461 21.1436 18.2461 21.1183C18.2461 21.0805 18.2461 21.0468 18.2461 21.009C18.2842 20.8744 18.2503 20.7398 18.263 20.601V20.5926C18.2757 20.5926 18.2884 20.5884 18.3011 20.5884C18.3773 20.5884 18.4535 20.5884 18.5255 20.5884C18.5509 20.5884 18.572 20.5884 18.5974 20.5884C19.0207 20.5884 19.4397 20.5884 19.863 20.5884C20.0196 20.5842 20.1635 20.6052 20.2567 20.7482Z" fill="#FEFEFE"/>
<path d="M18.2673 20.5967C18.2546 20.7313 18.2842 20.8701 18.2504 21.0047C18.2419 20.9921 18.2334 20.9794 18.225 20.9668C18.2546 20.8448 18.1827 20.7102 18.2673 20.5967Z" fill="#C06263"/>
<path d="M18.5973 20.5836C18.572 20.5836 18.5508 20.5836 18.5254 20.5836C18.5508 20.5542 18.5762 20.5542 18.5973 20.5836Z" fill="#8A0607"/>
<path d="M18.301 20.5849C18.2883 20.5849 18.2756 20.5891 18.2629 20.5891C18.2756 20.5723 18.2841 20.5681 18.301 20.5849Z" fill="#8A0607"/>
<path d="M18.3054 21.2363C18.8303 21.2321 19.3509 21.2321 19.8758 21.2279C19.9604 21.2279 20.0451 21.2279 20.1255 21.1901C20.1467 21.2153 20.1551 21.2069 20.1636 21.1816H20.1594C20.1975 21.1858 20.2356 21.1901 20.2737 21.1943C20.2398 21.2489 20.189 21.2574 20.1297 21.2574C19.5456 21.2574 18.9573 21.2574 18.3731 21.2574C18.3477 21.2574 18.3266 21.2447 18.3054 21.2363Z" fill="#CE1820"/>
<path d="M17.2598 21.194C17.2725 21.1898 17.2852 21.1855 17.2936 21.1855C17.3529 21.236 17.4206 21.2192 17.4883 21.2192C17.7211 21.2234 17.9582 21.2234 18.191 21.2276C17.8947 21.2865 17.5984 21.2528 17.2979 21.2444C17.2852 21.2486 17.2725 21.215 17.2598 21.194Z" fill="#CE1820"/>
<path d="M18.191 21.2315C17.9582 21.2273 17.7212 21.2273 17.4884 21.2231C17.4207 21.2231 17.353 21.2399 17.2937 21.1895C17.6027 21.1895 17.9117 21.1895 18.2207 21.1895C18.2122 21.2021 18.2037 21.2147 18.191 21.2315Z" fill="#8A0607"/>
<path d="M16.8534 22.22C16.8196 22.2158 16.7772 22.2326 16.7603 22.1863C16.7561 22.1779 16.7772 22.1569 16.7899 22.1527C16.8365 22.1485 16.845 22.1821 16.8534 22.22Z" fill="#DD1B24"/>
<path d="M18.2503 21.1104C18.2503 21.1398 18.2545 21.165 18.2545 21.1945C18.2461 21.1945 18.2376 21.1903 18.2291 21.1861C18.2291 21.1608 18.2207 21.1314 18.2503 21.1104Z" fill="#C06263"/>
<path d="M29.7169 18.9019C29.7211 18.944 29.7042 18.9692 29.6576 18.9608C29.6534 18.9187 29.6703 18.8977 29.7169 18.9019Z" fill="#E71D25"/>
<path d="M14.1022 22.5908C14.1487 22.595 14.1741 22.6161 14.1784 22.6665C14.136 22.6539 14.0471 22.6918 14.1022 22.5908Z" fill="#9E0B0F"/>
<path d="M26.7836 20.4454C26.7963 20.4707 26.809 20.4917 26.8217 20.5169C26.7666 20.5127 26.7116 20.5295 26.6523 20.4959C26.6735 20.416 26.7412 20.458 26.7836 20.4454Z" fill="#D21920"/>
<path d="M21.0567 20.4458C20.9763 20.429 20.8451 20.6898 20.8112 20.3996C20.807 20.3701 20.752 20.3617 20.7308 20.3827C20.6334 20.4795 20.5488 20.3954 20.4641 20.3701C20.1509 20.2734 19.8292 20.2145 19.5075 20.143C19.2578 20.0883 19.0123 20.0294 18.7626 19.979C18.462 19.9159 18.1615 19.8402 17.861 19.7686C17.6324 19.714 17.3911 19.6761 17.1753 19.5836C17.0822 19.5415 16.9382 19.6341 16.8875 19.4826C16.8875 19.4574 16.8875 19.4322 16.8875 19.4111C17.3277 19.4868 17.7552 19.613 18.1911 19.6887C18.6652 19.7686 19.1223 19.9117 19.5879 20.0168C20.007 20.1093 20.4303 20.1724 20.8408 20.2986C20.9255 20.3281 21.0271 20.3365 21.0567 20.4458Z" fill="#AA0F14"/>
<path d="M27.0798 19.8568C27.0841 19.8316 27.0841 19.7979 27.1264 19.8021C27.1306 19.8021 27.1391 19.8105 27.1391 19.8147C27.1391 19.8526 27.1095 19.8526 27.0798 19.8568Z" fill="#D21920"/>
<path d="M23.1393 22.6621C23.2366 22.6621 23.3382 22.6621 23.4356 22.6621C23.3297 22.7588 23.3128 22.8808 23.3213 23.0154C23.3509 23.3898 23.2408 23.7809 23.4356 24.1426C23.4313 24.1469 23.4229 24.1469 23.4186 24.1511C23.3128 24.1426 23.2028 24.2141 23.0969 24.1511C23.1054 24.1048 23.0969 24.0501 23.1393 24.0165C23.1943 23.9744 23.2281 23.9365 23.1266 23.9155C23.0504 23.8987 23.0631 23.8356 23.0631 23.7809C23.0631 23.4823 23.0673 23.1795 23.0588 22.8808C23.0588 22.7925 23.1223 22.7378 23.1393 22.6621Z" fill="#C5161D"/>
<path d="M24.0322 24.1423C23.9348 24.1423 23.8332 24.1423 23.7359 24.1423C23.7317 24.075 23.6851 24.0708 23.6301 24.0666C23.592 24.0666 23.5497 24.054 23.5666 24.0035C23.6766 23.7175 23.6004 23.4189 23.6216 23.1287C23.6343 22.9731 23.6047 22.809 23.6978 22.666C23.7867 22.666 23.8713 22.666 23.9602 22.666C23.8883 23.0361 23.9348 23.4105 23.9264 23.7848C23.9179 23.911 23.8713 24.0582 24.0322 24.1423Z" fill="#AA0F14"/>
<path d="M23.6936 22.6663C23.6005 22.8093 23.6302 22.9692 23.6175 23.129C23.5963 23.4192 23.6767 23.7178 23.5624 24.0038C23.5413 24.0543 23.5836 24.0669 23.6259 24.0669C23.6809 24.0669 23.7275 24.0753 23.7317 24.1426C23.6344 24.1426 23.5328 24.1426 23.4354 24.1426C23.2407 23.7851 23.355 23.394 23.3212 23.0154C23.3085 22.8808 23.3296 22.7588 23.4354 22.6621C23.5201 22.6663 23.609 22.6663 23.6936 22.6663Z" fill="#B81319"/>
<path d="M25.5942 22.5524C25.6366 22.5524 25.6789 22.544 25.7043 22.5861C25.6916 22.5861 25.6789 22.5861 25.6662 22.5861C25.6366 22.5903 25.6069 22.5819 25.5942 22.5524Z" fill="#B81319"/>
<path d="M20.4471 20.7142C20.4386 20.7184 20.4217 20.7268 20.4175 20.7226C20.409 20.7184 20.409 20.7016 20.4048 20.6932C20.4133 20.6889 20.4302 20.6805 20.4344 20.6847C20.4386 20.6889 20.4429 20.7058 20.4471 20.7142Z" fill="#770102"/>
<path d="M20.1636 21.1816C20.1551 21.2069 20.1424 21.2153 20.1255 21.1901C20.1382 21.1901 20.1509 21.1858 20.1636 21.1816Z" fill="#770102"/>
</svg>
