<svg width="32" height="32" viewBox="0 0 32 32" fill="none" xmlns="http://www.w3.org/2000/svg">
<g clip-path="url(#clip0_722_30056)">
<g clip-path="url(#clip1_722_30056)">
<path d="M20 18.7202C19.4933 18.7202 19.04 18.9202 18.6933 19.2335L13.94 16.4668C13.9733 16.3135 14 16.1602 14 16.0002C14 15.8402 13.9733 15.6868 13.94 15.5335L18.64 12.7935C19 13.1268 19.4733 13.3335 20 13.3335C21.1067 13.3335 22 12.4402 22 11.3335C22 10.2268 21.1067 9.3335 20 9.3335C18.8933 9.3335 18 10.2268 18 11.3335C18 11.4935 18.0267 11.6468 18.06 11.8002L13.36 14.5402C13 14.2068 12.5267 14.0002 12 14.0002C10.8933 14.0002 10 14.8935 10 16.0002C10 17.1068 10.8933 18.0002 12 18.0002C12.5267 18.0002 13 17.7935 13.36 17.4602L18.1067 20.2335C18.0733 20.3735 18.0533 20.5202 18.0533 20.6668C18.0533 21.7402 18.9267 22.6135 20 22.6135C21.0733 22.6135 21.9467 21.7402 21.9467 20.6668C21.9467 19.5935 21.0733 18.7202 20 18.7202Z" fill="#1D9752"/>
</g>
</g>
<rect x="0.5" y="0.5" width="31" height="31" rx="15.5" stroke="#1D9752"/>
<defs>
<clipPath id="clip0_722_30056">
<rect width="32" height="32" rx="16" fill="white"/>
</clipPath>
<clipPath id="clip1_722_30056">
<rect width="16" height="16" fill="white" transform="translate(8 8)"/>
</clipPath>
</defs>
</svg>
