<svg width="40" height="40" viewBox="0 0 40 40" fill="none" xmlns="http://www.w3.org/2000/svg">
<rect opacity="0.2" width="40" height="40" rx="10" fill="#56B6F7"/>
<g clip-path="url(#clip0_118:1299)">
<path d="M21.8549 11.9243C21.2871 11.2619 20.7761 10.6751 20.3786 10.183C20.3596 10.1451 20.3218 10.1262 20.3029 10.1073C20.0947 9.93693 19.7918 9.97479 19.6215 10.183C19.224 10.6751 18.713 11.2619 18.1451 11.9243C15.6467 14.8202 12.183 18.8328 12.183 22.183C12.183 24.3407 13.0537 26.2902 14.4732 27.7098C15.8928 29.1104 17.8423 30 20 30C22.1578 30 24.1073 29.1293 25.5268 27.7098C26.9464 26.2902 27.8171 24.3407 27.8171 22.183C27.8171 18.8328 24.3533 14.8202 21.8549 11.9243ZM24.8455 27.0095C23.5962 28.2587 21.8928 29.0347 20 29.0347C18.1073 29.0347 16.4038 28.2587 15.1546 27.0284C13.9243 25.7981 13.1483 24.0757 13.1483 22.183C13.1483 19.1924 16.4795 15.3312 18.8833 12.5489C19.2808 12.0757 19.6593 11.6404 20 11.224C20.3407 11.6404 20.7193 12.0757 21.1167 12.53C23.5205 15.3123 26.8518 19.1546 26.8518 22.164C26.8518 24.0568 26.0757 25.7602 24.8455 27.0095Z" fill="#007FD6"/>
<path d="M20.0379 26.5551C18.8644 26.5551 17.8044 26.0819 17.0473 25.3248C16.2903 24.5677 15.8171 23.5078 15.8171 22.3343C15.8171 22.0693 15.6089 21.8611 15.3439 21.8611C15.0789 21.8611 14.8707 22.0693 14.8707 22.3343C14.8707 23.7727 15.4574 25.0598 16.3849 26.0062C17.2934 26.9147 18.5994 27.5014 20.0379 27.5014C20.3029 27.5014 20.5111 27.2932 20.5111 27.0283C20.5111 26.7633 20.3029 26.5551 20.0379 26.5551Z" fill="#007FD6"/>
</g>
<defs>
<clipPath id="clip0_118:1299">
<rect width="20" height="20" fill="white" transform="translate(10 10)"/>
</clipPath>
</defs>
</svg>
