<svg width="41" height="40" viewBox="0 0 41 40" fill="none" xmlns="http://www.w3.org/2000/svg">
<path d="M38.8 12.3C35.7 5.00002 28.5 0 20.4 0C9.3 0 0.5 9.1 0.5 20C0.5 31 9.4 39.9 20.4 39.9C31.3 39.9 40.4 31.1 40.4 20C40.4 17.4 39.8 14.7 38.8 12.3ZM33.2 18.9C32.8 17.9 32 17 30.9 16.7C30.8 15.5 30.6 14.4 30.4 13.3C33.2 14.3 36.9 16.1 37.8 18.9H33.2V18.9ZM29.9 21.2C29.8 21.2 29.8 21.2 29.9 21.2C29.2 21.2 28.7 20.7 28.7 20C28.7 19.4 29.2 18.9 29.8 18.8C29.8 18.8 29.8 18.8 29.9 18.8C30.5 18.8 31.1 19.3 31.1 20C31 20.7 30.5 21.2 29.9 21.2ZM28.5 16.8C27.6 17.2 26.8 17.9 26.5 18.9H21.5V11.8C23.7 11.9 25.9 12.1 27.8 12.6C28.2 13.9 28.4 15.3 28.5 16.8ZM12.6 14C13.8 13.8 14.8 13.1 15.3 12.1C16.6 11.9 17.8 11.8 19.2 11.8V18.9H12.2C12.2 17.2 12.4 15.5 12.6 14ZM21.5 9.39999V2.60001C23.7 3.30001 25.8 6.1 27.1 10C25.3 9.6 23.4 9.39999 21.5 9.39999ZM19.2 2.5V9.30002C18 9.30002 16.8 9.40001 15.6 9.60001C15.4 8.90001 15 8.30002 14.5 7.80002C15.7 5.00002 17.4 3.1 19.2 2.5ZM12.2 9.39999C12.8 9.39999 13.4 9.90001 13.4 10.6C13.4 11.2 12.9 11.8 12.2 11.8C11.6 11.8 11 11.3 11 10.6C11 9.90001 11.5 9.39999 12.2 9.39999ZM10 13.3C10.1 13.4 10.2 13.5 10.3 13.5C10 15.2 9.8 17 9.8 18.8H3C3.7 16.7 6.3 14.6 10 13.3ZM9.8 21.2C9.9 23.1 10.1 25 10.4 26.7C6.5 25.4 3.7 23.4 3 21.2H9.8ZM12.2 21.2H19.2V26.1C18.3 26.4 17.5 27.2 17.1 28.1C15.6 28 14.3 27.7 13 27.5C12.5 25.5 12.2 23.4 12.2 21.2ZM20.3 30.6C19.7 30.6 19.1 30.1 19.1 29.4C19.1 29.4 19.1 29.4 19.1 29.3C19.1 28.7 19.6 28.2 20.3 28.2C20.9 28.2 21.4 28.7 21.5 29.3C21.5 29.3 21.5 29.3 21.5 29.4C21.5 30 21 30.6 20.3 30.6ZM17 30.4C17.3 31.5 18.1 32.3 19.2 32.7V37.4C16.4 36.5 14.6 32.8 13.7 30C14.7 30.2 15.8 30.3 17 30.4ZM21.5 37.4V32.7C22.5 32.3 23.4 31.5 23.7 30.4C24.9 30.3 26 30.1 27.2 29.9C26.2 32.7 24.3 36.5 21.5 37.4ZM23.6 28.1C23.2 27.2 22.5 26.4 21.5 26.1V21.2H26.5C26.8 22.1 27.6 22.9 28.5 23.3C28.4 24.7 28.1 26.1 27.8 27.4C26.5 27.7 25.1 27.9 23.6 28.1ZM30.9 23.4C32 23.1 32.8 22.2 33.2 21.2H37.9C37 23.9 33.2 25.8 30.5 26.7C30.6 25.6 30.8 24.5 30.9 23.4ZM37 14.1C35 12.5 32.3 11.3 29.8 10.6C29.1 8.10001 28 5.39999 26.3 3.39999C31.3 5.19999 35.2 9.10001 37 14.1ZM14.4 3.39999C13.6 4.39999 12.9 5.6 12.3 7H12.2C10 7 8.3 9.10002 8.8 11.3C6.9 12 5.2 12.9 3.9 14C5.6 9.1 9.5 5.19999 14.4 3.39999ZM3.8 26C5.8 27.6 8.4 28.7 11 29.4C11.8 32.3 13 34.8 14.4 36.6C9.5 34.8 5.6 30.9 3.8 26ZM26.3 36.5C27.9 34.4 29.1 31.8 29.8 29.3C32.3 28.6 34.9 27.5 37 25.9C35.2 30.9 31.3 34.8 26.3 36.5Z" fill="#0E9549"/>
</svg>
