<svg width="375" height="85" viewBox="0 0 375 85" fill="none" xmlns="http://www.w3.org/2000/svg">
<g clip-path="url(#clip0_1598_20230)">
<path d="M0 0H375V85H0V0Z" fill="#0E9549"/>
<path d="M36.3591 23.196H26.3566C25.9059 23.1955 25.4653 23.0873 25.0652 22.8799C24.6651 22.6725 24.3208 22.372 24.0625 22.0042L9.99826 1.93381H3.14598L21.1402 27.622C21.3985 27.9913 21.7428 28.2923 22.1429 28.5007C22.543 28.7086 22.9888 28.8179 23.4395 28.8179H44.2091C44.6598 28.8174 45.1055 28.9257 45.5056 29.1341C45.9057 29.3425 46.2501 29.6445 46.5084 30.0143L81.4941 79.904C81.8233 80.3759 82.0005 80.9375 82.0005 81.5126C82.0005 82.0883 81.8233 82.6494 81.4941 83.1214L56.2272 119.165C55.9689 119.534 55.6245 119.836 55.2244 120.044C54.8243 120.252 54.3837 120.361 53.933 120.361C53.4822 120.361 53.0366 120.252 52.6365 120.044C52.2364 119.836 51.892 119.534 51.6337 119.165L26.3668 83.1133C26.0376 82.6428 25.8603 82.0818 25.8603 81.5066C25.8603 80.9314 26.0376 80.3704 26.3668 79.8999L39.7928 60.7517C40.0511 60.3835 40.3955 60.0825 40.7956 59.875C41.1957 59.6671 41.6363 59.5589 42.087 59.5589C42.5378 59.5589 42.9834 59.6671 43.3835 59.875C43.7786 60.0825 44.123 60.3835 44.3813 60.7517L49.3901 67.8685C49.7193 68.34 49.8966 68.9015 49.8966 69.4772C49.8966 70.0529 49.7193 70.6144 49.3901 71.0859L43.2012 79.9292C42.872 80.4002 42.6948 80.9612 42.6948 81.5359C42.6948 82.1106 42.872 82.6716 43.2012 83.1426L53.9127 98.4081L64.6343 83.1173C64.9635 82.6463 65.1407 82.0853 65.1407 81.5106C65.1407 80.9359 64.9635 80.3754 64.6343 79.904L39.3421 43.7976C39.0838 43.4283 38.7394 43.1268 38.3393 42.9184C37.9392 42.71 37.4935 42.6012 37.0428 42.6012H23.4344C22.9837 42.6017 22.538 42.7105 22.1379 42.9189C21.7378 43.1268 21.3934 43.4283 21.1352 43.7976L3.12574 69.4858L9.98814 69.4646L24.0574 49.3815C24.3157 49.0138 24.66 48.7138 25.0601 48.5064C25.4602 48.2989 25.9059 48.1902 26.3566 48.1897H34.1257C34.5764 48.1897 35.017 48.2984 35.4171 48.5069C35.8172 48.7148 36.1615 49.0163 36.4198 49.3856L37.534 50.969C37.8632 51.44 38.0405 52.001 38.0405 52.5757C38.0405 53.1504 37.8632 53.7109 37.534 54.1824L18.0053 82.0433C17.747 82.4121 17.4026 82.7126 17.0025 82.92C16.6024 83.1274 16.1567 83.2357 15.706 83.2352H-17.9579C-18.4694 83.2342 -18.9707 83.093 -19.4113 82.8269C-19.8469 82.5608 -20.2065 82.1799 -20.4395 81.7256C-20.6775 81.2713 -20.7838 80.7609 -20.7534 80.2495C-20.718 79.7385 -20.5458 79.2463 -20.2521 78.8259L8.83344 37.2869C9.16264 36.8159 9.33985 36.2549 9.33985 35.6802C9.33985 35.1055 9.16264 34.545 8.83344 34.0735L-20.2521 -7.44024C-20.5509 -7.85997 -20.7231 -8.35255 -20.7585 -8.86425C-20.7889 -9.37595 -20.6826 -9.8871 -20.4446 -10.3419C-20.2116 -10.7968 -19.852 -11.178 -19.4113 -11.4437C-18.9758 -11.7096 -18.4694 -11.8499 -17.9579 -11.8494H15.7313C16.1821 -11.849 16.6277 -11.7401 17.0278 -11.5319C17.4279 -11.3238 17.7723 -11.0224 18.0306 -10.6534L38.6634 18.7913C38.9572 19.2112 39.1344 19.7044 39.1648 20.2169C39.2003 20.7289 39.0939 21.2408 38.8559 21.6956C38.6178 22.1509 38.2582 22.5313 37.8176 22.7959C37.377 23.061 36.8706 23.1991 36.3591 23.196Z" fill="white" fill-opacity="0.1"/>
<path d="M71.5318 48.1653H81.5241C81.9748 48.1653 82.4205 48.2746 82.8206 48.4825C83.2207 48.6909 83.5651 48.9919 83.8233 49.3612L97.8876 69.4276H104.74L86.7456 43.7394C86.4873 43.3701 86.143 43.0686 85.7429 42.8601C85.3428 42.6522 84.897 42.5435 84.4463 42.5435H63.6717C63.221 42.5435 62.7752 42.4352 62.3751 42.2278C61.975 42.0204 61.6306 41.7199 61.3724 41.3516L26.3411 -8.54702C26.0119 -9.01785 25.8347 -9.57872 25.8347 -10.1536C25.8347 -10.7284 26.0119 -11.2893 26.3411 -11.7601L51.608 -47.8038C51.8663 -48.173 52.2107 -48.4745 52.6108 -48.6826C53.0109 -48.8907 53.4515 -48.9994 53.9073 -48.9994C54.358 -48.9994 54.7986 -48.8907 55.1987 -48.6826C55.5988 -48.4745 55.9433 -48.173 56.2066 -47.8038L81.4684 -11.7601C81.7976 -11.2891 81.9748 -10.7282 81.9748 -10.1536C81.9748 -9.57887 81.7976 -9.01805 81.4684 -8.54702L68.0474 10.597C67.7841 10.9653 67.4397 11.2663 67.0447 11.4737C66.6446 11.6816 66.1988 11.7899 65.7481 11.7899C65.2973 11.7899 64.8517 11.6816 64.4516 11.4737C64.0515 11.2663 63.7071 10.9653 63.4488 10.597L58.4553 3.46758C58.1261 2.9966 57.9488 2.43558 57.9488 1.8609C57.9488 1.28627 58.1261 0.725445 58.4553 0.254417L64.6187 -8.53857C64.9479 -9.0094 65.1252 -9.57032 65.1252 -10.1452C65.1252 -10.72 64.9479 -11.2809 64.6187 -11.7517L53.9022 -27.0552L43.1857 -11.7601C42.8515 -11.2893 42.6742 -10.7284 42.6742 -10.1536C42.6742 -9.57872 42.8515 -9.01785 43.1857 -8.54702L68.5589 27.585C68.8172 27.9528 69.1616 28.2528 69.5617 28.4602C69.9618 28.6676 70.4075 28.7764 70.8582 28.7769H84.3804C84.8312 28.7769 85.2769 28.6681 85.6719 28.4597C86.072 28.2518 86.4164 27.9503 86.6747 27.581L104.669 1.89277H97.8116L83.7424 21.9717C83.4841 22.3395 83.1397 22.6405 82.7396 22.8479C82.3395 23.0554 81.8938 23.1636 81.4431 23.1631H73.7197C73.2689 23.1631 72.8233 23.0543 72.4232 22.8464C72.0231 22.638 71.6787 22.3365 71.4204 21.9672L70.286 20.3504C69.9568 19.8799 69.7795 19.3189 69.7795 18.7437C69.7795 18.1685 69.9568 17.6075 70.286 17.137L89.8045 -10.6778C90.0628 -11.0474 90.4073 -11.3492 90.8074 -11.5574C91.2075 -11.7656 91.6531 -11.8742 92.1039 -11.8739H125.788C126.305 -11.8734 126.806 -11.7324 127.247 -11.466C127.682 -11.1997 128.042 -10.8182 128.28 -10.3632C128.513 -9.90815 128.624 -9.39696 128.589 -8.88515C128.553 -8.37341 128.381 -7.88063 128.087 -7.46049L99.0017 34.0532C98.6726 34.5247 98.4953 35.0862 98.4953 35.6619C98.4953 36.2376 98.6726 36.7997 99.0017 37.2706L128.163 78.7975C128.462 79.2189 128.644 79.7157 128.68 80.2327C128.715 80.7497 128.609 81.2667 128.366 81.7256C128.128 82.1849 127.763 82.5689 127.317 82.835C126.872 83.1005 126.365 83.2381 125.844 83.2316H92.1697C91.719 83.2321 91.2733 83.1233 90.8732 82.9154C90.4731 82.707 90.1287 82.4055 89.8654 82.0357L69.2122 52.5953C68.9084 52.1739 68.7311 51.6772 68.6956 51.1607C68.6602 50.6436 68.7666 50.1271 69.0097 49.6678C69.2477 49.209 69.6124 48.825 70.0581 48.5599C70.5037 48.2948 71.0102 48.1577 71.5318 48.1653Z" fill="white" fill-opacity="0.1"/>
<path d="M343.359 -13.804H333.357C332.906 -13.8045 332.465 -13.9127 332.065 -14.1201C331.665 -14.3275 331.321 -14.628 331.062 -14.9958L316.998 -35.0662H310.146L328.14 -9.37799C328.398 -9.00869 328.743 -8.7077 329.143 -8.49928C329.543 -8.29136 329.989 -8.18208 330.44 -8.18208H351.209C351.66 -8.18259 352.105 -8.07433 352.506 -7.86591C352.906 -7.65748 353.25 -7.35547 353.508 -6.98567L388.494 42.904C388.823 43.3759 389 43.9375 389 44.5126C389 45.0883 388.823 45.6494 388.494 46.1214L363.227 82.165C362.969 82.5343 362.625 82.8358 362.224 83.0442C361.824 83.2521 361.384 83.3609 360.933 83.3609C360.482 83.3609 360.037 83.2521 359.636 83.0442C359.236 82.8358 358.892 82.5343 358.634 82.165L333.367 46.1133C333.038 45.6428 332.86 45.0818 332.86 44.5066C332.86 43.9314 333.038 43.3704 333.367 42.8999L346.793 23.7517C347.051 23.3835 347.396 23.0825 347.796 22.875C348.196 22.6671 348.636 22.5589 349.087 22.5589C349.538 22.5589 349.983 22.6671 350.384 22.875C350.779 23.0825 351.123 23.3835 351.381 23.7517L356.39 30.8685C356.719 31.34 356.897 31.9015 356.897 32.4772C356.897 33.0529 356.719 33.6144 356.39 34.0859L350.201 42.9292C349.872 43.4002 349.695 43.9612 349.695 44.5359C349.695 45.1106 349.872 45.6716 350.201 46.1426L360.913 61.4081L371.634 46.1173C371.964 45.6463 372.141 45.0853 372.141 44.5106C372.141 43.9359 371.964 43.3754 371.634 42.904L346.342 6.7976C346.084 6.42831 345.739 6.1268 345.339 5.91838C344.939 5.70996 344.493 5.60119 344.043 5.60119H330.434C329.984 5.6017 329.538 5.71046 329.138 5.91888C328.738 6.1268 328.393 6.42831 328.135 6.7976L310.126 32.4858L316.988 32.4646L331.057 12.3815C331.316 12.0138 331.66 11.7138 332.06 11.5064C332.46 11.2989 332.906 11.1902 333.357 11.1897H341.126C341.576 11.1897 342.017 11.2984 342.417 11.5069C342.817 11.7148 343.162 12.0163 343.42 12.3856L344.534 13.969C344.863 14.44 345.041 15.001 345.041 15.5757C345.041 16.1504 344.863 16.7109 344.534 17.1824L325.005 45.0433C324.747 45.4121 324.403 45.7126 324.002 45.92C323.602 46.1274 323.157 46.2357 322.706 46.2352H289.042C288.531 46.2342 288.029 46.093 287.589 45.8269C287.153 45.5608 286.794 45.1799 286.561 44.7256C286.323 44.2713 286.216 43.7609 286.247 43.2495C286.282 42.7385 286.454 42.2463 286.748 41.8259L315.833 0.286892C316.163 -0.184082 316.34 -0.74511 316.34 -1.31979C316.34 -1.89447 316.163 -2.45499 315.833 -2.92648L286.748 -44.4402C286.449 -44.86 286.277 -45.3526 286.241 -45.8643C286.211 -46.376 286.317 -46.8871 286.555 -47.3419C286.788 -47.7968 287.148 -48.178 287.589 -48.4437C288.024 -48.7096 288.531 -48.8499 289.042 -48.8494H322.731C323.182 -48.849 323.628 -48.7401 324.028 -48.5319C324.428 -48.3238 324.772 -48.0224 325.031 -47.6534L345.663 -18.2087C345.957 -17.7888 346.134 -17.2956 346.165 -16.7831C346.2 -16.2711 346.094 -15.7592 345.856 -15.3044C345.618 -14.8491 345.258 -14.4687 344.818 -14.2041C344.377 -13.939 343.871 -13.8009 343.359 -13.804Z" fill="white" fill-opacity="0.1"/>
<path d="M378.532 11.1653H388.524C388.975 11.1653 389.42 11.2746 389.821 11.4825C390.221 11.6909 390.565 11.9919 390.823 12.3612L404.888 32.4276H411.74L393.746 6.73936C393.487 6.37006 393.143 6.06856 392.743 5.86013C392.343 5.65221 391.897 5.54346 391.446 5.54346H370.672C370.221 5.54346 369.775 5.43519 369.375 5.22778C368.975 5.02037 368.631 4.71988 368.372 4.3516L333.341 -45.547C333.012 -46.0178 332.835 -46.5787 332.835 -47.1536C332.835 -47.7284 333.012 -48.2893 333.341 -48.7601L358.608 -84.8038C358.866 -85.173 359.211 -85.4745 359.611 -85.6826C360.011 -85.8907 360.451 -85.9994 360.907 -85.9994C361.358 -85.9994 361.799 -85.8907 362.199 -85.6826C362.599 -85.4745 362.943 -85.173 363.207 -84.8038L388.468 -48.7601C388.798 -48.2891 388.975 -47.7282 388.975 -47.1536C388.975 -46.5789 388.798 -46.0181 388.468 -45.547L375.047 -26.403C374.784 -26.0347 374.44 -25.7337 374.045 -25.5263C373.645 -25.3184 373.199 -25.2101 372.748 -25.2101C372.297 -25.2101 371.852 -25.3184 371.452 -25.5263C371.051 -25.7337 370.707 -26.0347 370.449 -26.403L365.455 -33.5324C365.126 -34.0034 364.949 -34.5644 364.949 -35.1391C364.949 -35.7137 365.126 -36.2746 365.455 -36.7456L371.619 -45.5386C371.948 -46.0094 372.125 -46.5703 372.125 -47.1452C372.125 -47.72 371.948 -48.2809 371.619 -48.7517L360.902 -64.0552L350.186 -48.7601C349.851 -48.2893 349.674 -47.7284 349.674 -47.1536C349.674 -46.5787 349.851 -46.0178 350.186 -45.547L375.559 -9.41499C375.817 -9.04721 376.162 -8.74722 376.562 -8.5398C376.962 -8.3324 377.407 -8.22363 377.858 -8.22312H391.38C391.831 -8.22312 392.277 -8.33189 392.672 -8.54031C393.072 -8.74823 393.416 -9.04974 393.675 -9.41903L411.669 -35.1072H404.812L390.742 -15.0283C390.484 -14.6605 390.14 -14.3595 389.74 -14.1521C389.34 -13.9446 388.894 -13.8364 388.443 -13.8369H380.72C380.269 -13.8369 379.823 -13.9457 379.423 -14.1536C379.023 -14.362 378.679 -14.6635 378.42 -15.0328L377.286 -16.6496C376.957 -17.1201 376.779 -17.6811 376.779 -18.2563C376.779 -18.8315 376.957 -19.3925 377.286 -19.863L396.805 -47.6778C397.063 -48.0474 397.407 -48.3492 397.807 -48.5574C398.207 -48.7656 398.653 -48.8742 399.104 -48.8739H432.788C433.305 -48.8734 433.806 -48.7324 434.247 -48.466C434.682 -48.1997 435.042 -47.8182 435.28 -47.3632C435.513 -46.9081 435.624 -46.397 435.589 -45.8852C435.553 -45.3734 435.381 -44.8806 435.087 -44.4605L406.002 -2.94677C405.673 -2.47529 405.495 -1.91376 405.495 -1.33807C405.495 -0.762367 405.673 -0.20034 406.002 0.270638L435.163 41.7975C435.462 42.2189 435.644 42.7157 435.68 43.2327C435.715 43.7497 435.609 44.2667 435.366 44.7256C435.128 45.1849 434.763 45.5689 434.317 45.835C433.872 46.1005 433.365 46.2381 432.844 46.2316H399.17C398.719 46.2321 398.273 46.1233 397.873 45.9154C397.473 45.707 397.129 45.4055 396.865 45.0357L376.212 15.5953C375.908 15.1739 375.731 14.6772 375.696 14.1607C375.66 13.6436 375.767 13.1271 376.01 12.6678C376.248 12.209 376.612 11.825 377.058 11.5599C377.504 11.2948 378.01 11.1577 378.532 11.1653Z" fill="white" fill-opacity="0.1"/>
</g>
<defs>
<clipPath id="clip0_1598_20230">
<rect width="375" height="85" fill="white"/>
</clipPath>
</defs>
</svg>
