<svg width="30" height="30" viewBox="0 0 30 30" fill="none" xmlns="http://www.w3.org/2000/svg">
<g clip-path="url(#clip0_136_90)">
<path d="M10.3493 21.0993L7.35153 19.6761L5.8309 18.9546L9.08937 10.9599L11.17 10.4397C11.1701 10.4397 7.76896 16.1459 10.3493 21.0993Z" fill="#F8B40E"/>
<path d="M28.6391 19.3649V15.7087C28.6391 15.4206 28.4056 15.187 28.1174 15.187H26.6069C26.3188 15.187 26.0852 15.4206 26.0852 15.7087V17.0264" fill="#F2171C"/>
<path d="M27.2261 19.3649V15.187H26.6068C26.3187 15.187 26.0851 15.4206 26.0851 15.7087V17.0264" fill="#D8131E"/>
<path d="M13.2312 15.6271C15.1766 15.6271 16.7537 17.2041 16.7537 19.1495C16.7537 21.095 15.1766 22.672 13.2312 22.672L15.694 23.9928L23.9719 23.1122L24.8275 15.6269L13.6686 14.7463" fill="#BF8104"/>
<path d="M7.62676 6.29248H10.2567C11.5455 6.29248 12.5903 7.33727 12.5903 8.6261C12.5903 9.91493 11.5455 10.9597 10.2567 10.9597H7.62676C7.36456 10.9597 7.15198 10.7471 7.15198 10.4849V6.76709C7.15198 6.505 7.36456 6.29248 7.62676 6.29248Z" fill="#F8B40E"/>
<path d="M10.2567 10.0076H7.15198V10.4851C7.15198 10.7473 7.36456 10.9599 7.62676 10.9599H10.2567C11.5455 10.9599 12.5903 9.91511 12.5903 8.62628C12.5903 8.4631 12.5734 8.3039 12.5416 8.15015C12.3218 9.21058 11.3823 10.0076 10.2567 10.0076Z" fill="#DD9B0A"/>
<path d="M20.8898 24.7857H20.1301H8.38483V22.6721H19.1566" fill="#F8B40E"/>
<path d="M24.3242 29.3649C26.8533 29.3649 28.9035 27.3147 28.9035 24.7856C28.9035 22.2565 26.8533 20.2063 24.3242 20.2063C21.7952 20.2063 19.745 22.2565 19.745 24.7856C19.745 27.3147 21.7952 29.3649 24.3242 29.3649Z" fill="#2C4046"/>
<path d="M9.81447 10.96L6.01266 21.1423L5.8309 18.9547L9.08937 10.96H9.81447Z" fill="#DD9B0A"/>
<path d="M24.3243 27.2913C25.7081 27.2913 26.8299 26.1695 26.8299 24.7857C26.8299 23.4018 25.7081 22.28 24.3243 22.28C22.9404 22.28 21.8186 23.4018 21.8186 24.7857C21.8186 26.1695 22.9404 27.2913 24.3243 27.2913Z" fill="#9AA7B8"/>
<path d="M5.83133 29.3649C8.3604 29.3649 10.4106 27.3147 10.4106 24.7856C10.4106 22.2565 8.3604 20.2063 5.83133 20.2063C3.30226 20.2063 1.25204 22.2565 1.25204 24.7856C1.25204 27.3147 3.30226 29.3649 5.83133 29.3649Z" fill="#2C4046"/>
<path d="M5.83133 27.2913C7.21517 27.2913 8.33698 26.1695 8.33698 24.7857C8.33698 23.4018 7.21517 22.28 5.83133 22.28C4.4475 22.28 3.32568 23.4018 3.32568 24.7857C3.32568 26.1695 4.4475 27.2913 5.83133 27.2913Z" fill="#9AA7B8"/>
<path d="M5.83093 27.7519C4.19516 27.7519 2.86438 26.4213 2.86438 24.7859H3.78589C3.78589 25.9132 4.70329 26.8303 5.83093 26.8303C6.95857 26.8303 7.87603 25.9132 7.87603 24.7859H8.79754C8.79754 26.4213 7.46675 27.7519 5.83093 27.7519Z" fill="#1D2C30"/>
<path d="M20.1302 24.7857C18.6845 24.0081 17.7004 22.4775 17.7004 20.716C17.7004 18.1587 19.7717 16.0935 22.3229 16.0935C24.7871 16.0935 29.6485 17.3964 29.999 24.0134C30.0212 24.4325 29.6903 24.7857 29.2706 24.7857H20.1302V24.7857Z" fill="#F8B40E"/>
<path d="M19.1975 21.4205C19.1975 18.8632 21.2688 16.798 23.82 16.798C24.5535 16.798 25.4995 16.9139 26.4756 17.2506C25.0256 16.3577 23.4316 16.0935 22.3229 16.0935C19.7717 16.0935 17.7004 18.1588 17.7004 20.716C17.7004 22.4775 18.6845 24.0082 20.1301 24.7857H20.6505C19.7564 23.944 19.1975 22.7478 19.1975 21.4205Z" fill="#DD9B0A"/>
<path d="M11.6621 24.7856C11.6621 21.5652 9.05146 18.9546 5.83109 18.9546C2.61071 18.9546 0 21.5652 0 24.7856H11.6621Z" fill="#F8B40E"/>
<path d="M6.79947 19.0351C6.48441 18.9824 6.16103 18.9546 5.83109 18.9546C2.61065 18.9545 0 21.5652 0 24.7856H1.93676C1.93676 21.8951 4.04005 19.4964 6.79947 19.0351Z" fill="#DD9B0A"/>
<path d="M24.3242 27.7521C22.6885 27.7521 21.3578 26.4214 21.3578 24.7856H22.2793C22.2793 25.9132 23.1966 26.8306 24.3242 26.8306C25.4518 26.8306 26.3691 25.9132 26.3691 24.7856H27.2906C27.2906 26.4213 25.9599 27.7521 24.3242 27.7521Z" fill="#1D2C30"/>
<path d="M8.56098 6.29248H7.62676C7.36456 6.29248 7.15198 6.50506 7.15198 6.76727V10.4851C7.15198 10.7473 7.36456 10.9599 7.62676 10.9599H8.56098V6.29248Z" fill="#A0D9F2"/>
<path d="M8.56098 10.0076H7.15198V10.485C7.15198 10.7473 7.36456 10.9598 7.62676 10.9598H8.56098V10.0076Z" fill="#84BED3"/>
<path d="M23.1379 13.0318L14.1768 13.6642C13.1463 13.7369 12.3476 14.5941 12.3476 15.6271H24.8275V14.6064C24.8276 13.6909 24.0513 12.9674 23.1379 13.0318Z" fill="#444D56"/>
<path d="M11.6971 3.83545H10.7756V8.36006H11.6971V3.83545Z" fill="#D3D3D3"/>
<path d="M26.4963 19.7673H22.0052C21.7507 19.7673 21.5444 19.561 21.5444 19.3065C21.5444 19.052 21.7507 18.8457 22.0052 18.8457H26.4963C26.7508 18.8457 26.9571 19.052 26.9571 19.3065C26.9571 19.561 26.7508 19.7673 26.4963 19.7673Z" fill="#DD9B0A"/>
<path d="M25.322 21.2538H22.0052C21.7507 21.2538 21.5444 21.0475 21.5444 20.7931C21.5444 20.5386 21.7507 20.3323 22.0052 20.3323H25.322C25.5765 20.3323 25.7828 20.5386 25.7828 20.7931C25.7828 21.0475 25.5765 21.2538 25.322 21.2538Z" fill="#DD9B0A"/>
<path d="M24.1478 22.7216H22.0052C21.7507 22.7216 21.5444 22.5153 21.5444 22.2608C21.5444 22.0064 21.7507 21.8 22.0052 21.8H24.1478C24.4022 21.8 24.6085 22.0064 24.6085 22.2608C24.6085 22.5154 24.4022 22.7216 24.1478 22.7216Z" fill="#DD9B0A"/>
<path d="M11.2363 9.97995C11.9841 9.97995 12.5903 9.37375 12.5903 8.62596C12.5903 7.87817 11.9841 7.27197 11.2363 7.27197C10.4885 7.27197 9.88232 7.87817 9.88232 8.62596C9.88232 9.37375 10.4885 9.97995 11.2363 9.97995Z" fill="#444D56"/>
<path d="M11.2361 4.92349C10.7741 4.92349 10.3995 4.5489 10.3995 4.08689V1.47161C10.3995 1.00954 10.7741 0.63501 11.2361 0.63501C11.6982 0.63501 12.0727 1.0096 12.0727 1.47161V4.08683C12.0727 4.5489 11.6982 4.92349 11.2361 4.92349Z" fill="#E6E6E6"/>
</g>
<defs>
<clipPath id="clip0_136_90">
<rect width="30" height="30" fill="white"/>
</clipPath>
</defs>
</svg>
