<svg width="47" height="20" viewBox="0 0 47 20" fill="none" xmlns="http://www.w3.org/2000/svg">
<path d="M15.0195 9.98413H3.86368V15.2997H15.0195V9.98413Z" fill="#2F4859"/>
<path d="M1.29878 8.01172C1.29878 8.01172 -0.026793 8.15188 0.000430584 8.73554C0.118521 10.9433 0.638157 13.111 1.53405 15.1323H3.2666L1.29878 8.01172Z" fill="#3A556A"/>
<path d="M9.38283 11.6128C11.6989 11.6128 13.5764 13.4903 13.5764 15.8064C13.5764 18.1225 11.6989 20 9.38283 20C7.06681 20 5.18921 18.1225 5.18921 15.8064C5.18921 15.8049 5.18921 15.8034 5.18921 15.8019C5.18921 13.4884 7.06479 11.6128 9.37832 11.6128C9.3798 11.6128 9.38127 11.6128 9.38283 11.6128Z" fill="#3A556A"/>
<path d="M9.3828 13.3181C10.757 13.3156 11.8729 14.4275 11.8754 15.8017C11.8779 17.1759 10.7661 18.2918 9.39181 18.2943C8.01766 18.2968 6.90167 17.185 6.89919 15.8107C6.89919 15.8077 6.89919 15.8047 6.89919 15.8017C6.89919 14.4301 8.01122 13.3181 9.3828 13.3181Z" fill="#EBF0F3"/>
<path d="M9.38282 14.9741C9.85242 14.9741 10.2333 15.355 10.2333 15.8246C10.2333 16.2942 9.85242 16.675 9.38282 16.675C8.91321 16.675 8.53236 16.2942 8.53236 15.8246C8.53236 15.3548 8.91303 14.9741 9.38282 14.9741Z" fill="#3A556A"/>
<path d="M2.1944 15.0961L3.68728 15.3948C4.00274 15.4563 4.31802 15.2884 4.44274 14.9921L5.34746 12.7302C5.64812 11.9963 6.36402 11.5185 7.15691 11.5223H11.2873C12.1374 11.5186 12.8909 12.0687 13.1466 12.8795L14.1327 16.0915C14.3952 16.9149 15.1686 17.4674 16.0327 17.4487L30.803 17.141C31.6945 17.122 32.4589 16.4994 32.6578 15.63L32.8703 14.7253C33.0746 13.8432 33.8605 13.2187 34.7659 13.2188H38.7379C39.4088 13.2155 40.0341 13.5573 40.3936 14.1235L41.2079 15.4716C41.5602 16.0486 42.1877 16.4 42.8636 16.3989H46.0305C46.0305 16.3989 46.0305 14.7704 45.7047 11.0201C45.3789 7.26974 39.9232 6.6229 39.9232 6.6229V6.537C39.9232 6.49626 39.9232 6.43749 39.8915 6.36952V6.29263C39.7241 5.65021 39.1632 4.13921 37.2677 2.30714C34.7434 -0.135715 24.1486 -0.29409 21.2216 0.271443C20.6159 0.410596 20.0489 0.682555 19.5613 1.06764C19.2141 1.90486 18.7917 2.70887 18.2992 3.46975C17.6386 4.34734 16.5574 4.89016 16.2499 5.43767C16.1504 5.61857 15.897 5.79507 15.8472 5.89007C15.7963 5.9917 15.6939 6.05755 15.5803 6.06206C10.7886 6.29355 6.02639 6.94453 1.34835 8.00735C-0.166973 10.1289 2.1944 15.0961 2.1944 15.0961Z" fill="#FCD462"/>
<path d="M45.967 15.1686L45.9354 14.4131C46.2057 14.4102 46.4396 14.6004 46.4919 14.8655V15.9557C46.4944 16.2531 46.2553 16.4961 45.9581 16.4986H45.9536H44.4155V15.1867C44.9323 15.2238 45.4513 15.2178 45.967 15.1686Z" fill="#3A556A"/>
<path d="M3.3616 14.4626H1.77371C1.49641 14.4626 1.27154 14.6874 1.27154 14.9648V15.3041C1.27154 15.5814 1.49632 15.8062 1.77371 15.8062H3.3616C3.6389 15.8062 3.86377 15.5815 3.86377 15.3041V14.9648C3.86368 14.6874 3.6389 14.4626 3.3616 14.4626Z" fill="#3A556A"/>
<path d="M17.2498 6.30628L20.6382 1.73713C20.9778 1.27884 21.5068 0.999432 22.0768 0.977083L27.5597 0.769043C32.1423 0.845931 34.4042 1.88641 35.4946 2.74597C36.6934 3.69144 36.7883 4.60527 36.7928 4.64601V10.9025C36.7904 11.5353 36.2766 12.047 35.6438 12.047H33.228C32.3192 12.0492 31.5115 12.6265 31.2149 13.4856L30.5183 15.4986H18.1094C17.5191 15.4962 17.0417 15.0168 17.0417 14.4264V6.94401C17.0406 6.71463 17.1137 6.49086 17.2498 6.30628ZM31.1017 13.4629C31.4179 12.5585 32.2698 11.9513 33.228 11.9474H35.6438C36.2109 11.9475 36.6707 11.4879 36.6708 10.9207C36.6708 10.9146 36.6708 10.9085 36.6707 10.9024V4.65493C36.6707 4.60067 36.5441 3.72308 35.4086 2.84548C34.2731 1.96789 32.1108 0.986187 27.6185 0.904793L26.9806 15.4082H30.4323L31.1017 13.4629ZM17.1593 14.4446C17.1593 14.9693 17.5846 15.3945 18.1093 15.3945H26.8674L27.4962 0.89109L22.0675 1.09913C21.5304 1.11182 21.0293 1.37238 20.7103 1.80483L17.3672 6.37848C17.2445 6.54154 17.1779 6.73983 17.1773 6.94392L17.1593 14.4446Z" fill="#F7BE56"/>
<path d="M26.7227 2.4022L26.6368 5.52823C26.6224 5.78235 26.4119 5.9811 26.1573 5.98064H19.8239C19.559 5.97816 19.3465 5.76147 19.349 5.49659C19.3498 5.40857 19.3748 5.32249 19.4214 5.24771L21.3757 2.18055C21.4625 2.04434 21.6122 1.96092 21.7737 1.95881L26.2433 1.90454C26.4925 1.88826 26.7079 2.07717 26.7242 2.32642C26.7257 2.35171 26.7254 2.377 26.7227 2.4022Z" fill="#3A556A"/>
<path d="M28.6454 5.51898L28.8082 2.39755C28.8082 2.14775 29.0107 1.94514 29.2606 1.94514C30.6178 1.86374 34.852 1.89989 35.9242 5.32437C35.963 5.45276 35.9483 5.59146 35.8835 5.7089L35.707 6.01204C35.6202 6.17778 35.4405 6.27306 35.2545 6.25172L29.084 6.02096C28.8265 5.99954 28.6322 5.77742 28.6454 5.51898Z" fill="#3A556A"/>
<path d="M15.7976 5.89005C16.6119 4.66867 18.5119 1.98145 19.5116 1.06763C19.5658 1.06763 20.267 1.06763 20.0726 1.4838C19.9188 1.82759 18.5932 3.29324 17.8106 4.4107C17.3153 5.10655 16.6097 5.62499 15.7976 5.89005Z" fill="#3A556A"/>
<path d="M36.7928 11.6125C39.1088 11.6125 40.9864 13.4901 40.9864 15.8062C40.9864 18.1223 39.1089 19.9998 36.7928 19.9998C34.4766 19.9998 32.5991 18.1223 32.5991 15.8062C32.5991 15.8047 32.5991 15.8031 32.5991 15.8017C32.5991 13.4881 34.4747 11.6125 36.7883 11.6125C36.7897 11.6125 36.7912 11.6125 36.7928 11.6125Z" fill="#3A556A"/>
<path d="M36.7927 13.3181C38.1669 13.3181 39.2809 14.4322 39.2809 15.8062C39.2809 17.1804 38.1668 18.2943 36.7927 18.2943C35.4187 18.2943 34.3046 17.1803 34.3046 15.8062C34.3046 15.8048 34.3046 15.8032 34.3046 15.8017C34.3046 14.4301 35.4166 13.3181 36.7882 13.3181C36.7897 13.3181 36.7912 13.3181 36.7927 13.3181Z" fill="#EBF0F3"/>
<path d="M36.7928 14.9741C37.2624 14.9741 37.6432 15.355 37.6432 15.8246C37.6432 16.2942 37.2624 16.675 36.7928 16.675C36.3231 16.675 35.9423 16.2942 35.9423 15.8246C35.9423 15.3548 36.323 14.9741 36.7928 14.9741Z" fill="#3A556A"/>
</svg>
