<svg width="251" height="80" viewBox="0 0 251 80" fill="none" xmlns="http://www.w3.org/2000/svg">
<path d="M85.1345 54.993H83.2135V61.4373H81.6467V54.993H79.7597V53.6851H85.1345V54.993Z" fill="#0F9B55"/>
<path d="M88.3431 61.4372C88.3022 61.3487 88.2545 61.1988 88.2136 60.9877C87.9411 61.3555 87.5801 61.5394 87.1169 61.5394C86.6332 61.5394 86.2313 61.3759 85.9179 61.0626C85.5977 60.7424 85.4411 60.3269 85.4411 59.8228C85.4411 59.2165 85.6318 58.7533 86.0201 58.4195C86.4084 58.0925 86.9602 57.9222 87.6823 57.9154H88.1387V57.4521C88.1387 57.1933 88.091 57.0094 88.0024 56.9072C87.9139 56.805 87.7845 56.7505 87.6142 56.7505C87.2395 56.7505 87.0488 56.9685 87.0488 57.4113H85.5433C85.5433 56.8799 85.7408 56.4371 86.1427 56.0965C86.5447 55.7491 87.0488 55.5788 87.6551 55.5788C88.2886 55.5788 88.7722 55.7423 89.1197 56.0692C89.4671 56.3962 89.6374 56.8663 89.6374 57.4794V60.1906C89.6442 60.6879 89.7123 61.0762 89.8486 61.3555V61.4441H88.3431V61.4372ZM88.3703 54.9112H87.0965L85.625 53.2626H87.3145L88.3703 54.9112ZM87.4575 60.3609C87.6278 60.3609 87.764 60.3269 87.8867 60.2588C88.0025 60.1906 88.091 60.1089 88.1455 60.0203V58.8214H87.7845C87.5256 58.8214 87.3281 58.9031 87.1782 59.0666C87.0283 59.2301 86.9602 59.4481 86.9602 59.7206C86.9534 60.1498 87.1237 60.3609 87.4575 60.3609Z" fill="#0F9B55"/>
<path d="M91.2859 54.1891C91.2859 53.9575 91.3608 53.7668 91.5107 53.6169C91.6606 53.467 91.8581 53.3921 92.1102 53.3921C92.3622 53.3921 92.5598 53.467 92.7028 53.6169C92.8527 53.7668 92.9277 53.9575 92.9277 54.1891C92.9277 54.4207 92.8527 54.6115 92.7097 54.7613C92.5598 54.9112 92.3622 54.993 92.1102 54.993C91.8581 54.993 91.6606 54.918 91.5107 54.7613C91.354 54.6115 91.2859 54.4139 91.2859 54.1891ZM92.8663 61.4373H91.354V55.681H92.8663V61.4373Z" fill="#0F9B55"/>
<path d="M99.7127 60.2928C100.149 60.2928 100.373 60.0067 100.38 59.4413H101.797C101.79 60.068 101.6 60.5789 101.218 60.9604C100.837 61.3487 100.346 61.5395 99.7468 61.5395C99.0042 61.5395 98.4388 61.3078 98.0505 60.8446C97.6622 60.3814 97.4647 59.707 97.451 58.8078V58.3514C97.451 57.4454 97.6418 56.7573 98.0301 56.2805C98.4184 55.8036 98.9838 55.5652 99.7399 55.5652C100.373 55.5652 100.878 55.7627 101.239 56.151C101.6 56.5393 101.79 57.0979 101.797 57.82H100.38C100.373 57.4998 100.326 57.2478 100.217 57.0775C100.115 56.9004 99.9443 56.8186 99.7059 56.8186C99.447 56.8186 99.2563 56.914 99.1405 57.0979C99.0247 57.2819 98.9701 57.6429 98.9565 58.1811V58.7669C98.9565 59.237 98.9838 59.5639 99.0247 59.7479C99.0723 59.9318 99.1473 60.068 99.2563 60.1566C99.3652 60.2451 99.5151 60.2928 99.7127 60.2928Z" fill="#0F9B55"/>
<path d="M104.658 56.1851C104.985 55.7764 105.387 55.572 105.864 55.572C106.389 55.572 106.784 55.7559 107.063 56.1238C107.336 56.4917 107.472 57.0434 107.479 57.7723V61.4305H105.966V57.786C105.966 57.4522 105.912 57.2069 105.81 57.0571C105.707 56.9072 105.537 56.8322 105.305 56.8322C105.033 56.8322 104.822 56.9549 104.665 57.207V61.4305H103.16V53.2559H104.665V56.1851H104.658Z" fill="#0F9B55"/>
<path d="M110.714 61.4373H109.209V55.681H110.714V61.4373ZM110.278 53.3376H111.968L110.489 54.9862H109.236L110.278 53.3376Z" fill="#0F9B55"/>
<path d="M113.882 55.6743L113.923 56.2465C114.263 55.7969 114.706 55.5721 115.258 55.5721C116.246 55.5721 116.756 56.2669 116.784 57.6498V61.4305H115.271V57.7588C115.271 57.4318 115.224 57.1934 115.122 57.0503C115.026 56.9004 114.856 56.8323 114.611 56.8323C114.338 56.8323 114.127 56.9754 113.97 57.2547V61.4374H112.458V55.6811H113.882V55.6743Z" fill="#0F9B55"/>
<path d="M119.877 56.1851C120.204 55.7764 120.605 55.572 121.076 55.572C121.6 55.572 122.002 55.7559 122.274 56.1238C122.547 56.4917 122.683 57.0434 122.69 57.7723V61.4305H121.178V57.786C121.178 57.4522 121.123 57.2069 121.021 57.0571C120.919 56.9072 120.749 56.8322 120.51 56.8322C120.238 56.8322 120.026 56.9549 119.87 57.207V61.4305H118.364V53.2559H119.87V56.1851H119.877Z" fill="#0F9B55"/>
<path d="M132.152 54.993H130.231V61.4373H128.664V54.993H126.777V53.6851H132.152V54.993Z" fill="#EE3C39"/>
<path d="M133.521 54.1891C133.521 53.9575 133.596 53.7668 133.746 53.6169C133.896 53.467 134.094 53.3921 134.339 53.3921C134.584 53.3921 134.788 53.467 134.938 53.6169C135.088 53.7668 135.163 53.9575 135.163 54.1891C135.163 54.4207 135.088 54.6115 134.938 54.7613C134.788 54.9112 134.591 54.993 134.339 54.993C134.087 54.993 133.889 54.918 133.739 54.7613C133.589 54.6115 133.521 54.4139 133.521 54.1891ZM135.102 61.4373H133.59V55.681H135.102V61.4373Z" fill="#EE3C39"/>
<path d="M139.134 61.5395C138.358 61.5395 137.758 61.3079 137.322 60.8514C136.886 60.3882 136.675 59.7275 136.675 58.8691V58.4127C136.675 57.5067 136.873 56.805 137.275 56.3146C137.67 55.8241 138.242 55.572 138.985 55.572C139.707 55.572 140.252 55.8036 140.62 56.2669C140.987 56.7301 141.171 57.4113 141.178 58.3241V59.0598H138.181C138.201 59.489 138.297 59.8024 138.46 59.9999C138.624 60.1975 138.882 60.2997 139.23 60.2997C139.734 60.2997 140.156 60.1294 140.49 59.7819L141.083 60.6948C140.899 60.9468 140.626 61.158 140.279 61.3147C139.925 61.4645 139.543 61.5395 139.134 61.5395ZM140.62 54.7477V54.8091H139.441L138.773 54.0393L138.106 54.8091H136.955V54.7205L138.337 53.2559H139.203L140.62 54.7477ZM138.91 61.9414C139.169 61.9414 139.38 62.0095 139.543 62.1526C139.707 62.2956 139.782 62.4659 139.782 62.6839C139.782 62.8951 139.7 63.0722 139.543 63.2153C139.38 63.3583 139.169 63.4264 138.91 63.4264C138.658 63.4264 138.446 63.3583 138.283 63.2153C138.119 63.079 138.038 62.9019 138.038 62.6839C138.038 62.4727 138.119 62.2956 138.283 62.1526C138.446 62.0095 138.658 61.9414 138.91 61.9414ZM138.188 58.0108H139.693V57.8745C139.686 57.5339 139.632 57.2682 139.523 57.0911C139.414 56.914 139.23 56.8255 138.971 56.8255C138.705 56.8255 138.521 56.9208 138.399 57.1048C138.276 57.2887 138.208 57.5952 138.188 58.0108Z" fill="#EE3C39"/>
<path d="M143.951 55.6742L143.992 56.2464C144.332 55.7968 144.775 55.572 145.327 55.572C146.315 55.572 146.826 56.2669 146.853 57.6497V61.4305H145.341V57.7587C145.341 57.4318 145.293 57.1933 145.191 57.0503C145.095 56.9004 144.925 56.8323 144.68 56.8323C144.407 56.8323 144.196 56.9753 144.04 57.2546V61.4373H142.527V55.681H143.951V55.6742Z" fill="#EE3C39"/>
<path d="M153.427 59.3051L154.155 55.6743H155.722L154.142 61.4373H152.704L151.117 55.6743H152.698L153.427 59.3051Z" fill="#EE3C39"/>
<path d="M159.632 61.4372C159.592 61.3487 159.551 61.1988 159.503 60.9877C159.237 61.3555 158.87 61.5394 158.406 61.5394C157.923 61.5394 157.528 61.3759 157.207 61.0626C156.887 60.7424 156.73 60.3269 156.73 59.8228C156.73 59.2165 156.921 58.7533 157.31 58.4195C157.698 58.0925 158.25 57.9222 158.972 57.9154H159.428V57.4521C159.428 57.1933 159.38 57.0094 159.292 56.9072C159.203 56.805 159.074 56.7505 158.904 56.7505C158.529 56.7505 158.338 56.9685 158.338 57.4113H156.833C156.833 56.8799 157.03 56.4371 157.432 56.0965C157.834 55.7491 158.338 55.5788 158.944 55.5788C159.578 55.5788 160.062 55.7423 160.409 56.0692C160.756 56.3962 160.927 56.8663 160.927 57.4794V60.1906C160.934 60.6879 161.002 61.0762 161.138 61.3555V61.4441H159.632V61.4372ZM159.66 54.9112H158.386L156.914 53.2626H158.604L159.66 54.9112ZM158.74 60.3609C158.904 60.3609 159.047 60.3269 159.169 60.2588C159.285 60.1906 159.374 60.1089 159.428 60.0203V58.8214H159.067C158.808 58.8214 158.611 58.9031 158.461 59.0666C158.311 59.2301 158.243 59.4481 158.243 59.7206C158.243 60.1498 158.406 60.3609 158.74 60.3609Z" fill="#EE3C39"/>
<path d="M171.118 61.4373H169.558L167.269 56.3555V61.4373H165.702V53.6851H167.269L169.564 58.7738V53.6851H171.118V61.4373Z" fill="#EE3C39"/>
<path d="M172.664 58.3786C172.664 57.4317 172.834 56.7301 173.175 56.2669C173.516 55.8036 173.992 55.572 174.606 55.572C175.13 55.572 175.532 55.7764 175.811 56.1919L175.873 55.681H177.228V61.4373C177.228 62.173 177.024 62.7316 176.608 63.1199C176.193 63.5082 175.607 63.6989 174.837 63.6989C174.524 63.6989 174.19 63.6377 173.843 63.5082C173.495 63.3788 173.236 63.2221 173.066 63.0245L173.57 61.9823C173.713 62.1321 173.897 62.2548 174.122 62.3501C174.347 62.4455 174.565 62.4932 174.769 62.4932C175.103 62.4932 175.348 62.4114 175.498 62.2548C175.648 62.0913 175.723 61.8324 175.723 61.4713V60.9741C175.437 61.3487 175.062 61.5395 174.599 61.5395C173.986 61.5395 173.509 61.3011 173.175 60.8242C172.841 60.3474 172.671 59.673 172.664 58.8078V58.3786ZM174.17 58.7601C174.17 59.2915 174.238 59.6798 174.381 59.925C174.517 60.1703 174.735 60.2929 175.042 60.2929C175.348 60.2929 175.58 60.1839 175.73 59.9591V57.207C175.573 56.9617 175.348 56.8391 175.055 56.8391C174.755 56.8391 174.537 56.9617 174.388 57.207C174.244 57.4522 174.176 57.8473 174.176 58.3855V58.7601H174.17Z" fill="#EE3C39"/>
<path d="M181.609 61.4373C181.568 61.3488 181.527 61.1989 181.479 60.9877C181.207 61.3556 180.846 61.5395 180.382 61.5395C179.899 61.5395 179.504 61.376 179.183 61.0626C178.863 60.7425 178.707 60.3269 178.707 59.8228C178.707 59.2165 178.897 58.7533 179.286 58.4195C179.667 58.0925 180.226 57.9222 180.948 57.9154H181.404V57.4522C181.404 57.1933 181.356 57.0094 181.268 56.9072C181.179 56.8051 181.05 56.7505 180.88 56.7505C180.505 56.7505 180.314 56.9685 180.314 57.4113H178.809C178.809 56.88 179.006 56.4372 179.408 56.0966C179.81 55.7492 180.314 55.5789 180.921 55.5789C181.554 55.5789 182.045 55.7423 182.385 56.0693C182.733 56.3963 182.903 56.8663 182.903 57.4794V60.1907C182.91 60.688 182.978 61.0763 183.114 61.3556V61.4441H181.609V61.4373ZM180.716 60.361C180.88 60.361 181.023 60.3269 181.138 60.2588C181.254 60.1907 181.343 60.1089 181.397 60.0204V58.8215H181.036C180.784 58.8215 180.58 58.9032 180.43 59.0667C180.28 59.2302 180.212 59.4482 180.212 59.7207C180.219 60.1498 180.382 60.361 180.716 60.361Z" fill="#EE3C39"/>
<path d="M186.316 58.9304L187.085 55.681H188.693L186.799 62.3024C186.513 63.2766 185.982 63.767 185.198 63.767C185.014 63.767 184.81 63.733 184.578 63.6649V62.4864L184.756 62.4931C184.987 62.4931 185.164 62.4455 185.287 62.3569C185.403 62.2684 185.498 62.1117 185.553 61.8869L185.668 61.4986L184.006 55.681H185.628L186.316 58.9304Z" fill="#EE3C39"/>
<path d="M195.015 60.2928C195.451 60.2928 195.676 60.0067 195.683 59.4413H197.1C197.093 60.068 196.902 60.5789 196.521 60.9604C196.139 61.3487 195.649 61.5395 195.049 61.5395C194.307 61.5395 193.741 61.3078 193.353 60.8446C192.965 60.3814 192.76 59.707 192.753 58.8078V58.3514C192.753 57.4454 192.944 56.7573 193.332 56.2805C193.721 55.8036 194.286 55.5652 195.042 55.5652C195.676 55.5652 196.18 55.7627 196.541 56.151C196.909 56.5393 197.093 57.0979 197.1 57.82H195.683C195.676 57.4998 195.628 57.2478 195.526 57.0775C195.424 56.9004 195.253 56.8186 195.015 56.8186C194.749 56.8186 194.565 56.914 194.45 57.0979C194.334 57.2819 194.273 57.6429 194.266 58.1811V58.7669C194.266 59.237 194.286 59.5639 194.334 59.7479C194.381 59.9318 194.456 60.068 194.565 60.1566C194.668 60.2451 194.817 60.2928 195.015 60.2928Z" fill="#0F9B55"/>
<path d="M199.96 56.1852C200.287 55.7765 200.689 55.5721 201.166 55.5721C201.691 55.5721 202.093 55.756 202.365 56.1239C202.638 56.4917 202.774 57.0435 202.781 57.7724V61.4305H201.268V57.786C201.268 57.4522 201.214 57.207 201.112 57.0571C201.009 56.9073 200.839 56.8323 200.608 56.8323C200.335 56.8323 200.124 56.955 199.967 57.207V61.4305H198.462V53.2559H199.967V56.1852H199.96Z" fill="#0F9B55"/>
<path d="M204.225 58.3718C204.225 57.4999 204.429 56.8186 204.845 56.3214C205.254 55.8241 205.826 55.5789 206.555 55.5789C207.29 55.5789 207.863 55.8309 208.271 56.3214C208.68 56.8186 208.891 57.5067 208.891 58.3855V58.7533C208.891 59.6321 208.687 60.3133 208.278 60.8106C207.869 61.3011 207.297 61.5531 206.561 61.5531C205.826 61.5531 205.254 61.3079 204.838 60.8106C204.422 60.3133 204.225 59.6253 204.225 58.7465V58.3718ZM205.737 58.7465C205.737 59.7751 206.01 60.2929 206.561 60.2929C207.072 60.2929 207.345 59.8637 207.379 59.0054L207.386 58.3718C207.386 57.8473 207.311 57.459 207.168 57.207C207.025 56.9549 206.82 56.8255 206.555 56.8255C206.296 56.8255 206.098 56.9549 205.955 57.207C205.812 57.459 205.744 57.8473 205.744 58.3718V58.7465H205.737Z" fill="#0F9B55"/>
<path d="M214.838 55.6742L214.879 56.2055C215.213 55.7832 215.663 55.5652 216.214 55.5652C216.787 55.5652 217.195 55.8241 217.434 56.3418C217.768 55.8241 218.231 55.5652 218.844 55.5652C219.852 55.5652 220.37 56.26 220.39 57.6565V61.4305H218.885V57.7519C218.885 57.4181 218.837 57.1797 218.749 57.0366C218.653 56.8936 218.503 56.8255 218.279 56.8255C217.999 56.8255 217.788 56.9957 217.652 57.3432L217.665 57.5271V61.4305H216.16V57.7655C216.16 57.4385 216.112 57.1933 216.024 57.0502C215.935 56.9004 215.779 56.8322 215.554 56.8322C215.295 56.8322 215.09 56.9753 214.934 57.2546V61.4373H213.428V55.681H214.838V55.6742Z" fill="#0F9B55"/>
<path d="M221.875 58.3718C221.875 57.4999 222.08 56.8186 222.495 56.3214C222.904 55.8241 223.476 55.5789 224.205 55.5789C224.941 55.5789 225.513 55.8309 225.922 56.3214C226.331 56.8186 226.542 57.5067 226.542 58.3855V58.7533C226.542 59.6321 226.337 60.3133 225.929 60.8106C225.52 61.3011 224.948 61.5531 224.212 61.5531C223.476 61.5531 222.897 61.3079 222.488 60.8106C222.08 60.3133 221.875 59.6253 221.875 58.7465V58.3718ZM224.198 61.9755C224.457 61.9755 224.668 62.0436 224.832 62.1867C224.995 62.3297 225.07 62.5068 225.07 62.718C225.07 62.9292 224.989 63.1063 224.832 63.2494C224.668 63.3856 224.464 63.4605 224.198 63.4605C223.939 63.4605 223.735 63.3924 223.572 63.2494C223.408 63.1063 223.326 62.936 223.326 62.718C223.326 62.5068 223.408 62.3297 223.572 62.1867C223.735 62.0436 223.939 61.9755 224.198 61.9755ZM223.388 58.7465C223.388 59.7751 223.66 60.2929 224.212 60.2929C224.723 60.2929 224.995 59.8637 225.029 59.0054L225.036 58.3718C225.036 57.8473 224.961 57.459 224.818 57.207C224.675 56.9549 224.464 56.8255 224.205 56.8255C223.946 56.8255 223.749 56.9549 223.606 57.207C223.463 57.459 223.394 57.8473 223.394 58.3718V58.7465H223.388Z" fill="#0F9B55"/>
<path d="M228.02 54.189C228.02 53.9574 228.095 53.7667 228.245 53.6168C228.395 53.467 228.592 53.392 228.844 53.392C229.09 53.392 229.294 53.467 229.444 53.6168C229.594 53.7667 229.669 53.9574 229.669 54.189C229.669 54.4207 229.594 54.6114 229.451 54.7613C229.301 54.9112 229.103 54.9929 228.851 54.9929C228.599 54.9929 228.402 54.918 228.252 54.7613C228.095 54.6114 228.02 54.4138 228.02 54.189ZM229.601 61.4372H228.088V55.6809H229.601V61.4372Z" fill="#0F9B55"/>
<path d="M235.745 55.6743L235.786 56.2465C236.127 55.7969 236.569 55.5721 237.121 55.5721C238.109 55.5721 238.62 56.2669 238.647 57.6498V61.4305H237.135V57.7588C237.135 57.4318 237.087 57.1934 236.985 57.0503C236.883 56.9004 236.719 56.8323 236.474 56.8323C236.202 56.8323 235.99 56.9754 235.834 57.2547V61.4374H234.321V55.6811H235.745V55.6743Z" fill="#0F9B55"/>
<path d="M241.746 56.1851C242.073 55.7764 242.475 55.572 242.952 55.572C243.477 55.572 243.879 55.7559 244.151 56.1238C244.424 56.4917 244.56 57.0434 244.567 57.7723V61.4305H243.054V57.786C243.054 57.4522 243 57.2069 242.898 57.0571C242.795 56.9072 242.625 56.8322 242.387 56.8322C242.114 56.8322 241.903 56.9549 241.746 57.207V61.4305H240.241V53.2559H241.746V56.1851Z" fill="#0F9B55"/>
<path d="M248.92 61.4373C248.879 61.3487 248.831 61.1989 248.79 60.9877C248.525 61.3556 248.157 61.5395 247.694 61.5395C247.21 61.5395 246.815 61.376 246.495 61.0626C246.174 60.7425 246.018 60.3269 246.018 59.8228C246.018 59.2165 246.208 58.7533 246.597 58.4195C246.978 58.0925 247.537 57.9222 248.259 57.9154H248.715V57.4522C248.715 57.1933 248.668 57.0094 248.579 56.9072C248.491 56.7982 248.361 56.7505 248.191 56.7505C247.816 56.7505 247.625 56.9685 247.625 57.4113H246.12C246.12 56.88 246.317 56.4372 246.719 56.0966C247.121 55.7492 247.625 55.5789 248.232 55.5789C248.865 55.5789 249.349 55.7423 249.696 56.0693C250.044 56.3963 250.214 56.8663 250.214 57.4794V60.1907C250.221 60.688 250.289 61.0763 250.425 61.3556V61.4441H248.92V61.4373ZM248.947 54.9112H247.673L246.202 53.2627H247.891L248.947 54.9112ZM248.034 60.361C248.204 60.361 248.341 60.3269 248.463 60.2588C248.579 60.1907 248.668 60.1089 248.722 60.0204V58.8215H248.361C248.102 58.8215 247.905 58.9032 247.755 59.0667C247.605 59.2302 247.537 59.4482 247.537 59.7207C247.53 60.1498 247.7 60.361 248.034 60.361Z" fill="#0F9B55"/>
<path d="M85.1345 54.993H83.2135V61.4373H81.6467V54.993H79.7597V53.6851H85.1345V54.993Z" fill="#0F9B55"/>
<path d="M88.3431 61.4372C88.3022 61.3487 88.2545 61.1988 88.2136 60.9877C87.9411 61.3555 87.5801 61.5394 87.1169 61.5394C86.6332 61.5394 86.2313 61.3759 85.9179 61.0626C85.5977 60.7424 85.4411 60.3269 85.4411 59.8228C85.4411 59.2165 85.6318 58.7533 86.0201 58.4195C86.4084 58.0925 86.9602 57.9222 87.6823 57.9154H88.1387V57.4521C88.1387 57.1933 88.091 57.0094 88.0024 56.9072C87.9139 56.805 87.7845 56.7505 87.6142 56.7505C87.2395 56.7505 87.0488 56.9685 87.0488 57.4113H85.5433C85.5433 56.8799 85.7408 56.4371 86.1427 56.0965C86.5447 55.7491 87.0488 55.5788 87.6551 55.5788C88.2886 55.5788 88.7722 55.7423 89.1197 56.0692C89.4671 56.3962 89.6374 56.8663 89.6374 57.4794V60.1906C89.6442 60.6879 89.7123 61.0762 89.8486 61.3555V61.4441H88.3431V61.4372ZM88.3703 54.9112H87.0965L85.625 53.2626H87.3145L88.3703 54.9112ZM87.4575 60.3609C87.6278 60.3609 87.764 60.3269 87.8867 60.2588C88.0025 60.1906 88.091 60.1089 88.1455 60.0203V58.8214H87.7845C87.5256 58.8214 87.3281 58.9031 87.1782 59.0666C87.0283 59.2301 86.9602 59.4481 86.9602 59.7206C86.9534 60.1498 87.1237 60.3609 87.4575 60.3609Z" fill="#0F9B55"/>
<path d="M91.2859 54.1891C91.2859 53.9575 91.3608 53.7668 91.5107 53.6169C91.6606 53.467 91.8581 53.3921 92.1102 53.3921C92.3622 53.3921 92.5598 53.467 92.7028 53.6169C92.8527 53.7668 92.9277 53.9575 92.9277 54.1891C92.9277 54.4207 92.8527 54.6115 92.7097 54.7613C92.5598 54.9112 92.3622 54.993 92.1102 54.993C91.8581 54.993 91.6606 54.918 91.5107 54.7613C91.354 54.6115 91.2859 54.4139 91.2859 54.1891ZM92.8663 61.4373H91.354V55.681H92.8663V61.4373Z" fill="#0F9B55"/>
<path d="M99.7127 60.2928C100.149 60.2928 100.373 60.0067 100.38 59.4413H101.797C101.79 60.068 101.6 60.5789 101.218 60.9604C100.837 61.3487 100.346 61.5395 99.7468 61.5395C99.0042 61.5395 98.4388 61.3078 98.0505 60.8446C97.6622 60.3814 97.4647 59.707 97.451 58.8078V58.3514C97.451 57.4454 97.6418 56.7573 98.0301 56.2805C98.4184 55.8036 98.9838 55.5652 99.7399 55.5652C100.373 55.5652 100.878 55.7627 101.239 56.151C101.6 56.5393 101.79 57.0979 101.797 57.82H100.38C100.373 57.4998 100.326 57.2478 100.217 57.0775C100.115 56.9004 99.9443 56.8186 99.7059 56.8186C99.447 56.8186 99.2563 56.914 99.1405 57.0979C99.0247 57.2819 98.9701 57.6429 98.9565 58.1811V58.7669C98.9565 59.237 98.9838 59.5639 99.0247 59.7479C99.0723 59.9318 99.1473 60.068 99.2563 60.1566C99.3652 60.2451 99.5151 60.2928 99.7127 60.2928Z" fill="#0F9B55"/>
<path d="M104.658 56.1851C104.985 55.7764 105.387 55.572 105.864 55.572C106.389 55.572 106.784 55.7559 107.063 56.1238C107.336 56.4917 107.472 57.0434 107.479 57.7723V61.4305H105.966V57.786C105.966 57.4522 105.912 57.2069 105.81 57.0571C105.707 56.9072 105.537 56.8322 105.305 56.8322C105.033 56.8322 104.822 56.9549 104.665 57.207V61.4305H103.16V53.2559H104.665V56.1851H104.658Z" fill="#0F9B55"/>
<path d="M110.714 61.4373H109.209V55.681H110.714V61.4373ZM110.278 53.3376H111.968L110.489 54.9862H109.236L110.278 53.3376Z" fill="#0F9B55"/>
<path d="M113.882 55.6743L113.923 56.2465C114.263 55.7969 114.706 55.5721 115.258 55.5721C116.246 55.5721 116.756 56.2669 116.784 57.6498V61.4305H115.271V57.7588C115.271 57.4318 115.224 57.1934 115.122 57.0503C115.026 56.9004 114.856 56.8323 114.611 56.8323C114.338 56.8323 114.127 56.9754 113.97 57.2547V61.4374H112.458V55.6811H113.882V55.6743Z" fill="#0F9B55"/>
<path d="M119.877 56.1851C120.204 55.7764 120.605 55.572 121.076 55.572C121.6 55.572 122.002 55.7559 122.274 56.1238C122.547 56.4917 122.683 57.0434 122.69 57.7723V61.4305H121.178V57.786C121.178 57.4522 121.123 57.2069 121.021 57.0571C120.919 56.9072 120.749 56.8322 120.51 56.8322C120.238 56.8322 120.026 56.9549 119.87 57.207V61.4305H118.364V53.2559H119.87V56.1851H119.877Z" fill="#0F9B55"/>
<path d="M132.152 54.993H130.231V61.4373H128.664V54.993H126.777V53.6851H132.152V54.993Z" fill="#EE3C39"/>
<path d="M133.521 54.1891C133.521 53.9575 133.596 53.7668 133.746 53.6169C133.896 53.467 134.094 53.3921 134.339 53.3921C134.584 53.3921 134.788 53.467 134.938 53.6169C135.088 53.7668 135.163 53.9575 135.163 54.1891C135.163 54.4207 135.088 54.6115 134.938 54.7613C134.788 54.9112 134.591 54.993 134.339 54.993C134.087 54.993 133.889 54.918 133.739 54.7613C133.589 54.6115 133.521 54.4139 133.521 54.1891ZM135.102 61.4373H133.59V55.681H135.102V61.4373Z" fill="#EE3C39"/>
<path d="M139.134 61.5395C138.358 61.5395 137.758 61.3079 137.322 60.8514C136.886 60.3882 136.675 59.7275 136.675 58.8691V58.4127C136.675 57.5067 136.873 56.805 137.275 56.3146C137.67 55.8241 138.242 55.572 138.985 55.572C139.707 55.572 140.252 55.8036 140.62 56.2669C140.987 56.7301 141.171 57.4113 141.178 58.3241V59.0598H138.181C138.201 59.489 138.297 59.8024 138.46 59.9999C138.624 60.1975 138.882 60.2997 139.23 60.2997C139.734 60.2997 140.156 60.1294 140.49 59.7819L141.083 60.6948C140.899 60.9468 140.626 61.158 140.279 61.3147C139.925 61.4645 139.543 61.5395 139.134 61.5395ZM140.62 54.7477V54.8091H139.441L138.773 54.0393L138.106 54.8091H136.955V54.7205L138.337 53.2559H139.203L140.62 54.7477ZM138.91 61.9414C139.169 61.9414 139.38 62.0095 139.543 62.1526C139.707 62.2956 139.782 62.4659 139.782 62.6839C139.782 62.8951 139.7 63.0722 139.543 63.2153C139.38 63.3583 139.169 63.4264 138.91 63.4264C138.658 63.4264 138.446 63.3583 138.283 63.2153C138.119 63.079 138.038 62.9019 138.038 62.6839C138.038 62.4727 138.119 62.2956 138.283 62.1526C138.446 62.0095 138.658 61.9414 138.91 61.9414ZM138.188 58.0108H139.693V57.8745C139.686 57.5339 139.632 57.2682 139.523 57.0911C139.414 56.914 139.23 56.8255 138.971 56.8255C138.705 56.8255 138.521 56.9208 138.399 57.1048C138.276 57.2887 138.208 57.5952 138.188 58.0108Z" fill="#EE3C39"/>
<path d="M143.951 55.6742L143.992 56.2464C144.332 55.7968 144.775 55.572 145.327 55.572C146.315 55.572 146.826 56.2669 146.853 57.6497V61.4305H145.341V57.7587C145.341 57.4318 145.293 57.1933 145.191 57.0503C145.095 56.9004 144.925 56.8323 144.68 56.8323C144.407 56.8323 144.196 56.9753 144.04 57.2546V61.4373H142.527V55.681H143.951V55.6742Z" fill="#EE3C39"/>
<path d="M153.427 59.3051L154.155 55.6743H155.722L154.142 61.4373H152.704L151.117 55.6743H152.698L153.427 59.3051Z" fill="#EE3C39"/>
<path d="M159.632 61.4372C159.592 61.3487 159.551 61.1988 159.503 60.9877C159.237 61.3555 158.87 61.5394 158.406 61.5394C157.923 61.5394 157.528 61.3759 157.207 61.0626C156.887 60.7424 156.73 60.3269 156.73 59.8228C156.73 59.2165 156.921 58.7533 157.31 58.4195C157.698 58.0925 158.25 57.9222 158.972 57.9154H159.428V57.4521C159.428 57.1933 159.38 57.0094 159.292 56.9072C159.203 56.805 159.074 56.7505 158.904 56.7505C158.529 56.7505 158.338 56.9685 158.338 57.4113H156.833C156.833 56.8799 157.03 56.4371 157.432 56.0965C157.834 55.7491 158.338 55.5788 158.944 55.5788C159.578 55.5788 160.062 55.7423 160.409 56.0692C160.756 56.3962 160.927 56.8663 160.927 57.4794V60.1906C160.934 60.6879 161.002 61.0762 161.138 61.3555V61.4441H159.632V61.4372ZM159.66 54.9112H158.386L156.914 53.2626H158.604L159.66 54.9112ZM158.74 60.3609C158.904 60.3609 159.047 60.3269 159.169 60.2588C159.285 60.1906 159.374 60.1089 159.428 60.0203V58.8214H159.067C158.808 58.8214 158.611 58.9031 158.461 59.0666C158.311 59.2301 158.243 59.4481 158.243 59.7206C158.243 60.1498 158.406 60.3609 158.74 60.3609Z" fill="#EE3C39"/>
<path d="M171.118 61.4373H169.558L167.269 56.3555V61.4373H165.702V53.6851H167.269L169.564 58.7738V53.6851H171.118V61.4373Z" fill="#EE3C39"/>
<path d="M172.664 58.3786C172.664 57.4317 172.834 56.7301 173.175 56.2669C173.516 55.8036 173.992 55.572 174.606 55.572C175.13 55.572 175.532 55.7764 175.811 56.1919L175.873 55.681H177.228V61.4373C177.228 62.173 177.024 62.7316 176.608 63.1199C176.193 63.5082 175.607 63.6989 174.837 63.6989C174.524 63.6989 174.19 63.6377 173.843 63.5082C173.495 63.3788 173.236 63.2221 173.066 63.0245L173.57 61.9823C173.713 62.1321 173.897 62.2548 174.122 62.3501C174.347 62.4455 174.565 62.4932 174.769 62.4932C175.103 62.4932 175.348 62.4114 175.498 62.2548C175.648 62.0913 175.723 61.8324 175.723 61.4713V60.9741C175.437 61.3487 175.062 61.5395 174.599 61.5395C173.986 61.5395 173.509 61.3011 173.175 60.8242C172.841 60.3474 172.671 59.673 172.664 58.8078V58.3786ZM174.17 58.7601C174.17 59.2915 174.238 59.6798 174.381 59.925C174.517 60.1703 174.735 60.2929 175.042 60.2929C175.348 60.2929 175.58 60.1839 175.73 59.9591V57.207C175.573 56.9617 175.348 56.8391 175.055 56.8391C174.755 56.8391 174.537 56.9617 174.388 57.207C174.244 57.4522 174.176 57.8473 174.176 58.3855V58.7601H174.17Z" fill="#EE3C39"/>
<path d="M181.609 61.4373C181.568 61.3488 181.527 61.1989 181.479 60.9877C181.207 61.3556 180.846 61.5395 180.382 61.5395C179.899 61.5395 179.504 61.376 179.183 61.0626C178.863 60.7425 178.707 60.3269 178.707 59.8228C178.707 59.2165 178.897 58.7533 179.286 58.4195C179.667 58.0925 180.226 57.9222 180.948 57.9154H181.404V57.4522C181.404 57.1933 181.356 57.0094 181.268 56.9072C181.179 56.8051 181.05 56.7505 180.88 56.7505C180.505 56.7505 180.314 56.9685 180.314 57.4113H178.809C178.809 56.88 179.006 56.4372 179.408 56.0966C179.81 55.7492 180.314 55.5789 180.921 55.5789C181.554 55.5789 182.045 55.7423 182.385 56.0693C182.733 56.3963 182.903 56.8663 182.903 57.4794V60.1907C182.91 60.688 182.978 61.0763 183.114 61.3556V61.4441H181.609V61.4373ZM180.716 60.361C180.88 60.361 181.023 60.3269 181.138 60.2588C181.254 60.1907 181.343 60.1089 181.397 60.0204V58.8215H181.036C180.784 58.8215 180.58 58.9032 180.43 59.0667C180.28 59.2302 180.212 59.4482 180.212 59.7207C180.219 60.1498 180.382 60.361 180.716 60.361Z" fill="#EE3C39"/>
<path d="M186.316 58.9304L187.085 55.681H188.693L186.799 62.3024C186.513 63.2766 185.982 63.767 185.198 63.767C185.014 63.767 184.81 63.733 184.578 63.6649V62.4864L184.756 62.4931C184.987 62.4931 185.164 62.4455 185.287 62.3569C185.403 62.2684 185.498 62.1117 185.553 61.8869L185.668 61.4986L184.006 55.681H185.628L186.316 58.9304Z" fill="#EE3C39"/>
<path d="M195.015 60.2928C195.451 60.2928 195.676 60.0067 195.683 59.4413H197.1C197.093 60.068 196.902 60.5789 196.521 60.9604C196.139 61.3487 195.649 61.5395 195.049 61.5395C194.307 61.5395 193.741 61.3078 193.353 60.8446C192.965 60.3814 192.76 59.707 192.753 58.8078V58.3514C192.753 57.4454 192.944 56.7573 193.332 56.2805C193.721 55.8036 194.286 55.5652 195.042 55.5652C195.676 55.5652 196.18 55.7627 196.541 56.151C196.909 56.5393 197.093 57.0979 197.1 57.82H195.683C195.676 57.4998 195.628 57.2478 195.526 57.0775C195.424 56.9004 195.253 56.8186 195.015 56.8186C194.749 56.8186 194.565 56.914 194.45 57.0979C194.334 57.2819 194.273 57.6429 194.266 58.1811V58.7669C194.266 59.237 194.286 59.5639 194.334 59.7479C194.381 59.9318 194.456 60.068 194.565 60.1566C194.668 60.2451 194.817 60.2928 195.015 60.2928Z" fill="#0F9B55"/>
<path d="M199.96 56.1852C200.287 55.7765 200.689 55.5721 201.166 55.5721C201.691 55.5721 202.093 55.756 202.365 56.1239C202.638 56.4917 202.774 57.0435 202.781 57.7724V61.4305H201.268V57.786C201.268 57.4522 201.214 57.207 201.112 57.0571C201.009 56.9073 200.839 56.8323 200.608 56.8323C200.335 56.8323 200.124 56.955 199.967 57.207V61.4305H198.462V53.2559H199.967V56.1852H199.96Z" fill="#0F9B55"/>
<path d="M204.225 58.3718C204.225 57.4999 204.429 56.8186 204.845 56.3214C205.254 55.8241 205.826 55.5789 206.555 55.5789C207.29 55.5789 207.863 55.8309 208.271 56.3214C208.68 56.8186 208.891 57.5067 208.891 58.3855V58.7533C208.891 59.6321 208.687 60.3133 208.278 60.8106C207.869 61.3011 207.297 61.5531 206.561 61.5531C205.826 61.5531 205.254 61.3079 204.838 60.8106C204.422 60.3133 204.225 59.6253 204.225 58.7465V58.3718ZM205.737 58.7465C205.737 59.7751 206.01 60.2929 206.561 60.2929C207.072 60.2929 207.345 59.8637 207.379 59.0054L207.386 58.3718C207.386 57.8473 207.311 57.459 207.168 57.207C207.025 56.9549 206.82 56.8255 206.555 56.8255C206.296 56.8255 206.098 56.9549 205.955 57.207C205.812 57.459 205.744 57.8473 205.744 58.3718V58.7465H205.737Z" fill="#0F9B55"/>
<path d="M214.838 55.6742L214.879 56.2055C215.213 55.7832 215.663 55.5652 216.214 55.5652C216.787 55.5652 217.195 55.8241 217.434 56.3418C217.768 55.8241 218.231 55.5652 218.844 55.5652C219.852 55.5652 220.37 56.26 220.39 57.6565V61.4305H218.885V57.7519C218.885 57.4181 218.837 57.1797 218.749 57.0366C218.653 56.8936 218.503 56.8255 218.279 56.8255C217.999 56.8255 217.788 56.9957 217.652 57.3432L217.665 57.5271V61.4305H216.16V57.7655C216.16 57.4385 216.112 57.1933 216.024 57.0502C215.935 56.9004 215.779 56.8322 215.554 56.8322C215.295 56.8322 215.09 56.9753 214.934 57.2546V61.4373H213.428V55.681H214.838V55.6742Z" fill="#0F9B55"/>
<path d="M221.875 58.3718C221.875 57.4999 222.08 56.8186 222.495 56.3214C222.904 55.8241 223.476 55.5789 224.205 55.5789C224.941 55.5789 225.513 55.8309 225.922 56.3214C226.331 56.8186 226.542 57.5067 226.542 58.3855V58.7533C226.542 59.6321 226.337 60.3133 225.929 60.8106C225.52 61.3011 224.948 61.5531 224.212 61.5531C223.476 61.5531 222.897 61.3079 222.488 60.8106C222.08 60.3133 221.875 59.6253 221.875 58.7465V58.3718ZM224.198 61.9755C224.457 61.9755 224.668 62.0436 224.832 62.1867C224.995 62.3297 225.07 62.5068 225.07 62.718C225.07 62.9292 224.989 63.1063 224.832 63.2494C224.668 63.3856 224.464 63.4605 224.198 63.4605C223.939 63.4605 223.735 63.3924 223.572 63.2494C223.408 63.1063 223.326 62.936 223.326 62.718C223.326 62.5068 223.408 62.3297 223.572 62.1867C223.735 62.0436 223.939 61.9755 224.198 61.9755ZM223.388 58.7465C223.388 59.7751 223.66 60.2929 224.212 60.2929C224.723 60.2929 224.995 59.8637 225.029 59.0054L225.036 58.3718C225.036 57.8473 224.961 57.459 224.818 57.207C224.675 56.9549 224.464 56.8255 224.205 56.8255C223.946 56.8255 223.749 56.9549 223.606 57.207C223.463 57.459 223.394 57.8473 223.394 58.3718V58.7465H223.388Z" fill="#0F9B55"/>
<path d="M228.02 54.189C228.02 53.9574 228.095 53.7667 228.245 53.6168C228.395 53.467 228.592 53.392 228.844 53.392C229.09 53.392 229.294 53.467 229.444 53.6168C229.594 53.7667 229.669 53.9574 229.669 54.189C229.669 54.4207 229.594 54.6114 229.451 54.7613C229.301 54.9112 229.103 54.9929 228.851 54.9929C228.599 54.9929 228.402 54.918 228.252 54.7613C228.095 54.6114 228.02 54.4138 228.02 54.189ZM229.601 61.4372H228.088V55.6809H229.601V61.4372Z" fill="#0F9B55"/>
<path d="M235.745 55.6743L235.786 56.2465C236.127 55.7969 236.569 55.5721 237.121 55.5721C238.109 55.5721 238.62 56.2669 238.647 57.6498V61.4305H237.135V57.7588C237.135 57.4318 237.087 57.1934 236.985 57.0503C236.883 56.9004 236.719 56.8323 236.474 56.8323C236.202 56.8323 235.99 56.9754 235.834 57.2547V61.4374H234.321V55.6811H235.745V55.6743Z" fill="#0F9B55"/>
<path d="M241.746 56.1851C242.073 55.7764 242.475 55.572 242.952 55.572C243.477 55.572 243.879 55.7559 244.151 56.1238C244.424 56.4917 244.56 57.0434 244.567 57.7723V61.4305H243.054V57.786C243.054 57.4522 243 57.2069 242.898 57.0571C242.795 56.9072 242.625 56.8322 242.387 56.8322C242.114 56.8322 241.903 56.9549 241.746 57.207V61.4305H240.241V53.2559H241.746V56.1851Z" fill="#0F9B55"/>
<path d="M248.92 61.4373C248.879 61.3487 248.831 61.1989 248.79 60.9877C248.525 61.3556 248.157 61.5395 247.694 61.5395C247.21 61.5395 246.815 61.376 246.495 61.0626C246.174 60.7425 246.018 60.3269 246.018 59.8228C246.018 59.2165 246.208 58.7533 246.597 58.4195C246.978 58.0925 247.537 57.9222 248.259 57.9154H248.715V57.4522C248.715 57.1933 248.668 57.0094 248.579 56.9072C248.491 56.7982 248.361 56.7505 248.191 56.7505C247.816 56.7505 247.625 56.9685 247.625 57.4113H246.12C246.12 56.88 246.317 56.4372 246.719 56.0966C247.121 55.7492 247.625 55.5789 248.232 55.5789C248.865 55.5789 249.349 55.7423 249.696 56.0693C250.044 56.3963 250.214 56.8663 250.214 57.4794V60.1907C250.221 60.688 250.289 61.0763 250.425 61.3556V61.4441H248.92V61.4373ZM248.947 54.9112H247.673L246.202 53.2627H247.891L248.947 54.9112ZM248.034 60.361C248.204 60.361 248.341 60.3269 248.463 60.2588C248.579 60.1907 248.668 60.1089 248.722 60.0204V58.8215H248.361C248.102 58.8215 247.905 58.9032 247.755 59.0667C247.605 59.2302 247.537 59.4482 247.537 59.7207C247.53 60.1498 247.7 60.361 248.034 60.361Z" fill="#0F9B55"/>
<path d="M85.1345 54.993H83.2135V61.4373H81.6467V54.993H79.7597V53.6851H85.1345V54.993Z" fill="#0F9B55"/>
<path d="M88.3431 61.4372C88.3022 61.3487 88.2545 61.1988 88.2136 60.9877C87.9411 61.3555 87.5801 61.5394 87.1169 61.5394C86.6332 61.5394 86.2313 61.3759 85.9179 61.0626C85.5977 60.7424 85.4411 60.3269 85.4411 59.8228C85.4411 59.2165 85.6318 58.7533 86.0201 58.4195C86.4084 58.0925 86.9602 57.9222 87.6823 57.9154H88.1387V57.4521C88.1387 57.1933 88.091 57.0094 88.0024 56.9072C87.9139 56.805 87.7845 56.7505 87.6142 56.7505C87.2395 56.7505 87.0488 56.9685 87.0488 57.4113H85.5433C85.5433 56.8799 85.7408 56.4371 86.1427 56.0965C86.5447 55.7491 87.0488 55.5788 87.6551 55.5788C88.2886 55.5788 88.7722 55.7423 89.1197 56.0692C89.4671 56.3962 89.6374 56.8663 89.6374 57.4794V60.1906C89.6442 60.6879 89.7123 61.0762 89.8486 61.3555V61.4441H88.3431V61.4372ZM88.3703 54.9112H87.0965L85.625 53.2626H87.3145L88.3703 54.9112ZM87.4575 60.3609C87.6278 60.3609 87.764 60.3269 87.8867 60.2588C88.0025 60.1906 88.091 60.1089 88.1455 60.0203V58.8214H87.7845C87.5256 58.8214 87.3281 58.9031 87.1782 59.0666C87.0283 59.2301 86.9602 59.4481 86.9602 59.7206C86.9534 60.1498 87.1237 60.3609 87.4575 60.3609Z" fill="#0F9B55"/>
<path d="M91.2859 54.1891C91.2859 53.9575 91.3608 53.7668 91.5107 53.6169C91.6606 53.467 91.8581 53.3921 92.1102 53.3921C92.3622 53.3921 92.5598 53.467 92.7028 53.6169C92.8527 53.7668 92.9277 53.9575 92.9277 54.1891C92.9277 54.4207 92.8527 54.6115 92.7097 54.7613C92.5598 54.9112 92.3622 54.993 92.1102 54.993C91.8581 54.993 91.6606 54.918 91.5107 54.7613C91.354 54.6115 91.2859 54.4139 91.2859 54.1891ZM92.8663 61.4373H91.354V55.681H92.8663V61.4373Z" fill="#0F9B55"/>
<path d="M99.7127 60.2928C100.149 60.2928 100.373 60.0067 100.38 59.4413H101.797C101.79 60.068 101.6 60.5789 101.218 60.9604C100.837 61.3487 100.346 61.5395 99.7468 61.5395C99.0042 61.5395 98.4388 61.3078 98.0505 60.8446C97.6622 60.3814 97.4647 59.707 97.451 58.8078V58.3514C97.451 57.4454 97.6418 56.7573 98.0301 56.2805C98.4184 55.8036 98.9838 55.5652 99.7399 55.5652C100.373 55.5652 100.878 55.7627 101.239 56.151C101.6 56.5393 101.79 57.0979 101.797 57.82H100.38C100.373 57.4998 100.326 57.2478 100.217 57.0775C100.115 56.9004 99.9443 56.8186 99.7059 56.8186C99.447 56.8186 99.2563 56.914 99.1405 57.0979C99.0247 57.2819 98.9701 57.6429 98.9565 58.1811V58.7669C98.9565 59.237 98.9838 59.5639 99.0247 59.7479C99.0723 59.9318 99.1473 60.068 99.2563 60.1566C99.3652 60.2451 99.5151 60.2928 99.7127 60.2928Z" fill="#0F9B55"/>
<path d="M104.658 56.1851C104.985 55.7764 105.387 55.572 105.864 55.572C106.389 55.572 106.784 55.7559 107.063 56.1238C107.336 56.4917 107.472 57.0434 107.479 57.7723V61.4305H105.966V57.786C105.966 57.4522 105.912 57.2069 105.81 57.0571C105.707 56.9072 105.537 56.8322 105.305 56.8322C105.033 56.8322 104.822 56.9549 104.665 57.207V61.4305H103.16V53.2559H104.665V56.1851H104.658Z" fill="#0F9B55"/>
<path d="M110.714 61.4373H109.209V55.681H110.714V61.4373ZM110.278 53.3376H111.968L110.489 54.9862H109.236L110.278 53.3376Z" fill="#0F9B55"/>
<path d="M113.882 55.6743L113.923 56.2465C114.263 55.7969 114.706 55.5721 115.258 55.5721C116.246 55.5721 116.756 56.2669 116.784 57.6498V61.4305H115.271V57.7588C115.271 57.4318 115.224 57.1934 115.122 57.0503C115.026 56.9004 114.856 56.8323 114.611 56.8323C114.338 56.8323 114.127 56.9754 113.97 57.2547V61.4374H112.458V55.6811H113.882V55.6743Z" fill="#0F9B55"/>
<path d="M119.877 56.1851C120.204 55.7764 120.605 55.572 121.076 55.572C121.6 55.572 122.002 55.7559 122.274 56.1238C122.547 56.4917 122.683 57.0434 122.69 57.7723V61.4305H121.178V57.786C121.178 57.4522 121.123 57.2069 121.021 57.0571C120.919 56.9072 120.749 56.8322 120.51 56.8322C120.238 56.8322 120.026 56.9549 119.87 57.207V61.4305H118.364V53.2559H119.87V56.1851H119.877Z" fill="#0F9B55"/>
<path d="M132.152 54.993H130.231V61.4373H128.664V54.993H126.777V53.6851H132.152V54.993Z" fill="#EE3C39"/>
<path d="M133.521 54.1891C133.521 53.9575 133.596 53.7668 133.746 53.6169C133.896 53.467 134.094 53.3921 134.339 53.3921C134.584 53.3921 134.788 53.467 134.938 53.6169C135.088 53.7668 135.163 53.9575 135.163 54.1891C135.163 54.4207 135.088 54.6115 134.938 54.7613C134.788 54.9112 134.591 54.993 134.339 54.993C134.087 54.993 133.889 54.918 133.739 54.7613C133.589 54.6115 133.521 54.4139 133.521 54.1891ZM135.102 61.4373H133.59V55.681H135.102V61.4373Z" fill="#EE3C39"/>
<path d="M139.134 61.5395C138.358 61.5395 137.758 61.3079 137.322 60.8514C136.886 60.3882 136.675 59.7275 136.675 58.8691V58.4127C136.675 57.5067 136.873 56.805 137.275 56.3146C137.67 55.8241 138.242 55.572 138.985 55.572C139.707 55.572 140.252 55.8036 140.62 56.2669C140.987 56.7301 141.171 57.4113 141.178 58.3241V59.0598H138.181C138.201 59.489 138.297 59.8024 138.46 59.9999C138.624 60.1975 138.882 60.2997 139.23 60.2997C139.734 60.2997 140.156 60.1294 140.49 59.7819L141.083 60.6948C140.899 60.9468 140.626 61.158 140.279 61.3147C139.925 61.4645 139.543 61.5395 139.134 61.5395ZM140.62 54.7477V54.8091H139.441L138.773 54.0393L138.106 54.8091H136.955V54.7205L138.337 53.2559H139.203L140.62 54.7477ZM138.91 61.9414C139.169 61.9414 139.38 62.0095 139.543 62.1526C139.707 62.2956 139.782 62.4659 139.782 62.6839C139.782 62.8951 139.7 63.0722 139.543 63.2153C139.38 63.3583 139.169 63.4264 138.91 63.4264C138.658 63.4264 138.446 63.3583 138.283 63.2153C138.119 63.079 138.038 62.9019 138.038 62.6839C138.038 62.4727 138.119 62.2956 138.283 62.1526C138.446 62.0095 138.658 61.9414 138.91 61.9414ZM138.188 58.0108H139.693V57.8745C139.686 57.5339 139.632 57.2682 139.523 57.0911C139.414 56.914 139.23 56.8255 138.971 56.8255C138.705 56.8255 138.521 56.9208 138.399 57.1048C138.276 57.2887 138.208 57.5952 138.188 58.0108Z" fill="#EE3C39"/>
<path d="M143.951 55.6742L143.992 56.2464C144.332 55.7968 144.775 55.572 145.327 55.572C146.315 55.572 146.826 56.2669 146.853 57.6497V61.4305H145.341V57.7587C145.341 57.4318 145.293 57.1933 145.191 57.0503C145.095 56.9004 144.925 56.8323 144.68 56.8323C144.407 56.8323 144.196 56.9753 144.04 57.2546V61.4373H142.527V55.681H143.951V55.6742Z" fill="#EE3C39"/>
<path d="M153.427 59.3051L154.155 55.6743H155.722L154.142 61.4373H152.704L151.117 55.6743H152.698L153.427 59.3051Z" fill="#EE3C39"/>
<path d="M159.632 61.4372C159.592 61.3487 159.551 61.1988 159.503 60.9877C159.237 61.3555 158.87 61.5394 158.406 61.5394C157.923 61.5394 157.528 61.3759 157.207 61.0626C156.887 60.7424 156.73 60.3269 156.73 59.8228C156.73 59.2165 156.921 58.7533 157.31 58.4195C157.698 58.0925 158.25 57.9222 158.972 57.9154H159.428V57.4521C159.428 57.1933 159.38 57.0094 159.292 56.9072C159.203 56.805 159.074 56.7505 158.904 56.7505C158.529 56.7505 158.338 56.9685 158.338 57.4113H156.833C156.833 56.8799 157.03 56.4371 157.432 56.0965C157.834 55.7491 158.338 55.5788 158.944 55.5788C159.578 55.5788 160.062 55.7423 160.409 56.0692C160.756 56.3962 160.927 56.8663 160.927 57.4794V60.1906C160.934 60.6879 161.002 61.0762 161.138 61.3555V61.4441H159.632V61.4372ZM159.66 54.9112H158.386L156.914 53.2626H158.604L159.66 54.9112ZM158.74 60.3609C158.904 60.3609 159.047 60.3269 159.169 60.2588C159.285 60.1906 159.374 60.1089 159.428 60.0203V58.8214H159.067C158.808 58.8214 158.611 58.9031 158.461 59.0666C158.311 59.2301 158.243 59.4481 158.243 59.7206C158.243 60.1498 158.406 60.3609 158.74 60.3609Z" fill="#EE3C39"/>
<path d="M171.118 61.4373H169.558L167.269 56.3555V61.4373H165.702V53.6851H167.269L169.564 58.7738V53.6851H171.118V61.4373Z" fill="#EE3C39"/>
<path d="M172.664 58.3786C172.664 57.4317 172.834 56.7301 173.175 56.2669C173.516 55.8036 173.992 55.572 174.606 55.572C175.13 55.572 175.532 55.7764 175.811 56.1919L175.873 55.681H177.228V61.4373C177.228 62.173 177.024 62.7316 176.608 63.1199C176.193 63.5082 175.607 63.6989 174.837 63.6989C174.524 63.6989 174.19 63.6377 173.843 63.5082C173.495 63.3788 173.236 63.2221 173.066 63.0245L173.57 61.9823C173.713 62.1321 173.897 62.2548 174.122 62.3501C174.347 62.4455 174.565 62.4932 174.769 62.4932C175.103 62.4932 175.348 62.4114 175.498 62.2548C175.648 62.0913 175.723 61.8324 175.723 61.4713V60.9741C175.437 61.3487 175.062 61.5395 174.599 61.5395C173.986 61.5395 173.509 61.3011 173.175 60.8242C172.841 60.3474 172.671 59.673 172.664 58.8078V58.3786ZM174.17 58.7601C174.17 59.2915 174.238 59.6798 174.381 59.925C174.517 60.1703 174.735 60.2929 175.042 60.2929C175.348 60.2929 175.58 60.1839 175.73 59.9591V57.207C175.573 56.9617 175.348 56.8391 175.055 56.8391C174.755 56.8391 174.537 56.9617 174.388 57.207C174.244 57.4522 174.176 57.8473 174.176 58.3855V58.7601H174.17Z" fill="#EE3C39"/>
<path d="M181.609 61.4373C181.568 61.3488 181.527 61.1989 181.479 60.9877C181.207 61.3556 180.846 61.5395 180.382 61.5395C179.899 61.5395 179.504 61.376 179.183 61.0626C178.863 60.7425 178.707 60.3269 178.707 59.8228C178.707 59.2165 178.897 58.7533 179.286 58.4195C179.667 58.0925 180.226 57.9222 180.948 57.9154H181.404V57.4522C181.404 57.1933 181.356 57.0094 181.268 56.9072C181.179 56.8051 181.05 56.7505 180.88 56.7505C180.505 56.7505 180.314 56.9685 180.314 57.4113H178.809C178.809 56.88 179.006 56.4372 179.408 56.0966C179.81 55.7492 180.314 55.5789 180.921 55.5789C181.554 55.5789 182.045 55.7423 182.385 56.0693C182.733 56.3963 182.903 56.8663 182.903 57.4794V60.1907C182.91 60.688 182.978 61.0763 183.114 61.3556V61.4441H181.609V61.4373ZM180.716 60.361C180.88 60.361 181.023 60.3269 181.138 60.2588C181.254 60.1907 181.343 60.1089 181.397 60.0204V58.8215H181.036C180.784 58.8215 180.58 58.9032 180.43 59.0667C180.28 59.2302 180.212 59.4482 180.212 59.7207C180.219 60.1498 180.382 60.361 180.716 60.361Z" fill="#EE3C39"/>
<path d="M186.316 58.9304L187.085 55.681H188.693L186.799 62.3024C186.513 63.2766 185.982 63.767 185.198 63.767C185.014 63.767 184.81 63.733 184.578 63.6649V62.4864L184.756 62.4931C184.987 62.4931 185.164 62.4455 185.287 62.3569C185.403 62.2684 185.498 62.1117 185.553 61.8869L185.668 61.4986L184.006 55.681H185.628L186.316 58.9304Z" fill="#EE3C39"/>
<path d="M195.015 60.2928C195.451 60.2928 195.676 60.0067 195.683 59.4413H197.1C197.093 60.068 196.902 60.5789 196.521 60.9604C196.139 61.3487 195.649 61.5395 195.049 61.5395C194.307 61.5395 193.741 61.3078 193.353 60.8446C192.965 60.3814 192.76 59.707 192.753 58.8078V58.3514C192.753 57.4454 192.944 56.7573 193.332 56.2805C193.721 55.8036 194.286 55.5652 195.042 55.5652C195.676 55.5652 196.18 55.7627 196.541 56.151C196.909 56.5393 197.093 57.0979 197.1 57.82H195.683C195.676 57.4998 195.628 57.2478 195.526 57.0775C195.424 56.9004 195.253 56.8186 195.015 56.8186C194.749 56.8186 194.565 56.914 194.45 57.0979C194.334 57.2819 194.273 57.6429 194.266 58.1811V58.7669C194.266 59.237 194.286 59.5639 194.334 59.7479C194.381 59.9318 194.456 60.068 194.565 60.1566C194.668 60.2451 194.817 60.2928 195.015 60.2928Z" fill="#0F9B55"/>
<path d="M199.96 56.1852C200.287 55.7765 200.689 55.5721 201.166 55.5721C201.691 55.5721 202.093 55.756 202.365 56.1239C202.638 56.4917 202.774 57.0435 202.781 57.7724V61.4305H201.268V57.786C201.268 57.4522 201.214 57.207 201.112 57.0571C201.009 56.9073 200.839 56.8323 200.608 56.8323C200.335 56.8323 200.124 56.955 199.967 57.207V61.4305H198.462V53.2559H199.967V56.1852H199.96Z" fill="#0F9B55"/>
<path d="M204.225 58.3718C204.225 57.4999 204.429 56.8186 204.845 56.3214C205.254 55.8241 205.826 55.5789 206.555 55.5789C207.29 55.5789 207.863 55.8309 208.271 56.3214C208.68 56.8186 208.891 57.5067 208.891 58.3855V58.7533C208.891 59.6321 208.687 60.3133 208.278 60.8106C207.869 61.3011 207.297 61.5531 206.561 61.5531C205.826 61.5531 205.254 61.3079 204.838 60.8106C204.422 60.3133 204.225 59.6253 204.225 58.7465V58.3718ZM205.737 58.7465C205.737 59.7751 206.01 60.2929 206.561 60.2929C207.072 60.2929 207.345 59.8637 207.379 59.0054L207.386 58.3718C207.386 57.8473 207.311 57.459 207.168 57.207C207.025 56.9549 206.82 56.8255 206.555 56.8255C206.296 56.8255 206.098 56.9549 205.955 57.207C205.812 57.459 205.744 57.8473 205.744 58.3718V58.7465H205.737Z" fill="#0F9B55"/>
<path d="M214.838 55.6742L214.879 56.2055C215.213 55.7832 215.663 55.5652 216.214 55.5652C216.787 55.5652 217.195 55.8241 217.434 56.3418C217.768 55.8241 218.231 55.5652 218.844 55.5652C219.852 55.5652 220.37 56.26 220.39 57.6565V61.4305H218.885V57.7519C218.885 57.4181 218.837 57.1797 218.749 57.0366C218.653 56.8936 218.503 56.8255 218.279 56.8255C217.999 56.8255 217.788 56.9957 217.652 57.3432L217.665 57.5271V61.4305H216.16V57.7655C216.16 57.4385 216.112 57.1933 216.024 57.0502C215.935 56.9004 215.779 56.8322 215.554 56.8322C215.295 56.8322 215.09 56.9753 214.934 57.2546V61.4373H213.428V55.681H214.838V55.6742Z" fill="#0F9B55"/>
<path d="M221.875 58.3718C221.875 57.4999 222.08 56.8186 222.495 56.3214C222.904 55.8241 223.476 55.5789 224.205 55.5789C224.941 55.5789 225.513 55.8309 225.922 56.3214C226.331 56.8186 226.542 57.5067 226.542 58.3855V58.7533C226.542 59.6321 226.337 60.3133 225.929 60.8106C225.52 61.3011 224.948 61.5531 224.212 61.5531C223.476 61.5531 222.897 61.3079 222.488 60.8106C222.08 60.3133 221.875 59.6253 221.875 58.7465V58.3718ZM224.198 61.9755C224.457 61.9755 224.668 62.0436 224.832 62.1867C224.995 62.3297 225.07 62.5068 225.07 62.718C225.07 62.9292 224.989 63.1063 224.832 63.2494C224.668 63.3856 224.464 63.4605 224.198 63.4605C223.939 63.4605 223.735 63.3924 223.572 63.2494C223.408 63.1063 223.326 62.936 223.326 62.718C223.326 62.5068 223.408 62.3297 223.572 62.1867C223.735 62.0436 223.939 61.9755 224.198 61.9755ZM223.388 58.7465C223.388 59.7751 223.66 60.2929 224.212 60.2929C224.723 60.2929 224.995 59.8637 225.029 59.0054L225.036 58.3718C225.036 57.8473 224.961 57.459 224.818 57.207C224.675 56.9549 224.464 56.8255 224.205 56.8255C223.946 56.8255 223.749 56.9549 223.606 57.207C223.463 57.459 223.394 57.8473 223.394 58.3718V58.7465H223.388Z" fill="#0F9B55"/>
<path d="M228.02 54.189C228.02 53.9574 228.095 53.7667 228.245 53.6168C228.395 53.467 228.592 53.392 228.844 53.392C229.09 53.392 229.294 53.467 229.444 53.6168C229.594 53.7667 229.669 53.9574 229.669 54.189C229.669 54.4207 229.594 54.6114 229.451 54.7613C229.301 54.9112 229.103 54.9929 228.851 54.9929C228.599 54.9929 228.402 54.918 228.252 54.7613C228.095 54.6114 228.02 54.4138 228.02 54.189ZM229.601 61.4372H228.088V55.6809H229.601V61.4372Z" fill="#0F9B55"/>
<path d="M235.745 55.6743L235.786 56.2465C236.127 55.7969 236.569 55.5721 237.121 55.5721C238.109 55.5721 238.62 56.2669 238.647 57.6498V61.4305H237.135V57.7588C237.135 57.4318 237.087 57.1934 236.985 57.0503C236.883 56.9004 236.719 56.8323 236.474 56.8323C236.202 56.8323 235.99 56.9754 235.834 57.2547V61.4374H234.321V55.6811H235.745V55.6743Z" fill="#0F9B55"/>
<path d="M241.746 56.1851C242.073 55.7764 242.475 55.572 242.952 55.572C243.477 55.572 243.879 55.7559 244.151 56.1238C244.424 56.4917 244.56 57.0434 244.567 57.7723V61.4305H243.054V57.786C243.054 57.4522 243 57.2069 242.898 57.0571C242.795 56.9072 242.625 56.8322 242.387 56.8322C242.114 56.8322 241.903 56.9549 241.746 57.207V61.4305H240.241V53.2559H241.746V56.1851Z" fill="#0F9B55"/>
<path d="M248.92 61.4373C248.879 61.3487 248.831 61.1989 248.79 60.9877C248.525 61.3556 248.157 61.5395 247.694 61.5395C247.21 61.5395 246.815 61.376 246.495 61.0626C246.174 60.7425 246.018 60.3269 246.018 59.8228C246.018 59.2165 246.208 58.7533 246.597 58.4195C246.978 58.0925 247.537 57.9222 248.259 57.9154H248.715V57.4522C248.715 57.1933 248.668 57.0094 248.579 56.9072C248.491 56.7982 248.361 56.7505 248.191 56.7505C247.816 56.7505 247.625 56.9685 247.625 57.4113H246.12C246.12 56.88 246.317 56.4372 246.719 56.0966C247.121 55.7492 247.625 55.5789 248.232 55.5789C248.865 55.5789 249.349 55.7423 249.696 56.0693C250.044 56.3963 250.214 56.8663 250.214 57.4794V60.1907C250.221 60.688 250.289 61.0763 250.425 61.3556V61.4441H248.92V61.4373ZM248.947 54.9112H247.673L246.202 53.2627H247.891L248.947 54.9112ZM248.034 60.361C248.204 60.361 248.341 60.3269 248.463 60.2588C248.579 60.1907 248.668 60.1089 248.722 60.0204V58.8215H248.361C248.102 58.8215 247.905 58.9032 247.755 59.0667C247.605 59.2302 247.537 59.4482 247.537 59.7207C247.53 60.1498 247.7 60.361 248.034 60.361Z" fill="#0F9B55"/>
<path d="M84.535 23.0371H79.7597V17.5737H95.8092V23.0371H90.9657V42.261H84.535V23.0371Z" fill="#1D9752"/>
<path d="M96.7426 17.5737H102.969V22.206H96.7426V17.5737ZM96.7426 23.5548H102.969V42.261H96.7426V23.5548Z" fill="#1D9752"/>
<path d="M111.232 33.9638V36.4162C111.232 38.0988 111.797 38.9435 112.928 38.9435C113.528 38.9435 113.97 38.6982 114.256 38.2146C114.543 37.7309 114.692 36.8862 114.692 35.6872H120.292C120.244 38.0374 119.645 39.7814 118.494 40.9258C117.342 42.0703 115.496 42.6357 112.962 42.6357C109.985 42.6357 107.921 41.9136 106.756 40.4762C105.591 39.0388 105.012 36.5183 105.012 32.9215C105.012 29.3724 105.625 26.845 106.865 25.3327C108.098 23.8204 110.135 23.0711 112.969 23.0711C115.551 23.0711 117.445 23.7455 118.657 25.0943C119.863 26.4431 120.469 28.7661 120.469 32.0632V33.9638H111.232ZM114.652 29.747C114.652 28.732 114.522 28.0031 114.27 27.5535C114.018 27.1039 113.568 26.8791 112.921 26.8791C112.301 26.8791 111.859 27.1039 111.607 27.5535C111.354 28.0031 111.225 28.7388 111.225 29.747V30.5781H114.652V29.747Z" fill="#1D9752"/>
<path d="M122.193 23.5548H128.208V25.8368H128.276C129.08 23.9907 130.592 23.0711 132.806 23.0711C134.325 23.0711 135.524 23.4526 136.382 24.2155C137.248 24.9785 137.677 26.2865 137.677 28.1598V42.2678H131.45V29.9242C131.45 29.1408 131.335 28.5753 131.103 28.2279C130.871 27.8805 130.483 27.7102 129.931 27.7102C129.38 27.7102 128.984 27.8805 128.753 28.2279C128.521 28.5753 128.405 29.1408 128.405 29.9242V42.2678H122.179V23.5548H122.193Z" fill="#1D9752"/>
<path d="M140.449 17.5737H147.643L151.792 32.7853H151.86V17.5737H157.875V42.261H150.817L146.533 27.0154H146.464V42.261H140.449V17.5737Z" fill="#1D9752"/>
<path d="M170.219 23.0915H176.029V41.9476C176.029 46.3278 173.427 48.5145 168.216 48.5145C166.765 48.5145 165.539 48.3851 164.551 48.1194C163.556 47.8538 162.718 47.3156 162.024 46.5118C161.335 45.7011 160.974 44.618 160.954 43.2623H166.554C166.554 44.2297 167.071 44.7133 168.107 44.7133C168.686 44.7133 169.142 44.5635 169.49 44.2638C169.837 43.964 170.007 43.3373 170.007 42.3972V38.9366H169.939C169.244 40.8031 167.841 41.7364 165.723 41.7364C162.078 41.7364 160.259 38.6573 160.259 32.4991C160.259 29.0658 160.743 26.6338 161.71 25.2033C162.677 23.7727 164.122 23.0574 166.029 23.0574C168.148 23.0574 169.524 24.0861 170.144 26.1366H170.212V23.0915H170.219ZM166.485 32.4106C166.485 34.2771 166.622 35.5305 166.901 36.1641C167.18 36.7976 167.637 37.1178 168.284 37.1178C168.904 37.1178 169.353 36.8044 169.612 36.1845C169.878 35.5646 170.014 34.3043 170.014 32.4174C170.014 30.5713 169.878 29.3315 169.599 28.6843C169.326 28.0371 168.883 27.717 168.284 27.717C167.664 27.717 167.208 28.044 166.915 28.6843C166.629 29.3178 166.485 30.5645 166.485 32.4106Z" fill="#1D9752"/>
<path d="M187.719 42.261C187.603 41.9612 187.474 41.2596 187.338 40.1492H187.269C186.575 41.8113 185.171 42.6356 183.053 42.6356C179.592 42.6356 177.869 40.8372 177.869 37.2404C177.869 35.4897 178.243 34.1613 178.993 33.2621C179.742 32.3629 181.098 31.6817 183.06 31.2252L185.512 30.6394C186.179 30.4759 186.656 30.2443 186.929 29.9309C187.208 29.6176 187.344 29.1748 187.344 28.5957C187.344 27.4445 186.813 26.8654 185.75 26.8654C185.13 26.8654 184.681 27.0357 184.422 27.3832C184.156 27.7306 184.013 28.3846 183.986 29.3519H178.591C178.591 28.0848 178.822 27.0085 179.279 26.1161C179.735 25.2305 180.355 24.5765 181.132 24.161C181.901 23.7455 182.658 23.4594 183.393 23.2959C184.129 23.1324 184.912 23.0574 185.744 23.0574C188.141 23.0574 189.974 23.4934 191.241 24.3722C192.508 25.251 193.142 26.8178 193.142 29.0726V38.2009C193.142 40.1628 193.339 41.5116 193.727 42.2473H187.719V42.261ZM185.396 38.562C186.684 38.562 187.331 37.5333 187.331 35.4829V33.2348H187.263C187.147 33.3983 186.99 33.5141 186.799 33.5823C186.602 33.6504 186.336 33.7253 186.002 33.807C185.669 33.8888 185.382 33.9842 185.158 34.1C184.306 34.4883 183.877 35.2989 183.877 36.5183C183.877 37.1382 184.013 37.6355 184.293 38.0033C184.572 38.378 184.94 38.562 185.396 38.562Z" fill="#1D9752"/>
<path d="M196.398 44.0253C196.786 44.1207 197.249 44.1616 197.78 44.1616C198.475 44.1616 198.993 43.9913 199.334 43.6575C199.674 43.3237 199.845 42.7446 199.845 42.4654C199.845 42.3019 199.749 41.8795 199.565 41.1847L194.511 23.0915L200.975 23.0643L202.951 36.1709H203.019L204.879 23.0915L211.153 23.0983L206.023 42.7787C205.492 44.8768 204.77 46.5867 203.85 47.3633C202.924 48.1331 201.602 48.5214 199.872 48.5214C198.489 48.5214 197.324 48.4737 196.377 48.3851V44.0253H196.398Z" fill="#1D9752"/>
<path d="M216.174 35.4149H210.363V42.2611H216.174V35.4149Z" fill="#EE3C39"/>
<path d="M217.556 23.1052H223.926L225.751 37.0088H225.819L227.604 23.1052L234.089 23.112L229.416 42.261H222.086L217.556 23.1052Z" fill="#EE3C39"/>
<path d="M235.016 23.1052H241.031V25.8369H241.099C241.903 23.9908 243.415 23.0712 245.629 23.0712C247.149 23.0712 248.347 23.4526 249.206 24.2156C250.071 24.9786 250.5 26.2933 250.5 28.1599V42.2679H244.274V29.9242C244.274 29.1408 244.158 28.5754 243.926 28.228C243.695 27.8805 243.307 27.7103 242.755 27.7103C242.203 27.7103 241.808 27.8874 241.583 28.228C241.351 28.5754 241.236 29.1408 241.236 29.9242V42.2679H235.009V23.1052H235.016Z" fill="#EE3C39"/>
<path d="M27.1697 33.7322H22.5034C22.0742 33.7322 21.6791 33.5278 21.4339 33.1736L14.8669 23.8H11.6652L20.0646 35.7962C20.3099 36.1437 20.7118 36.3548 21.1341 36.3548H30.8278C31.257 36.3548 31.6589 36.566 31.9042 36.9134L48.2262 60.2247C48.5395 60.6743 48.5395 61.2738 48.2262 61.7302L36.4343 78.5699C35.9097 79.3124 34.813 79.3124 34.2884 78.5699L22.4966 61.7302C22.1832 61.2806 22.1832 60.6811 22.4966 60.2315L28.7638 51.2871C29.2815 50.5446 30.385 50.5446 30.9096 51.2803L33.2462 54.6047C33.5664 55.0543 33.5664 55.6605 33.2462 56.1101L30.3578 60.2315C30.0444 60.6811 30.0444 61.2806 30.3578 61.7302L35.3648 68.8761L40.3649 61.7302C40.6782 61.2806 40.6782 60.6811 40.3649 60.2315L28.5526 43.3646C28.3074 43.0172 27.9054 42.806 27.4763 42.806H21.1205C20.6913 42.806 20.2962 43.0172 20.051 43.3646L11.6448 55.3676L14.8465 55.354L21.4134 45.9804C21.6586 45.633 22.0606 45.4218 22.4897 45.4218H26.1138C26.543 45.4218 26.9381 45.633 27.1902 45.9804L27.7079 46.723C28.0213 47.1726 28.0213 47.7721 27.7079 48.2217L18.5932 61.2397C18.348 61.5871 17.946 61.7983 17.5237 61.7983H1.80799C0.752106 61.7983 0.132193 60.6062 0.738477 59.741L14.322 40.3332C14.6353 39.8836 14.6353 39.2841 14.322 38.8345L0.745296 19.4402C0.139012 18.5751 0.758925 17.3829 1.81481 17.3829H17.5373C17.9664 17.3829 18.3616 17.5941 18.6068 17.9415L28.2392 31.7021C28.8455 32.54 28.2256 33.7322 27.1697 33.7322Z" fill="#EE3C39"/>
<path d="M43.5872 45.4015H48.2535C48.6827 45.4015 49.0846 45.6126 49.323 45.9601L55.89 55.3336H59.0917L50.6923 43.3373C50.447 42.9899 50.0451 42.7787 49.6228 42.7787H39.9291C39.4999 42.7787 39.098 42.5744 38.8527 42.2202L22.5035 18.9021C22.1833 18.4525 22.1833 17.853 22.5035 17.3966L34.2954 0.556895C34.8199 -0.185632 35.9166 -0.185632 36.4412 0.556895L48.2331 17.3966C48.5533 17.8462 48.5533 18.4457 48.2331 18.8953L41.9727 27.8397C41.4482 28.5822 40.3446 28.5822 39.8269 27.8397L37.4971 24.5085C37.1837 24.0589 37.1837 23.4594 37.4971 23.003L40.3718 18.8953C40.6852 18.4457 40.6852 17.8462 40.3718 17.3966L35.3717 10.2438L30.3715 17.3898C30.0582 17.8394 30.0582 18.4389 30.3715 18.8953L42.2111 35.7758C42.4564 36.1233 42.8583 36.3345 43.2874 36.3345H49.6023C50.0315 36.3345 50.4334 36.1233 50.6718 35.7758L59.0712 23.7796H55.8763L49.3094 33.16C49.0641 33.5074 48.6622 33.7186 48.2399 33.7186H44.6294C44.2003 33.7186 43.7983 33.5074 43.5599 33.16L43.0286 32.4038C42.7152 31.9542 42.7152 31.3548 43.0286 30.9051L52.1296 17.9007C52.3749 17.5533 52.7768 17.3421 53.206 17.3421H68.9284C69.9843 17.3421 70.6111 18.5342 70.0048 19.4062L56.4145 38.8005C56.1011 39.2501 56.1011 39.8495 56.4145 40.3059L70.0116 59.7138C70.6179 60.5858 69.998 61.7779 68.9421 61.7779H53.2196C52.7904 61.7779 52.3953 61.5667 52.1433 61.2193L42.5109 47.4655C41.9114 46.5936 42.5313 45.4015 43.5872 45.4015Z" fill="#EE3C39"/>
</svg>
