<svg width="199" height="41" viewBox="0 0 199 41" fill="none" xmlns="http://www.w3.org/2000/svg">
<path d="M21.24 17.56H27.16V28.92C25.64 30.0667 23.88 30.9467 21.88 31.56C19.88 32.1733 17.8667 32.48 15.84 32.48C12.9333 32.48 10.32 31.8667 8 30.64C5.68 29.3867 3.85333 27.6667 2.52 25.48C1.21333 23.2667 0.56 20.7733 0.56 18C0.56 15.2267 1.21333 12.7467 2.52 10.56C3.85333 8.34667 5.69333 6.62667 8.04 5.4C10.3867 4.14667 13.0267 3.52 15.96 3.52C18.4133 3.52 20.64 3.93333 22.64 4.76C24.64 5.58666 26.32 6.78667 27.68 8.36L23.52 12.2C21.52 10.0933 19.1067 9.04 16.28 9.04C14.4933 9.04 12.9067 9.41333 11.52 10.16C10.1333 10.9067 9.05333 11.96 8.28 13.32C7.50667 14.68 7.12 16.24 7.12 18C7.12 19.7333 7.50667 21.28 8.28 22.64C9.05333 24 10.12 25.0667 11.48 25.84C12.8667 26.5867 14.44 26.96 16.2 26.96C18.0667 26.96 19.7467 26.56 21.24 25.76V17.56ZM32.7394 10.48H38.9794V32H32.7394V10.48ZM35.8594 7.48C34.7127 7.48 33.7794 7.14667 33.0594 6.48C32.3394 5.81333 31.9794 4.98666 31.9794 4C31.9794 3.01333 32.3394 2.18667 33.0594 1.52C33.7794 0.853331 34.7127 0.519998 35.8594 0.519998C37.006 0.519998 37.9394 0.839998 38.6594 1.48C39.3794 2.12 39.7394 2.92 39.7394 3.88C39.7394 4.92 39.3794 5.78667 38.6594 6.48C37.9394 7.14667 37.006 7.48 35.8594 7.48ZM63.4906 13.32C64.5573 14.3067 65.3706 15.48 65.9306 16.84C66.5173 18.1733 66.8106 19.64 66.8106 21.24C66.8106 23.3733 66.304 25.28 65.2906 26.96C64.2773 28.64 62.8773 29.96 61.0906 30.92C59.304 31.8533 57.2773 32.32 55.0106 32.32C52.744 32.32 50.704 31.8533 48.8906 30.92C47.104 29.96 45.704 28.64 44.6906 26.96C43.6773 25.28 43.1706 23.3733 43.1706 21.24C43.1706 19.1067 43.6773 17.2 44.6906 15.52C45.7306 13.84 47.144 12.5333 48.9306 11.6C50.744 10.64 52.784 10.16 55.0506 10.16C55.584 10.16 56.5173 10.2267 57.8506 10.36C58.7573 10.4667 59.4106 10.52 59.8106 10.52C60.6373 10.52 61.264 10.28 61.6906 9.8C62.144 9.32 62.3706 8.69333 62.3706 7.92C62.3706 7.06667 62.0906 6.26667 61.5306 5.52L65.1706 4.16C66.0773 5.38667 66.5306 6.72 66.5306 8.16C66.5306 9.30667 66.264 10.3333 65.7306 11.24C65.1973 12.12 64.4506 12.8133 63.4906 13.32ZM55.0106 27.2C56.584 27.2 57.8906 26.6667 58.9306 25.6C59.9706 24.5067 60.4906 23.0533 60.4906 21.24C60.4906 19.4267 59.9706 17.9867 58.9306 16.92C57.9173 15.8267 56.6106 15.28 55.0106 15.28C53.4106 15.28 52.0906 15.8267 51.0506 16.92C50.0106 17.9867 49.4906 19.4267 49.4906 21.24C49.4906 23.0533 50.0106 24.5067 51.0506 25.6C52.0906 26.6667 53.4106 27.2 55.0106 27.2ZM56.7706 1.96H63.4906L56.2506 7.72H51.3706L56.7706 1.96ZM70.9816 10.48H77.2216V32H70.9816V10.48ZM74.1016 7.48C72.9549 7.48 72.0216 7.14667 71.3016 6.48C70.5816 5.81333 70.2216 4.98666 70.2216 4C70.2216 3.01333 70.5816 2.18667 71.3016 1.52C72.0216 0.853331 72.9549 0.519998 74.1016 0.519998C75.2482 0.519998 76.1816 0.839998 76.9016 1.48C77.6216 2.12 77.9816 2.92 77.9816 3.88C77.9816 4.92 77.6216 5.78667 76.9016 6.48C76.1816 7.14667 75.2482 7.48 74.1016 7.48ZM108.221 30.96C107.608 31.4133 106.848 31.76 105.941 32C105.061 32.2133 104.128 32.32 103.141 32.32C100.581 32.32 98.5943 31.6667 97.1809 30.36C95.7943 29.0533 95.1009 27.1333 95.1009 24.6V15.76H91.7809V10.96H95.1009V5.72H101.341V10.96H106.701V15.76H101.341V24.52C101.341 25.4267 101.568 26.1333 102.021 26.64C102.501 27.12 103.168 27.36 104.021 27.36C105.008 27.36 105.848 27.0933 106.541 26.56L108.221 30.96ZM124.804 10.16C127.47 10.16 129.617 10.96 131.244 12.56C132.897 14.16 133.724 16.5333 133.724 19.68V32H127.484V20.64C127.484 18.9333 127.11 17.6667 126.364 16.84C125.617 15.9867 124.537 15.56 123.124 15.56C121.55 15.56 120.297 16.0533 119.364 17.04C118.43 18 117.964 19.44 117.964 21.36V32H111.724V2.32H117.964V12.72C118.79 11.8933 119.79 11.2667 120.964 10.84C122.137 10.3867 123.417 10.16 124.804 10.16ZM139.38 10.48H145.62V32H139.38V10.48ZM142.5 7.48C141.353 7.48 140.42 7.14667 139.7 6.48C138.98 5.81333 138.62 4.98666 138.62 4C138.62 3.01333 138.98 2.18667 139.7 1.52C140.42 0.853331 141.353 0.519998 142.5 0.519998C143.647 0.519998 144.58 0.839998 145.3 1.48C146.02 2.12 146.38 2.92 146.38 3.88C146.38 4.92 146.02 5.78667 145.3 6.48C144.58 7.14667 143.647 7.48 142.5 7.48ZM172.491 21.32C172.491 21.4 172.451 21.96 172.371 23H156.091C156.385 24.3333 157.078 25.3867 158.171 26.16C159.265 26.9333 160.625 27.32 162.251 27.32C163.371 27.32 164.358 27.16 165.211 26.84C166.091 26.4933 166.905 25.96 167.651 25.24L170.971 28.84C168.945 31.16 165.985 32.32 162.091 32.32C159.665 32.32 157.518 31.8533 155.651 30.92C153.785 29.96 152.345 28.64 151.331 26.96C150.318 25.28 149.811 23.3733 149.811 21.24C149.811 19.1333 150.305 17.24 151.291 15.56C152.305 13.8533 153.678 12.5333 155.411 11.6C157.171 10.64 159.131 10.16 161.291 10.16C163.398 10.16 165.305 10.6133 167.011 11.52C168.718 12.4267 170.051 13.7333 171.011 15.44C171.998 17.12 172.491 19.08 172.491 21.32ZM161.331 14.88C159.918 14.88 158.731 15.28 157.771 16.08C156.811 16.88 156.225 17.9733 156.011 19.36H166.611C166.398 18 165.811 16.92 164.851 16.12C163.891 15.2933 162.718 14.88 161.331 14.88ZM161.171 40.4C160.371 40.4 159.705 40.1467 159.171 39.64C158.665 39.16 158.411 38.52 158.411 37.72C158.411 36.92 158.665 36.2533 159.171 35.72C159.705 35.1867 160.371 34.92 161.171 34.92C161.945 34.92 162.598 35.1867 163.131 35.72C163.665 36.2533 163.931 36.92 163.931 37.72C163.931 38.52 163.665 39.16 163.131 39.64C162.625 40.1467 161.971 40.4 161.171 40.4ZM164.651 7.72L161.171 4.68L157.691 7.72H153.131L158.411 1.96H163.931L169.211 7.72H164.651ZM198.326 10.48V32H192.406V29.44C191.579 30.3733 190.592 31.0933 189.446 31.6C188.299 32.08 187.059 32.32 185.726 32.32C182.899 32.32 180.659 31.5067 179.006 29.88C177.352 28.2533 176.526 25.84 176.526 22.64V10.48H182.766V21.72C182.766 25.1867 184.219 26.92 187.126 26.92C188.619 26.92 189.819 26.44 190.726 25.48C191.632 24.4933 192.086 23.04 192.086 21.12V10.48H198.326Z" fill="white"/>
</svg>
