<svg width="200" height="67" viewBox="0 0 200 67" fill="none" xmlns="http://www.w3.org/2000/svg">
<path d="M68.6337 45.2889H67.1164V50.4046H65.8696V45.2889H64.3706V44.2529H68.6337V45.2889Z" fill="white"/>
<path d="M71.1871 50.4049C71.155 50.3361 71.1184 50.217 71.0863 50.0519C70.8708 50.3453 70.582 50.492 70.2153 50.492C69.8303 50.492 69.514 50.3636 69.2619 50.1115C69.0097 49.8594 68.886 49.5294 68.886 49.126C68.886 48.6447 69.0373 48.278 69.3444 48.0121C69.6515 47.7508 70.0916 47.6179 70.6646 47.6087H71.0267V47.242C71.0267 47.0357 70.99 46.889 70.9212 46.8065C70.8525 46.724 70.7471 46.6782 70.6141 46.6782C70.3162 46.6782 70.1649 46.8524 70.1649 47.2007H68.9685C68.9685 46.779 69.1289 46.4306 69.4452 46.1556C69.7615 45.8806 70.1649 45.743 70.6462 45.743C71.1459 45.743 71.5355 45.876 71.8105 46.1327C72.0856 46.394 72.2231 46.7652 72.2231 47.2511V49.4056C72.2277 49.7998 72.2873 50.1069 72.3927 50.3316V50.4049H71.1871ZM71.2055 45.2251H70.197L69.0327 43.9141H70.3712L71.2055 45.2251ZM70.4812 49.5523C70.6141 49.5523 70.7287 49.5248 70.8204 49.4744C70.9121 49.4194 70.9808 49.3552 71.0267 49.2818V48.333H70.7379C70.5362 48.333 70.3758 48.3971 70.2566 48.5255C70.1374 48.6538 70.0824 48.828 70.0824 49.0435C70.0824 49.3827 70.2153 49.5523 70.4812 49.5523Z" fill="white"/>
<path d="M73.5203 44.6469C73.5203 44.459 73.5799 44.3077 73.699 44.1885C73.8182 44.0694 73.9741 44.0098 74.1712 44.0098C74.3683 44.0098 74.5241 44.0694 74.6433 44.1885C74.7625 44.3077 74.8221 44.459 74.8221 44.6469C74.8221 44.8303 74.7625 44.9816 74.6479 45.1053C74.5287 45.2245 74.3729 45.2887 74.1712 45.2887C73.9695 45.2887 73.8136 45.2291 73.6945 45.1053C73.5799 44.9861 73.5203 44.8303 73.5203 44.6469ZM74.7763 50.4044H73.5753V45.8296H74.7763V50.4044Z" fill="white"/>
<path d="M80.2176 49.497C80.5659 49.497 80.7401 49.2724 80.7447 48.8232H81.8678C81.8632 49.3228 81.7073 49.7262 81.4048 50.0333C81.1023 50.3405 80.7126 50.4963 80.2405 50.4963C79.6537 50.4963 79.2045 50.3129 78.8928 49.9462C78.5811 49.5795 78.4252 49.0386 78.4207 48.3281V47.966C78.4207 47.2463 78.5719 46.7008 78.879 46.3204C79.1862 45.9445 79.6354 45.752 80.2359 45.752C80.7401 45.752 81.1389 45.9078 81.4277 46.2195C81.7165 46.5312 81.8632 46.9713 81.8724 47.5443H80.7493C80.7447 47.2876 80.7034 47.0905 80.6209 46.9529C80.5384 46.8154 80.4055 46.7467 80.2176 46.7467C80.0067 46.7467 79.86 46.82 79.7683 46.9667C79.6767 47.1134 79.6308 47.4022 79.6262 47.8285V48.296C79.6262 48.6673 79.6446 48.9286 79.6812 49.0753C79.7179 49.222 79.7775 49.332 79.8646 49.4007C79.9425 49.4649 80.0617 49.497 80.2176 49.497Z" fill="white"/>
<path d="M84.1459 46.2332C84.4071 45.9078 84.7234 45.7473 85.1039 45.7473C85.521 45.7473 85.8373 45.894 86.0528 46.1874C86.2728 46.4808 86.3782 46.9162 86.3828 47.4984V50.4046H85.1818V47.5076C85.1818 47.2417 85.1406 47.0446 85.0581 46.9254C84.9756 46.8062 84.8426 46.7466 84.6547 46.7466C84.4392 46.7466 84.2696 46.8475 84.1459 47.0446V50.4H82.9495V43.9092H84.1459V46.2332Z" fill="white"/>
<path d="M88.9588 50.4052H87.7625V45.8304H88.9588V50.4052ZM88.6105 43.9785H89.9536L88.7801 45.2895H87.7808L88.6105 43.9785Z" fill="white"/>
<path d="M91.4711 45.8345L91.5032 46.2883C91.7736 45.9307 92.1266 45.752 92.5621 45.752C93.3505 45.752 93.7539 46.302 93.7768 47.4022V50.4092H92.5758V47.4938C92.5758 47.2371 92.5346 47.0446 92.4566 46.93C92.3787 46.8108 92.2458 46.7558 92.0487 46.7558C91.8332 46.7558 91.6636 46.8658 91.5399 47.0905V50.4138H90.3389V45.839H91.4711V45.8345Z" fill="white"/>
<path d="M96.2338 46.2332C96.4904 45.9078 96.8113 45.7473 97.1872 45.7473C97.6044 45.7473 97.9206 45.894 98.1361 46.1874C98.3515 46.4808 98.4615 46.9162 98.4661 47.4984V50.4046H97.2697V47.5076C97.2697 47.2417 97.2285 47.0446 97.146 46.9254C97.0634 46.8062 96.9305 46.7466 96.7426 46.7466C96.5271 46.7466 96.3575 46.8475 96.2338 47.0446V50.4H95.0374V43.9092H96.2338V46.2332Z" fill="white"/>
<path d="M105.984 45.2889H104.462V50.4046H103.21V45.2889H101.716V44.2529H105.984V45.2889Z" fill="white"/>
<path d="M107.07 44.6469C107.07 44.459 107.13 44.3077 107.249 44.1885C107.368 44.0694 107.524 44.0098 107.721 44.0098C107.918 44.0098 108.074 44.0694 108.193 44.1885C108.312 44.3077 108.372 44.459 108.372 44.6469C108.372 44.8303 108.312 44.9816 108.198 45.1053C108.079 45.2245 107.923 45.2887 107.721 45.2887C107.524 45.2887 107.363 45.2291 107.244 45.1053C107.13 44.9861 107.07 44.8303 107.07 44.6469ZM108.326 50.4044H107.125V45.8296H108.326V50.4044Z" fill="white"/>
<path d="M111.53 50.492C110.916 50.492 110.435 50.3086 110.091 49.9419C109.747 49.5752 109.573 49.0526 109.573 48.3696V48.0075C109.573 47.2878 109.729 46.7286 110.045 46.339C110.361 45.9447 110.811 45.7522 111.402 45.7522C111.98 45.7522 112.41 45.9356 112.699 46.3023C112.993 46.669 113.139 47.2145 113.144 47.9342V48.5209H110.765C110.783 48.8601 110.856 49.1077 110.989 49.2681C111.122 49.4239 111.324 49.5019 111.604 49.5019C112.002 49.5019 112.337 49.3643 112.603 49.0893L113.075 49.8136C112.928 50.0153 112.718 50.1803 112.438 50.3041C112.158 50.4278 111.856 50.492 111.53 50.492ZM112.708 45.0967V45.1471H111.773L111.246 44.5375L110.719 45.1471H109.807V45.0784L110.907 43.9141H111.59L112.708 45.0967ZM111.352 50.8083C111.558 50.8083 111.727 50.8633 111.851 50.9733C111.98 51.0833 112.044 51.2254 112.044 51.395C112.044 51.5646 111.98 51.7022 111.851 51.8168C111.723 51.9268 111.558 51.9818 111.352 51.9818C111.15 51.9818 110.985 51.9268 110.857 51.8168C110.728 51.7067 110.664 51.5646 110.664 51.395C110.664 51.2254 110.728 51.0833 110.857 50.9733C110.985 50.8633 111.15 50.8083 111.352 50.8083ZM110.779 47.6866H111.975V47.5766C111.97 47.3016 111.925 47.0953 111.837 46.9532C111.755 46.8111 111.608 46.7423 111.397 46.7423C111.191 46.7423 111.035 46.8157 110.944 46.9669C110.852 47.1136 110.797 47.3566 110.779 47.6866Z" fill="white"/>
<path d="M115.353 45.8345L115.385 46.2883C115.656 45.9307 116.009 45.752 116.444 45.752C117.228 45.752 117.636 46.302 117.659 47.4022V50.4092H116.458V47.4938C116.458 47.2371 116.417 47.0446 116.339 46.93C116.261 46.8108 116.128 46.7558 115.931 46.7558C115.715 46.7558 115.546 46.8658 115.422 47.0905V50.4138H114.23V45.839H115.353V45.8345Z" fill="white"/>
<path d="M122.88 48.7182L123.458 45.835H124.709L123.453 50.4051H122.312L121.051 45.835H122.302L122.88 48.7182Z" fill="white"/>
<path d="M127.812 50.4049C127.78 50.3361 127.744 50.217 127.711 50.0519C127.496 50.3453 127.207 50.492 126.841 50.492C126.455 50.492 126.139 50.3636 125.887 50.1115C125.635 49.8594 125.507 49.5294 125.507 49.126C125.507 48.6447 125.658 48.278 125.965 48.0121C126.272 47.7508 126.712 47.6179 127.285 47.6087H127.647V47.242C127.647 47.0357 127.611 46.889 127.542 46.8065C127.473 46.724 127.368 46.6782 127.235 46.6782C126.937 46.6782 126.786 46.8524 126.786 47.2007H125.589C125.589 46.779 125.75 46.4306 126.066 46.1556C126.382 45.8806 126.786 45.743 127.267 45.743C127.766 45.743 128.156 45.876 128.431 46.1327C128.706 46.394 128.844 46.7652 128.844 47.2511V49.4056C128.848 49.7998 128.908 50.1069 129.013 50.3316V50.4049H127.812ZM127.831 45.2251H126.822L125.653 43.9141H126.992L127.831 45.2251ZM127.106 49.5523C127.239 49.5523 127.349 49.5248 127.446 49.4744C127.537 49.4194 127.606 49.3552 127.652 49.2818V48.333H127.363C127.161 48.333 127.001 48.3971 126.882 48.5255C126.763 48.6538 126.708 48.828 126.708 49.0435C126.708 49.3827 126.841 49.5523 127.106 49.5523Z" fill="white"/>
<path d="M136.934 50.4046H135.692L133.877 46.3707V50.4046H132.635V44.2529H133.877L135.697 48.2914V44.2529H136.934V50.4046Z" fill="white"/>
<path d="M138.163 47.9804C138.163 47.2287 138.3 46.6694 138.571 46.3027C138.841 45.9314 139.222 45.748 139.708 45.748C140.12 45.748 140.441 45.9131 140.666 46.2385L140.711 45.8306H141.789V50.4053C141.789 50.9875 141.624 51.4367 141.298 51.7438C140.973 52.0509 140.501 52.2068 139.891 52.2068C139.639 52.2068 139.378 52.1564 139.098 52.0555C138.823 51.9547 138.617 51.8263 138.479 51.6751L138.882 50.8454C138.992 50.9646 139.144 51.0608 139.323 51.1342C139.501 51.2075 139.675 51.2442 139.836 51.2442C140.102 51.2442 140.294 51.18 140.413 51.0517C140.533 50.9233 140.592 50.717 140.592 50.4328V50.0386C140.363 50.3366 140.065 50.4878 139.698 50.4878C139.212 50.4878 138.832 50.2999 138.566 49.9194C138.3 49.5389 138.163 49.0072 138.158 48.315V47.9804H138.163ZM139.359 48.2829C139.359 48.7047 139.414 49.0118 139.524 49.2089C139.634 49.4014 139.808 49.4977 140.047 49.4977C140.29 49.4977 140.473 49.4106 140.592 49.2318V47.0453C140.469 46.8528 140.29 46.7519 140.056 46.7519C139.818 46.7519 139.643 46.8482 139.529 47.0453C139.414 47.2378 139.359 47.5495 139.359 47.985V48.2829Z" fill="white"/>
<path d="M145.268 50.405C145.236 50.3362 145.199 50.2171 145.167 50.0521C144.956 50.3454 144.663 50.4921 144.296 50.4921C143.911 50.4921 143.595 50.3637 143.343 50.1116C143.091 49.8595 142.962 49.5295 142.962 49.1261C142.962 48.6448 143.113 48.2781 143.421 48.0122C143.728 47.7509 144.168 47.618 144.741 47.6088H145.103V47.2421C145.103 47.0358 145.066 46.8891 144.997 46.8066C144.929 46.7241 144.823 46.6783 144.69 46.6783C144.392 46.6783 144.241 46.8525 144.241 47.2008H143.045C143.045 46.7791 143.205 46.4308 143.521 46.1557C143.838 45.8807 144.241 45.7432 144.722 45.7432C145.222 45.7432 145.612 45.8761 145.887 46.1328C146.162 46.3941 146.299 46.7654 146.299 47.2513V49.4057C146.304 49.7999 146.363 50.1071 146.469 50.3317V50.405H145.268ZM144.562 49.5524C144.695 49.5524 144.805 49.5249 144.901 49.4745C144.993 49.4195 145.062 49.3553 145.107 49.2819V48.3331H144.819C144.617 48.3331 144.457 48.3973 144.337 48.5256C144.218 48.654 144.163 48.8281 144.163 49.0436C144.163 49.3828 144.296 49.5524 144.562 49.5524Z" fill="white"/>
<path d="M149.004 48.4154L149.614 45.8301H150.888L149.384 51.0878C149.16 51.8625 148.733 52.2522 148.11 52.2522C147.968 52.2522 147.803 52.2246 147.62 52.1742V51.2391L147.757 51.2437C147.94 51.2437 148.083 51.207 148.179 51.1383C148.275 51.0649 148.344 50.9412 148.394 50.7624L148.486 50.4552L147.166 45.8347H148.449L149.004 48.4154Z" fill="white"/>
<path d="M155.916 49.497C156.26 49.497 156.439 49.2724 156.443 48.8232H157.567C157.562 49.3228 157.406 49.7262 157.104 50.0333C156.801 50.3405 156.411 50.4963 155.939 50.4963C155.348 50.4963 154.899 50.3129 154.592 49.9462C154.284 49.5795 154.124 49.0386 154.119 48.3281V47.966C154.119 47.2463 154.271 46.7008 154.578 46.3204C154.885 45.9445 155.334 45.752 155.935 45.752C156.439 45.752 156.838 45.9078 157.126 46.2195C157.415 46.5312 157.566 46.9713 157.571 47.5443H156.448C156.443 47.2876 156.402 47.0905 156.32 46.9529C156.237 46.8154 156.104 46.7467 155.912 46.7467C155.701 46.7467 155.554 46.82 155.462 46.9667C155.371 47.1134 155.325 47.4022 155.32 47.8285V48.296C155.32 48.6673 155.339 48.9286 155.375 49.0753C155.412 49.222 155.472 49.332 155.559 49.4007C155.641 49.4649 155.76 49.497 155.916 49.497Z" fill="white"/>
<path d="M159.845 46.2332C160.102 45.9078 160.422 45.7473 160.798 45.7473C161.215 45.7473 161.532 45.894 161.747 46.1874C161.963 46.4808 162.073 46.9162 162.077 47.4984V50.4046H160.876V47.5076C160.876 47.2417 160.835 47.0446 160.752 46.9254C160.67 46.8062 160.537 46.7466 160.349 46.7466C160.134 46.7466 159.964 46.8475 159.845 47.0446V50.4H158.648V43.9092H159.845V46.2332Z" fill="white"/>
<path d="M163.232 47.9712C163.232 47.2791 163.397 46.7336 163.723 46.3394C164.048 45.9451 164.502 45.748 165.08 45.748C165.662 45.748 166.12 45.9451 166.446 46.3394C166.771 46.7336 166.936 47.2791 166.936 47.9804V48.2738C166.936 48.9705 166.776 49.516 166.45 49.9057C166.125 50.2953 165.671 50.4924 165.089 50.4924C164.502 50.4924 164.048 50.2953 163.723 49.9057C163.397 49.5114 163.232 48.966 163.232 48.2692V47.9712ZM164.433 48.2738C164.433 49.0897 164.649 49.4977 165.089 49.4977C165.492 49.4977 165.708 49.1585 165.74 48.4755L165.744 47.9712C165.744 47.5541 165.685 47.247 165.57 47.0453C165.456 46.8436 165.291 46.7427 165.08 46.7427C164.878 46.7427 164.718 46.8436 164.603 47.0453C164.488 47.247 164.433 47.5587 164.433 47.9712V48.2738Z" fill="white"/>
<path d="M171.662 45.8351L171.694 46.2569C171.96 45.9176 172.313 45.748 172.753 45.748C173.212 45.748 173.533 45.9543 173.721 46.3669C173.982 45.9543 174.353 45.748 174.839 45.748C175.641 45.748 176.049 46.3027 176.067 47.4074V50.4053H174.871V47.4853C174.871 47.2195 174.834 47.0315 174.761 46.9169C174.688 46.8069 174.564 46.7473 174.39 46.7473C174.165 46.7473 174 46.8849 173.89 47.1553L173.899 47.2974V50.4007H172.703V47.4899C172.703 47.2287 172.666 47.0407 172.597 46.9215C172.529 46.8023 172.4 46.7473 172.222 46.7473C172.015 46.7473 171.85 46.8573 171.731 47.082V50.4053H170.535V45.8306H171.662V45.8351Z" fill="white"/>
<path d="M177.255 47.9712C177.255 47.2791 177.42 46.7336 177.745 46.3394C178.071 45.9451 178.524 45.748 179.102 45.748C179.684 45.748 180.138 45.9451 180.468 46.3394C180.793 46.7336 180.958 47.2791 180.958 47.9804V48.2738C180.958 48.9705 180.793 49.516 180.473 49.9057C180.147 50.2953 179.693 50.4924 179.111 50.4924C178.524 50.4924 178.071 50.2953 177.745 49.9057C177.42 49.5115 177.255 48.966 177.255 48.2692V47.9712ZM179.097 50.8362C179.304 50.8362 179.469 50.8912 179.597 51.0012C179.725 51.1112 179.79 51.2533 179.79 51.4229C179.79 51.5926 179.725 51.7301 179.597 51.8447C179.469 51.9547 179.304 52.0097 179.097 52.0097C178.896 52.0097 178.731 51.9547 178.602 51.8447C178.474 51.7346 178.41 51.5926 178.41 51.4229C178.41 51.2533 178.474 51.1158 178.602 51.0012C178.726 50.8912 178.896 50.8362 179.097 50.8362ZM178.456 48.2738C178.456 49.0897 178.676 49.4977 179.111 49.4977C179.515 49.4977 179.73 49.1585 179.762 48.4755L179.767 47.9712C179.767 47.5541 179.707 47.247 179.592 47.0453C179.478 46.8436 179.313 46.7428 179.102 46.7428C178.9 46.7428 178.74 46.8436 178.625 47.0453C178.511 47.247 178.456 47.5587 178.456 47.9712V48.2738Z" fill="white"/>
<path d="M182.132 44.6469C182.132 44.459 182.191 44.3077 182.311 44.1885C182.43 44.0694 182.586 44.0098 182.783 44.0098C182.98 44.0098 183.14 44.0694 183.255 44.1885C183.374 44.3077 183.434 44.459 183.434 44.6469C183.434 44.8303 183.374 44.9816 183.259 45.1053C183.14 45.2245 182.984 45.2887 182.783 45.2887C182.581 45.2887 182.425 45.2291 182.306 45.1053C182.191 44.9861 182.132 44.8303 182.132 44.6469ZM183.388 50.4044H182.187V45.8296H183.388V50.4044Z" fill="white"/>
<path d="M188.27 45.8345L188.302 46.2883C188.572 45.9307 188.925 45.752 189.361 45.752C190.149 45.752 190.552 46.302 190.575 47.4022V50.4092H189.374V47.4938C189.374 47.2371 189.333 47.0446 189.255 46.93C189.177 46.8108 189.044 46.7558 188.847 46.7558C188.632 46.7558 188.462 46.8658 188.338 47.0905V50.4138H187.137V45.839H188.27V45.8345Z" fill="white"/>
<path d="M193.037 46.2332C193.298 45.9078 193.615 45.7473 193.99 45.7473C194.408 45.7473 194.724 45.894 194.939 46.1874C195.155 46.4808 195.265 46.9162 195.269 47.4984V50.4046H194.068V47.5076C194.068 47.2417 194.027 47.0446 193.945 46.9254C193.862 46.8062 193.729 46.7466 193.541 46.7466C193.326 46.7466 193.156 46.8475 193.032 47.0446V50.4H191.836V43.9092H193.032V46.2332H193.037Z" fill="white"/>
<path d="M198.735 50.4049C198.703 50.3361 198.666 50.217 198.634 50.0519C198.419 50.3453 198.13 50.492 197.763 50.492C197.378 50.492 197.062 50.3636 196.81 50.1115C196.558 49.8594 196.434 49.5294 196.434 49.126C196.434 48.6447 196.585 48.278 196.892 48.0121C197.199 47.7508 197.639 47.6179 198.212 47.6087H198.575V47.242C198.575 47.0357 198.538 46.889 198.469 46.8065C198.4 46.724 198.295 46.6782 198.162 46.6782C197.864 46.6782 197.713 46.8524 197.713 47.2007H196.516C196.516 46.779 196.677 46.4306 196.993 46.1556C197.309 45.8806 197.713 45.743 198.194 45.743C198.694 45.743 199.083 45.876 199.358 46.1327C199.633 46.394 199.771 46.7652 199.771 47.2511V49.4056C199.776 49.7998 199.831 50.1069 199.941 50.3316V50.4049H198.735ZM198.758 45.2251H197.749L196.581 43.9141H197.919L198.758 45.2251ZM198.029 49.5523C198.162 49.5523 198.272 49.5248 198.368 49.4744C198.46 49.4194 198.529 49.3552 198.575 49.2818V48.333H198.286C198.084 48.333 197.924 48.3971 197.809 48.5255C197.69 48.6538 197.635 48.828 197.635 49.0435C197.63 49.3827 197.763 49.5523 198.029 49.5523Z" fill="white"/>
<path d="M68.6337 45.2889H67.1164V50.4046H65.8696V45.2889H64.3706V44.2529H68.6337V45.2889Z" fill="white"/>
<path d="M71.1871 50.4049C71.155 50.3361 71.1184 50.217 71.0863 50.0519C70.8708 50.3453 70.582 50.492 70.2153 50.492C69.8303 50.492 69.514 50.3636 69.2619 50.1115C69.0097 49.8594 68.886 49.5294 68.886 49.126C68.886 48.6447 69.0373 48.278 69.3444 48.0121C69.6515 47.7508 70.0916 47.6179 70.6646 47.6087H71.0267V47.242C71.0267 47.0357 70.99 46.889 70.9212 46.8065C70.8525 46.724 70.7471 46.6782 70.6141 46.6782C70.3162 46.6782 70.1649 46.8524 70.1649 47.2007H68.9685C68.9685 46.779 69.1289 46.4306 69.4452 46.1556C69.7615 45.8806 70.1649 45.743 70.6462 45.743C71.1459 45.743 71.5355 45.876 71.8105 46.1327C72.0856 46.394 72.2231 46.7652 72.2231 47.2511V49.4056C72.2277 49.7998 72.2873 50.1069 72.3927 50.3316V50.4049H71.1871ZM71.2055 45.2251H70.197L69.0327 43.9141H70.3712L71.2055 45.2251ZM70.4812 49.5523C70.6141 49.5523 70.7287 49.5248 70.8204 49.4744C70.9121 49.4194 70.9808 49.3552 71.0267 49.2818V48.333H70.7379C70.5362 48.333 70.3758 48.3971 70.2566 48.5255C70.1374 48.6538 70.0824 48.828 70.0824 49.0435C70.0824 49.3827 70.2153 49.5523 70.4812 49.5523Z" fill="white"/>
<path d="M73.5203 44.6469C73.5203 44.459 73.5799 44.3077 73.699 44.1885C73.8182 44.0694 73.9741 44.0098 74.1712 44.0098C74.3683 44.0098 74.5241 44.0694 74.6433 44.1885C74.7625 44.3077 74.8221 44.459 74.8221 44.6469C74.8221 44.8303 74.7625 44.9816 74.6479 45.1053C74.5287 45.2245 74.3729 45.2887 74.1712 45.2887C73.9695 45.2887 73.8136 45.2291 73.6945 45.1053C73.5799 44.9861 73.5203 44.8303 73.5203 44.6469ZM74.7763 50.4044H73.5753V45.8296H74.7763V50.4044Z" fill="white"/>
<path d="M80.2176 49.497C80.5659 49.497 80.7401 49.2724 80.7447 48.8232H81.8678C81.8632 49.3228 81.7073 49.7262 81.4048 50.0333C81.1023 50.3405 80.7126 50.4963 80.2405 50.4963C79.6537 50.4963 79.2045 50.3129 78.8928 49.9462C78.5811 49.5795 78.4252 49.0386 78.4207 48.3281V47.966C78.4207 47.2463 78.5719 46.7008 78.879 46.3204C79.1862 45.9445 79.6354 45.752 80.2359 45.752C80.7401 45.752 81.1389 45.9078 81.4277 46.2195C81.7165 46.5312 81.8632 46.9713 81.8724 47.5443H80.7493C80.7447 47.2876 80.7034 47.0905 80.6209 46.9529C80.5384 46.8154 80.4055 46.7467 80.2176 46.7467C80.0067 46.7467 79.86 46.82 79.7683 46.9667C79.6767 47.1134 79.6308 47.4022 79.6262 47.8285V48.296C79.6262 48.6673 79.6446 48.9286 79.6812 49.0753C79.7179 49.222 79.7775 49.332 79.8646 49.4007C79.9425 49.4649 80.0617 49.497 80.2176 49.497Z" fill="white"/>
<path d="M84.1459 46.2332C84.4071 45.9078 84.7234 45.7473 85.1039 45.7473C85.521 45.7473 85.8373 45.894 86.0528 46.1874C86.2728 46.4808 86.3782 46.9162 86.3828 47.4984V50.4046H85.1818V47.5076C85.1818 47.2417 85.1406 47.0446 85.0581 46.9254C84.9756 46.8062 84.8426 46.7466 84.6547 46.7466C84.4392 46.7466 84.2696 46.8475 84.1459 47.0446V50.4H82.9495V43.9092H84.1459V46.2332Z" fill="white"/>
<path d="M88.9588 50.4052H87.7625V45.8304H88.9588V50.4052ZM88.6105 43.9785H89.9536L88.7801 45.2895H87.7808L88.6105 43.9785Z" fill="white"/>
<path d="M91.4711 45.8345L91.5032 46.2883C91.7736 45.9307 92.1266 45.752 92.5621 45.752C93.3505 45.752 93.7539 46.302 93.7768 47.4022V50.4092H92.5758V47.4938C92.5758 47.2371 92.5346 47.0446 92.4566 46.93C92.3787 46.8108 92.2458 46.7558 92.0487 46.7558C91.8332 46.7558 91.6636 46.8658 91.5399 47.0905V50.4138H90.3389V45.839H91.4711V45.8345Z" fill="white"/>
<path d="M96.2338 46.2332C96.4904 45.9078 96.8113 45.7473 97.1872 45.7473C97.6044 45.7473 97.9206 45.894 98.1361 46.1874C98.3515 46.4808 98.4615 46.9162 98.4661 47.4984V50.4046H97.2697V47.5076C97.2697 47.2417 97.2285 47.0446 97.146 46.9254C97.0634 46.8062 96.9305 46.7466 96.7426 46.7466C96.5271 46.7466 96.3575 46.8475 96.2338 47.0446V50.4H95.0374V43.9092H96.2338V46.2332Z" fill="white"/>
<path d="M105.984 45.2889H104.462V50.4046H103.21V45.2889H101.716V44.2529H105.984V45.2889Z" fill="white"/>
<path d="M107.07 44.6469C107.07 44.459 107.13 44.3077 107.249 44.1885C107.368 44.0694 107.524 44.0098 107.721 44.0098C107.918 44.0098 108.074 44.0694 108.193 44.1885C108.312 44.3077 108.372 44.459 108.372 44.6469C108.372 44.8303 108.312 44.9816 108.198 45.1053C108.079 45.2245 107.923 45.2887 107.721 45.2887C107.524 45.2887 107.363 45.2291 107.244 45.1053C107.13 44.9861 107.07 44.8303 107.07 44.6469ZM108.326 50.4044H107.125V45.8296H108.326V50.4044Z" fill="white"/>
<path d="M111.53 50.492C110.916 50.492 110.435 50.3086 110.091 49.9419C109.747 49.5752 109.573 49.0526 109.573 48.3696V48.0075C109.573 47.2878 109.729 46.7286 110.045 46.339C110.361 45.9447 110.811 45.7522 111.402 45.7522C111.98 45.7522 112.41 45.9356 112.699 46.3023C112.993 46.669 113.139 47.2145 113.144 47.9342V48.5209H110.765C110.783 48.8601 110.856 49.1077 110.989 49.2681C111.122 49.4239 111.324 49.5019 111.604 49.5019C112.002 49.5019 112.337 49.3643 112.603 49.0893L113.075 49.8136C112.928 50.0153 112.718 50.1803 112.438 50.3041C112.158 50.4278 111.856 50.492 111.53 50.492ZM112.708 45.0967V45.1471H111.773L111.246 44.5375L110.719 45.1471H109.807V45.0784L110.907 43.9141H111.59L112.708 45.0967ZM111.352 50.8083C111.558 50.8083 111.727 50.8633 111.851 50.9733C111.98 51.0833 112.044 51.2254 112.044 51.395C112.044 51.5646 111.98 51.7022 111.851 51.8168C111.723 51.9268 111.558 51.9818 111.352 51.9818C111.15 51.9818 110.985 51.9268 110.857 51.8168C110.728 51.7067 110.664 51.5646 110.664 51.395C110.664 51.2254 110.728 51.0833 110.857 50.9733C110.985 50.8633 111.15 50.8083 111.352 50.8083ZM110.779 47.6866H111.975V47.5766C111.97 47.3016 111.925 47.0953 111.837 46.9532C111.755 46.8111 111.608 46.7423 111.397 46.7423C111.191 46.7423 111.035 46.8157 110.944 46.9669C110.852 47.1136 110.797 47.3566 110.779 47.6866Z" fill="white"/>
<path d="M115.353 45.8345L115.385 46.2883C115.656 45.9307 116.009 45.752 116.444 45.752C117.228 45.752 117.636 46.302 117.659 47.4022V50.4092H116.458V47.4938C116.458 47.2371 116.417 47.0446 116.339 46.93C116.261 46.8108 116.128 46.7558 115.931 46.7558C115.715 46.7558 115.546 46.8658 115.422 47.0905V50.4138H114.23V45.839H115.353V45.8345Z" fill="white"/>
<path d="M122.88 48.7182L123.458 45.835H124.709L123.453 50.4051H122.312L121.051 45.835H122.302L122.88 48.7182Z" fill="white"/>
<path d="M127.812 50.4049C127.78 50.3361 127.744 50.217 127.711 50.0519C127.496 50.3453 127.207 50.492 126.841 50.492C126.455 50.492 126.139 50.3636 125.887 50.1115C125.635 49.8594 125.507 49.5294 125.507 49.126C125.507 48.6447 125.658 48.278 125.965 48.0121C126.272 47.7508 126.712 47.6179 127.285 47.6087H127.647V47.242C127.647 47.0357 127.611 46.889 127.542 46.8065C127.473 46.724 127.368 46.6782 127.235 46.6782C126.937 46.6782 126.786 46.8524 126.786 47.2007H125.589C125.589 46.779 125.75 46.4306 126.066 46.1556C126.382 45.8806 126.786 45.743 127.267 45.743C127.766 45.743 128.156 45.876 128.431 46.1327C128.706 46.394 128.844 46.7652 128.844 47.2511V49.4056C128.848 49.7998 128.908 50.1069 129.013 50.3316V50.4049H127.812ZM127.831 45.2251H126.822L125.653 43.9141H126.992L127.831 45.2251ZM127.106 49.5523C127.239 49.5523 127.349 49.5248 127.446 49.4744C127.537 49.4194 127.606 49.3552 127.652 49.2818V48.333H127.363C127.161 48.333 127.001 48.3971 126.882 48.5255C126.763 48.6538 126.708 48.828 126.708 49.0435C126.708 49.3827 126.841 49.5523 127.106 49.5523Z" fill="white"/>
<path d="M136.934 50.4046H135.692L133.877 46.3707V50.4046H132.635V44.2529H133.877L135.697 48.2914V44.2529H136.934V50.4046Z" fill="white"/>
<path d="M138.163 47.9804C138.163 47.2287 138.3 46.6694 138.571 46.3027C138.841 45.9314 139.222 45.748 139.708 45.748C140.12 45.748 140.441 45.9131 140.666 46.2385L140.711 45.8306H141.789V50.4053C141.789 50.9875 141.624 51.4367 141.298 51.7438C140.973 52.0509 140.501 52.2068 139.891 52.2068C139.639 52.2068 139.378 52.1564 139.098 52.0555C138.823 51.9547 138.617 51.8263 138.479 51.6751L138.882 50.8454C138.992 50.9646 139.144 51.0608 139.323 51.1342C139.501 51.2075 139.675 51.2442 139.836 51.2442C140.102 51.2442 140.294 51.18 140.413 51.0517C140.533 50.9233 140.592 50.717 140.592 50.4328V50.0386C140.363 50.3366 140.065 50.4878 139.698 50.4878C139.212 50.4878 138.832 50.2999 138.566 49.9194C138.3 49.5389 138.163 49.0072 138.158 48.315V47.9804H138.163ZM139.359 48.2829C139.359 48.7047 139.414 49.0118 139.524 49.2089C139.634 49.4014 139.808 49.4977 140.047 49.4977C140.29 49.4977 140.473 49.4106 140.592 49.2318V47.0453C140.469 46.8528 140.29 46.7519 140.056 46.7519C139.818 46.7519 139.643 46.8482 139.529 47.0453C139.414 47.2378 139.359 47.5495 139.359 47.985V48.2829Z" fill="white"/>
<path d="M145.268 50.405C145.236 50.3362 145.199 50.2171 145.167 50.0521C144.956 50.3454 144.663 50.4921 144.296 50.4921C143.911 50.4921 143.595 50.3637 143.343 50.1116C143.091 49.8595 142.962 49.5295 142.962 49.1261C142.962 48.6448 143.113 48.2781 143.421 48.0122C143.728 47.7509 144.168 47.618 144.741 47.6088H145.103V47.2421C145.103 47.0358 145.066 46.8891 144.997 46.8066C144.929 46.7241 144.823 46.6783 144.69 46.6783C144.392 46.6783 144.241 46.8525 144.241 47.2008H143.045C143.045 46.7791 143.205 46.4308 143.521 46.1557C143.838 45.8807 144.241 45.7432 144.722 45.7432C145.222 45.7432 145.612 45.8761 145.887 46.1328C146.162 46.3941 146.299 46.7654 146.299 47.2513V49.4057C146.304 49.7999 146.363 50.1071 146.469 50.3317V50.405H145.268ZM144.562 49.5524C144.695 49.5524 144.805 49.5249 144.901 49.4745C144.993 49.4195 145.062 49.3553 145.107 49.2819V48.3331H144.819C144.617 48.3331 144.457 48.3973 144.337 48.5256C144.218 48.654 144.163 48.8281 144.163 49.0436C144.163 49.3828 144.296 49.5524 144.562 49.5524Z" fill="white"/>
<path d="M149.004 48.4154L149.614 45.8301H150.888L149.384 51.0878C149.16 51.8625 148.733 52.2522 148.11 52.2522C147.968 52.2522 147.803 52.2246 147.62 52.1742V51.2391L147.757 51.2437C147.94 51.2437 148.083 51.207 148.179 51.1383C148.275 51.0649 148.344 50.9412 148.394 50.7624L148.486 50.4552L147.166 45.8347H148.449L149.004 48.4154Z" fill="white"/>
<path d="M155.916 49.497C156.26 49.497 156.439 49.2724 156.443 48.8232H157.567C157.562 49.3228 157.406 49.7262 157.104 50.0333C156.801 50.3405 156.411 50.4963 155.939 50.4963C155.348 50.4963 154.899 50.3129 154.592 49.9462C154.284 49.5795 154.124 49.0386 154.119 48.3281V47.966C154.119 47.2463 154.271 46.7008 154.578 46.3204C154.885 45.9445 155.334 45.752 155.935 45.752C156.439 45.752 156.838 45.9078 157.126 46.2195C157.415 46.5312 157.566 46.9713 157.571 47.5443H156.448C156.443 47.2876 156.402 47.0905 156.32 46.9529C156.237 46.8154 156.104 46.7467 155.912 46.7467C155.701 46.7467 155.554 46.82 155.462 46.9667C155.371 47.1134 155.325 47.4022 155.32 47.8285V48.296C155.32 48.6673 155.339 48.9286 155.375 49.0753C155.412 49.222 155.472 49.332 155.559 49.4007C155.641 49.4649 155.76 49.497 155.916 49.497Z" fill="white"/>
<path d="M159.845 46.2332C160.102 45.9078 160.422 45.7473 160.798 45.7473C161.215 45.7473 161.532 45.894 161.747 46.1874C161.963 46.4808 162.073 46.9162 162.077 47.4984V50.4046H160.876V47.5076C160.876 47.2417 160.835 47.0446 160.752 46.9254C160.67 46.8062 160.537 46.7466 160.349 46.7466C160.134 46.7466 159.964 46.8475 159.845 47.0446V50.4H158.648V43.9092H159.845V46.2332Z" fill="white"/>
<path d="M163.232 47.9712C163.232 47.2791 163.397 46.7336 163.723 46.3394C164.048 45.9451 164.502 45.748 165.08 45.748C165.662 45.748 166.12 45.9451 166.446 46.3394C166.771 46.7336 166.936 47.2791 166.936 47.9804V48.2738C166.936 48.9705 166.776 49.516 166.45 49.9057C166.125 50.2953 165.671 50.4924 165.089 50.4924C164.502 50.4924 164.048 50.2953 163.723 49.9057C163.397 49.5114 163.232 48.966 163.232 48.2692V47.9712ZM164.433 48.2738C164.433 49.0897 164.649 49.4977 165.089 49.4977C165.492 49.4977 165.708 49.1585 165.74 48.4755L165.744 47.9712C165.744 47.5541 165.685 47.247 165.57 47.0453C165.456 46.8436 165.291 46.7427 165.08 46.7427C164.878 46.7427 164.718 46.8436 164.603 47.0453C164.488 47.247 164.433 47.5587 164.433 47.9712V48.2738Z" fill="white"/>
<path d="M171.662 45.8351L171.694 46.2569C171.96 45.9176 172.313 45.748 172.753 45.748C173.212 45.748 173.533 45.9543 173.721 46.3669C173.982 45.9543 174.353 45.748 174.839 45.748C175.641 45.748 176.049 46.3027 176.067 47.4074V50.4053H174.871V47.4853C174.871 47.2195 174.834 47.0315 174.761 46.9169C174.688 46.8069 174.564 46.7473 174.39 46.7473C174.165 46.7473 174 46.8849 173.89 47.1553L173.899 47.2974V50.4007H172.703V47.4899C172.703 47.2287 172.666 47.0407 172.597 46.9215C172.529 46.8023 172.4 46.7473 172.222 46.7473C172.015 46.7473 171.85 46.8573 171.731 47.082V50.4053H170.535V45.8306H171.662V45.8351Z" fill="white"/>
<path d="M177.255 47.9712C177.255 47.2791 177.42 46.7336 177.745 46.3394C178.071 45.9451 178.524 45.748 179.102 45.748C179.684 45.748 180.138 45.9451 180.468 46.3394C180.793 46.7336 180.958 47.2791 180.958 47.9804V48.2738C180.958 48.9705 180.793 49.516 180.473 49.9057C180.147 50.2953 179.693 50.4924 179.111 50.4924C178.524 50.4924 178.071 50.2953 177.745 49.9057C177.42 49.5115 177.255 48.966 177.255 48.2692V47.9712ZM179.097 50.8362C179.304 50.8362 179.469 50.8912 179.597 51.0012C179.725 51.1112 179.79 51.2533 179.79 51.4229C179.79 51.5926 179.725 51.7301 179.597 51.8447C179.469 51.9547 179.304 52.0097 179.097 52.0097C178.896 52.0097 178.731 51.9547 178.602 51.8447C178.474 51.7346 178.41 51.5926 178.41 51.4229C178.41 51.2533 178.474 51.1158 178.602 51.0012C178.726 50.8912 178.896 50.8362 179.097 50.8362ZM178.456 48.2738C178.456 49.0897 178.676 49.4977 179.111 49.4977C179.515 49.4977 179.73 49.1585 179.762 48.4755L179.767 47.9712C179.767 47.5541 179.707 47.247 179.592 47.0453C179.478 46.8436 179.313 46.7428 179.102 46.7428C178.9 46.7428 178.74 46.8436 178.625 47.0453C178.511 47.247 178.456 47.5587 178.456 47.9712V48.2738Z" fill="white"/>
<path d="M182.132 44.6469C182.132 44.459 182.191 44.3077 182.311 44.1885C182.43 44.0694 182.586 44.0098 182.783 44.0098C182.98 44.0098 183.14 44.0694 183.255 44.1885C183.374 44.3077 183.434 44.459 183.434 44.6469C183.434 44.8303 183.374 44.9816 183.259 45.1053C183.14 45.2245 182.984 45.2887 182.783 45.2887C182.581 45.2887 182.425 45.2291 182.306 45.1053C182.191 44.9861 182.132 44.8303 182.132 44.6469ZM183.388 50.4044H182.187V45.8296H183.388V50.4044Z" fill="white"/>
<path d="M188.27 45.8345L188.302 46.2883C188.572 45.9307 188.925 45.752 189.361 45.752C190.149 45.752 190.552 46.302 190.575 47.4022V50.4092H189.374V47.4938C189.374 47.2371 189.333 47.0446 189.255 46.93C189.177 46.8108 189.044 46.7558 188.847 46.7558C188.632 46.7558 188.462 46.8658 188.338 47.0905V50.4138H187.137V45.839H188.27V45.8345Z" fill="white"/>
<path d="M193.037 46.2332C193.298 45.9078 193.615 45.7473 193.99 45.7473C194.408 45.7473 194.724 45.894 194.939 46.1874C195.155 46.4808 195.265 46.9162 195.269 47.4984V50.4046H194.068V47.5076C194.068 47.2417 194.027 47.0446 193.945 46.9254C193.862 46.8062 193.729 46.7466 193.541 46.7466C193.326 46.7466 193.156 46.8475 193.032 47.0446V50.4H191.836V43.9092H193.032V46.2332H193.037Z" fill="white"/>
<path d="M198.735 50.4049C198.703 50.3361 198.666 50.217 198.634 50.0519C198.419 50.3453 198.13 50.492 197.763 50.492C197.378 50.492 197.062 50.3636 196.81 50.1115C196.558 49.8594 196.434 49.5294 196.434 49.126C196.434 48.6447 196.585 48.278 196.892 48.0121C197.199 47.7508 197.639 47.6179 198.212 47.6087H198.575V47.242C198.575 47.0357 198.538 46.889 198.469 46.8065C198.4 46.724 198.295 46.6782 198.162 46.6782C197.864 46.6782 197.713 46.8524 197.713 47.2007H196.516C196.516 46.779 196.677 46.4306 196.993 46.1556C197.309 45.8806 197.713 45.743 198.194 45.743C198.694 45.743 199.083 45.876 199.358 46.1327C199.633 46.394 199.771 46.7652 199.771 47.2511V49.4056C199.776 49.7998 199.831 50.1069 199.941 50.3316V50.4049H198.735ZM198.758 45.2251H197.749L196.581 43.9141H197.919L198.758 45.2251ZM198.029 49.5523C198.162 49.5523 198.272 49.5248 198.368 49.4744C198.46 49.4194 198.529 49.3552 198.575 49.2818V48.333H198.286C198.084 48.333 197.924 48.3971 197.809 48.5255C197.69 48.6538 197.635 48.828 197.635 49.0435C197.63 49.3827 197.763 49.5523 198.029 49.5523Z" fill="white"/>
<path d="M68.6337 45.2889H67.1164V50.4046H65.8696V45.2889H64.3706V44.2529H68.6337V45.2889Z" fill="white"/>
<path d="M71.1871 50.4049C71.155 50.3361 71.1184 50.217 71.0863 50.0519C70.8708 50.3453 70.582 50.492 70.2153 50.492C69.8303 50.492 69.514 50.3636 69.2619 50.1115C69.0097 49.8594 68.886 49.5294 68.886 49.126C68.886 48.6447 69.0373 48.278 69.3444 48.0121C69.6515 47.7508 70.0916 47.6179 70.6646 47.6087H71.0267V47.242C71.0267 47.0357 70.99 46.889 70.9212 46.8065C70.8525 46.724 70.7471 46.6782 70.6141 46.6782C70.3162 46.6782 70.1649 46.8524 70.1649 47.2007H68.9685C68.9685 46.779 69.1289 46.4306 69.4452 46.1556C69.7615 45.8806 70.1649 45.743 70.6462 45.743C71.1459 45.743 71.5355 45.876 71.8105 46.1327C72.0856 46.394 72.2231 46.7652 72.2231 47.2511V49.4056C72.2277 49.7998 72.2873 50.1069 72.3927 50.3316V50.4049H71.1871ZM71.2055 45.2251H70.197L69.0327 43.9141H70.3712L71.2055 45.2251ZM70.4812 49.5523C70.6141 49.5523 70.7287 49.5248 70.8204 49.4744C70.9121 49.4194 70.9808 49.3552 71.0267 49.2818V48.333H70.7379C70.5362 48.333 70.3758 48.3971 70.2566 48.5255C70.1374 48.6538 70.0824 48.828 70.0824 49.0435C70.0824 49.3827 70.2153 49.5523 70.4812 49.5523Z" fill="white"/>
<path d="M73.5203 44.6469C73.5203 44.459 73.5799 44.3077 73.699 44.1885C73.8182 44.0694 73.9741 44.0098 74.1712 44.0098C74.3683 44.0098 74.5241 44.0694 74.6433 44.1885C74.7625 44.3077 74.8221 44.459 74.8221 44.6469C74.8221 44.8303 74.7625 44.9816 74.6479 45.1053C74.5287 45.2245 74.3729 45.2887 74.1712 45.2887C73.9695 45.2887 73.8136 45.2291 73.6945 45.1053C73.5799 44.9861 73.5203 44.8303 73.5203 44.6469ZM74.7763 50.4044H73.5753V45.8296H74.7763V50.4044Z" fill="white"/>
<path d="M80.2176 49.497C80.5659 49.497 80.7401 49.2724 80.7447 48.8232H81.8678C81.8632 49.3228 81.7073 49.7262 81.4048 50.0333C81.1023 50.3405 80.7126 50.4963 80.2405 50.4963C79.6537 50.4963 79.2045 50.3129 78.8928 49.9462C78.5811 49.5795 78.4252 49.0386 78.4207 48.3281V47.966C78.4207 47.2463 78.5719 46.7008 78.879 46.3204C79.1862 45.9445 79.6354 45.752 80.2359 45.752C80.7401 45.752 81.1389 45.9078 81.4277 46.2195C81.7165 46.5312 81.8632 46.9713 81.8724 47.5443H80.7493C80.7447 47.2876 80.7034 47.0905 80.6209 46.9529C80.5384 46.8154 80.4055 46.7467 80.2176 46.7467C80.0067 46.7467 79.86 46.82 79.7683 46.9667C79.6767 47.1134 79.6308 47.4022 79.6262 47.8285V48.296C79.6262 48.6673 79.6446 48.9286 79.6812 49.0753C79.7179 49.222 79.7775 49.332 79.8646 49.4007C79.9425 49.4649 80.0617 49.497 80.2176 49.497Z" fill="white"/>
<path d="M84.1459 46.2332C84.4071 45.9078 84.7234 45.7473 85.1039 45.7473C85.521 45.7473 85.8373 45.894 86.0528 46.1874C86.2728 46.4808 86.3782 46.9162 86.3828 47.4984V50.4046H85.1818V47.5076C85.1818 47.2417 85.1406 47.0446 85.0581 46.9254C84.9756 46.8062 84.8426 46.7466 84.6547 46.7466C84.4392 46.7466 84.2696 46.8475 84.1459 47.0446V50.4H82.9495V43.9092H84.1459V46.2332Z" fill="white"/>
<path d="M88.9588 50.4052H87.7625V45.8304H88.9588V50.4052ZM88.6105 43.9785H89.9536L88.7801 45.2895H87.7808L88.6105 43.9785Z" fill="white"/>
<path d="M91.4711 45.8345L91.5032 46.2883C91.7736 45.9307 92.1266 45.752 92.5621 45.752C93.3505 45.752 93.7539 46.302 93.7768 47.4022V50.4092H92.5758V47.4938C92.5758 47.2371 92.5346 47.0446 92.4566 46.93C92.3787 46.8108 92.2458 46.7558 92.0487 46.7558C91.8332 46.7558 91.6636 46.8658 91.5399 47.0905V50.4138H90.3389V45.839H91.4711V45.8345Z" fill="white"/>
<path d="M96.2338 46.2332C96.4904 45.9078 96.8113 45.7473 97.1872 45.7473C97.6044 45.7473 97.9206 45.894 98.1361 46.1874C98.3515 46.4808 98.4615 46.9162 98.4661 47.4984V50.4046H97.2697V47.5076C97.2697 47.2417 97.2285 47.0446 97.146 46.9254C97.0634 46.8062 96.9305 46.7466 96.7426 46.7466C96.5271 46.7466 96.3575 46.8475 96.2338 47.0446V50.4H95.0374V43.9092H96.2338V46.2332Z" fill="white"/>
<path d="M105.984 45.2889H104.462V50.4046H103.21V45.2889H101.716V44.2529H105.984V45.2889Z" fill="white"/>
<path d="M107.07 44.6469C107.07 44.459 107.13 44.3077 107.249 44.1885C107.368 44.0694 107.524 44.0098 107.721 44.0098C107.918 44.0098 108.074 44.0694 108.193 44.1885C108.312 44.3077 108.372 44.459 108.372 44.6469C108.372 44.8303 108.312 44.9816 108.198 45.1053C108.079 45.2245 107.923 45.2887 107.721 45.2887C107.524 45.2887 107.363 45.2291 107.244 45.1053C107.13 44.9861 107.07 44.8303 107.07 44.6469ZM108.326 50.4044H107.125V45.8296H108.326V50.4044Z" fill="white"/>
<path d="M111.53 50.492C110.916 50.492 110.435 50.3086 110.091 49.9419C109.747 49.5752 109.573 49.0526 109.573 48.3696V48.0075C109.573 47.2878 109.729 46.7286 110.045 46.339C110.361 45.9447 110.811 45.7522 111.402 45.7522C111.98 45.7522 112.41 45.9356 112.699 46.3023C112.993 46.669 113.139 47.2145 113.144 47.9342V48.5209H110.765C110.783 48.8601 110.856 49.1077 110.989 49.2681C111.122 49.4239 111.324 49.5019 111.604 49.5019C112.002 49.5019 112.337 49.3643 112.603 49.0893L113.075 49.8136C112.928 50.0153 112.718 50.1803 112.438 50.3041C112.158 50.4278 111.856 50.492 111.53 50.492ZM112.708 45.0967V45.1471H111.773L111.246 44.5375L110.719 45.1471H109.807V45.0784L110.907 43.9141H111.59L112.708 45.0967ZM111.352 50.8083C111.558 50.8083 111.727 50.8633 111.851 50.9733C111.98 51.0833 112.044 51.2254 112.044 51.395C112.044 51.5646 111.98 51.7022 111.851 51.8168C111.723 51.9268 111.558 51.9818 111.352 51.9818C111.15 51.9818 110.985 51.9268 110.857 51.8168C110.728 51.7067 110.664 51.5646 110.664 51.395C110.664 51.2254 110.728 51.0833 110.857 50.9733C110.985 50.8633 111.15 50.8083 111.352 50.8083ZM110.779 47.6866H111.975V47.5766C111.97 47.3016 111.925 47.0953 111.837 46.9532C111.755 46.8111 111.608 46.7423 111.397 46.7423C111.191 46.7423 111.035 46.8157 110.944 46.9669C110.852 47.1136 110.797 47.3566 110.779 47.6866Z" fill="white"/>
<path d="M115.353 45.8345L115.385 46.2883C115.656 45.9307 116.009 45.752 116.444 45.752C117.228 45.752 117.636 46.302 117.659 47.4022V50.4092H116.458V47.4938C116.458 47.2371 116.417 47.0446 116.339 46.93C116.261 46.8108 116.128 46.7558 115.931 46.7558C115.715 46.7558 115.546 46.8658 115.422 47.0905V50.4138H114.23V45.839H115.353V45.8345Z" fill="white"/>
<path d="M122.88 48.7182L123.458 45.835H124.709L123.453 50.4051H122.312L121.051 45.835H122.302L122.88 48.7182Z" fill="white"/>
<path d="M127.812 50.4049C127.78 50.3361 127.744 50.217 127.711 50.0519C127.496 50.3453 127.207 50.492 126.841 50.492C126.455 50.492 126.139 50.3636 125.887 50.1115C125.635 49.8594 125.507 49.5294 125.507 49.126C125.507 48.6447 125.658 48.278 125.965 48.0121C126.272 47.7508 126.712 47.6179 127.285 47.6087H127.647V47.242C127.647 47.0357 127.611 46.889 127.542 46.8065C127.473 46.724 127.368 46.6782 127.235 46.6782C126.937 46.6782 126.786 46.8524 126.786 47.2007H125.589C125.589 46.779 125.75 46.4306 126.066 46.1556C126.382 45.8806 126.786 45.743 127.267 45.743C127.766 45.743 128.156 45.876 128.431 46.1327C128.706 46.394 128.844 46.7652 128.844 47.2511V49.4056C128.848 49.7998 128.908 50.1069 129.013 50.3316V50.4049H127.812ZM127.831 45.2251H126.822L125.653 43.9141H126.992L127.831 45.2251ZM127.106 49.5523C127.239 49.5523 127.349 49.5248 127.446 49.4744C127.537 49.4194 127.606 49.3552 127.652 49.2818V48.333H127.363C127.161 48.333 127.001 48.3971 126.882 48.5255C126.763 48.6538 126.708 48.828 126.708 49.0435C126.708 49.3827 126.841 49.5523 127.106 49.5523Z" fill="white"/>
<path d="M136.934 50.4046H135.692L133.877 46.3707V50.4046H132.635V44.2529H133.877L135.697 48.2914V44.2529H136.934V50.4046Z" fill="white"/>
<path d="M138.163 47.9804C138.163 47.2287 138.3 46.6694 138.571 46.3027C138.841 45.9314 139.222 45.748 139.708 45.748C140.12 45.748 140.441 45.9131 140.666 46.2385L140.711 45.8306H141.789V50.4053C141.789 50.9875 141.624 51.4367 141.298 51.7438C140.973 52.0509 140.501 52.2068 139.891 52.2068C139.639 52.2068 139.378 52.1564 139.098 52.0555C138.823 51.9547 138.617 51.8263 138.479 51.6751L138.882 50.8454C138.992 50.9646 139.144 51.0608 139.323 51.1342C139.501 51.2075 139.675 51.2442 139.836 51.2442C140.102 51.2442 140.294 51.18 140.413 51.0517C140.533 50.9233 140.592 50.717 140.592 50.4328V50.0386C140.363 50.3366 140.065 50.4878 139.698 50.4878C139.212 50.4878 138.832 50.2999 138.566 49.9194C138.3 49.5389 138.163 49.0072 138.158 48.315V47.9804H138.163ZM139.359 48.2829C139.359 48.7047 139.414 49.0118 139.524 49.2089C139.634 49.4014 139.808 49.4977 140.047 49.4977C140.29 49.4977 140.473 49.4106 140.592 49.2318V47.0453C140.469 46.8528 140.29 46.7519 140.056 46.7519C139.818 46.7519 139.643 46.8482 139.529 47.0453C139.414 47.2378 139.359 47.5495 139.359 47.985V48.2829Z" fill="white"/>
<path d="M145.268 50.405C145.236 50.3362 145.199 50.2171 145.167 50.0521C144.956 50.3454 144.663 50.4921 144.296 50.4921C143.911 50.4921 143.595 50.3637 143.343 50.1116C143.091 49.8595 142.962 49.5295 142.962 49.1261C142.962 48.6448 143.113 48.2781 143.421 48.0122C143.728 47.7509 144.168 47.618 144.741 47.6088H145.103V47.2421C145.103 47.0358 145.066 46.8891 144.997 46.8066C144.929 46.7241 144.823 46.6783 144.69 46.6783C144.392 46.6783 144.241 46.8525 144.241 47.2008H143.045C143.045 46.7791 143.205 46.4308 143.521 46.1557C143.838 45.8807 144.241 45.7432 144.722 45.7432C145.222 45.7432 145.612 45.8761 145.887 46.1328C146.162 46.3941 146.299 46.7654 146.299 47.2513V49.4057C146.304 49.7999 146.363 50.1071 146.469 50.3317V50.405H145.268ZM144.562 49.5524C144.695 49.5524 144.805 49.5249 144.901 49.4745C144.993 49.4195 145.062 49.3553 145.107 49.2819V48.3331H144.819C144.617 48.3331 144.457 48.3973 144.337 48.5256C144.218 48.654 144.163 48.8281 144.163 49.0436C144.163 49.3828 144.296 49.5524 144.562 49.5524Z" fill="white"/>
<path d="M149.004 48.4154L149.614 45.8301H150.888L149.384 51.0878C149.16 51.8625 148.733 52.2522 148.11 52.2522C147.968 52.2522 147.803 52.2246 147.62 52.1742V51.2391L147.757 51.2437C147.94 51.2437 148.083 51.207 148.179 51.1383C148.275 51.0649 148.344 50.9412 148.394 50.7624L148.486 50.4552L147.166 45.8347H148.449L149.004 48.4154Z" fill="white"/>
<path d="M155.916 49.497C156.26 49.497 156.439 49.2724 156.443 48.8232H157.567C157.562 49.3228 157.406 49.7262 157.104 50.0333C156.801 50.3405 156.411 50.4963 155.939 50.4963C155.348 50.4963 154.899 50.3129 154.592 49.9462C154.284 49.5795 154.124 49.0386 154.119 48.3281V47.966C154.119 47.2463 154.271 46.7008 154.578 46.3204C154.885 45.9445 155.334 45.752 155.935 45.752C156.439 45.752 156.838 45.9078 157.126 46.2195C157.415 46.5312 157.566 46.9713 157.571 47.5443H156.448C156.443 47.2876 156.402 47.0905 156.32 46.9529C156.237 46.8154 156.104 46.7467 155.912 46.7467C155.701 46.7467 155.554 46.82 155.462 46.9667C155.371 47.1134 155.325 47.4022 155.32 47.8285V48.296C155.32 48.6673 155.339 48.9286 155.375 49.0753C155.412 49.222 155.472 49.332 155.559 49.4007C155.641 49.4649 155.76 49.497 155.916 49.497Z" fill="white"/>
<path d="M159.845 46.2332C160.102 45.9078 160.422 45.7473 160.798 45.7473C161.215 45.7473 161.532 45.894 161.747 46.1874C161.963 46.4808 162.073 46.9162 162.077 47.4984V50.4046H160.876V47.5076C160.876 47.2417 160.835 47.0446 160.752 46.9254C160.67 46.8062 160.537 46.7466 160.349 46.7466C160.134 46.7466 159.964 46.8475 159.845 47.0446V50.4H158.648V43.9092H159.845V46.2332Z" fill="white"/>
<path d="M163.232 47.9712C163.232 47.2791 163.397 46.7336 163.723 46.3394C164.048 45.9451 164.502 45.748 165.08 45.748C165.662 45.748 166.12 45.9451 166.446 46.3394C166.771 46.7336 166.936 47.2791 166.936 47.9804V48.2738C166.936 48.9705 166.776 49.516 166.45 49.9057C166.125 50.2953 165.671 50.4924 165.089 50.4924C164.502 50.4924 164.048 50.2953 163.723 49.9057C163.397 49.5114 163.232 48.966 163.232 48.2692V47.9712ZM164.433 48.2738C164.433 49.0897 164.649 49.4977 165.089 49.4977C165.492 49.4977 165.708 49.1585 165.74 48.4755L165.744 47.9712C165.744 47.5541 165.685 47.247 165.57 47.0453C165.456 46.8436 165.291 46.7427 165.08 46.7427C164.878 46.7427 164.718 46.8436 164.603 47.0453C164.488 47.247 164.433 47.5587 164.433 47.9712V48.2738Z" fill="white"/>
<path d="M171.662 45.8351L171.694 46.2569C171.96 45.9176 172.313 45.748 172.753 45.748C173.212 45.748 173.533 45.9543 173.721 46.3669C173.982 45.9543 174.353 45.748 174.839 45.748C175.641 45.748 176.049 46.3027 176.067 47.4074V50.4053H174.871V47.4853C174.871 47.2195 174.834 47.0315 174.761 46.9169C174.688 46.8069 174.564 46.7473 174.39 46.7473C174.165 46.7473 174 46.8849 173.89 47.1553L173.899 47.2974V50.4007H172.703V47.4899C172.703 47.2287 172.666 47.0407 172.597 46.9215C172.529 46.8023 172.4 46.7473 172.222 46.7473C172.015 46.7473 171.85 46.8573 171.731 47.082V50.4053H170.535V45.8306H171.662V45.8351Z" fill="white"/>
<path d="M177.255 47.9712C177.255 47.2791 177.42 46.7336 177.745 46.3394C178.071 45.9451 178.524 45.748 179.102 45.748C179.684 45.748 180.138 45.9451 180.468 46.3394C180.793 46.7336 180.958 47.2791 180.958 47.9804V48.2738C180.958 48.9705 180.793 49.516 180.473 49.9057C180.147 50.2953 179.693 50.4924 179.111 50.4924C178.524 50.4924 178.071 50.2953 177.745 49.9057C177.42 49.5115 177.255 48.966 177.255 48.2692V47.9712ZM179.097 50.8362C179.304 50.8362 179.469 50.8912 179.597 51.0012C179.725 51.1112 179.79 51.2533 179.79 51.4229C179.79 51.5926 179.725 51.7301 179.597 51.8447C179.469 51.9547 179.304 52.0097 179.097 52.0097C178.896 52.0097 178.731 51.9547 178.602 51.8447C178.474 51.7346 178.41 51.5926 178.41 51.4229C178.41 51.2533 178.474 51.1158 178.602 51.0012C178.726 50.8912 178.896 50.8362 179.097 50.8362ZM178.456 48.2738C178.456 49.0897 178.676 49.4977 179.111 49.4977C179.515 49.4977 179.73 49.1585 179.762 48.4755L179.767 47.9712C179.767 47.5541 179.707 47.247 179.592 47.0453C179.478 46.8436 179.313 46.7428 179.102 46.7428C178.9 46.7428 178.74 46.8436 178.625 47.0453C178.511 47.247 178.456 47.5587 178.456 47.9712V48.2738Z" fill="white"/>
<path d="M182.132 44.6469C182.132 44.459 182.191 44.3077 182.311 44.1885C182.43 44.0694 182.586 44.0098 182.783 44.0098C182.98 44.0098 183.14 44.0694 183.255 44.1885C183.374 44.3077 183.434 44.459 183.434 44.6469C183.434 44.8303 183.374 44.9816 183.259 45.1053C183.14 45.2245 182.984 45.2887 182.783 45.2887C182.581 45.2887 182.425 45.2291 182.306 45.1053C182.191 44.9861 182.132 44.8303 182.132 44.6469ZM183.388 50.4044H182.187V45.8296H183.388V50.4044Z" fill="white"/>
<path d="M188.27 45.8345L188.302 46.2883C188.572 45.9307 188.925 45.752 189.361 45.752C190.149 45.752 190.552 46.302 190.575 47.4022V50.4092H189.374V47.4938C189.374 47.2371 189.333 47.0446 189.255 46.93C189.177 46.8108 189.044 46.7558 188.847 46.7558C188.632 46.7558 188.462 46.8658 188.338 47.0905V50.4138H187.137V45.839H188.27V45.8345Z" fill="white"/>
<path d="M193.037 46.2332C193.298 45.9078 193.615 45.7473 193.99 45.7473C194.408 45.7473 194.724 45.894 194.939 46.1874C195.155 46.4808 195.265 46.9162 195.269 47.4984V50.4046H194.068V47.5076C194.068 47.2417 194.027 47.0446 193.945 46.9254C193.862 46.8062 193.729 46.7466 193.541 46.7466C193.326 46.7466 193.156 46.8475 193.032 47.0446V50.4H191.836V43.9092H193.032V46.2332H193.037Z" fill="white"/>
<path d="M198.735 50.4049C198.703 50.3361 198.666 50.217 198.634 50.0519C198.419 50.3453 198.13 50.492 197.763 50.492C197.378 50.492 197.062 50.3636 196.81 50.1115C196.558 49.8594 196.434 49.5294 196.434 49.126C196.434 48.6447 196.585 48.278 196.892 48.0121C197.199 47.7508 197.639 47.6179 198.212 47.6087H198.575V47.242C198.575 47.0357 198.538 46.889 198.469 46.8065C198.4 46.724 198.295 46.6782 198.162 46.6782C197.864 46.6782 197.713 46.8524 197.713 47.2007H196.516C196.516 46.779 196.677 46.4306 196.993 46.1556C197.309 45.8806 197.713 45.743 198.194 45.743C198.694 45.743 199.083 45.876 199.358 46.1327C199.633 46.394 199.771 46.7652 199.771 47.2511V49.4056C199.776 49.7998 199.831 50.1069 199.941 50.3316V50.4049H198.735ZM198.758 45.2251H197.749L196.581 43.9141H197.919L198.758 45.2251ZM198.029 49.5523C198.162 49.5523 198.272 49.5248 198.368 49.4744C198.46 49.4194 198.529 49.3552 198.575 49.2818V48.333H198.286C198.084 48.333 197.924 48.3971 197.809 48.5255C197.69 48.6538 197.635 48.828 197.635 49.0435C197.63 49.3827 197.763 49.5523 198.029 49.5523Z" fill="white"/>
<path d="M68.1615 19.9074H64.3706V15.5664H77.1139V19.9074H73.268V35.1765H68.1615V19.9074Z" fill="white"/>
<path d="M77.8567 15.5664H82.8027V19.2473H77.8567V15.5664ZM77.8567 20.3199H82.8027V35.1811H77.8567V20.3199Z" fill="white"/>
<path d="M89.367 28.5854V30.5336C89.367 31.8721 89.8162 32.5368 90.7146 32.5368C91.1914 32.5368 91.5443 32.3442 91.7735 31.9592C92.0027 31.5741 92.1173 30.9049 92.1173 29.956H96.5683C96.5316 31.8263 96.0549 33.2106 95.1381 34.1182C94.2213 35.0258 92.7591 35.4796 90.7421 35.4796C88.3814 35.4796 86.7358 34.9066 85.8098 33.7607C84.8839 32.6147 84.4209 30.6161 84.4209 27.7603C84.4209 24.9412 84.9114 22.9334 85.8923 21.7324C86.8733 20.536 88.4868 19.9355 90.7421 19.9355C92.7912 19.9355 94.2993 20.4719 95.2619 21.5445C96.2245 22.6171 96.7012 24.4599 96.7012 27.0773V28.59H89.367V28.5854ZM92.0852 25.2346C92.0852 24.4278 91.9844 23.8502 91.7827 23.4927C91.581 23.1351 91.2234 22.9563 90.71 22.9563C90.215 22.9563 89.8666 23.1351 89.6649 23.4927C89.4632 23.8502 89.3624 24.4324 89.3624 25.2346V25.8947H92.0806V25.2346H92.0852Z" fill="white"/>
<path d="M98.0717 20.3206H102.853V22.1312H102.908C103.55 20.669 104.751 19.9355 106.506 19.9355C107.716 19.9355 108.661 20.2381 109.348 20.8432C110.036 21.4482 110.38 22.4888 110.38 23.974V35.1817H105.434V25.3767C105.434 24.7533 105.342 24.304 105.158 24.029C104.975 23.754 104.663 23.6164 104.223 23.6164C103.783 23.6164 103.472 23.754 103.288 24.029C103.105 24.304 103.013 24.7533 103.013 25.3767V35.1817H98.0671V20.3206H98.0717Z" fill="white"/>
<path d="M112.571 15.5664H118.287L121.583 27.6542H121.638V15.5664H126.414V35.1811H120.813L117.407 23.0657H117.352V35.1811H112.571V15.5664Z" fill="white"/>
<path d="M136.219 19.9536H140.835V34.9339C140.835 38.4131 138.763 40.1504 134.628 40.1504C133.473 40.1504 132.506 40.0449 131.718 39.8341C130.929 39.6232 130.265 39.1969 129.714 38.5552C129.164 37.9134 128.88 37.0516 128.862 35.9744H133.313C133.313 36.7445 133.725 37.1296 134.551 37.1296C135.009 37.1296 135.376 37.0104 135.651 36.772C135.926 36.5336 136.063 36.0386 136.063 35.2868V32.5411H136.008C135.458 34.0262 134.344 34.7642 132.657 34.7642C129.765 34.7642 128.316 32.321 128.316 27.43C128.316 24.7025 128.701 22.7727 129.472 21.6359C130.242 20.4991 131.383 19.9307 132.905 19.9307C134.587 19.9307 135.678 20.7466 136.173 22.3739H136.228V19.9536H136.219ZM133.253 27.352C133.253 28.8327 133.363 29.8274 133.583 30.3316C133.803 30.8358 134.17 31.0879 134.683 31.0879C135.179 31.0879 135.532 30.8404 135.742 30.3453C135.953 29.8503 136.059 28.851 136.059 27.352C136.059 25.8852 135.949 24.8996 135.729 24.3862C135.509 23.8728 135.16 23.6161 134.683 23.6161C134.188 23.6161 133.826 23.8728 133.597 24.3862C133.368 24.895 133.253 25.8852 133.253 27.352Z" fill="white"/>
<path d="M150.118 35.1768C150.026 34.9385 149.925 34.3792 149.815 33.5037H149.76C149.21 34.8238 148.092 35.4793 146.409 35.4793C143.664 35.4793 142.288 34.0538 142.288 31.1934C142.288 29.7999 142.586 28.7501 143.182 28.035C143.778 27.32 144.851 26.7791 146.409 26.4123L148.357 25.9448C148.889 25.8164 149.265 25.6285 149.485 25.381C149.705 25.1334 149.815 24.7805 149.815 24.3221C149.815 23.4053 149.393 22.9469 148.55 22.9469C148.055 22.9469 147.702 23.0844 147.491 23.3594C147.28 23.6345 147.166 24.157 147.147 24.9271H142.861C142.861 23.9187 143.045 23.0661 143.411 22.3601C143.778 21.6542 144.264 21.1362 144.878 20.8108C145.492 20.4807 146.088 20.2515 146.675 20.1232C147.262 19.9948 147.885 19.9307 148.545 19.9307C150.448 19.9307 151.905 20.279 152.914 20.9758C153.922 21.6725 154.427 22.9148 154.427 24.7117V31.9635C154.427 33.522 154.582 34.5901 154.894 35.1768H150.118ZM148.28 32.2385C149.306 32.2385 149.815 31.4226 149.815 29.7953V28.0121H149.76C149.668 28.1405 149.545 28.2322 149.389 28.2872C149.233 28.3422 149.022 28.4018 148.756 28.4659C148.49 28.5301 148.266 28.608 148.082 28.6997C147.404 29.0114 147.065 29.6532 147.065 30.625C147.065 31.12 147.175 31.5142 147.395 31.8076C147.619 32.0918 147.913 32.2385 148.28 32.2385Z" fill="white"/>
<path d="M157.017 36.5795C157.328 36.6528 157.695 36.6895 158.117 36.6895C158.667 36.6895 159.079 36.5566 159.354 36.2907C159.629 36.0248 159.762 35.5619 159.762 35.3418C159.762 35.2135 159.689 34.8743 159.542 34.3242L155.527 19.9536L160.665 19.9307L162.233 30.3408H162.288L163.769 19.9536L168.756 19.9582L164.681 35.5894C164.259 37.2533 163.686 38.6147 162.953 39.229C162.219 39.8432 161.17 40.1504 159.794 40.1504C158.694 40.1504 157.773 40.1137 157.021 40.0404V36.5795H157.017Z" fill="white"/>
<path d="M172.726 29.7402H168.11V35.1814H172.726V29.7402Z" fill="white"/>
<path d="M173.821 19.9629H178.882L180.33 31.0056H180.385L181.807 19.9629L186.954 19.9675L183.241 35.177H177.42L173.821 19.9629Z" fill="white"/>
<path d="M187.692 19.963H192.473V22.1312H192.528C193.17 20.6644 194.371 19.9355 196.127 19.9355C197.337 19.9355 198.281 20.2381 198.969 20.8432C199.656 21.4482 200 22.4934 200 23.974V35.1817H195.054V25.3767C195.054 24.7533 194.962 24.304 194.779 24.0336C194.595 23.7585 194.284 23.621 193.844 23.621C193.404 23.621 193.092 23.7585 192.909 24.0336C192.725 24.3086 192.634 24.7578 192.634 25.3767V35.1817H187.688V19.963H187.692Z" fill="white"/>
<path d="M29.3038 66.0681C28.4374 66.0681 27.626 65.6464 27.1264 64.9359L17.7614 51.56C17.7018 51.4775 17.6468 51.3858 17.5964 51.2941L17.436 51.0008L17.2343 51.2666C16.7346 51.913 15.9508 52.298 15.1348 52.298H2.65281C1.65809 52.298 0.755061 51.748 0.301252 50.8678C-0.157141 49.9877 -0.0883824 48.9334 0.480025 48.1175L11.0368 33.0318L0.480025 17.9598C-0.0883824 17.1485 -0.157141 16.0942 0.301252 15.2095C0.759645 14.3248 1.66268 13.7793 2.65739 13.7793H15.1486C15.96 13.7793 16.7392 14.1597 17.2389 14.8015L17.4451 15.0674L17.6056 14.7694C17.6514 14.6869 17.7018 14.5998 17.7706 14.5035L27.131 1.13222C27.6261 0.421708 28.4374 0 29.3038 0C30.1701 0 30.9861 0.426296 31.4765 1.13681L40.8415 14.5081C40.8965 14.5906 40.9515 14.6777 41.0065 14.7694L41.167 15.0582L41.3732 14.7969C41.8821 14.146 42.643 13.7747 43.4681 13.7747H55.9547C56.9494 13.7747 57.8525 14.3248 58.3109 15.2049C58.7693 16.085 58.7005 17.1393 58.1321 17.9552L47.5707 33.0318L58.1504 48.1129C58.7234 48.9288 58.7922 49.9831 58.3338 50.8632C57.8754 51.7479 56.9769 52.2934 55.9822 52.2934H43.4956C42.6751 52.2934 41.8867 51.9038 41.3824 51.2483L41.1716 50.9687L41.0157 51.2804C40.9744 51.3675 40.9194 51.4546 40.8507 51.5554L31.4857 64.9313C30.9861 65.6418 30.1701 66.0681 29.3038 66.0681Z" fill="white"/>
<path d="M22.5928 28.4021H18.8844C18.5452 28.4021 18.2289 28.2371 18.0318 27.9574L12.8153 20.5086H10.2758L16.95 30.0339C17.1425 30.3136 17.4634 30.4786 17.8026 30.4786H25.5036C25.8428 30.4786 26.1637 30.6436 26.3562 30.9232L39.3196 49.4377C39.5717 49.7953 39.5717 50.272 39.3196 50.6295L29.9546 64.0054C29.5421 64.5968 28.6665 64.5968 28.2494 64.0054L18.8844 50.6295C18.6323 50.272 18.6323 49.7953 18.8844 49.4377L23.8626 42.3326C24.2751 41.7413 25.1507 41.7413 25.5632 42.328L27.4197 44.9684C27.6718 45.3259 27.6718 45.8027 27.4197 46.1648L25.1278 49.4377C24.8756 49.7953 24.8756 50.272 25.1278 50.6295L29.102 56.3044L33.0763 50.6295C33.3284 50.272 33.3284 49.7953 33.0763 49.4377L23.693 36.0389C23.4959 35.7593 23.1796 35.5942 22.8404 35.5942H17.7935C17.4543 35.5942 17.138 35.7593 16.9409 36.0389L10.2621 45.5735L12.8062 45.5643L18.0227 38.12C18.2198 37.845 18.5361 37.6799 18.8753 37.6799H21.754C22.0932 37.6799 22.4095 37.845 22.6066 38.1246L23.0191 38.7159C23.2667 39.0734 23.2667 39.5502 23.0191 39.9077L15.7811 50.2445C15.5886 50.5241 15.2677 50.6891 14.9285 50.6891H2.45106C1.6122 50.6891 1.11714 49.7402 1.59845 49.0527L12.3844 33.6369C12.6365 33.2794 12.6365 32.8026 12.3844 32.4451L1.60303 17.0339C1.12172 16.3463 1.6122 15.3975 2.45564 15.3975H14.9468C15.2861 15.3975 15.6023 15.5625 15.7995 15.8421L23.45 26.7702C23.9268 27.4532 23.4363 28.4021 22.5928 28.4021Z" fill="#ED3938"/>
<path d="M35.6387 37.6703H39.3425C39.6817 37.6703 39.998 37.8353 40.1951 38.1149L45.4116 45.5638H47.9511L41.2769 36.0384C41.0844 35.7588 40.7635 35.5938 40.4243 35.5938H32.7233C32.3841 35.5938 32.0632 35.4288 31.8707 35.1537L18.8844 16.6255C18.6323 16.2679 18.6323 15.7912 18.8844 15.4337L28.2494 2.05775C28.6619 1.46643 29.5374 1.46643 29.95 2.05775L39.315 15.4337C39.5671 15.7912 39.5671 16.2679 39.315 16.6255L34.3414 23.7305C33.9243 24.3219 33.0487 24.3219 32.6362 23.7305L30.7843 21.0856C30.5322 20.7281 30.5322 20.2514 30.7843 19.8938L33.0671 16.63C33.3192 16.2725 33.3192 15.7958 33.0671 15.4382L29.0928 9.75875L25.1185 15.4337C24.8664 15.7912 24.8664 16.2679 25.1185 16.6255L34.5248 30.0335C34.7219 30.3131 35.0382 30.4781 35.3774 30.4781H40.3922C40.7314 30.4781 41.0523 30.3131 41.2448 30.0335L47.9144 20.5081H45.3749L40.1584 27.9569C39.9659 28.2366 39.645 28.4016 39.3058 28.4016H36.4408C36.1016 28.4016 35.7808 28.2366 35.5882 27.9569L35.1665 27.3565C34.9144 26.9989 34.9144 26.5222 35.1665 26.1646L42.4 15.837C42.5971 15.562 42.9134 15.3924 43.2526 15.3924H55.7392C56.578 15.3924 57.0731 16.3413 56.5918 17.0288L45.8012 32.4354C45.5491 32.793 45.5491 33.2697 45.8012 33.6273L56.6147 49.0384C57.1006 49.726 56.6055 50.6749 55.7667 50.6749H43.2801C42.9409 50.6749 42.6246 50.5099 42.4275 50.2302L34.7769 39.3068C34.3047 38.6192 34.7952 37.6703 35.6387 37.6703Z" fill="#ED3938"/>
</svg>
