<svg width="30" height="30" viewBox="0 0 30 30" fill="none" xmlns="http://www.w3.org/2000/svg">
<circle cx="15" cy="15" r="15" fill="#26A05B"/>
<g clip-path="url(#clip0_1869_20215)">
<path d="M21.8964 10.5C21.8964 11.6218 20.9871 12.5313 19.8652 12.5313C18.7433 12.5313 17.834 11.6218 17.834 10.5C17.834 9.37821 18.7433 8.46875 19.8652 8.46875C20.9871 8.46875 21.8964 9.37821 21.8964 10.5Z" fill="white"/>
<path d="M19.8652 13C18.4864 13 17.3652 11.8787 17.3652 10.5C17.3652 9.12129 18.4864 8 19.8652 8C21.244 8 22.3652 9.12129 22.3652 10.5C22.3652 11.8787 21.244 13 19.8652 13ZM19.8652 8.9375C19.0033 8.9375 18.3027 9.63879 18.3027 10.5C18.3027 11.3612 19.0033 12.0625 19.8652 12.0625C20.7271 12.0625 21.4277 11.3612 21.4277 10.5C21.4277 9.63879 20.7271 8.9375 19.8652 8.9375Z" fill="white"/>
<path d="M21.8964 20.5001C21.8964 21.6218 20.9871 22.5313 19.8652 22.5313C18.7433 22.5313 17.834 21.6218 17.834 20.5001C17.834 19.3782 18.7433 18.4688 19.8652 18.4688C20.9871 18.4688 21.8964 19.3782 21.8964 20.5001Z" fill="white"/>
<path d="M19.8652 23C18.4864 23 17.3652 21.8787 17.3652 20.5001C17.3652 19.1213 18.4864 18 19.8652 18C21.244 18 22.3652 19.1213 22.3652 20.5001C22.3652 21.8787 21.244 23 19.8652 23ZM19.8652 18.9375C19.0033 18.9375 18.3027 19.6388 18.3027 20.5001C18.3027 21.3612 19.0033 22.0625 19.8652 22.0625C20.7271 22.0625 21.4277 21.3612 21.4277 20.5001C21.4277 19.6388 20.7271 18.9375 19.8652 18.9375Z" fill="white"/>
<path d="M13.1465 15.5C13.1465 16.6218 12.2371 17.5312 11.1152 17.5312C9.99345 17.5312 9.08398 16.6218 9.08398 15.5C9.08398 14.3781 9.99345 13.4688 11.1152 13.4688C12.2371 13.4688 13.1465 14.3781 13.1465 15.5Z" fill="white"/>
<path d="M11.1152 17.9999C9.73653 17.9999 8.61523 16.8787 8.61523 15.5C8.61523 14.1212 9.73653 13 11.1152 13C12.494 13 13.6153 14.1212 13.6153 15.5C13.6153 16.8787 12.494 17.9999 11.1152 17.9999ZM11.1152 13.9375C10.2533 13.9375 9.55273 14.6387 9.55273 15.5C9.55273 16.3612 10.2533 17.0624 11.1152 17.0624C11.9772 17.0624 12.6778 16.3612 12.6778 15.5C12.6778 14.6387 11.9772 13.9375 11.1152 13.9375Z" fill="white"/>
<path d="M12.5908 15.1996C12.3733 15.1996 12.162 15.0864 12.047 14.884C11.8764 14.5846 11.9814 14.2027 12.2808 14.0314L18.0801 10.7252C18.3795 10.5533 18.7614 10.6584 18.9327 10.9589C19.1033 11.2583 18.9983 11.6402 18.6989 11.8115L12.8995 15.1177C12.802 15.1733 12.6958 15.1996 12.5908 15.1996Z" fill="white"/>
<path d="M18.3895 20.3567C18.2844 20.3567 18.1782 20.3304 18.0807 20.2748L12.2813 16.9686C11.982 16.798 11.877 16.4161 12.0476 16.116C12.2176 15.8161 12.6001 15.7104 12.9001 15.8823L18.6995 19.1885C18.9989 19.3592 19.1038 19.741 18.9332 20.0411C18.8176 20.2436 18.6064 20.3567 18.3895 20.3567Z" fill="white"/>
</g>
<defs>
<clipPath id="clip0_1869_20215">
<rect width="15" height="15" fill="white" transform="translate(8 8)"/>
</clipPath>
</defs>
</svg>
