<svg width="15" height="15" viewBox="0 0 15 15" fill="none" xmlns="http://www.w3.org/2000/svg">
<g clip-path="url(#clip0_194_976)">
<path d="M12.8 3.01C12.6869 3.01 12.5744 2.97 12.4844 2.8875C11.105 1.63 9.335 0.9375 7.5 0.9375C5.665 0.9375 3.895 1.63 2.51562 2.88812C2.32375 3.0625 2.0275 3.04812 1.85312 2.8575C1.67875 2.66625 1.6925 2.36937 1.88375 2.195C3.43687 0.779375 5.43125 0 7.5 0C9.56875 0 11.5631 0.779375 13.1162 2.195C13.3075 2.36937 13.3212 2.66562 13.1469 2.8575C13.0544 2.95875 12.9275 3.01 12.8 3.01Z" fill="#26A05B"/>
<path d="M13.5937 6.07273C13.4431 6.07273 13.2944 6.00024 13.2044 5.86523C11.9031 3.92773 9.77062 2.77086 7.49999 2.77086C5.22937 2.77086 3.09687 3.92773 1.79562 5.86523C1.65124 6.08086 1.35937 6.13773 1.14499 5.99336C0.929995 5.84898 0.872495 5.55773 1.01687 5.34273C2.49249 3.14586 4.91624 1.83398 7.49999 1.83398C10.0837 1.83398 12.5075 3.14586 13.9831 5.34336C14.1275 5.55836 14.0706 5.84961 13.855 5.99398C13.775 6.04711 13.6844 6.07273 13.5937 6.07273Z" fill="#26A05B"/>
<path d="M6.01937 14.9995C5.89874 14.9995 5.77812 14.9532 5.68624 14.8607C5.58374 14.7576 3.18187 12.3057 3.18187 9.94508C3.18187 7.49508 5.11874 5.50195 7.49999 5.50195C9.88125 5.50195 11.8181 7.49508 11.8181 9.94508C11.8181 10.2038 11.6081 10.4138 11.3494 10.4138C11.0906 10.4138 10.8806 10.2038 10.8806 9.94508C10.8806 8.01195 9.36437 6.43945 7.49999 6.43945C5.63562 6.43945 4.11937 8.01195 4.11937 9.94508C4.11937 11.9245 6.32999 14.1782 6.35249 14.2007C6.53499 14.3845 6.53375 14.6813 6.34937 14.8638C6.25812 14.9545 6.13874 14.9995 6.01937 14.9995Z" fill="#26A05B"/>
<path d="M8.98062 15C7.85312 15 5.23937 12.855 4.98625 10.4662C4.89687 9.62185 5.16562 8.7581 5.70437 8.1556C6.17312 7.63185 6.80625 7.34122 7.48687 7.33747H7.5C8.16375 7.33747 8.79125 7.5981 9.26875 8.07247C9.7675 8.5681 10.0419 9.23372 10.0419 9.94622V10.2518C10.0419 11.005 10.6281 11.6175 11.3494 11.6175C12.0706 11.6175 12.6575 11.005 12.6575 10.2518V10.145C12.6575 7.22622 10.5431 4.7981 7.84375 4.6181C6.43687 4.52247 5.08625 5.00872 4.04437 5.98247C2.96312 6.99372 2.34312 8.43872 2.34312 9.94622C2.34312 11.1862 2.76312 12.3943 3.52562 13.3481C3.68687 13.5506 3.65437 13.845 3.45187 14.0068C3.25 14.1687 2.955 14.1362 2.79312 13.9331C1.89875 12.8137 1.40562 11.3975 1.40562 9.9456C1.40562 8.17935 2.13437 6.48497 3.40375 5.29747C4.63687 4.14372 6.23625 3.56935 7.90562 3.68185C11.0956 3.89497 13.595 6.73372 13.595 10.1443V10.2512C13.595 11.5212 12.5875 12.5543 11.3494 12.5543C10.1112 12.5543 9.10437 11.5212 9.10437 10.2512V9.9456C9.10437 9.48435 8.92812 9.0556 8.60812 8.73685C8.30812 8.4381 7.915 8.27435 7.50062 8.27435C7.4975 8.27435 7.495 8.27435 7.49187 8.27435C6.96375 8.27685 6.60812 8.55122 6.40312 8.7806C6.0375 9.18872 5.85625 9.78247 5.91812 10.3675C6.125 12.3162 8.36437 14.0631 8.98062 14.0631C9.23937 14.0631 9.44937 14.2731 9.44937 14.5318C9.44937 14.7906 9.23937 15 8.98062 15Z" fill="#26A05B"/>
<path d="M10.72 14.0828C9.04249 14.0828 6.99437 12.0328 6.99437 9.63965C6.99437 9.3809 7.20437 9.1709 7.46312 9.1709C7.72187 9.1709 7.93187 9.3809 7.93187 9.63965C7.93187 11.4946 9.49124 13.1453 10.72 13.1453C10.9787 13.1453 11.1887 13.3553 11.1887 13.614C11.1887 13.8728 10.9787 14.0828 10.72 14.0828Z" fill="#26A05B"/>
</g>
<defs>
<clipPath id="clip0_194_976">
<rect width="15" height="15" fill="white"/>
</clipPath>
</defs>
</svg>
