<svg width="15" height="15" viewBox="0 0 15 15" fill="none" xmlns="http://www.w3.org/2000/svg">
<path d="M11.6669 6.9147L4.99172 0.239632C4.83733 0.0851213 4.63124 0 4.41148 0C4.19173 0 3.98563 0.0851213 3.83124 0.239632L3.33966 0.731092C3.01979 1.05133 3.01979 1.57182 3.33966 1.89157L8.94498 7.49689L3.33344 13.1084C3.17905 13.2629 3.09381 13.4689 3.09381 13.6885C3.09381 13.9084 3.17905 14.1144 3.33344 14.269L3.82502 14.7604C3.97954 14.9149 4.18551 15 4.40526 15C4.62502 15 4.83111 14.9149 4.9855 14.7604L11.6669 8.0792C11.8217 7.9242 11.9067 7.71725 11.9062 7.49726C11.9067 7.2764 11.8217 7.06958 11.6669 6.9147Z" fill="#828282"/>
</svg>
