<svg width="123" height="124" viewBox="0 0 123 124" fill="none" xmlns="http://www.w3.org/2000/svg">
<path d="M93.2571 117.519C96.1565 113.911 97.8927 103.554 97.8927 103.554C100.35 105.389 102.504 107.601 104.276 110.109C107.507 109.623 110.684 108.825 113.763 107.727C116.927 106.635 119.937 105.135 122.716 103.264C116.549 94.1438 106.109 78.6061 99.6857 73.7213C97.1948 71.8347 89.501 69.9936 89.501 69.9936C87.7534 68.4091 83.9518 69.9936 83.9518 69.9936C63.3894 75.2489 44.5746 68.4433 44.5746 68.4433C44.5746 68.4433 41.9078 67.2064 39.7233 68.4433C37.5964 68.2071 35.45 68.2071 33.3231 68.4433C28.6137 69.0931 23.4731 74.4965 21.3511 76.9531L3.27385 97.9855C3.27385 97.9855 2.67241 106.262 3.97174 107.356C14.1849 116.151 29.2492 96.1616 29.2492 96.1616C29.34 96.2072 29.5783 113.569 37.6353 122.649C37.6353 122.649 43.3547 125.271 65.5682 123.219C87.5888 121.184 93.2571 117.519 93.2571 117.519Z" fill="#26A05B"/>
<path opacity="0.2" d="M16.1878 91.7675C12.7834 92.0696 10.9961 91.2488 10.3152 89.7897C15.2402 84.0898 20.9879 77.3754 21.3454 76.9594L21.9128 76.3096C24.4661 82.0778 26.5881 90.8612 16.1878 91.7675Z" fill="black"/>
<path opacity="0.2" d="M31.3202 109.881C30.1661 105.392 29.4609 100.798 29.2152 96.1675C29.2152 96.1675 31.6891 92.9072 32.3756 89.4873C32.3756 89.4873 35.5871 102.358 31.3202 109.881Z" fill="black"/>
<path opacity="0.2" d="M102.398 107.727C101.057 106.167 99.5433 104.765 97.8871 103.549C97.8871 103.549 98.1594 95.3865 100.429 92.9071C102.228 90.9235 104.174 101.252 102.398 107.727Z" fill="black"/>
<path d="M93.2571 117.519C96.1565 113.911 97.8927 103.555 97.8927 103.555C100.35 105.39 102.504 107.602 104.276 110.109" stroke="#263238" stroke-linecap="round" stroke-linejoin="round"/>
<path d="M122.716 103.269C116.549 94.1497 106.109 78.6119 99.6857 73.7272C97.1948 71.8405 89.501 69.9995 89.501 69.9995C87.7534 68.4149 83.9518 69.9995 83.9518 69.9995C63.3894 75.2547 44.5746 68.4491 44.5746 68.4491C44.5746 68.4491 41.9078 67.2123 39.7233 68.4491C37.5964 68.2129 35.45 68.2129 33.3231 68.4491C28.6137 69.0989 23.4731 74.5024 21.3511 76.959L3.27385 97.9857C3.27385 97.9857 2.67241 106.262 3.97174 107.356C14.1849 116.151 29.2492 96.1617 29.2492 96.1617C29.34 96.2073 29.5783 113.569 37.6353 122.649" stroke="#263238" stroke-linecap="round" stroke-linejoin="round"/>
<path d="M84.7122 64.9785L84.4398 65.0925C84.5359 65.0689 84.6278 65.0305 84.7122 64.9785Z" fill="#263238"/>
<path d="M90.823 49.5885C92.9847 49.9077 93.5067 48.3174 93.5067 48.3174C93.5067 48.3174 90.823 49.5885 88.4513 44.698C87.0952 41.9108 87.7647 36.7924 88.5874 32.9051C90.2499 30.152 92.6613 26.3446 92.9791 21.8303C93.5465 14.0785 89.9208 10.1456 85.7391 11.3027C85.7391 11.3027 85.4327 4.75356 79.5488 2.40523C73.6649 0.0568912 72.7401 1.98344 67.0661 0.558477C61.3922 -0.866483 55.8601 0.393182 53.8288 4.08098C51.7975 7.76877 51.1053 14.4661 47.6612 17.0595C44.2171 19.6529 38.1289 25.8943 40.0467 32.8766C41.9645 39.8589 40.8808 42.2471 38.3445 45.5473C35.8083 48.8475 37.3516 55.3396 42.2028 57.3574C42.2028 57.3574 40.1545 56.263 41.6014 54.422C41.6014 54.422 42.7362 58.7994 46.5207 58.0015C50.3052 57.2035 55.1111 56.9356 57.5622 59.6316C60.0134 62.3276 68.9726 63.0515 70.9925 60.9996C73.0124 58.9476 74.5784 60.8514 78.2381 62.7095C81.8978 64.5677 85.9604 62.9375 85.9604 62.9375C85.9604 62.9375 85.6199 64.5278 84.7462 65.0009C85.4894 64.6874 87.5491 63.7013 88.1505 62.2193C88.752 60.7374 89.0924 59.3067 88.3661 55.8469C90.9081 54.8438 89.7336 53.1623 89.7336 53.1623C92.111 54.5417 93.2401 50.5632 93.2401 50.5632C90.9818 50.5119 90.823 49.5885 90.823 49.5885Z" fill="#263238"/>
<path d="M86.0115 70.7125C86.0115 70.7125 69.9939 77.8715 64.8533 78.1622C59.7127 78.4529 42.1972 69.0994 42.1972 69.0994L55.5423 65.4401C57.358 61.9575 57.4034 57.8708 56.9722 53.0772C56.8303 51.5895 56.6544 50.1874 56.4615 48.9277C56.0076 45.8897 55.5083 43.7979 55.5083 43.7979L74.3628 44.5844C73.9699 45.7884 73.646 47.014 73.3926 48.2551C72.8739 50.8296 72.5759 53.444 72.5018 56.0696C72.2918 62.6244 73.2961 66.3293 73.2961 66.3293L86.0115 70.7125Z" fill="white" stroke="#263238" stroke-linecap="round" stroke-linejoin="round"/>
<path d="M47.0201 71.5615C47.0201 71.5615 57.1197 73.3399 59.6276 73.0492C62.1355 72.7585 64.1157 75.2379 64.1157 75.2379" fill="white"/>
<path d="M47.0201 71.5615C47.0201 71.5615 57.1197 73.3399 59.6276 73.0492C62.1355 72.7585 64.1157 75.2379 64.1157 75.2379" stroke="#263238" stroke-linecap="round" stroke-linejoin="round"/>
<path d="M82.5107 72.2227C82.5107 72.2227 72.2295 73.317 69.7329 73.3968C67.2364 73.4766 66.5045 75.2379 66.5045 75.2379" fill="white"/>
<path d="M82.5107 72.2227C82.5107 72.2227 72.2295 73.317 69.7329 73.3968C67.2364 73.4766 66.5045 75.2379 66.5045 75.2379" stroke="#263238" stroke-linecap="round" stroke-linejoin="round"/>
<path d="M73.3926 48.2266C72.8739 50.801 72.5759 53.4154 72.5018 56.041C70.9543 57.4124 69.1617 58.4761 67.2193 59.1759C64.0476 60.2304 59.8432 56.326 56.9722 53.0771C56.8303 51.5895 56.6544 50.1873 56.4615 48.9276L73.3926 48.2266Z" fill="#263238"/>
<path d="M51.128 27.8206C51.128 27.8206 49.5733 25.4209 48.1832 25.9054C46.7931 26.3899 46.7987 32.8934 46.9122 34.5863C47.0257 36.2791 50.4074 40.0524 51.8202 39.0207" fill="white"/>
<path d="M51.128 27.8206C51.128 27.8206 49.5733 25.4209 48.1832 25.9054C46.7931 26.3899 46.7987 32.8934 46.9122 34.5863C47.0257 36.2791 50.4074 40.0524 51.8202 39.0207" stroke="#263238" stroke-linecap="round" stroke-linejoin="round"/>
<path d="M85.2682 32.8708C85.2682 32.8708 87.447 31.0241 88.6329 31.8905C89.8187 32.7568 87.9463 38.9811 87.3789 40.5713C86.8115 42.1616 82.4596 44.7949 81.4042 43.3927" fill="white"/>
<path d="M85.2682 32.8708C85.2682 32.8708 87.447 31.0241 88.6329 31.8905C89.8187 32.7568 87.9463 38.9811 87.3789 40.5713C86.8115 42.1616 82.4596 44.7949 81.4042 43.3927" stroke="#263238" stroke-linecap="round" stroke-linejoin="round"/>
<path d="M64.1781 57.7673C58.4417 56.918 52.7678 47.1827 52.0982 44.4582C51.3379 41.4088 49.6641 26.3669 52.9266 18.1249C56.5977 8.86268 64.2745 4.95259 71.7585 6.05836C79.2424 7.16413 85.4724 13.1091 86.3292 23.0496C87.0895 31.8843 81.1659 45.8033 79.5602 48.5051C78.1247 50.9332 70.2038 58.6565 64.1781 57.7673Z" fill="white" stroke="#263238" stroke-linecap="round" stroke-linejoin="round"/>
<path d="M77.1317 33.6286C76.9729 34.6945 76.3714 35.4867 75.7927 35.3956C75.2139 35.3044 74.8622 34.381 75.0154 33.3151C75.1686 32.2492 75.77 31.457 76.3544 31.5482C76.9388 31.6394 77.2849 32.5684 77.1317 33.6286Z" fill="#263238"/>
<path d="M58.4701 30.8756C58.3169 31.9358 58.663 32.8706 59.2474 32.9561C59.8318 33.0416 60.4276 32.2493 60.5865 31.1834C60.7454 30.1176 60.3936 29.1885 59.8092 29.103C59.2247 29.0175 58.629 29.8098 58.4701 30.8756Z" fill="#263238"/>
<path d="M71.2478 45.2676C71.2478 45.2676 68.2917 51.1043 64.5072 50.1581C60.7227 49.2119 60.7567 43.8883 60.7567 43.7344L61.29 43.9396C62.7831 44.5014 64.3313 44.9026 65.9087 45.1365C67.4357 45.338 68.9778 45.399 70.5159 45.3189L71.2478 45.2676Z" fill="#757575"/>
<path d="M66.3172 33.1221C66.4704 36.7871 63.3383 37.4083 63.9341 38.6794C64.3621 39.4784 65.0822 40.0793 65.9427 40.3552" fill="white"/>
<path d="M66.3172 33.1221C66.4704 36.7871 63.3383 37.4083 63.9341 38.6794C64.3621 39.4784 65.0822 40.0793 65.9427 40.3552" stroke="#263238" stroke-linecap="round" stroke-linejoin="round"/>
<path d="M60.7567 43.7178C60.7567 43.7178 60.7113 49.1953 64.5072 50.1586C68.303 51.1219 71.2478 45.2738 71.2478 45.2738" stroke="#263238" stroke-linecap="round" stroke-linejoin="round"/>
<path d="M55.0998 26.0422C55.0998 26.0422 58.5041 21.7161 63.7809 23.0897" stroke="#263238" stroke-linecap="round" stroke-linejoin="round"/>
<path d="M81.2454 29.913C81.2454 29.913 79.2198 24.7832 73.7784 24.5723" stroke="#263238" stroke-linecap="round" stroke-linejoin="round"/>
<path d="M97.2062 26.459L96.1508 27.6332L95.3338 28.5451L85.8753 34.0626L86.2668 31.4007L94.0061 26.8751L95.6856 26.6642L97.2062 26.459Z" fill="#26A05B" stroke="#263238" stroke-linecap="round" stroke-linejoin="round"/>
<path d="M94.9366 28.778C93.5408 28.5101 94.0061 26.8743 94.0061 26.8743L97.2062 26.4639L94.9366 28.778Z" fill="white" stroke="#263238" stroke-linecap="round" stroke-linejoin="round"/>
<path d="M97.2062 26.4639L96.1509 27.6038C96.0518 27.5788 95.9595 27.5322 95.8803 27.4673C95.8012 27.4025 95.7372 27.321 95.6928 27.2286C95.6484 27.1362 95.6248 27.0351 95.6235 26.9325C95.6223 26.8299 95.6435 26.7283 95.6856 26.6349L97.2062 26.4639Z" fill="#263238"/>
<path d="M77.3644 13.9699C77.3644 13.9699 73.7614 18.7008 65.9767 20.063C56.2118 21.773 50.8216 30.26 50.9578 33.7996C49.0385 28.8351 48.4629 23.4484 49.2896 18.1878C51.2244 5.16934 63.3156 1.44734 72.1046 2.35362C80.8936 3.25989 85.1547 12.1117 85.1547 12.1117C85.1547 12.1117 91.7592 17.2758 90.8003 23.785C89.8868 30.0149 88.3775 30.1859 87.5831 31.5995C86.4484 33.5488 87.9236 34.3639 84.0653 37.5729C84.0653 37.5729 85.5916 28.875 83.6965 22.3885C81.8014 15.9021 77.3644 13.9699 77.3644 13.9699Z" fill="#263238"/>
<path d="M79.7815 11.7646C79.7815 11.7646 76.3374 24.9712 56.7679 27.0402C56.7679 27.0402 69.9542 24.6463 76.0594 12.5398L79.7815 11.7646Z" fill="#263238"/>
<path d="M64.9271 47.3085C64.9271 47.3085 67.6222 46.3453 68.6549 47.3085C68.6549 47.3085 66.8846 50.1585 64.615 49.4574C62.3454 48.7563 61.8518 46.0375 61.8518 46.0375C61.8518 46.0375 63.0831 45.439 64.9271 47.3085Z" fill="#BFBFBF"/>
<path d="M70.9244 45.3137L70.1244 46.1686C67.103 46.563 64.0324 46.0763 61.2787 44.7665L61.012 43.8203C62.5927 44.4191 64.2294 44.8564 65.8973 45.1256C67.5649 45.3287 69.2464 45.3916 70.9244 45.3137Z" fill="white"/>
<path d="M59.9113 43.3643C59.9113 43.3643 66.0618 46.2142 72.0081 45.154" stroke="#263238" stroke-linecap="round" stroke-linejoin="round"/>
<path d="M79.2595 8.50391C79.2595 8.50391 75.0891 13.9929 64.9271 14.8307C54.765 15.6686 51.8202 19.8979 51.8202 19.8979" stroke="#757575" stroke-linecap="round" stroke-linejoin="round"/>
<path d="M56.3821 8.94336C55.4345 9.12575 54.1125 9.46205 53.687 10.4253" stroke="#757575" stroke-linecap="round" stroke-linejoin="round"/>
<path d="M80.5134 4.24023C74.3855 8.84 66.4704 9.37009 58.4304 8.72031" stroke="#757575" stroke-linecap="round" stroke-linejoin="round"/>
<path d="M41.6922 46.3164C40.5211 47.5396 39.8804 49.1794 39.9106 50.8763" stroke="#757575" stroke-linecap="round" stroke-linejoin="round"/>
<path d="M49.0173 20.6621C46.1803 22.2866 43.9107 25.2733 43.7348 28.6419C43.4738 34.3417 47.5307 39.4716 43.3263 44.4361" stroke="#757575" stroke-linecap="round" stroke-linejoin="round"/>
<path d="M47.8428 39.1973C47.8428 39.1973 50.9861 42.5374 48.9435 45.9345C46.9009 49.3316 45.8455 52.7743 50.0329 55.2822" stroke="#757575" stroke-linecap="round" stroke-linejoin="round"/>
<path d="M70.7713 21.6592C70.1027 22.0811 69.4092 22.4618 68.6946 22.7991" stroke="#757575" stroke-linecap="round" stroke-linejoin="round"/>
<path d="M78.1133 13.2578C76.8934 16.0788 74.9777 18.5407 72.5472 20.4111" stroke="#757575" stroke-linecap="round" stroke-linejoin="round"/>
<path d="M80.5134 13.7256C80.5134 13.7256 84.7632 16.0511 86.3973 19.8985C88.0314 23.7459 85.7277 29.1607 86.8001 31.0303" stroke="#757575" stroke-linecap="round" stroke-linejoin="round"/>
<path d="M87.1236 51.2588C87.7088 51.6287 88.3511 51.8984 89.0243 52.0568" stroke="#757575" stroke-linecap="round" stroke-linejoin="round"/>
<path d="M83.7589 45.9346C84.0183 47.3246 84.6016 48.6333 85.4611 49.7535" stroke="#757575" stroke-linecap="round" stroke-linejoin="round"/>
<path d="M82.0794 49.0186C82.0794 49.0186 81.6879 53.3618 84.4398 56.2346C87.1916 59.1073 86.3916 60.897 86.3916 60.897" stroke="#757575" stroke-linecap="round" stroke-linejoin="round"/>
<path d="M77.5119 53.9492C77.5119 53.9492 79.1573 58.3495 76.5473 59.8143" stroke="#757575" stroke-linecap="round" stroke-linejoin="round"/>
<path d="M83.7589 12.54C83.7589 12.54 89.9662 13.7997 90.8797 16.5299C91.7932 19.2601 90.8797 22.4008 90.8797 22.4008" stroke="#757575" stroke-linecap="round" stroke-linejoin="round"/>
<path d="M3.97176 107.356C-1.288 104.421 -0.272363 93.8644 3.21712 80.6807C4.91931 74.2057 10.8316 57.8814 10.7067 57.3114C10.3795 56.2108 9.93235 55.1499 9.37336 54.148C9.37336 54.148 11.0755 52.4038 11.7905 52.0903C14.8657 50.7737 20.9199 49.115 23.7058 50.2721C24.5682 50.6312 25.8278 52.666 25.6576 53.4982C25.4874 54.3304 22.9909 57.0663 23.2292 59.6882C23.4675 62.3101 21.2036 70.9625 21.266 74.4109C21.266 75.1177 21.3057 76.0069 21.3511 76.9758C21.3511 77.5914 21.3511 88.3755 17.2148 93.8815" fill="#26A05B"/>
<path d="M3.97176 107.356C-1.288 104.421 -0.272363 93.8644 3.21712 80.6807C4.91931 74.2057 10.8316 57.8814 10.7067 57.3114C10.3795 56.2108 9.93235 55.1499 9.37336 54.148C9.37336 54.148 11.0755 52.4038 11.7905 52.0903C14.8657 50.7737 20.9199 49.115 23.7058 50.2721C24.5682 50.6312 25.8278 52.666 25.6576 53.4982C25.4874 54.3304 22.9909 57.0663 23.2292 59.6882C23.4675 62.3101 21.2036 70.9625 21.266 74.4109C21.266 75.1177 21.3057 76.0069 21.3511 76.9758C21.3511 77.5914 21.3511 88.3755 17.2148 93.8816" stroke="#263238" stroke-linecap="round" stroke-linejoin="round"/>
<path d="M21.0674 25.4844C21.1752 26.5331 23.4334 34.0341 24.1257 41.6548C25.5614 41.1385 26.9117 40.4083 28.1315 39.4889C29.5443 38.2463 32.5004 39.2381 32.3756 40.0589C32.2508 40.8796 29.5386 40.7428 27.2407 43.8435C24.9427 46.9443 24.4718 50.387 21.4248 52.0399C18.3779 53.6929 13.6232 54.2799 11.7791 52.0741C9.93509 49.8683 7.89247 38.1893 8.60739 36.9467C9.22208 36.0565 9.99078 35.2843 10.877 34.6668C10.877 34.6668 11.6543 32.3869 12.8345 32.2102C14.0147 32.0335 16.8062 31.9765 16.8062 31.9765C17.4588 31.4911 18.268 31.2675 19.0758 31.3495C19.0758 31.3495 18.1567 22.5717 17.3736 19.6249C16.5906 16.6781 20.1369 16.6724 21.0674 25.4844Z" fill="white" stroke="#263238" stroke-linecap="round" stroke-linejoin="round"/>
<path d="M19.0758 31.3486C21.4816 32.443 22.5483 37.0485 22.5483 37.3791C22.065 39.012 21.4852 40.6146 20.8121 42.1783C20.2447 43.4893 18.9113 42.1783 18.9113 42.1783C18.9113 42.1783 18.5198 43.8883 17.6006 43.1416C16.4545 42.1783 16.4545 39.0491 16.4545 39.0491C16.4545 39.0491 16.3183 41.6425 15.6374 42.9022C14.9565 44.1619 13.6175 43.3183 13.782 39.5849C13.782 39.5849 11.0075 38.9009 10.911 38.2169" stroke="#263238" stroke-linecap="round" stroke-linejoin="round"/>
<path d="M16.4545 39.0493C15.7793 37.2937 13.1579 35.6807 13.1579 35.6807" stroke="#263238" stroke-linecap="round" stroke-linejoin="round"/>
<path d="M18.9113 42.1785C18.9113 42.1785 20.2787 38.1886 19.9099 37.3678C19.5411 36.547 17.2148 34.2842 17.2148 34.2842" stroke="#263238" stroke-linecap="round" stroke-linejoin="round"/>
<path d="M24.1257 41.6543C24.1257 41.6543 21.561 42.2129 20.4262 45.5074" stroke="#263238" stroke-linecap="round" stroke-linejoin="round"/>
<path d="M10.6784 57.2891C10.6784 57.2891 14.8204 60.709 19.2744 57.859" stroke="#263238" stroke-linecap="round" stroke-linejoin="round"/>
<path d="M14.1849 67.4404C13.3876 67.9087 12.5331 68.2708 11.6429 68.5177" stroke="#263238" stroke-linecap="round" stroke-linejoin="round"/>
<path d="M24.1257 56.2119C22.1251 59.9675 19.4289 63.3047 16.1821 66.0441" stroke="#263238" stroke-linecap="round" stroke-linejoin="round"/>
<path d="M39.7177 68.4492C39.7177 68.4492 47.8031 76.0756 52.5351 78.1389" stroke="#263238" stroke-linecap="round" stroke-linejoin="round"/>
<path d="M31.6663 76.6973C32.0262 77.7141 32.2643 78.7703 32.3756 79.8436" stroke="#263238" stroke-linecap="round" stroke-linejoin="round"/>
<path d="M28.8521 70.2393C29.5783 71.6129 30.2422 73.0322 30.8323 74.4742" stroke="#263238" stroke-linecap="round" stroke-linejoin="round"/>
<path d="M61.8461 80.6809C61.8461 80.6809 75.0834 80.8633 83.5717 75.0381" stroke="#263238" stroke-linecap="round" stroke-linejoin="round"/>
<path d="M89.501 70C88.3616 70.7757 87.3195 71.6867 86.3973 72.7131" stroke="#263238" stroke-linecap="round" stroke-linejoin="round"/>
<path d="M96.1395 79.7402C94.7823 81.1552 93.2354 82.3734 91.5436 83.3596" stroke="#263238" stroke-linecap="round" stroke-linejoin="round"/>
<path d="M99.0275 76.207C98.5929 76.8578 98.1252 77.4857 97.6261 78.088" stroke="#263238" stroke-linecap="round" stroke-linejoin="round"/>
<path d="M29.2209 96.1615C29.2209 96.1615 32.4437 91.9664 32.3756 86.9277" stroke="#263238" stroke-linecap="round" stroke-linejoin="round"/>
<path d="M97.8927 103.554C97.8927 103.554 97.1948 95.1015 103.101 88.9229" stroke="#263238" stroke-linecap="round" stroke-linejoin="round"/>
<path d="M104.276 93.5801C104.56 93.8651 99.2374 98.5275 97.9778 100.614" stroke="#263238" stroke-linecap="round" stroke-linejoin="round"/>
<path d="M46.1292 114.481C46.1292 114.481 65.4944 122.21 75.526 122.051" stroke="#263238" stroke-linecap="round" stroke-linejoin="round"/>
<path d="M67.1513 95.8145H64.8533C64.4804 95.8145 64.1781 96.1181 64.1781 96.4927V100.015C64.1781 100.39 64.4804 100.694 64.8533 100.694H67.1513C67.5242 100.694 67.8265 100.39 67.8265 100.015V96.4927C67.8265 96.1181 67.5242 95.8145 67.1513 95.8145Z" fill="#EC1E24"/>
<path d="M67.1512 101.052H64.8817C64.7456 101.053 64.6107 101.027 64.4847 100.975C64.3588 100.923 64.2443 100.847 64.1478 100.75C64.0513 100.654 63.9747 100.539 63.9225 100.413C63.8702 100.287 63.8433 100.151 63.8433 100.015V96.4923C63.8433 96.2156 63.9527 95.9503 64.1474 95.7547C64.3422 95.5591 64.6063 95.4492 64.8817 95.4492H67.1512C67.4266 95.4492 67.6907 95.5591 67.8854 95.7547C68.0802 95.9503 68.1896 96.2156 68.1896 96.4923V100.015C68.1896 100.151 68.1627 100.287 68.1104 100.413C68.0582 100.539 67.9816 100.654 67.8851 100.75C67.7886 100.847 67.6741 100.923 67.5482 100.975C67.4222 101.027 67.2873 101.053 67.1512 101.052ZM64.8817 96.1731C64.7974 96.1731 64.7166 96.2067 64.657 96.2666C64.5974 96.3264 64.5639 96.4076 64.5639 96.4923V100.015C64.5654 100.098 64.5995 100.178 64.659 100.237C64.7184 100.295 64.7984 100.328 64.8817 100.328H67.1512C67.2345 100.328 67.3145 100.295 67.3739 100.237C67.4334 100.178 67.4675 100.098 67.469 100.015V96.4923C67.469 96.4076 67.4355 96.3264 67.3759 96.2666C67.3163 96.2067 67.2355 96.1731 67.1512 96.1731H64.8817Z" fill="#263238"/>
<path d="M73.2961 66.3229C73.2961 66.3229 83.5774 68.449 66.0051 95.2724C66.0051 95.2724 45.5335 69.2184 55.5423 65.4395" stroke="#263238" stroke-linecap="round" stroke-linejoin="round"/>
<path d="M66.3852 95.0045C66.3852 95.3978 66.2093 95.717 65.9937 95.717C65.7781 95.717 65.6022 95.3978 65.6022 95.0045C65.6022 94.6112 65.7781 94.292 65.9937 94.292C66.2093 94.292 66.3852 94.6169 66.3852 95.0045Z" fill="#263238"/>
</svg>
